<svg width="18" height="18" viewBox="0 0 18 18" fill="none" xmlns="http://www.w3.org/2000/svg">
<g id="Layer_1" clip-path="url(#clip0_46_856)">
<path id="Vector" d="M7.76612 5.17529H5.17676V7.76384H7.76612V5.17529Z" fill="#002DD5"/>
<path id="Vector_2" d="M5.17872 2.58862H2.58936V5.17717H5.17872V2.58862Z" fill="#002DD5"/>
<path id="Vector_3" d="M2.58937 0H0V2.58855H2.58937V0Z" fill="#002DD5"/>
<path id="Vector_4" d="M12.8233 5.17529H10.2339V7.76384H12.8233V5.17529Z" fill="#002DD5"/>
<path id="Vector_5" d="M15.4107 2.58862H12.8213V5.17717H15.4107V2.58862Z" fill="#002DD5"/>
<path id="Vector_6" d="M18 0H15.4106V2.58855H18V0Z" fill="#002DD5"/>
<path id="Vector_7" d="M7.76612 10.2383H5.17676V12.8268H7.76612V10.2383Z" fill="#002DD5"/>
<path id="Vector_8" d="M5.17872 12.8247H2.58936V15.4133H5.17872V12.8247Z" fill="#002DD5"/>
<path id="Vector_9" d="M2.58937 15.4133H0V18.0019H2.58937V15.4133Z" fill="#002DD5"/>
<path id="Vector_10" d="M12.8233 10.2383H10.2339V12.8268H12.8233V10.2383Z" fill="#002DD5"/>
<path id="Vector_11" d="M15.4107 12.8247H12.8213V15.4133H15.4107V12.8247Z" fill="#002DD5"/>
<path id="Vector_12" d="M18 15.4133H15.4106V18.0019H18V15.4133Z" fill="#002DD5"/>
<path id="Vector_13" d="M10.2413 7.76367H7.76611V10.2381H10.2413V7.76367Z" fill="#002DD5"/>
</g>
<defs>
<clipPath id="clip0_46_856">
<rect width="18" height="18" fill="white"/>
</clipPath>
</defs>
</svg>
