<svg width="47" height="47" viewBox="0 0 47 47" fill="none" xmlns="http://www.w3.org/2000/svg">
<ellipse cx="23.6224" cy="23.4114" rx="23.2005" ry="23.4114" fill="white"/>
<path d="M23.5 0C10.5204 0 0 10.5204 0 23.5C0 36.4796 10.5204 47 23.5 47C36.4796 47 47 36.4796 47 23.5C47 10.5204 36.4754 0 23.5 0ZM25.896 36.8972C25.4952 38.0235 24.8498 38.9558 23.8037 39.5716H22.9474C21.8844 38.9389 21.2348 37.9813 20.8425 36.8382C19.944 34.206 19.6993 31.4768 19.8596 28.7264C19.9609 26.9969 21.6861 25.5416 23.403 25.5712C25.2211 25.6049 26.8156 27.056 26.8957 28.8952C27.0138 31.6117 26.8198 34.303 25.8918 36.8972H25.896ZM17.8981 27.3471C18.1723 27.6466 18.2904 27.9545 18.2736 28.3552C18.2567 28.7813 18.2989 29.2073 18.3157 29.6376C18.3242 29.7979 18.379 29.9835 18.2356 30.0889C18.0542 30.2197 17.8939 30.0594 17.7547 29.9708C16.6327 29.2579 15.7721 28.2962 15.0972 27.1657C11.2712 20.7708 15.6793 13.3593 22.0953 12.6506C28.292 11.9672 32.9827 16.7761 32.9025 23.6265C32.8477 25.259 31.7214 27.8237 29.2748 29.7515C29.0597 29.9202 28.8108 30.2324 28.5451 30.0847C28.2793 29.9413 28.4312 29.5659 28.4269 29.2917C28.4269 29.2031 28.4649 29.1145 28.4565 29.0259C28.3426 28.0937 28.7433 27.4146 29.3465 26.7059C32.6579 22.8082 30.7217 15.595 24.4238 14.6669C20.349 14.0679 16.3711 17.0756 15.8987 21.1546C15.6245 23.5169 16.2952 25.5965 17.8981 27.3513V27.3471ZM23.3692 24.6685C21.4204 24.66 19.8217 23.0444 19.8217 21.0745C19.8217 19.0539 21.4837 17.4046 23.5042 17.4215C25.3139 17.4341 27.0054 19.1931 27.0096 21.0618C27.0096 22.9812 25.3012 24.6769 23.3692 24.6685ZM38.0446 22.8926C37.8463 28.4944 33.742 34.0457 28.4649 35.7583C27.7815 35.9819 27.8743 35.9777 27.8912 35.2521C27.9208 34.0836 28.5324 33.5395 29.5026 32.9869C33.9318 30.4644 36.1042 26.5287 35.9355 21.4921C35.7203 14.9833 30.2619 9.66406 23.7658 9.5797C18.4803 9.50799 13.4732 12.6801 11.7141 17.818C10.0901 22.5593 11.0181 26.8451 14.3421 30.5951C15.3334 31.7172 16.5272 32.5862 17.877 33.2316C18.3579 33.4636 18.7123 33.7673 18.7123 34.3578C18.7123 34.5519 18.7798 34.7417 18.8008 34.94C18.8304 35.2015 19.0497 35.539 18.8557 35.6992C18.6152 35.8975 18.282 35.6655 18.012 35.5516C12.8742 33.3665 9.95512 29.4562 9.0271 23.9978C9.00179 23.8417 8.96383 23.6856 8.93008 23.5295V20.5346C9.13678 19.3239 9.33926 18.109 9.80327 16.9617C11.904 11.7774 15.6624 8.53357 21.1968 7.63086C25.6007 6.91375 29.5828 8.13283 32.9785 11.0477C36.5935 14.1523 38.2091 18.1386 38.0404 22.8968L38.0446 22.8926Z" fill="#002CCE"/>
</svg>
