<svg width="124" height="124" viewBox="0 0 124 124" fill="none" xmlns="http://www.w3.org/2000/svg">
<path d="M4.56 121.48C4.56 122.76 3.53997 123.8 2.27997 123.8C1.01997 123.8 0 122.76 0 121.48C0 120.2 1.01997 119.16 2.27997 119.16C3.53997 119.16 4.56 120.2 4.56 121.48Z" fill="#002DD5"/>
<path d="M24.1201 121.48C24.1201 122.76 23.1 123.8 21.84 123.8C20.58 123.8 19.5601 122.76 19.5601 121.48C19.5601 120.2 20.58 119.16 21.84 119.16C23.1 119.16 24.1201 120.2 24.1201 121.48Z" fill="#002DD5"/>
<path d="M43.68 121.48C43.68 122.76 42.66 123.8 41.4 123.8C40.14 123.8 39.12 122.76 39.12 121.48C39.12 120.2 40.14 119.16 41.4 119.16C42.66 119.16 43.68 120.2 43.68 121.48Z" fill="#002DD5"/>
<path d="M83.9101 121.48C83.9101 122.76 82.8901 123.8 81.6301 123.8C80.3701 123.8 79.3501 122.76 79.3501 121.48C79.3501 120.2 80.3701 119.16 81.6301 119.16C82.8901 119.16 83.9101 120.2 83.9101 121.48Z" fill="#002DD5"/>
<path d="M103.47 121.48C103.47 122.76 102.45 123.8 101.19 123.8C99.9301 123.8 98.91 122.76 98.91 121.48C98.91 120.2 99.9301 119.16 101.19 119.16C102.45 119.16 103.47 120.2 103.47 121.48Z" fill="#002DD5"/>
<path d="M123.03 121.48C123.03 122.76 122.01 123.8 120.75 123.8C119.49 123.8 118.47 122.76 118.47 121.48C118.47 120.2 119.49 119.16 120.75 119.16C122.01 119.16 123.03 120.2 123.03 121.48Z" fill="#002DD5"/>
<path d="M61.52 118.14L58.6799 123.14H64.35L61.52 118.14Z" fill="#002DD5"/>
<path d="M4.56 2.49969C4.56 3.77969 3.53997 4.81967 2.27997 4.81967C1.01997 4.81967 0 3.77969 0 2.49969C0 1.21969 1.01997 0.179688 2.27997 0.179688C3.53997 0.179688 4.56 1.21969 4.56 2.49969Z" fill="#002DD5"/>
<path d="M24.07 2.49969C24.07 3.77969 23.05 4.81967 21.79 4.81967C20.53 4.81967 19.51 3.77969 19.51 2.49969C19.51 1.21969 20.53 0.179688 21.79 0.179688C23.05 0.179688 24.07 1.21969 24.07 2.49969Z" fill="#002DD5"/>
<path d="M43.58 2.49969C43.58 3.77969 42.56 4.81967 41.3 4.81967C40.04 4.81967 39.02 3.77969 39.02 2.49969C39.02 1.21969 40.04 0.179688 41.3 0.179688C42.56 0.179688 43.58 1.21969 43.58 2.49969Z" fill="#002DD5"/>
<path d="M82.6 2.49969C82.6 3.77969 81.5801 4.81967 80.3201 4.81967C79.0601 4.81967 78.04 3.77969 78.04 2.49969C78.04 1.21969 79.0601 0.179688 80.3201 0.179688C81.5801 0.179688 82.6 1.21969 82.6 2.49969Z" fill="#002DD5"/>
<path d="M102.11 2.49969C102.11 3.77969 101.09 4.81967 99.8301 4.81967C98.5701 4.81967 97.55 3.77969 97.55 2.49969C97.55 1.21969 98.5701 0.179688 99.8301 0.179688C101.09 0.179688 102.11 1.21969 102.11 2.49969Z" fill="#002DD5"/>
<path d="M121.62 2.49969C121.62 3.77969 120.6 4.81967 119.34 4.81967C118.08 4.81967 117.06 3.77969 117.06 2.49969C117.06 1.21969 118.08 0.179688 119.34 0.179688C120.6 0.179688 121.62 1.21969 121.62 2.49969Z" fill="#002DD5"/>
<path d="M4.56 22.3795C4.56 23.6595 3.53997 24.6996 2.27997 24.6996C1.01997 24.6996 0 23.6595 0 22.3795C0 21.0995 1.01997 20.0596 2.27997 20.0596C3.53997 20.0596 4.56 21.0995 4.56 22.3795Z" fill="#002DD5"/>
<path d="M24.07 22.3795C24.07 23.6595 23.05 24.6996 21.79 24.6996C20.53 24.6996 19.51 23.6595 19.51 22.3795C19.51 21.0995 20.53 20.0596 21.79 20.0596C23.05 20.0596 24.07 21.0995 24.07 22.3795Z" fill="#002DD5"/>
<path d="M43.58 22.3795C43.58 23.6595 42.56 24.6996 41.3 24.6996C40.04 24.6996 39.02 23.6595 39.02 22.3795C39.02 21.0995 40.04 20.0596 41.3 20.0596C42.56 20.0596 43.58 21.0995 43.58 22.3795Z" fill="#002DD5"/>
<path d="M82.6 22.3795C82.6 23.6595 81.5801 24.6996 80.3201 24.6996C79.0601 24.6996 78.04 23.6595 78.04 22.3795C78.04 21.0995 79.0601 20.0596 80.3201 20.0596C81.5801 20.0596 82.6 21.0995 82.6 22.3795Z" fill="#002DD5"/>
<path d="M102.11 22.3795C102.11 23.6595 101.09 24.6996 99.8301 24.6996C98.5701 24.6996 97.55 23.6595 97.55 22.3795C97.55 21.0995 98.5701 20.0596 99.8301 20.0596C101.09 20.0596 102.11 21.0995 102.11 22.3795Z" fill="#002DD5"/>
<path d="M121.62 22.3795C121.62 23.6595 120.6 24.6996 119.34 24.6996C118.08 24.6996 117.06 23.6595 117.06 22.3795C117.06 21.0995 118.08 20.0596 119.34 20.0596C120.6 20.0596 121.62 21.0995 121.62 22.3795Z" fill="#002DD5"/>
<path d="M4.56 42.1295C4.56 43.4095 3.53997 44.4496 2.27997 44.4496C1.01997 44.4496 0 43.4095 0 42.1295C0 40.8495 1.01997 39.8096 2.27997 39.8096C3.53997 39.8096 4.56 40.8495 4.56 42.1295Z" fill="#002DD5"/>
<path d="M24.07 42.1295C24.07 43.4095 23.05 44.4496 21.79 44.4496C20.53 44.4496 19.51 43.4095 19.51 42.1295C19.51 40.8495 20.53 39.8096 21.79 39.8096C23.05 39.8096 24.07 40.8495 24.07 42.1295Z" fill="#002DD5"/>
<path d="M43.58 42.1295C43.58 43.4095 42.56 44.4496 41.3 44.4496C40.04 44.4496 39.02 43.4095 39.02 42.1295C39.02 40.8495 40.04 39.8096 41.3 39.8096C42.56 39.8096 43.58 40.8495 43.58 42.1295Z" fill="#002DD5"/>
<path d="M82.6 42.1295C82.6 43.4095 81.5801 44.4496 80.3201 44.4496C79.0601 44.4496 78.04 43.4095 78.04 42.1295C78.04 40.8495 79.0601 39.8096 80.3201 39.8096C81.5801 39.8096 82.6 40.8495 82.6 42.1295Z" fill="#002DD5"/>
<path d="M102.11 42.1295C102.11 43.4095 101.09 44.4496 99.8301 44.4496C98.5701 44.4496 97.55 43.4095 97.55 42.1295C97.55 40.8495 98.5701 39.8096 99.8301 39.8096C101.09 39.8096 102.11 40.8495 102.11 42.1295Z" fill="#002DD5"/>
<path d="M121.62 42.1295C121.62 43.4095 120.6 44.4496 119.34 44.4496C118.08 44.4496 117.06 43.4095 117.06 42.1295C117.06 40.8495 118.08 39.8096 119.34 39.8096C120.6 39.8096 121.62 40.8495 121.62 42.1295Z" fill="#002DD5"/>
<path d="M4.56 62.0099C4.56 63.2899 3.53997 64.33 2.27997 64.33C1.01997 64.33 0 63.2899 0 62.0099C0 60.7299 1.01997 59.6899 2.27997 59.6899C3.53997 59.6899 4.56 60.7299 4.56 62.0099Z" fill="#002DD5"/>
<path d="M24.07 62.0099C24.07 63.2899 23.05 64.33 21.79 64.33C20.53 64.33 19.51 63.2899 19.51 62.0099C19.51 60.7299 20.53 59.6899 21.79 59.6899C23.05 59.6899 24.07 60.7299 24.07 62.0099Z" fill="#002DD5"/>
<path d="M43.58 62.0099C43.58 63.2899 42.56 64.33 41.3 64.33C40.04 64.33 39.02 63.2899 39.02 62.0099C39.02 60.7299 40.04 59.6899 41.3 59.6899C42.56 59.6899 43.58 60.7299 43.58 62.0099Z" fill="#002DD5"/>
<path d="M82.6 62.0099C82.6 63.2899 81.5801 64.33 80.3201 64.33C79.0601 64.33 78.04 63.2899 78.04 62.0099C78.04 60.7299 79.0601 59.6899 80.3201 59.6899C81.5801 59.6899 82.6 60.7299 82.6 62.0099Z" fill="#002DD5"/>
<path d="M102.11 62.0099C102.11 63.2899 101.09 64.33 99.8301 64.33C98.5701 64.33 97.55 63.2899 97.55 62.0099C97.55 60.7299 98.5701 59.6899 99.8301 59.6899C101.09 59.6899 102.11 60.7299 102.11 62.0099Z" fill="#002DD5"/>
<path d="M121.62 62.0099C121.62 63.2899 120.6 64.33 119.34 64.33C118.08 64.33 117.06 63.2899 117.06 62.0099C117.06 60.7299 118.08 59.6899 119.34 59.6899C120.6 59.6899 121.62 60.7299 121.62 62.0099Z" fill="#002DD5"/>
<path d="M4.56 81.8898C4.56 83.1698 3.53997 84.2098 2.27997 84.2098C1.01997 84.2098 0 83.1698 0 81.8898C0 80.6098 1.01997 79.5698 2.27997 79.5698C3.53997 79.5698 4.56 80.6098 4.56 81.8898Z" fill="#002DD5"/>
<path d="M24.07 81.8898C24.07 83.1698 23.05 84.2098 21.79 84.2098C20.53 84.2098 19.51 83.1698 19.51 81.8898C19.51 80.6098 20.53 79.5698 21.79 79.5698C23.05 79.5698 24.07 80.6098 24.07 81.8898Z" fill="#002DD5"/>
<path d="M43.58 81.8898C43.58 83.1698 42.56 84.2098 41.3 84.2098C40.04 84.2098 39.02 83.1698 39.02 81.8898C39.02 80.6098 40.04 79.5698 41.3 79.5698C42.56 79.5698 43.58 80.6098 43.58 81.8898Z" fill="#002DD5"/>
<path d="M82.6 81.8898C82.6 83.1698 81.5801 84.2098 80.3201 84.2098C79.0601 84.2098 78.04 83.1698 78.04 81.8898C78.04 80.6098 79.0601 79.5698 80.3201 79.5698C81.5801 79.5698 82.6 80.6098 82.6 81.8898Z" fill="#002DD5"/>
<path d="M102.11 81.8898C102.11 83.1698 101.09 84.2098 99.8301 84.2098C98.5701 84.2098 97.55 83.1698 97.55 81.8898C97.55 80.6098 98.5701 79.5698 99.8301 79.5698C101.09 79.5698 102.11 80.6098 102.11 81.8898Z" fill="#002DD5"/>
<path d="M121.62 81.8898C121.62 83.1698 120.6 84.2098 119.34 84.2098C118.08 84.2098 117.06 83.1698 117.06 81.8898C117.06 80.6098 118.08 79.5698 119.34 79.5698C120.6 79.5698 121.62 80.6098 121.62 81.8898Z" fill="#002DD5"/>
<path d="M4.56 101.64C4.56 102.92 3.53997 103.96 2.27997 103.96C1.01997 103.96 0 102.92 0 101.64C0 100.36 1.01997 99.3198 2.27997 99.3198C3.53997 99.3198 4.56 100.36 4.56 101.64Z" fill="#002DD5"/>
<path d="M24.07 101.64C24.07 102.92 23.05 103.96 21.79 103.96C20.53 103.96 19.51 102.92 19.51 101.64C19.51 100.36 20.53 99.3198 21.79 99.3198C23.05 99.3198 24.07 100.36 24.07 101.64Z" fill="#002DD5"/>
<path d="M43.58 101.64C43.58 102.92 42.56 103.96 41.3 103.96C40.04 103.96 39.02 102.92 39.02 101.64C39.02 100.36 40.04 99.3198 41.3 99.3198C42.56 99.3198 43.58 100.36 43.58 101.64Z" fill="#002DD5"/>
<path d="M82.6 101.64C82.6 102.92 81.5801 103.96 80.3201 103.96C79.0601 103.96 78.04 102.92 78.04 101.64C78.04 100.36 79.0601 99.3198 80.3201 99.3198C81.5801 99.3198 82.6 100.36 82.6 101.64Z" fill="#002DD5"/>
<path d="M102.11 101.64C102.11 102.92 101.09 103.96 99.8301 103.96C98.5701 103.96 97.55 102.92 97.55 101.64C97.55 100.36 98.5701 99.3198 99.8301 99.3198C101.09 99.3198 102.11 100.36 102.11 101.64Z" fill="#002DD5"/>
<path d="M121.62 101.64C121.62 102.92 120.6 103.96 119.34 103.96C118.08 103.96 117.06 102.92 117.06 101.64C117.06 100.36 118.08 99.3198 119.34 99.3198C120.6 99.3198 121.62 100.36 121.62 101.64Z" fill="#002DD5"/>
<path d="M60.82 99.1396L57.98 104.14H63.65L60.82 99.1396Z" fill="#002DD5"/>
<path d="M60.82 79.3896L57.98 84.3896H63.65L60.82 79.3896Z" fill="#002DD5"/>
<path d="M60.82 59.6396L57.98 64.6396H63.65L60.82 59.6396Z" fill="#002DD5"/>
<path d="M60.82 38.98L57.98 43.97H63.65L60.82 38.98Z" fill="#002DD5"/>
<path d="M60.82 19.8799L57.98 24.8799H63.65L60.82 19.8799Z" fill="#002DD5"/>
<path d="M60.82 0L57.98 5H63.65L60.82 0Z" fill="#002DD5"/>
<path d="M4.56 121.48C4.56 122.76 3.53997 123.8 2.27997 123.8C1.01997 123.8 0 122.76 0 121.48C0 120.2 1.01997 119.16 2.27997 119.16C3.53997 119.16 4.56 120.2 4.56 121.48Z" fill="#002DD5"/>
<path d="M24.1201 121.48C24.1201 122.76 23.1 123.8 21.84 123.8C20.58 123.8 19.5601 122.76 19.5601 121.48C19.5601 120.2 20.58 119.16 21.84 119.16C23.1 119.16 24.1201 120.2 24.1201 121.48Z" fill="#002DD5"/>
<path d="M43.68 121.48C43.68 122.76 42.66 123.8 41.4 123.8C40.14 123.8 39.12 122.76 39.12 121.48C39.12 120.2 40.14 119.16 41.4 119.16C42.66 119.16 43.68 120.2 43.68 121.48Z" fill="#002DD5"/>
<path d="M83.9101 121.48C83.9101 122.76 82.8901 123.8 81.6301 123.8C80.3701 123.8 79.3501 122.76 79.3501 121.48C79.3501 120.2 80.3701 119.16 81.6301 119.16C82.8901 119.16 83.9101 120.2 83.9101 121.48Z" fill="#002DD5"/>
<path d="M103.47 121.48C103.47 122.76 102.45 123.8 101.19 123.8C99.9301 123.8 98.91 122.76 98.91 121.48C98.91 120.2 99.9301 119.16 101.19 119.16C102.45 119.16 103.47 120.2 103.47 121.48Z" fill="#002DD5"/>
<path d="M123.03 121.48C123.03 122.76 122.01 123.8 120.75 123.8C119.49 123.8 118.47 122.76 118.47 121.48C118.47 120.2 119.49 119.16 120.75 119.16C122.01 119.16 123.03 120.2 123.03 121.48Z" fill="#002DD5"/>
<path d="M61.52 118.14L58.6799 123.14H64.35L61.52 118.14Z" fill="#002DD5"/>
<path d="M4.56 2.49969C4.56 3.77969 3.53997 4.81967 2.27997 4.81967C1.01997 4.81967 0 3.77969 0 2.49969C0 1.21969 1.01997 0.179688 2.27997 0.179688C3.53997 0.179688 4.56 1.21969 4.56 2.49969Z" fill="#002DD5"/>
<path d="M24.07 2.49969C24.07 3.77969 23.05 4.81967 21.79 4.81967C20.53 4.81967 19.51 3.77969 19.51 2.49969C19.51 1.21969 20.53 0.179688 21.79 0.179688C23.05 0.179688 24.07 1.21969 24.07 2.49969Z" fill="#002DD5"/>
<path d="M43.58 2.49969C43.58 3.77969 42.56 4.81967 41.3 4.81967C40.04 4.81967 39.02 3.77969 39.02 2.49969C39.02 1.21969 40.04 0.179688 41.3 0.179688C42.56 0.179688 43.58 1.21969 43.58 2.49969Z" fill="#002DD5"/>
<path d="M82.6 2.49969C82.6 3.77969 81.5801 4.81967 80.3201 4.81967C79.0601 4.81967 78.04 3.77969 78.04 2.49969C78.04 1.21969 79.0601 0.179688 80.3201 0.179688C81.5801 0.179688 82.6 1.21969 82.6 2.49969Z" fill="#002DD5"/>
<path d="M102.11 2.49969C102.11 3.77969 101.09 4.81967 99.8301 4.81967C98.5701 4.81967 97.55 3.77969 97.55 2.49969C97.55 1.21969 98.5701 0.179688 99.8301 0.179688C101.09 0.179688 102.11 1.21969 102.11 2.49969Z" fill="#002DD5"/>
<path d="M121.62 2.49969C121.62 3.77969 120.6 4.81967 119.34 4.81967C118.08 4.81967 117.06 3.77969 117.06 2.49969C117.06 1.21969 118.08 0.179688 119.34 0.179688C120.6 0.179688 121.62 1.21969 121.62 2.49969Z" fill="#002DD5"/>
<path d="M4.56 22.3795C4.56 23.6595 3.53997 24.6996 2.27997 24.6996C1.01997 24.6996 0 23.6595 0 22.3795C0 21.0995 1.01997 20.0596 2.27997 20.0596C3.53997 20.0596 4.56 21.0995 4.56 22.3795Z" fill="#002DD5"/>
<path d="M24.07 22.3795C24.07 23.6595 23.05 24.6996 21.79 24.6996C20.53 24.6996 19.51 23.6595 19.51 22.3795C19.51 21.0995 20.53 20.0596 21.79 20.0596C23.05 20.0596 24.07 21.0995 24.07 22.3795Z" fill="#002DD5"/>
<path d="M43.58 22.3795C43.58 23.6595 42.56 24.6996 41.3 24.6996C40.04 24.6996 39.02 23.6595 39.02 22.3795C39.02 21.0995 40.04 20.0596 41.3 20.0596C42.56 20.0596 43.58 21.0995 43.58 22.3795Z" fill="#002DD5"/>
<path d="M82.6 22.3795C82.6 23.6595 81.5801 24.6996 80.3201 24.6996C79.0601 24.6996 78.04 23.6595 78.04 22.3795C78.04 21.0995 79.0601 20.0596 80.3201 20.0596C81.5801 20.0596 82.6 21.0995 82.6 22.3795Z" fill="#002DD5"/>
<path d="M102.11 22.3795C102.11 23.6595 101.09 24.6996 99.8301 24.6996C98.5701 24.6996 97.55 23.6595 97.55 22.3795C97.55 21.0995 98.5701 20.0596 99.8301 20.0596C101.09 20.0596 102.11 21.0995 102.11 22.3795Z" fill="#002DD5"/>
<path d="M121.62 22.3795C121.62 23.6595 120.6 24.6996 119.34 24.6996C118.08 24.6996 117.06 23.6595 117.06 22.3795C117.06 21.0995 118.08 20.0596 119.34 20.0596C120.6 20.0596 121.62 21.0995 121.62 22.3795Z" fill="#002DD5"/>
<path d="M4.56 42.1295C4.56 43.4095 3.53997 44.4496 2.27997 44.4496C1.01997 44.4496 0 43.4095 0 42.1295C0 40.8495 1.01997 39.8096 2.27997 39.8096C3.53997 39.8096 4.56 40.8495 4.56 42.1295Z" fill="#002DD5"/>
<path d="M24.07 42.1295C24.07 43.4095 23.05 44.4496 21.79 44.4496C20.53 44.4496 19.51 43.4095 19.51 42.1295C19.51 40.8495 20.53 39.8096 21.79 39.8096C23.05 39.8096 24.07 40.8495 24.07 42.1295Z" fill="#002DD5"/>
<path d="M43.58 42.1295C43.58 43.4095 42.56 44.4496 41.3 44.4496C40.04 44.4496 39.02 43.4095 39.02 42.1295C39.02 40.8495 40.04 39.8096 41.3 39.8096C42.56 39.8096 43.58 40.8495 43.58 42.1295Z" fill="#002DD5"/>
<path d="M82.6 42.1295C82.6 43.4095 81.5801 44.4496 80.3201 44.4496C79.0601 44.4496 78.04 43.4095 78.04 42.1295C78.04 40.8495 79.0601 39.8096 80.3201 39.8096C81.5801 39.8096 82.6 40.8495 82.6 42.1295Z" fill="#002DD5"/>
<path d="M102.11 42.1295C102.11 43.4095 101.09 44.4496 99.8301 44.4496C98.5701 44.4496 97.55 43.4095 97.55 42.1295C97.55 40.8495 98.5701 39.8096 99.8301 39.8096C101.09 39.8096 102.11 40.8495 102.11 42.1295Z" fill="#002DD5"/>
<path d="M121.62 42.1295C121.62 43.4095 120.6 44.4496 119.34 44.4496C118.08 44.4496 117.06 43.4095 117.06 42.1295C117.06 40.8495 118.08 39.8096 119.34 39.8096C120.6 39.8096 121.62 40.8495 121.62 42.1295Z" fill="#002DD5"/>
<path d="M4.56 62.0099C4.56 63.2899 3.53997 64.33 2.27997 64.33C1.01997 64.33 0 63.2899 0 62.0099C0 60.7299 1.01997 59.6899 2.27997 59.6899C3.53997 59.6899 4.56 60.7299 4.56 62.0099Z" fill="#002DD5"/>
<path d="M24.07 62.0099C24.07 63.2899 23.05 64.33 21.79 64.33C20.53 64.33 19.51 63.2899 19.51 62.0099C19.51 60.7299 20.53 59.6899 21.79 59.6899C23.05 59.6899 24.07 60.7299 24.07 62.0099Z" fill="#002DD5"/>
<path d="M43.58 62.0099C43.58 63.2899 42.56 64.33 41.3 64.33C40.04 64.33 39.02 63.2899 39.02 62.0099C39.02 60.7299 40.04 59.6899 41.3 59.6899C42.56 59.6899 43.58 60.7299 43.58 62.0099Z" fill="#002DD5"/>
<path d="M82.6 62.0099C82.6 63.2899 81.5801 64.33 80.3201 64.33C79.0601 64.33 78.04 63.2899 78.04 62.0099C78.04 60.7299 79.0601 59.6899 80.3201 59.6899C81.5801 59.6899 82.6 60.7299 82.6 62.0099Z" fill="#002DD5"/>
<path d="M102.11 62.0099C102.11 63.2899 101.09 64.33 99.8301 64.33C98.5701 64.33 97.55 63.2899 97.55 62.0099C97.55 60.7299 98.5701 59.6899 99.8301 59.6899C101.09 59.6899 102.11 60.7299 102.11 62.0099Z" fill="#002DD5"/>
<path d="M121.62 62.0099C121.62 63.2899 120.6 64.33 119.34 64.33C118.08 64.33 117.06 63.2899 117.06 62.0099C117.06 60.7299 118.08 59.6899 119.34 59.6899C120.6 59.6899 121.62 60.7299 121.62 62.0099Z" fill="#002DD5"/>
<path d="M4.56 81.8898C4.56 83.1698 3.53997 84.2098 2.27997 84.2098C1.01997 84.2098 0 83.1698 0 81.8898C0 80.6098 1.01997 79.5698 2.27997 79.5698C3.53997 79.5698 4.56 80.6098 4.56 81.8898Z" fill="#002DD5"/>
<path d="M24.07 81.8898C24.07 83.1698 23.05 84.2098 21.79 84.2098C20.53 84.2098 19.51 83.1698 19.51 81.8898C19.51 80.6098 20.53 79.5698 21.79 79.5698C23.05 79.5698 24.07 80.6098 24.07 81.8898Z" fill="#002DD5"/>
<path d="M43.58 81.8898C43.58 83.1698 42.56 84.2098 41.3 84.2098C40.04 84.2098 39.02 83.1698 39.02 81.8898C39.02 80.6098 40.04 79.5698 41.3 79.5698C42.56 79.5698 43.58 80.6098 43.58 81.8898Z" fill="#002DD5"/>
<path d="M82.6 81.8898C82.6 83.1698 81.5801 84.2098 80.3201 84.2098C79.0601 84.2098 78.04 83.1698 78.04 81.8898C78.04 80.6098 79.0601 79.5698 80.3201 79.5698C81.5801 79.5698 82.6 80.6098 82.6 81.8898Z" fill="#002DD5"/>
<path d="M102.11 81.8898C102.11 83.1698 101.09 84.2098 99.8301 84.2098C98.5701 84.2098 97.55 83.1698 97.55 81.8898C97.55 80.6098 98.5701 79.5698 99.8301 79.5698C101.09 79.5698 102.11 80.6098 102.11 81.8898Z" fill="#002DD5"/>
<path d="M121.62 81.8898C121.62 83.1698 120.6 84.2098 119.34 84.2098C118.08 84.2098 117.06 83.1698 117.06 81.8898C117.06 80.6098 118.08 79.5698 119.34 79.5698C120.6 79.5698 121.62 80.6098 121.62 81.8898Z" fill="#002DD5"/>
<path d="M4.56 101.64C4.56 102.92 3.53997 103.96 2.27997 103.96C1.01997 103.96 0 102.92 0 101.64C0 100.36 1.01997 99.3198 2.27997 99.3198C3.53997 99.3198 4.56 100.36 4.56 101.64Z" fill="#002DD5"/>
<path d="M24.07 101.64C24.07 102.92 23.05 103.96 21.79 103.96C20.53 103.96 19.51 102.92 19.51 101.64C19.51 100.36 20.53 99.3198 21.79 99.3198C23.05 99.3198 24.07 100.36 24.07 101.64Z" fill="#002DD5"/>
<path d="M43.58 101.64C43.58 102.92 42.56 103.96 41.3 103.96C40.04 103.96 39.02 102.92 39.02 101.64C39.02 100.36 40.04 99.3198 41.3 99.3198C42.56 99.3198 43.58 100.36 43.58 101.64Z" fill="#002DD5"/>
<path d="M82.6 101.64C82.6 102.92 81.5801 103.96 80.3201 103.96C79.0601 103.96 78.04 102.92 78.04 101.64C78.04 100.36 79.0601 99.3198 80.3201 99.3198C81.5801 99.3198 82.6 100.36 82.6 101.64Z" fill="#002DD5"/>
<path d="M102.11 101.64C102.11 102.92 101.09 103.96 99.8301 103.96C98.5701 103.96 97.55 102.92 97.55 101.64C97.55 100.36 98.5701 99.3198 99.8301 99.3198C101.09 99.3198 102.11 100.36 102.11 101.64Z" fill="#002DD5"/>
<path d="M121.62 101.64C121.62 102.92 120.6 103.96 119.34 103.96C118.08 103.96 117.06 102.92 117.06 101.64C117.06 100.36 118.08 99.3198 119.34 99.3198C120.6 99.3198 121.62 100.36 121.62 101.64Z" fill="#002DD5"/>
<path d="M60.82 99.1396L57.98 104.14H63.65L60.82 99.1396Z" fill="#002DD5"/>
<path d="M60.82 79.3896L57.98 84.3896H63.65L60.82 79.3896Z" fill="#002DD5"/>
<path d="M60.82 59.6396L57.98 64.6396H63.65L60.82 59.6396Z" fill="#002DD5"/>
<path d="M60.82 38.98L57.98 43.97H63.65L60.82 38.98Z" fill="#002DD5"/>
<path d="M60.82 19.8799L57.98 24.8799H63.65L60.82 19.8799Z" fill="#002DD5"/>
<path d="M60.82 0L57.98 5H63.65L60.82 0Z" fill="#002DD5"/>
</svg>
