<svg width="117" height="112" viewBox="0 0 117 112" fill="none" xmlns="http://www.w3.org/2000/svg">
<path d="M94 0H0V94H94V0Z" fill="#E8E8FF"/>
<path d="M116.28 17.76H114.74V111.76H116.28V17.76Z" fill="#002DD5"/>
<path d="M110.04 17.76H108.5V111.76H110.04V17.76Z" fill="#002DD5"/>
<path d="M103.79 17.76H102.25V111.76H103.79V17.76Z" fill="#002DD5"/>
<path d="M97.55 17.76H96.01V111.76H97.55V17.76Z" fill="#002DD5"/>
<path d="M91.3098 17.76H89.7698V111.76H91.3098V17.76Z" fill="#002DD5"/>
<path d="M85.0698 17.76H83.5298V111.76H85.0698V17.76Z" fill="#002DD5"/>
<path d="M78.8298 17.76H77.2898V111.76H78.8298V17.76Z" fill="#002DD5"/>
<path d="M72.5798 17.76H71.0398V111.76H72.5798V17.76Z" fill="#002DD5"/>
<path d="M66.3398 17.76H64.7998V111.76H66.3398V17.76Z" fill="#002DD5"/>
<path d="M60.0998 17.76H58.5598V111.76H60.0998V17.76Z" fill="#002DD5"/>
<path d="M53.8598 17.76H52.3198V111.76H53.8598V17.76Z" fill="#002DD5"/>
<path d="M47.6198 17.76H46.0798V111.76H47.6198V17.76Z" fill="#002DD5"/>
<path d="M41.3698 17.76H39.8298V111.76H41.3698V17.76Z" fill="#002DD5"/>
<path d="M28.8898 17.76H27.3499V111.76H28.8898V17.76Z" fill="#002DD5"/>
<path d="M35.1299 17.76H33.5898V111.76H35.1299V17.76Z" fill="#002DD5"/>
</svg>
