<svg width="38" height="38" viewBox="0 0 38 38" fill="none" xmlns="http://www.w3.org/2000/svg">
<path d="M11.8749 3.95833C11.8749 3.08388 11.166 2.375 10.2916 2.375C9.41713 2.375 8.70825 3.08388 8.70825 3.95833V5.54167C8.70825 6.41612 9.41713 7.125 10.2916 7.125C11.166 7.125 11.8749 6.41612 11.8749 5.54167V3.95833Z" fill="#022CEE"/>
<path d="M29.2917 3.95833C29.2917 3.08388 28.5828 2.375 27.7083 2.375C26.8339 2.375 26.125 3.08388 26.125 3.95833V5.54167C26.125 6.41612 26.8339 7.125 27.7083 7.125C28.5828 7.125 29.2917 6.41612 29.2917 5.54167V3.95833Z" fill="#022CEE"/>
<path d="M3.16675 14.25V32.4583C3.16675 34.2071 4.58462 35.625 6.33342 35.625H31.6668C33.4155 35.625 34.8334 34.2071 34.8334 32.4583V14.25H3.16675ZM12.6667 30.0833C12.6667 30.9581 11.9582 31.6667 11.0834 31.6667H9.50008C8.62529 31.6667 7.91675 30.9581 7.91675 30.0833V28.5C7.91675 27.6252 8.62529 26.9167 9.50008 26.9167H11.0834C11.9582 26.9167 12.6667 27.6252 12.6667 28.5V30.0833ZM12.6667 21.375C12.6667 22.2498 11.9582 22.9583 11.0834 22.9583H9.50008C8.62529 22.9583 7.91675 22.2498 7.91675 21.375V19.7917C7.91675 18.9169 8.62529 18.2083 9.50008 18.2083H11.0834C11.9582 18.2083 12.6667 18.9169 12.6667 19.7917V21.375ZM21.3751 30.0833C21.3751 30.9581 20.6665 31.6667 19.7917 31.6667H18.2084C17.3336 31.6667 16.6251 30.9581 16.6251 30.0833V28.5C16.6251 27.6252 17.3336 26.9167 18.2084 26.9167H19.7917C20.6665 26.9167 21.3751 27.6252 21.3751 28.5V30.0833ZM21.3751 21.375C21.3751 22.2498 20.6665 22.9583 19.7917 22.9583H18.2084C17.3336 22.9583 16.6251 22.2498 16.6251 21.375V19.7917C16.6251 18.9169 17.3336 18.2083 18.2084 18.2083H19.7917C20.6665 18.2083 21.3751 18.9169 21.3751 19.7917V21.375ZM30.0834 30.0833C30.0834 30.9581 29.3749 31.6667 28.5001 31.6667H26.9167C26.042 31.6667 25.3334 30.9581 25.3334 30.0833V28.5C25.3334 27.6252 26.042 26.9167 26.9167 26.9167H28.5001C29.3749 26.9167 30.0834 27.6252 30.0834 28.5V30.0833ZM30.0834 21.375C30.0834 22.2498 29.3749 22.9583 28.5001 22.9583H26.9167C26.042 22.9583 25.3334 22.2498 25.3334 21.375V19.7917C25.3334 18.9169 26.042 18.2083 26.9167 18.2083H28.5001C29.3749 18.2083 30.0834 18.9169 30.0834 19.7917V21.375Z" fill="#022CEE"/>
<path d="M34.8334 12.6667V7.91667C34.8334 6.16788 33.4155 4.75 31.6668 4.75H30.8751V5.54167C30.8751 7.28808 29.4548 8.70833 27.7084 8.70833C25.962 8.70833 24.5417 7.28808 24.5417 5.54167V4.75H13.4584V5.54167C13.4584 7.28808 12.0382 8.70833 10.2917 8.70833C8.54533 8.70833 7.12508 7.28808 7.12508 5.54167V4.75H6.33342C4.58462 4.75 3.16675 6.16788 3.16675 7.91667V12.6667H34.8334Z" fill="#022CEE"/>
</svg>
