<svg width="491" height="611" viewBox="0 0 491 611" fill="none" xmlns="http://www.w3.org/2000/svg">
<path d="M609.188 271.858H470.98L598.255 217.861C591.731 196.117 582.851 175.339 571.918 155.951L451.651 206.989L544.011 114.638C529.936 97.0618 513.989 81.1163 496.411 67.0433L398.675 164.769L450.503 36.602C430.872 26.0321 410.031 17.5158 388.104 11.3551L339.116 132.516V1.87238C328.061 0.664393 316.826 0 305.47 0C294.114 0 282.878 0.664393 271.824 1.87238V140.066L217.822 12.8047C196.076 19.3278 175.297 28.2065 155.906 39.1388L206.949 159.394L114.589 67.0433C97.0108 81.1163 81.0645 97.0618 66.99 114.638L164.725 212.364L36.5455 160.542C25.9746 180.171 17.4571 201.009 11.2958 222.934L132.469 271.918H1.87292C0.664813 282.971 0 294.205 0 305.56C0 316.915 0.664813 328.15 1.87292 339.203H140.08L12.8059 393.2C19.3297 414.944 28.2091 435.721 39.0821 455.109L159.349 404.072L66.99 496.422C81.0645 513.938 97.0108 529.944 114.589 544.017L212.325 446.291L160.497 574.458C180.069 585.028 201.029 593.545 222.896 599.705L271.884 478.544V609.128C282.939 610.336 294.174 611 305.531 611C316.887 611 328.122 610.336 339.176 609.128V470.934L393.179 598.195C414.925 591.672 435.704 582.793 455.094 571.861L404.051 451.606L496.411 543.957C513.989 529.884 529.936 513.938 544.011 496.362L446.275 398.636L574.455 450.458C585.025 430.829 593.543 409.991 599.704 388.066L478.531 339.082H609.128C610.336 328.029 611 316.795 611 305.44C611 294.085 610.336 282.85 609.128 271.797" fill="#EFEFFF" fill-opacity="0.3"/>
</svg>
