<svg width="56" height="56" viewBox="0 0 56 56" fill="none" xmlns="http://www.w3.org/2000/svg">
<path d="M42.0003 4.66663H14.0003C11.525 4.66663 9.151 5.64996 7.40066 7.4003C5.65032 9.15064 4.66699 11.5246 4.66699 14V32.6666C4.66699 35.142 5.65032 37.5159 7.40066 39.2663C9.151 41.0166 11.525 42 14.0003 42V49C13.9976 49.4634 14.133 49.9172 14.3892 50.3034C14.6454 50.6896 15.0108 50.9908 15.4389 51.1685C15.8669 51.3462 16.3382 51.3924 16.7926 51.3013C17.247 51.2101 17.664 50.9857 17.9903 50.6566L26.6237 42H42.0003C44.4757 42 46.8497 41.0166 48.6 39.2663C50.3503 37.5159 51.3337 35.142 51.3337 32.6666V14C51.3337 11.5246 50.3503 9.15064 48.6 7.4003C46.8497 5.64996 44.4757 4.66663 42.0003 4.66663Z" fill="#002CEE"/>
<path d="M17.5 26.8333C19.433 26.8333 21 25.2662 21 23.3333C21 21.4003 19.433 19.8333 17.5 19.8333C15.567 19.8333 14 21.4003 14 23.3333C14 25.2662 15.567 26.8333 17.5 26.8333Z" fill="#EDEBEA"/>
<path d="M28 26.8333C29.933 26.8333 31.5 25.2662 31.5 23.3333C31.5 21.4003 29.933 19.8333 28 19.8333C26.067 19.8333 24.5 21.4003 24.5 23.3333C24.5 25.2662 26.067 26.8333 28 26.8333Z" fill="#EDEBEA"/>
<path d="M38.5 26.8333C40.433 26.8333 42 25.2662 42 23.3333C42 21.4003 40.433 19.8333 38.5 19.8333C36.567 19.8333 35 21.4003 35 23.3333C35 25.2662 36.567 26.8333 38.5 26.8333Z" fill="#EDEBEA"/>
</svg>
