<svg width="192" height="12" viewBox="0 0 192 12" fill="none" xmlns="http://www.w3.org/2000/svg">
<path d="M181.92 6.15847C181.92 3.28219 184.13 0.955811 186.84 0.955811C189.55 0.955811 191.76 3.29277 191.76 6.15847C191.76 9.02417 189.56 11.3611 186.84 11.3611C184.12 11.3611 181.92 9.02417 181.92 6.15847Z" fill="#002DD5"/>
<path d="M158.56 6.1584C158.56 3.51476 160.59 1.36816 163.09 1.36816C165.59 1.36816 167.62 3.51476 167.62 6.1584C167.62 8.80204 165.59 10.9487 163.09 10.9487C160.59 10.9487 158.56 8.80204 158.56 6.1584Z" fill="#002DD5"/>
<path d="M135.98 6.15815C135.98 3.74715 137.83 1.78027 140.12 1.78027C142.41 1.78027 144.26 3.73658 144.26 6.15815C144.26 8.57972 142.41 10.536 140.12 10.536C137.83 10.536 135.98 8.57972 135.98 6.15815Z" fill="#002DD5"/>
<path d="M114.19 6.15848C114.19 3.96955 115.87 2.20361 117.93 2.20361C119.99 2.20361 121.67 3.98013 121.67 6.15848C121.67 8.33684 119.99 10.1134 117.93 10.1134C115.87 10.1134 114.19 8.33684 114.19 6.15848Z" fill="#002DD5"/>
<path d="M93.1899 6.15817C93.1899 4.20188 94.6899 2.61572 96.5399 2.61572C98.3899 2.61572 99.89 4.20188 99.89 6.15817C99.89 8.11446 98.3899 9.70062 96.5399 9.70062C94.6899 9.70062 93.1899 8.11446 93.1899 6.15817Z" fill="#002DD5"/>
<path d="M72.97 6.15832C72.97 4.43467 74.29 3.03882 75.92 3.03882C77.55 3.03882 78.87 4.43467 78.87 6.15832C78.87 7.88197 77.55 9.27783 75.92 9.27783C74.29 9.27783 72.97 7.88197 72.97 6.15832Z" fill="#002DD5"/>
<path d="M53.55 6.15825C53.55 4.66724 54.7 3.45117 56.11 3.45117C57.52 3.45117 58.67 4.66724 58.67 6.15825C58.67 7.64927 57.52 8.86534 56.11 8.86534C54.7 8.86534 53.55 7.64927 53.55 6.15825Z" fill="#002DD5"/>
<path d="M34.9099 6.15843C34.9099 4.88948 35.88 3.86377 37.08 3.86377C38.28 3.86377 39.2499 4.88948 39.2499 6.15843C39.2499 7.42737 38.28 8.45309 37.08 8.45309C35.88 8.45309 34.9099 7.42737 34.9099 6.15843Z" fill="#002DD5"/>
<path d="M17.0601 6.15834C17.0601 5.12203 17.8501 4.28662 18.8301 4.28662C19.8101 4.28662 20.6 5.12203 20.6 6.15834C20.6 7.19464 19.8101 8.03005 18.8301 8.03005C17.8501 8.03005 17.0601 7.19464 17.0601 6.15834Z" fill="#002DD5"/>
<path d="M0 6.15827C0 5.3546 0.620005 4.69897 1.38 4.69897C2.14 4.69897 2.76001 5.3546 2.76001 6.15827C2.76001 6.96193 2.14 7.61756 1.38 7.61756C0.620005 7.61756 0 6.96193 0 6.15827Z" fill="#002DD5"/>
</svg>
