<svg width="57" height="57" viewBox="0 0 57 57" fill="none" xmlns="http://www.w3.org/2000/svg">
<path d="M8.71971 6.72668C8.71817 6.72668 8.71644 6.72668 8.71491 6.72668C8.1758 6.72668 7.66875 6.93684 7.28587 7.31876C6.89877 7.7049 6.68555 8.21905 6.68555 8.76641V39.3517C6.68555 40.4733 7.60158 41.388 8.72777 41.3909C13.4755 41.4022 21.4298 42.3917 26.9172 48.1342V16.1258C26.9172 15.7456 26.8201 15.3884 26.6368 15.0929C22.133 7.83982 13.4782 6.73782 8.71971 6.72668Z" fill="#022CEE"/>
<path d="M50.3154 39.3517V8.76616C50.3154 8.21881 50.1022 7.70466 49.7151 7.31851C49.3322 6.93659 48.8248 6.72644 48.2862 6.72644C48.2845 6.72644 48.2828 6.72644 48.2812 6.72644C43.523 6.73776 34.8682 7.83977 30.3642 15.0928C30.1809 15.3884 30.084 15.7455 30.084 16.1257V48.1339C35.5714 42.3915 43.5257 41.4019 48.2734 41.3906C49.3994 41.3877 50.3154 40.473 50.3154 39.3517Z" fill="#022CEE"/>
<path d="M54.961 13.78H53.4821V39.3516C53.4821 42.2153 51.1489 44.5503 48.2808 44.5574C44.2538 44.567 37.6137 45.3545 32.9111 49.8053C41.0443 47.8139 49.6181 49.1084 54.5044 50.222C55.1145 50.3609 55.745 50.2174 56.2338 49.8278C56.7209 49.4391 57.0003 48.8582 57.0003 48.2346V15.8194C57.0005 14.6949 56.0855 13.78 54.961 13.78Z" fill="#022CEE"/>
<path d="M3.51827 39.3516V13.78H2.03934C0.915074 13.78 0 14.6949 0 15.8194V48.2341C0 48.8578 0.279435 49.4385 0.766528 49.8272C1.25496 50.2166 1.88484 50.3607 2.49592 50.2214C7.3822 49.1077 15.9562 47.8134 24.089 49.8047C19.3866 45.3541 12.7465 44.5669 8.71949 44.5573C5.85164 44.5503 3.51827 42.2153 3.51827 39.3516Z" fill="#022CEE"/>
</svg>
