<svg width="93" height="82" viewBox="0 0 93 82" fill="none" xmlns="http://www.w3.org/2000/svg">
<path d="M26.0032 1.49172C26.0032 2.25546 25.3946 2.87599 24.6428 2.87599C23.8909 2.87599 23.2823 2.25546 23.2823 1.49172C23.2823 0.72797 23.8909 0.107422 24.6428 0.107422C25.3946 0.107422 26.0032 0.72797 26.0032 1.49172Z" fill="#002DD5"/>
<path d="M49.2855 1.49172C49.2855 2.25546 48.6769 2.87599 47.9251 2.87599C47.1733 2.87599 46.5646 2.25546 46.5646 1.49172C46.5646 0.72797 47.1733 0.107422 47.9251 0.107422C48.6769 0.107422 49.2855 0.72797 49.2855 1.49172Z" fill="#002DD5"/>
<path d="M14.362 13.3535C14.362 14.1173 13.7534 14.7378 13.0016 14.7378C12.2498 14.7378 11.6412 14.1173 11.6412 13.3535C11.6412 12.5898 12.2498 11.9692 13.0016 11.9692C13.7534 11.9692 14.362 12.5898 14.362 13.3535Z" fill="#002DD5"/>
<path d="M26.0032 13.3535C26.0032 14.1173 25.3946 14.7378 24.6428 14.7378C23.8909 14.7378 23.2823 14.1173 23.2823 13.3535C23.2823 12.5898 23.8909 11.9692 24.6428 11.9692C25.3946 11.9692 26.0032 12.5898 26.0032 13.3535Z" fill="#002DD5"/>
<path d="M49.2855 13.3535C49.2855 14.1173 48.6769 14.7378 47.9251 14.7378C47.1733 14.7378 46.5646 14.1173 46.5646 13.3535C46.5646 12.5898 47.1733 11.9692 47.9251 11.9692C48.6769 11.9692 49.2855 12.5898 49.2855 13.3535Z" fill="#002DD5"/>
<path d="M60.9267 13.3535C60.9267 14.1173 60.3181 14.7378 59.5663 14.7378C58.8144 14.7378 58.2058 14.1173 58.2058 13.3535C58.2058 12.5898 58.8144 11.9692 59.5663 11.9692C60.3181 11.9692 60.9267 12.5898 60.9267 13.3535Z" fill="#002DD5"/>
<path d="M2.72084 25.1382C2.72084 25.9019 2.11222 26.5225 1.3604 26.5225C0.608591 26.5225 0 25.9019 0 25.1382C0 24.3744 0.608591 23.7539 1.3604 23.7539C2.11222 23.7539 2.72084 24.3744 2.72084 25.1382Z" fill="#002DD5"/>
<path d="M14.362 25.1382C14.362 25.9019 13.7534 26.5225 13.0016 26.5225C12.2498 26.5225 11.6412 25.9019 11.6412 25.1382C11.6412 24.3744 12.2498 23.7539 13.0016 23.7539C13.7534 23.7539 14.362 24.3744 14.362 25.1382Z" fill="#002DD5"/>
<path d="M26.0032 25.1382C26.0032 25.9019 25.3946 26.5225 24.6428 26.5225C23.8909 26.5225 23.2823 25.9019 23.2823 25.1382C23.2823 24.3744 23.8909 23.7539 24.6428 23.7539C25.3946 23.7539 26.0032 24.3744 26.0032 25.1382Z" fill="#002DD5"/>
<path d="M49.2855 25.1382C49.2855 25.9019 48.6769 26.5225 47.9251 26.5225C47.1733 26.5225 46.5646 25.9019 46.5646 25.1382C46.5646 24.3744 47.1733 23.7539 47.9251 23.7539C48.6769 23.7539 49.2855 24.3744 49.2855 25.1382Z" fill="#002DD5"/>
<path d="M60.9267 25.1382C60.9267 25.9019 60.3181 26.5225 59.5663 26.5225C58.8144 26.5225 58.2058 25.9019 58.2058 25.1382C58.2058 24.3744 58.8144 23.7539 59.5663 23.7539C60.3181 23.7539 60.9267 24.3744 60.9267 25.1382Z" fill="#002DD5"/>
<path d="M72.5678 25.1382C72.5678 25.9019 71.9592 26.5225 71.2074 26.5225C70.4556 26.5225 69.847 25.9019 69.847 25.1382C69.847 24.3744 70.4556 23.7539 71.2074 23.7539C71.9592 23.7539 72.5678 24.3744 72.5678 25.1382Z" fill="#002DD5"/>
<path d="M2.72084 37C2.72084 37.7638 2.11222 38.3843 1.3604 38.3843C0.608591 38.3843 0 37.7638 0 37C0 36.2363 0.608591 35.6157 1.3604 35.6157C2.11222 35.6157 2.72084 36.2363 2.72084 37Z" fill="#002DD5"/>
<path d="M14.362 37C14.362 37.7638 13.7534 38.3843 13.0016 38.3843C12.2498 38.3843 11.6412 37.7638 11.6412 37C11.6412 36.2363 12.2498 35.6157 13.0016 35.6157C13.7534 35.6157 14.362 36.2363 14.362 37Z" fill="#002DD5"/>
<path d="M26.0032 37C26.0032 37.7638 25.3946 38.3843 24.6428 38.3843C23.8909 38.3843 23.2823 37.7638 23.2823 37C23.2823 36.2363 23.8909 35.6157 24.6428 35.6157C25.3946 35.6157 26.0032 36.2363 26.0032 37Z" fill="#002DD5"/>
<path d="M49.2855 37C49.2855 37.7638 48.6769 38.3843 47.9251 38.3843C47.1733 38.3843 46.5646 37.7638 46.5646 37C46.5646 36.2363 47.1733 35.6157 47.9251 35.6157C48.6769 35.6157 49.2855 36.2363 49.2855 37Z" fill="#002DD5"/>
<path d="M60.9267 37C60.9267 37.7638 60.3181 38.3843 59.5663 38.3843C58.8144 38.3843 58.2058 37.7638 58.2058 37C58.2058 36.2363 58.8144 35.6157 59.5663 35.6157C60.3181 35.6157 60.9267 36.2363 60.9267 37Z" fill="#002DD5"/>
<path d="M72.5678 37C72.5678 37.7638 71.9592 38.3843 71.2074 38.3843C70.4556 38.3843 69.847 37.7638 69.847 37C69.847 36.2363 70.4556 35.6157 71.2074 35.6157C71.9592 35.6157 72.5678 36.2363 72.5678 37Z" fill="#002DD5"/>
<path d="M2.72084 48.8618C2.72084 49.6256 2.11222 50.2461 1.3604 50.2461C0.608591 50.2461 0 49.6256 0 48.8618C0 48.0981 0.608591 47.4775 1.3604 47.4775C2.11222 47.4775 2.72084 48.0981 2.72084 48.8618Z" fill="#002DD5"/>
<path d="M14.362 48.8618C14.362 49.6256 13.7534 50.2461 13.0016 50.2461C12.2498 50.2461 11.6412 49.6256 11.6412 48.8618C11.6412 48.0981 12.2498 47.4775 13.0016 47.4775C13.7534 47.4775 14.362 48.0981 14.362 48.8618Z" fill="#002DD5"/>
<path d="M26.0032 48.8618C26.0032 49.6256 25.3946 50.2461 24.6428 50.2461C23.8909 50.2461 23.2823 49.6256 23.2823 48.8618C23.2823 48.0981 23.8909 47.4775 24.6428 47.4775C25.3946 47.4775 26.0032 48.0981 26.0032 48.8618Z" fill="#002DD5"/>
<path d="M49.2855 48.8618C49.2855 49.6256 48.6769 50.2461 47.9251 50.2461C47.1733 50.2461 46.5646 49.6256 46.5646 48.8618C46.5646 48.0981 47.1733 47.4775 47.9251 47.4775C48.6769 47.4775 49.2855 48.0981 49.2855 48.8618Z" fill="#002DD5"/>
<path d="M60.9267 48.8618C60.9267 49.6256 60.3181 50.2461 59.5663 50.2461C58.8144 50.2461 58.2058 49.6256 58.2058 48.8618C58.2058 48.0981 58.8144 47.4775 59.5663 47.4775C60.3181 47.4775 60.9267 48.0981 60.9267 48.8618Z" fill="#002DD5"/>
<path d="M72.5678 48.8618C72.5678 49.6256 71.9592 50.2461 71.2074 50.2461C70.4556 50.2461 69.847 49.6256 69.847 48.8618C69.847 48.0981 70.4556 47.4775 71.2074 47.4775C71.9592 47.4775 72.5678 48.0981 72.5678 48.8618Z" fill="#002DD5"/>
<path d="M14.362 60.646C14.362 61.4098 13.7534 62.0303 13.0016 62.0303C12.2498 62.0303 11.6412 61.4098 11.6412 60.646C11.6412 59.8823 12.2498 59.2617 13.0016 59.2617C13.7534 59.2617 14.362 59.8823 14.362 60.646Z" fill="#002DD5"/>
<path d="M26.0032 60.646C26.0032 61.4098 25.3946 62.0303 24.6428 62.0303C23.8909 62.0303 23.2823 61.4098 23.2823 60.646C23.2823 59.8823 23.8909 59.2617 24.6428 59.2617C25.3946 59.2617 26.0032 59.8823 26.0032 60.646Z" fill="#002DD5"/>
<path d="M49.2855 60.646C49.2855 61.4098 48.6769 62.0303 47.9251 62.0303C47.1733 62.0303 46.5646 61.4098 46.5646 60.646C46.5646 59.8823 47.1733 59.2617 47.9251 59.2617C48.6769 59.2617 49.2855 59.8823 49.2855 60.646Z" fill="#002DD5"/>
<path d="M60.9267 60.646C60.9267 61.4098 60.3181 62.0303 59.5663 62.0303C58.8144 62.0303 58.2058 61.4098 58.2058 60.646C58.2058 59.8823 58.8144 59.2617 59.5663 59.2617C60.3181 59.2617 60.9267 59.8823 60.9267 60.646Z" fill="#002DD5"/>
<path d="M26.0032 72.586C26.0032 73.3497 25.3946 73.9702 24.6428 73.9702C23.8909 73.9702 23.2823 73.3497 23.2823 72.586C23.2823 71.8222 23.8909 71.2017 24.6428 71.2017C25.3946 71.2017 26.0032 71.8222 26.0032 72.586Z" fill="#002DD5"/>
<path d="M49.2855 72.586C49.2855 73.3497 48.6769 73.9702 47.9251 73.9702C47.1733 73.9702 46.5646 73.3497 46.5646 72.586C46.5646 71.8222 47.1733 71.2017 47.9251 71.2017C48.6769 71.2017 49.2855 71.8222 49.2855 72.586Z" fill="#002DD5"/>
<path d="M36.2899 70.5928L34.5953 73.5762H37.9785L36.2899 70.5928Z" fill="#002DD5"/>
<path d="M36.2899 59.1548L34.5953 62.1382H37.9785L36.2899 59.1548Z" fill="#002DD5"/>
<path d="M36.2899 47.3701L34.5953 50.3535H37.9785L36.2899 47.3701Z" fill="#002DD5"/>
<path d="M36.2899 35.5859L34.5953 38.5693H37.9785L36.2899 35.5859Z" fill="#002DD5"/>
<path d="M36.2899 23.2583L34.5953 26.2357H37.9785L36.2899 23.2583Z" fill="#002DD5"/>
<path d="M36.2899 11.8618L34.5953 14.8452H37.9785L36.2899 11.8618Z" fill="#002DD5"/>
<path d="M36.2899 0L34.5953 2.98338H37.9785L36.2899 0Z" fill="#002DD5"/>
<path fill-rule="evenodd" clip-rule="evenodd" d="M59.5386 16.6748H59.4743C59.4101 16.6748 59.3394 16.6748 59.2688 16.6877C58.2284 16.8033 57.4514 17.6959 57.4707 18.7363V22.8014C57.445 23.9189 58.3311 24.85 59.455 24.8757C60.5788 24.9014 61.5037 24.0152 61.5293 22.8913V18.7363C61.5486 17.6189 60.656 16.6941 59.5386 16.6748ZM43.7725 28.5555C43.7468 28.5363 43.7275 28.517 43.7082 28.4978L40.8312 25.6335C40.4523 25.2418 39.9257 25.0106 39.3798 25.0106C39.3092 25.0106 39.2385 25.0106 39.1679 25.0234C38.0504 25.139 37.2477 26.1408 37.3633 27.2583C37.4147 27.7271 37.633 28.1638 37.9669 28.4978L40.8312 31.3748C41.6083 32.184 42.8991 32.2161 43.7082 31.4326C44.5238 30.6555 44.5495 29.3711 43.7725 28.5555ZM81.0523 25.6271C80.6605 25.2289 80.1211 25.0106 79.5624 25.0234C79.0357 25.0363 78.5413 25.261 78.1688 25.6335L75.2918 28.4978C74.4826 29.2748 74.4569 30.5656 75.2339 31.3748C76.011 32.1904 77.2954 32.2161 78.111 31.439C78.1303 31.4198 78.1495 31.3941 78.1688 31.3748L81.033 28.4978C81.8293 27.7142 81.8422 26.4298 81.0523 25.6271ZM35.2312 45.1372H31.0697C29.9523 45.1115 29.0211 45.9977 28.9954 47.1216C28.9697 48.2455 29.8624 49.1702 30.9798 49.1959H35.1349C36.2587 49.2216 37.1899 48.3353 37.2156 47.2115C37.2413 46.0941 36.3486 45.1629 35.2312 45.1372ZM88.0201 45.1372H83.8651C82.7476 45.1115 81.8165 45.9977 81.7908 47.1216C81.7651 48.2455 82.6514 49.1702 83.7752 49.1959H87.9303C89.0477 49.2216 89.9788 48.3353 90.0046 47.2115C90.0303 46.0941 89.1376 45.1629 88.0201 45.1372ZM43.766 62.9647C43.3679 62.5537 42.822 62.3289 42.2505 62.3417H42.2247C41.6982 62.361 41.1972 62.5794 40.8312 62.9583L37.9669 65.8353C37.1193 66.5674 37.0165 67.8454 37.7486 68.6996C38.4743 69.5473 39.7587 69.65 40.6129 68.9179C40.6899 68.8537 40.767 68.7766 40.8312 68.6996L43.7082 65.8353C44.5174 65.0583 44.5431 63.7739 43.766 62.9647ZM81.277 66.0794C81.2 65.9894 81.1229 65.9124 81.033 65.8353L78.1688 62.9583C77.7899 62.5665 77.2632 62.3417 76.7174 62.3417C75.5936 62.3354 74.6816 63.2408 74.6752 64.3647C74.6688 64.917 74.8935 65.45 75.2918 65.8353L78.1688 68.6996C78.8944 69.5537 80.1788 69.6629 81.033 68.9436C81.8935 68.2179 82.0027 66.9399 81.277 66.0794Z" fill="#022CEE"/>
<path fill-rule="evenodd" clip-rule="evenodd" d="M66.9386 77.9148C66.9152 79.279 65.7849 80.3547 64.4207 80.3235H54.583C53.2657 80.3625 52.1432 79.3569 52.0496 78.0395C51.9483 76.6831 52.9695 75.4983 54.3258 75.397C54.3336 75.397 54.3336 75.3892 54.3336 75.3892C54.4194 75.3892 54.4974 75.3892 54.583 75.397H64.5298C65.894 75.4281 66.9698 76.5506 66.9386 77.9148Z" fill="#022CEE"/>
<path fill-rule="evenodd" clip-rule="evenodd" d="M59.5 28.8896C49.4303 28.8896 41.2229 37.097 41.2229 47.1667C41.2229 53.4539 44.4982 58.919 49.3467 62.2006V69.3997C49.3467 70.5236 50.2587 71.4291 51.3761 71.4291H67.6238C68.7413 71.4291 69.6532 70.5236 69.6532 69.3997V62.2006C74.5018 58.919 77.777 53.4539 77.777 47.1667C77.777 37.097 69.5696 28.8896 59.5 28.8896ZM59.4935 41.0786C56.1027 41.0786 53.4055 43.7887 53.4055 47.1731C53.4055 48.297 52.5 49.2089 51.3761 49.2089C50.2523 49.2089 49.3403 48.297 49.3403 47.1731C49.3403 41.5924 53.9064 37.0135 59.4935 37.0135C60.6174 37.0135 61.5229 37.919 61.5229 39.0429C61.5229 40.1667 60.6174 41.0786 59.4935 41.0786Z" fill="#022CEE"/>
</svg>
