<svg width="94" height="94" viewBox="0 0 94 94" fill="none" xmlns="http://www.w3.org/2000/svg">
<g clip-path="url(#clip0_13_1763)">
<path d="M0 35.1101C0 51.2701 13.33 64.3701 29.77 64.3701V5.8501C13.33 5.8501 0 18.9501 0 35.1101Z" fill="#002CCE"/>
<path d="M59.54 0C43.1 0 29.77 13.1 29.77 29.26H89.31C89.31 13.1 75.98 0 59.54 0Z" fill="#002CCE"/>
<path d="M93.64 58.52C93.64 42.36 80.31 29.26 63.87 29.26V87.78C80.31 87.78 93.64 74.68 93.64 58.52Z" fill="#002CCE"/>
<path d="M34.1 93.6399C50.54 93.6399 63.87 80.5399 63.87 64.3799H4.33002C4.33002 80.5399 17.66 93.6399 34.1 93.6399Z" fill="#002CCE"/>
</g>
<defs>
<clipPath id="clip0_13_1763">
<rect width="93.64" height="93.64" fill="white"/>
</clipPath>
</defs>
</svg>
