<svg width="47" height="47" viewBox="0 0 47 47" fill="none" xmlns="http://www.w3.org/2000/svg">
<ellipse cx="23.4582" cy="23.6676" rx="23.0392" ry="23.2487" fill="white"/>
<path d="M23.5 0C10.5226 0 0 10.5226 0 23.5C0 36.4774 10.5226 47 23.5 47C36.4774 47 47 36.4774 47 23.5C47 10.5226 36.4774 0 23.5 0ZM21.4851 8.74234C21.4851 8.15169 21.682 7.63226 22.1051 7.20918C22.3983 6.92014 22.7502 6.74002 23.1523 6.65624C23.19 6.64786 23.2277 6.63529 23.2612 6.62692H23.8561C23.9817 6.66462 24.1116 6.69394 24.2331 6.73583C25.0415 7.0123 25.6029 7.79144 25.607 8.64599C25.607 9.44189 25.607 10.2378 25.607 11.0379C25.6029 12.0139 24.8195 12.9061 23.8477 13.0234C22.6455 13.1742 21.7323 12.3783 21.5354 11.3981C21.5019 11.2348 21.4851 11.0714 21.4851 10.908C21.4851 10.1875 21.4851 9.46702 21.4851 8.74652V8.74234ZM9.03975 26.7045C7.87103 26.8763 6.97041 26.139 6.71907 25.1965C6.69813 25.1169 6.68975 25.0332 6.63948 24.9661V22.0632C6.68556 22.0045 6.69394 21.9333 6.7107 21.8621C6.94947 21.0285 7.48984 20.5091 8.33601 20.3373C8.9434 20.2159 9.50891 20.3541 9.99064 20.7479C10.4975 21.1584 10.7614 21.6946 10.7656 22.3522C10.7656 23.1272 10.7614 23.9021 10.7656 24.6771C10.774 25.6364 10.066 26.5454 9.03556 26.7004L9.03975 26.7045ZM18.1926 30.4411C18.1926 30.8307 18.1926 31.2202 18.1926 31.6098C18.1968 32.5523 17.5224 33.4781 16.4374 33.6289C15.1347 33.8132 14.2005 32.8665 14.0874 31.8402C14.0707 31.6978 14.0623 31.5553 14.0623 31.4129C14.0623 30.7217 14.0623 30.0264 14.0623 29.3352C14.0623 28.9791 14.1335 28.6357 14.3094 28.3215C14.699 27.6303 15.2897 27.2575 16.0898 27.2324C16.6636 27.2114 17.1621 27.4167 17.5684 27.8104C17.9538 28.1832 18.1717 28.6482 18.1884 29.1886C18.201 29.6075 18.1884 30.0222 18.1884 30.4411H18.1926ZM17.6271 24.4006C17.2585 24.7902 16.7977 25.008 16.2573 25.0373C15.6332 25.0709 15.1012 24.8656 14.6613 24.4258C14.2592 24.0194 14.0707 23.5168 14.0623 22.9512C14.0539 22.2517 14.0623 21.5563 14.0623 20.8568C14.0623 19.0723 14.0623 17.2836 14.0623 15.4991C14.0623 14.9964 14.2005 14.5315 14.5273 14.1377C14.921 13.6602 15.4321 13.4004 16.0562 13.3753C16.5882 13.3544 17.0532 13.5135 17.4595 13.8529C17.9329 14.2508 18.1842 14.7619 18.1884 15.3776C18.1968 16.6511 18.1884 17.9287 18.1884 19.2021C18.1884 20.4463 18.1842 21.6862 18.1884 22.9303C18.1884 23.5 18.0083 23.9901 17.6229 24.4006H17.6271ZM21.4851 17.5266C21.4851 17.204 21.5186 16.8898 21.6443 16.5924C21.9333 15.9096 22.4444 15.4865 23.1691 15.3399C24.3043 15.1095 25.4018 15.8887 25.5861 17.0365C25.607 17.1663 25.6112 17.3004 25.6112 17.4302C25.6112 19.4577 25.6112 21.4851 25.6112 23.5126C25.6112 25.561 25.6112 27.6135 25.6112 29.6619C25.6112 30.2484 25.4018 30.7427 24.9829 31.1532C24.254 31.8737 23.0685 31.9282 22.2726 31.2831C21.8202 30.9144 21.5647 30.4411 21.5061 29.8588C21.4935 29.7164 21.4851 29.574 21.4851 29.4316C21.4851 25.4646 21.4851 21.4977 21.4851 17.5307V17.5266ZM25.607 38.3666C25.607 39.3426 24.9033 40.1846 23.944 40.3689C23.8561 40.3857 23.7681 40.3898 23.6885 40.4317H23.4246C23.3492 40.394 23.2654 40.3898 23.1858 40.3773C22.3397 40.2139 21.6988 39.5856 21.527 38.7436C21.4977 38.6053 21.4809 38.4587 21.4809 38.3163C21.4767 37.5749 21.4725 36.8334 21.4809 36.092C21.4893 35.4762 21.6988 34.94 22.1637 34.5211C22.5282 34.1944 22.9554 34.0184 23.4497 33.9933C24.0362 33.9682 24.543 34.1567 24.9703 34.5546C25.2845 34.8479 25.4814 35.2123 25.5652 35.6354C25.5903 35.7652 25.607 35.8951 25.607 36.0291C25.607 36.8083 25.607 37.5916 25.607 38.3708V38.3666ZM28.9079 15.4488C28.9121 14.8833 29.109 14.3848 29.5153 13.9785C29.9175 13.5806 30.395 13.3711 30.9647 13.3795C31.8402 13.3879 32.4518 13.811 32.8414 14.5734C32.9712 14.8289 33.0299 15.1095 33.0299 15.4028C33.0299 15.8049 33.0299 16.2029 33.0299 16.605C33.0299 16.9904 33.0299 17.3758 33.0299 17.757C33.0257 18.7791 32.2549 19.6629 31.2412 19.7844C29.9929 19.931 29.0629 19.043 28.9289 18.0209C28.9121 17.8952 28.9037 17.7695 28.9037 17.6439C28.9037 16.915 28.8996 16.1819 28.9037 15.453L28.9079 15.4488ZM32.4602 33.0257C32.0873 33.411 31.6307 33.6289 31.0862 33.6498C30.4578 33.675 29.9217 33.4697 29.4818 33.0173C29.0964 32.6193 28.9121 32.1334 28.9079 31.5847C28.8996 30.7846 28.9079 29.9803 28.9079 29.176C28.9079 27.4795 28.9079 25.7788 28.9079 24.0823C28.9079 23.4832 29.1216 22.9638 29.5572 22.5491C30.3489 21.7909 31.6224 21.7993 32.4057 22.5701C32.8246 22.9806 33.034 23.4791 33.034 24.0613C33.034 25.3138 33.034 26.5663 33.034 27.8188C33.034 29.0713 33.034 30.3154 33.034 31.5595C33.034 32.125 32.8497 32.6193 32.4602 33.0257ZM40.4234 24.9117C40.3731 25.8542 39.4641 26.7087 38.4671 26.7213C37.734 26.7297 37.156 26.449 36.7245 25.8668C36.4606 25.5107 36.3391 25.1002 36.3349 24.6645C36.3266 23.9021 36.3182 23.1356 36.3349 22.3732C36.3601 21.2254 37.156 20.463 38.1027 20.329C39.2504 20.1656 40.2181 20.9447 40.415 21.971C40.4317 22.0548 40.415 22.147 40.4527 22.2307V24.8028C40.4443 24.8405 40.4275 24.8782 40.4275 24.9159L40.4234 24.9117Z" fill="#002CCE"/>
</svg>
