<svg width="294" height="300" viewBox="0 0 294 300" fill="none" xmlns="http://www.w3.org/2000/svg">
<g opacity="0.1">
<path d="M11.0189 6.04032C11.0189 9.13333 8.55405 11.6464 5.50936 11.6464C2.46467 11.6464 0 9.13333 0 6.04032C0 2.9473 2.46467 0.434204 5.50936 0.434204C8.55405 0.434204 11.0189 2.9473 11.0189 6.04032Z" fill="#002DD5"/>
<path d="M58.1633 6.04032C58.1633 9.13333 55.6985 11.6464 52.6538 11.6464C49.6091 11.6464 47.1444 9.13333 47.1444 6.04032C47.1444 2.9473 49.6091 0.434204 52.6538 0.434204C55.6985 0.434204 58.1633 2.9473 58.1633 6.04032Z" fill="#002DD5"/>
<path d="M105.308 6.04032C105.308 9.13333 102.843 11.6464 99.7981 11.6464C96.7534 11.6464 94.2887 9.13333 94.2887 6.04032C94.2887 2.9473 96.7534 0.434204 99.7981 0.434204C102.843 0.434204 105.308 2.9473 105.308 6.04032Z" fill="#002DD5"/>
<path d="M199.596 6.04032C199.596 9.13333 197.132 11.6464 194.087 11.6464C191.042 11.6464 188.577 9.13333 188.577 6.04032C188.577 2.9473 191.042 0.434204 194.087 0.434204C197.132 0.434204 199.596 2.9473 199.596 6.04032Z" fill="#002DD5"/>
<path d="M246.741 6.04032C246.741 9.13333 244.276 11.6464 241.231 11.6464C238.187 11.6464 235.722 9.13333 235.722 6.04032C235.722 2.9473 238.187 0.434204 241.231 0.434204C244.276 0.434204 246.741 2.9473 246.741 6.04032Z" fill="#002DD5"/>
<path d="M293.885 6.04032C293.885 9.13333 291.42 11.6464 288.376 11.6464C285.331 11.6464 282.866 9.13333 282.866 6.04032C282.866 2.9473 285.331 0.434204 288.376 0.434204C291.42 0.434204 293.885 2.9473 293.885 6.04032Z" fill="#002DD5"/>
<path d="M11.0189 54.0795C11.0189 57.1726 8.55405 59.6857 5.50936 59.6857C2.46467 59.6857 0 57.1726 0 54.0795C0 50.9865 2.46467 48.4735 5.50936 48.4735C8.55405 48.4735 11.0189 50.9865 11.0189 54.0795Z" fill="#002DD5"/>
<path d="M58.1633 54.0795C58.1633 57.1726 55.6985 59.6857 52.6538 59.6857C49.6091 59.6857 47.1444 57.1726 47.1444 54.0795C47.1444 50.9865 49.6091 48.4735 52.6538 48.4735C55.6985 48.4735 58.1633 50.9865 58.1633 54.0795Z" fill="#002DD5"/>
<path d="M105.308 54.0795C105.308 57.1726 102.843 59.6857 99.7981 59.6857C96.7534 59.6857 94.2887 57.1726 94.2887 54.0795C94.2887 50.9865 96.7534 48.4735 99.7981 48.4735C102.843 48.4735 105.308 50.9865 105.308 54.0795Z" fill="#002DD5"/>
<path d="M199.596 54.0795C199.596 57.1726 197.132 59.6857 194.087 59.6857C191.042 59.6857 188.577 57.1726 188.577 54.0795C188.577 50.9865 191.042 48.4735 194.087 48.4735C197.132 48.4735 199.596 50.9865 199.596 54.0795Z" fill="#002DD5"/>
<path d="M246.741 54.0795C246.741 57.1726 244.276 59.6857 241.231 59.6857C238.187 59.6857 235.722 57.1726 235.722 54.0795C235.722 50.9865 238.187 48.4735 241.231 48.4735C244.276 48.4735 246.741 50.9865 246.741 54.0795Z" fill="#002DD5"/>
<path d="M293.885 54.0795C293.885 57.1726 291.42 59.6857 288.376 59.6857C285.331 59.6857 282.866 57.1726 282.866 54.0795C282.866 50.9865 285.331 48.4735 288.376 48.4735C291.42 48.4735 293.885 50.9865 293.885 54.0795Z" fill="#002DD5"/>
<path d="M11.0189 101.804C11.0189 104.897 8.55405 107.41 5.50936 107.41C2.46467 107.41 0 104.897 0 101.804C0 98.7108 2.46467 96.1978 5.50936 96.1978C8.55405 96.1978 11.0189 98.7108 11.0189 101.804Z" fill="#002DD5"/>
<path d="M58.1633 101.804C58.1633 104.897 55.6985 107.41 52.6538 107.41C49.6091 107.41 47.1444 104.897 47.1444 101.804C47.1444 98.7108 49.6091 96.1978 52.6538 96.1978C55.6985 96.1978 58.1633 98.7108 58.1633 101.804Z" fill="#002DD5"/>
<path d="M105.308 101.804C105.308 104.897 102.843 107.41 99.7981 107.41C96.7534 107.41 94.2887 104.897 94.2887 101.804C94.2887 98.7108 96.7534 96.1978 99.7981 96.1978C102.843 96.1978 105.308 98.7108 105.308 101.804Z" fill="#002DD5"/>
<path d="M199.596 101.804C199.596 104.897 197.132 107.41 194.087 107.41C191.042 107.41 188.577 104.897 188.577 101.804C188.577 98.7108 191.042 96.1978 194.087 96.1978C197.132 96.1978 199.596 98.7108 199.596 101.804Z" fill="#002DD5"/>
<path d="M246.741 101.804C246.741 104.897 244.276 107.41 241.231 107.41C238.187 107.41 235.722 104.897 235.722 101.804C235.722 98.7108 238.187 96.1978 241.231 96.1978C244.276 96.1978 246.741 98.7108 246.741 101.804Z" fill="#002DD5"/>
<path d="M293.885 101.804C293.885 104.897 291.42 107.41 288.376 107.41C285.331 107.41 282.866 104.897 282.866 101.804C282.866 98.7108 285.331 96.1978 288.376 96.1978C291.42 96.1978 293.885 98.7108 293.885 101.804Z" fill="#002DD5"/>
<path d="M11.0189 149.842C11.0189 152.935 8.55405 155.448 5.50936 155.448C2.46467 155.448 0 152.935 0 149.842C0 146.749 2.46467 144.236 5.50936 144.236C8.55405 144.236 11.0189 146.749 11.0189 149.842Z" fill="#002DD5"/>
<path d="M58.1633 149.842C58.1633 152.935 55.6985 155.448 52.6538 155.448C49.6091 155.448 47.1444 152.935 47.1444 149.842C47.1444 146.749 49.6091 144.236 52.6538 144.236C55.6985 144.236 58.1633 146.749 58.1633 149.842Z" fill="#002DD5"/>
<path d="M105.308 149.842C105.308 152.935 102.843 155.448 99.7981 155.448C96.7534 155.448 94.2887 152.935 94.2887 149.842C94.2887 146.749 96.7534 144.236 99.7981 144.236C102.843 144.236 105.308 146.749 105.308 149.842Z" fill="#002DD5"/>
<path d="M199.596 149.842C199.596 152.935 197.132 155.448 194.087 155.448C191.042 155.448 188.577 152.935 188.577 149.842C188.577 146.749 191.042 144.236 194.087 144.236C197.132 144.236 199.596 146.749 199.596 149.842Z" fill="#002DD5"/>
<path d="M246.741 149.842C246.741 152.935 244.276 155.448 241.231 155.448C238.187 155.448 235.722 152.935 235.722 149.842C235.722 146.749 238.187 144.236 241.231 144.236C244.276 144.236 246.741 146.749 246.741 149.842Z" fill="#002DD5"/>
<path d="M293.885 149.842C293.885 152.935 291.42 155.448 288.376 155.448C285.331 155.448 282.866 152.935 282.866 149.842C282.866 146.749 285.331 144.236 288.376 144.236C291.42 144.236 293.885 146.749 293.885 149.842Z" fill="#002DD5"/>
<path d="M11.0189 197.88C11.0189 200.973 8.55405 203.486 5.50936 203.486C2.46467 203.486 0 200.973 0 197.88C0 194.787 2.46467 192.274 5.50936 192.274C8.55405 192.274 11.0189 194.787 11.0189 197.88Z" fill="#002DD5"/>
<path d="M58.1633 197.88C58.1633 200.973 55.6985 203.486 52.6538 203.486C49.6091 203.486 47.1444 200.973 47.1444 197.88C47.1444 194.787 49.6091 192.274 52.6538 192.274C55.6985 192.274 58.1633 194.787 58.1633 197.88Z" fill="#002DD5"/>
<path d="M105.308 197.88C105.308 200.973 102.843 203.486 99.7981 203.486C96.7534 203.486 94.2887 200.973 94.2887 197.88C94.2887 194.787 96.7534 192.274 99.7981 192.274C102.843 192.274 105.308 194.787 105.308 197.88Z" fill="#002DD5"/>
<path d="M199.596 197.88C199.596 200.973 197.132 203.486 194.087 203.486C191.042 203.486 188.577 200.973 188.577 197.88C188.577 194.787 191.042 192.274 194.087 192.274C197.132 192.274 199.596 194.787 199.596 197.88Z" fill="#002DD5"/>
<path d="M246.741 197.88C246.741 200.973 244.276 203.486 241.231 203.486C238.187 203.486 235.722 200.973 235.722 197.88C235.722 194.787 238.187 192.274 241.231 192.274C244.276 192.274 246.741 194.787 246.741 197.88Z" fill="#002DD5"/>
<path d="M293.885 197.88C293.885 200.973 291.42 203.486 288.376 203.486C285.331 203.486 282.866 200.973 282.866 197.88C282.866 194.787 285.331 192.274 288.376 192.274C291.42 192.274 293.885 194.787 293.885 197.88Z" fill="#002DD5"/>
<path d="M11.0189 245.604C11.0189 248.697 8.55405 251.211 5.50936 251.211C2.46467 251.211 0 248.697 0 245.604C0 242.511 2.46467 239.998 5.50936 239.998C8.55405 239.998 11.0189 242.511 11.0189 245.604Z" fill="#002DD5"/>
<path d="M58.1633 245.604C58.1633 248.697 55.6985 251.211 52.6538 251.211C49.6091 251.211 47.1444 248.697 47.1444 245.604C47.1444 242.511 49.6091 239.998 52.6538 239.998C55.6985 239.998 58.1633 242.511 58.1633 245.604Z" fill="#002DD5"/>
<path d="M105.308 245.604C105.308 248.697 102.843 251.211 99.7981 251.211C96.7534 251.211 94.2887 248.697 94.2887 245.604C94.2887 242.511 96.7534 239.998 99.7981 239.998C102.843 239.998 105.308 242.511 105.308 245.604Z" fill="#002DD5"/>
<path d="M199.596 245.604C199.596 248.697 197.132 251.211 194.087 251.211C191.042 251.211 188.577 248.697 188.577 245.604C188.577 242.511 191.042 239.998 194.087 239.998C197.132 239.998 199.596 242.511 199.596 245.604Z" fill="#002DD5"/>
<path d="M246.741 245.604C246.741 248.697 244.276 251.211 241.231 251.211C238.187 251.211 235.722 248.697 235.722 245.604C235.722 242.511 238.187 239.998 241.231 239.998C244.276 239.998 246.741 242.511 246.741 245.604Z" fill="#002DD5"/>
<path d="M293.885 245.604C293.885 248.697 291.42 251.211 288.376 251.211C285.331 251.211 282.866 248.697 282.866 245.604C282.866 242.511 285.331 239.998 288.376 239.998C291.42 239.998 293.885 242.511 293.885 245.604Z" fill="#002DD5"/>
<path d="M11.0189 293.956C11.0189 297.049 8.55405 299.562 5.50936 299.562C2.46467 299.562 0 297.049 0 293.956C0 290.863 2.46467 288.35 5.50936 288.35C8.55405 288.35 11.0189 290.863 11.0189 293.956Z" fill="#002DD5"/>
<path d="M58.1633 293.956C58.1633 297.049 55.6985 299.562 52.6538 299.562C49.6091 299.562 47.1444 297.049 47.1444 293.956C47.1444 290.863 49.6091 288.35 52.6538 288.35C55.6985 288.35 58.1633 290.863 58.1633 293.956Z" fill="#002DD5"/>
<path d="M105.308 293.956C105.308 297.049 102.843 299.562 99.7981 299.562C96.7534 299.562 94.2887 297.049 94.2887 293.956C94.2887 290.863 96.7534 288.35 99.7981 288.35C102.843 288.35 105.308 290.863 105.308 293.956Z" fill="#002DD5"/>
<path d="M199.596 293.956C199.596 297.049 197.132 299.562 194.087 299.562C191.042 299.562 188.577 297.049 188.577 293.956C188.577 290.863 191.042 288.35 194.087 288.35C197.132 288.35 199.596 290.863 199.596 293.956Z" fill="#002DD5"/>
<path d="M246.741 293.956C246.741 297.049 244.276 299.562 241.231 299.562C238.187 299.562 235.722 297.049 235.722 293.956C235.722 290.863 238.187 288.35 241.231 288.35C244.276 288.35 246.741 290.863 246.741 293.956Z" fill="#002DD5"/>
<path d="M293.885 293.956C293.885 297.049 291.42 299.562 288.376 299.562C285.331 299.562 282.866 297.049 282.866 293.956C282.866 290.863 285.331 288.35 288.376 288.35C291.42 288.35 293.885 290.863 293.885 293.956Z" fill="#002DD5"/>
<path d="M146.967 285.887L140.104 297.969H153.805L146.967 285.887Z" fill="#002DD5"/>
<path d="M146.967 239.564L140.104 251.646H153.805L146.967 239.564Z" fill="#002DD5"/>
<path d="M146.967 191.84L140.104 203.922H153.805L146.967 191.84Z" fill="#002DD5"/>
<path d="M146.967 144.116L140.104 156.198H153.805L146.967 144.116Z" fill="#002DD5"/>
<path d="M146.967 94.192L140.104 106.25H153.805L146.967 94.192Z" fill="#002DD5"/>
<path d="M146.967 48.0381L140.104 60.1202H153.805L146.967 48.0381Z" fill="#002DD5"/>
<path d="M146.967 0L140.104 12.0821H153.805L146.967 0Z" fill="#002DD5"/>
</g>
</svg>
