<svg width="73" height="78" viewBox="0 0 73 78" fill="none" xmlns="http://www.w3.org/2000/svg">
<path d="M22.7915 1.30755C22.7915 1.97697 22.258 2.52085 21.599 2.52085C20.9401 2.52085 20.4067 1.97697 20.4067 1.30755C20.4067 0.638141 20.9401 0.0942383 21.599 0.0942383C22.258 0.0942383 22.7915 0.638141 22.7915 1.30755Z" fill="#002DD5"/>
<path d="M43.1981 1.30755C43.1981 1.97697 42.6647 2.52085 42.0057 2.52085C41.3468 2.52085 40.8133 1.97697 40.8133 1.30755C40.8133 0.638141 41.3468 0.0942383 42.0057 0.0942383C42.6647 0.0942383 43.1981 0.638141 43.1981 1.30755Z" fill="#002DD5"/>
<path d="M12.5881 11.704C12.5881 12.3734 12.0547 12.9173 11.3957 12.9173C10.7368 12.9173 10.2033 12.3734 10.2033 11.704C10.2033 11.0346 10.7368 10.4907 11.3957 10.4907C12.0547 10.4907 12.5881 11.0346 12.5881 11.704Z" fill="#002DD5"/>
<path d="M22.7915 11.704C22.7915 12.3734 22.258 12.9173 21.599 12.9173C20.9401 12.9173 20.4067 12.3734 20.4067 11.704C20.4067 11.0346 20.9401 10.4907 21.599 10.4907C22.258 10.4907 22.7915 11.0346 22.7915 11.704Z" fill="#002DD5"/>
<path d="M43.1981 11.704C43.1981 12.3734 42.6647 12.9173 42.0057 12.9173C41.3468 12.9173 40.8133 12.3734 40.8133 11.704C40.8133 11.0346 41.3468 10.4907 42.0057 10.4907C42.6647 10.4907 43.1981 11.0346 43.1981 11.704Z" fill="#002DD5"/>
<path d="M53.4014 11.704C53.4014 12.3734 52.868 12.9173 52.2091 12.9173C51.5501 12.9173 51.0167 12.3734 51.0167 11.704C51.0167 11.0346 51.5501 10.4907 52.2091 10.4907C52.868 10.4907 53.4014 11.0346 53.4014 11.704Z" fill="#002DD5"/>
<path d="M2.38478 22.0331C2.38478 22.7025 1.85133 23.2464 1.19238 23.2464C0.533422 23.2464 0 22.7025 0 22.0331C0 21.3637 0.533422 20.8198 1.19238 20.8198C1.85133 20.8198 2.38478 21.3637 2.38478 22.0331Z" fill="#002DD5"/>
<path d="M12.5881 22.0331C12.5881 22.7025 12.0547 23.2464 11.3957 23.2464C10.7368 23.2464 10.2033 22.7025 10.2033 22.0331C10.2033 21.3637 10.7368 20.8198 11.3957 20.8198C12.0547 20.8198 12.5881 21.3637 12.5881 22.0331Z" fill="#002DD5"/>
<path d="M22.7915 22.0331C22.7915 22.7025 22.258 23.2464 21.599 23.2464C20.9401 23.2464 20.4067 22.7025 20.4067 22.0331C20.4067 21.3637 20.9401 20.8198 21.599 20.8198C22.258 20.8198 22.7915 21.3637 22.7915 22.0331Z" fill="#002DD5"/>
<path d="M43.1981 22.0331C43.1981 22.7025 42.6647 23.2464 42.0057 23.2464C41.3468 23.2464 40.8133 22.7025 40.8133 22.0331C40.8133 21.3637 41.3468 20.8198 42.0057 20.8198C42.6647 20.8198 43.1981 21.3637 43.1981 22.0331Z" fill="#002DD5"/>
<path d="M53.4014 22.0331C53.4014 22.7025 52.868 23.2464 52.2091 23.2464C51.5501 23.2464 51.0167 22.7025 51.0167 22.0331C51.0167 21.3637 51.5501 20.8198 52.2091 20.8198C52.868 20.8198 53.4014 21.3637 53.4014 22.0331Z" fill="#002DD5"/>
<path d="M63.6048 22.0331C63.6048 22.7025 63.0714 23.2464 62.4124 23.2464C61.7535 23.2464 61.22 22.7025 61.22 22.0331C61.22 21.3637 61.7535 20.8198 62.4124 20.8198C63.0714 20.8198 63.6048 21.3637 63.6048 22.0331Z" fill="#002DD5"/>
<path d="M2.38478 32.4301C2.38478 33.0995 1.85133 33.6434 1.19238 33.6434C0.533422 33.6434 0 33.0995 0 32.4301C0 31.7607 0.533422 31.2168 1.19238 31.2168C1.85133 31.2168 2.38478 31.7607 2.38478 32.4301Z" fill="#002DD5"/>
<path d="M12.5881 32.4301C12.5881 33.0995 12.0547 33.6434 11.3957 33.6434C10.7368 33.6434 10.2033 33.0995 10.2033 32.4301C10.2033 31.7607 10.7368 31.2168 11.3957 31.2168C12.0547 31.2168 12.5881 31.7607 12.5881 32.4301Z" fill="#002DD5"/>
<path d="M22.7915 32.4301C22.7915 33.0995 22.258 33.6434 21.599 33.6434C20.9401 33.6434 20.4067 33.0995 20.4067 32.4301C20.4067 31.7607 20.9401 31.2168 21.599 31.2168C22.258 31.2168 22.7915 31.7607 22.7915 32.4301Z" fill="#002DD5"/>
<path d="M43.1981 32.4301C43.1981 33.0995 42.6647 33.6434 42.0057 33.6434C41.3468 33.6434 40.8133 33.0995 40.8133 32.4301C40.8133 31.7607 41.3468 31.2168 42.0057 31.2168C42.6647 31.2168 43.1981 31.7607 43.1981 32.4301Z" fill="#002DD5"/>
<path d="M53.4014 32.4301C53.4014 33.0995 52.868 33.6434 52.2091 33.6434C51.5501 33.6434 51.0167 33.0995 51.0167 32.4301C51.0167 31.7607 51.5501 31.2168 52.2091 31.2168C52.868 31.2168 53.4014 31.7607 53.4014 32.4301Z" fill="#002DD5"/>
<path d="M63.6048 32.4301C63.6048 33.0995 63.0714 33.6434 62.4124 33.6434C61.7535 33.6434 61.22 33.0995 61.22 32.4301C61.22 31.7607 61.7535 31.2168 62.4124 31.2168C63.0714 31.2168 63.6048 31.7607 63.6048 32.4301Z" fill="#002DD5"/>
<path d="M2.38478 42.8266C2.38478 43.496 1.85133 44.0399 1.19238 44.0399C0.533422 44.0399 0 43.496 0 42.8266C0 42.1572 0.533422 41.6133 1.19238 41.6133C1.85133 41.6133 2.38478 42.1572 2.38478 42.8266Z" fill="#002DD5"/>
<path d="M12.5881 42.8266C12.5881 43.496 12.0547 44.0399 11.3957 44.0399C10.7368 44.0399 10.2033 43.496 10.2033 42.8266C10.2033 42.1572 10.7368 41.6133 11.3957 41.6133C12.0547 41.6133 12.5881 42.1572 12.5881 42.8266Z" fill="#002DD5"/>
<path d="M22.7915 42.8266C22.7915 43.496 22.258 44.0399 21.599 44.0399C20.9401 44.0399 20.4067 43.496 20.4067 42.8266C20.4067 42.1572 20.9401 41.6133 21.599 41.6133C22.258 41.6133 22.7915 42.1572 22.7915 42.8266Z" fill="#002DD5"/>
<path d="M43.1981 42.8266C43.1981 43.496 42.6647 44.0399 42.0057 44.0399C41.3468 44.0399 40.8133 43.496 40.8133 42.8266C40.8133 42.1572 41.3468 41.6133 42.0057 41.6133C42.6647 41.6133 43.1981 42.1572 43.1981 42.8266Z" fill="#002DD5"/>
<path d="M53.4014 42.8266C53.4014 43.496 52.868 44.0399 52.2091 44.0399C51.5501 44.0399 51.0167 43.496 51.0167 42.8266C51.0167 42.1572 51.5501 41.6133 52.2091 41.6133C52.868 41.6133 53.4014 42.1572 53.4014 42.8266Z" fill="#002DD5"/>
<path d="M63.6048 42.8266C63.6048 43.496 63.0714 44.0399 62.4124 44.0399C61.7535 44.0399 61.22 43.496 61.22 42.8266C61.22 42.1572 61.7535 41.6133 62.4124 41.6133C63.0714 41.6133 63.6048 42.1572 63.6048 42.8266Z" fill="#002DD5"/>
<path d="M12.5881 53.1557C12.5881 53.8251 12.0547 54.369 11.3957 54.369C10.7368 54.369 10.2033 53.8251 10.2033 53.1557C10.2033 52.4863 10.7368 51.9424 11.3957 51.9424C12.0547 51.9424 12.5881 52.4863 12.5881 53.1557Z" fill="#002DD5"/>
<path d="M22.7915 53.1557C22.7915 53.8251 22.258 54.369 21.599 54.369C20.9401 54.369 20.4067 53.8251 20.4067 53.1557C20.4067 52.4863 20.9401 51.9424 21.599 51.9424C22.258 51.9424 22.7915 52.4863 22.7915 53.1557Z" fill="#002DD5"/>
<path d="M43.1981 53.1557C43.1981 53.8251 42.6647 54.369 42.0057 54.369C41.3468 54.369 40.8133 53.8251 40.8133 53.1557C40.8133 52.4863 41.3468 51.9424 42.0057 51.9424C42.6647 51.9424 43.1981 52.4863 43.1981 53.1557Z" fill="#002DD5"/>
<path d="M53.4014 53.1557C53.4014 53.8251 52.868 54.369 52.2091 54.369C51.5501 54.369 51.0167 53.8251 51.0167 53.1557C51.0167 52.4863 51.5501 51.9424 52.2091 51.9424C52.868 51.9424 53.4014 52.4863 53.4014 53.1557Z" fill="#002DD5"/>
<path d="M22.7915 63.6205C22.7915 64.29 22.258 64.8338 21.599 64.8338C20.9401 64.8338 20.4067 64.29 20.4067 63.6205C20.4067 62.9511 20.9401 62.4072 21.599 62.4072C22.258 62.4072 22.7915 62.9511 22.7915 63.6205Z" fill="#002DD5"/>
<path d="M43.1981 63.6205C43.1981 64.29 42.6647 64.8338 42.0057 64.8338C41.3468 64.8338 40.8133 64.29 40.8133 63.6205C40.8133 62.9511 41.3468 62.4072 42.0057 62.4072C42.6647 62.4072 43.1981 62.9511 43.1981 63.6205Z" fill="#002DD5"/>
<path d="M31.8076 61.8735L30.3223 64.4884H33.2877L31.8076 61.8735Z" fill="#002DD5"/>
<path d="M31.8076 51.8486L30.3223 54.4635H33.2877L31.8076 51.8486Z" fill="#002DD5"/>
<path d="M31.8076 41.5195L30.3223 44.1344H33.2877L31.8076 41.5195Z" fill="#002DD5"/>
<path d="M31.8076 31.1904L30.3223 33.8053H33.2877L31.8076 31.1904Z" fill="#002DD5"/>
<path d="M31.8076 20.3857L30.3223 22.9954H33.2877L31.8076 20.3857Z" fill="#002DD5"/>
<path d="M31.8076 10.397L30.3223 13.0119H33.2877L31.8076 10.397Z" fill="#002DD5"/>
<path d="M31.8076 0L30.3223 2.6149H33.2877L31.8076 0Z" fill="#002DD5"/>
<g clip-path="url(#clip0_325_140)">
<path d="M23.5592 58.4756H28.3713C29.1307 58.4756 29.7463 59.0911 29.7463 59.8505V75.6617C29.7463 76.421 29.1308 77.0366 28.3713 77.0366H23.5592C22.7999 77.0366 22.1843 76.4211 22.1843 75.6617V59.8505C22.1844 59.0912 22.7999 58.4756 23.5592 58.4756Z" fill="#002CCE"/>
<path d="M60.681 48.8516H65.4931C66.2524 48.8516 66.868 49.4671 66.868 50.2265V75.6618C66.868 76.4211 66.2525 77.0367 65.4931 77.0367H60.681C59.9217 77.0367 59.3061 76.4212 59.3061 75.6618V50.2265C59.3062 49.4671 59.9217 48.8516 60.681 48.8516Z" fill="#002CCE"/>
<path d="M35.9332 52.2886H40.7453C41.5046 52.2886 42.1202 52.9041 42.1202 53.6635V75.6616C42.1202 76.4209 41.5047 77.0365 40.7453 77.0365H35.9332C35.1739 77.0365 34.5583 76.421 34.5583 75.6616V53.6635C34.5583 52.9042 35.1739 52.2886 35.9332 52.2886Z" fill="#002CCE"/>
<path d="M48.3072 61.2256H53.1193C53.8786 61.2256 54.4942 61.8411 54.4942 62.6005V75.6618C54.4942 76.4211 53.8787 77.0367 53.1193 77.0367H48.3072C47.5479 77.0367 46.9322 76.4212 46.9322 75.6618V62.6004C46.9322 61.8411 47.5478 61.2256 48.3072 61.2256Z" fill="#002CCE"/>
<path d="M60.3799 30.3622L60.8776 30.8592C61.4146 31.396 61.4148 32.2665 60.878 32.8035C60.8779 32.8036 60.8777 32.8038 60.8776 32.8039L50.7805 42.9031C50.2437 43.4398 49.3733 43.4398 48.8364 42.9031L37.6869 31.7535C37.15 31.2165 36.2796 31.2163 35.7425 31.7531C35.7424 31.7532 35.7422 31.7534 35.7421 31.7535L20.4026 47.0938C19.8658 47.6306 19.8658 48.501 20.4026 49.0379L23.6954 52.3314C24.2322 52.8684 25.1027 52.8686 25.6397 52.3318L25.6401 52.3314L35.7421 42.2288C36.2789 41.6917 37.1494 41.6915 37.6865 42.2284L37.6869 42.2288L48.8364 53.3783C49.3733 53.9151 50.2437 53.9151 50.7805 53.3783L66.1153 38.0443C66.6521 37.5076 67.5225 37.5076 68.0593 38.0443L68.5982 38.5832C69.135 39.1204 70.0054 39.1207 70.5426 38.5839C70.7348 38.3919 70.8658 38.1471 70.919 37.8806L72.9731 27.6076C73.1218 26.863 72.6387 26.1388 71.8941 25.99C71.7164 25.9545 71.5333 25.9545 71.3555 25.99L61.0824 28.0447C60.3382 28.195 59.8566 28.9203 60.0069 29.6646C60.0602 29.9286 60.1899 30.1712 60.3799 30.3622Z" fill="#002CCE"/>
</g>
<defs>
<clipPath id="clip0_325_140">
<rect width="53" height="53" fill="white" transform="translate(20 25)"/>
</clipPath>
</defs>
</svg>
