<svg width="26" height="26" viewBox="0 0 26 26" fill="none" xmlns="http://www.w3.org/2000/svg">
<g clip-path="url(#clip0_1_14)">
<path d="M13 0C5.83129 0 0 5.83129 0 13C0 20.1687 5.83129 26 13 26C20.1687 26 26 20.1687 26 13C26 5.83129 20.1687 0 13 0ZM18.6875 14.0833H14.0833V18.6875C14.0833 19.2853 13.5978 19.7708 13 19.7708C12.4022 19.7708 11.9167 19.2853 11.9167 18.6875V14.0833H7.3125C6.7147 14.0833 6.22917 13.5978 6.22917 13C6.22917 12.4022 6.7147 11.9167 7.3125 11.9167H11.9167V7.3125C11.9167 6.7147 12.4022 6.22917 13 6.22917C13.5978 6.22917 14.0833 6.7147 14.0833 7.3125V11.9167H18.6875C19.2853 11.9167 19.7708 12.4022 19.7708 13C19.7708 13.5978 19.2853 14.0833 18.6875 14.0833Z" fill="#002CCE"/>
</g>
<defs>
<clipPath id="clip0_1_14">
<rect width="26" height="26" fill="white"/>
</clipPath>
</defs>
</svg>
