<svg width="42" height="42" viewBox="0 0 42 42" fill="none" xmlns="http://www.w3.org/2000/svg">
<path fill-rule="evenodd" clip-rule="evenodd" d="M7.08153 36.1993C2.91025 32.2841 0.720824 27.0495 0.552899 21.7475C0.381661 16.449 2.23545 11.0864 6.15061 6.9152C10.0658 2.74395 15.3003 0.554527 20.6024 0.386638C25.8976 0.218968 31.2637 2.07611 35.435 5.99131C39.6063 9.9065 41.7957 15.1411 41.967 20.4396C42.1349 25.7416 40.2811 31.1043 36.3659 35.2755C32.4508 39.4468 27.2162 41.6361 21.9175 41.8005C16.6155 41.9684 11.2528 40.1145 7.08153 36.1993ZM18.3916 29.7224L10.9384 22.7267L34.753 21.9726C35.3892 21.9524 35.8927 21.416 35.8725 20.7798C35.8524 20.1436 35.3196 19.6434 34.6798 19.6603L10.2529 20.4371L17.8878 12.3028C18.3251 11.837 18.3018 11.105 17.836 10.6678C17.3702 10.2305 16.6382 10.2537 16.201 10.7195L6.95295 20.5724C6.51572 21.0382 6.53891 21.7703 7.00474 22.2075L16.8083 31.4092C17.2741 31.8464 18.0062 31.8233 18.4434 31.3574C18.8806 30.8916 18.8574 30.1596 18.3916 29.7224Z" fill="#002CEE"/>
</svg>
