<svg width="22" height="30" viewBox="0 0 22 30" fill="none" xmlns="http://www.w3.org/2000/svg">
<path d="M11 0C4.93533 0 0 5.0825 0 11.3312C0 20.21 9.966 29.3775 10.3901 29.7625C10.5649 29.9212 10.7824 30 11 30C11.2176 30 11.4351 29.9213 11.6099 29.7638C12.034 29.3775 22 20.21 22 11.3312C22 5.0825 17.0647 0 11 0ZM11 17.5C7.63033 17.5 4.88889 14.6962 4.88889 11.25C4.88889 7.80375 7.63033 5 11 5C14.3697 5 17.1111 7.80375 17.1111 11.25C17.1111 14.6962 14.3697 17.5 11 17.5Z" fill="#002DD5"/>
</svg>
