<svg width="36" height="36" viewBox="0 0 36 36" fill="none" xmlns="http://www.w3.org/2000/svg">
<path d="M34.1741 25.3522L26.8219 18L34.1741 10.6478C36.6086 8.2132 36.6086 4.26053 34.1741 1.82594C31.7395 -0.608647 27.7868 -0.608647 25.3522 1.82594L18 9.17815L10.6478 1.82594C8.21319 -0.608647 4.26053 -0.608647 1.82594 1.82594C-0.608647 4.26053 -0.608647 8.2132 1.82594 10.6478L9.17816 18L1.82594 25.3522C-0.608647 27.7868 -0.608647 31.7395 1.82594 34.1741C4.26053 36.6086 8.21319 36.6086 10.6478 34.1741L18 26.8218L25.3522 34.1741C27.7868 36.6086 31.7395 36.6086 34.1741 34.1741C36.6086 31.7395 36.6086 27.7868 34.1741 25.3522Z" fill="#002CEE"/>
</svg>
