<svg width="54" height="54" viewBox="0 0 54 54" fill="none" xmlns="http://www.w3.org/2000/svg">
<g clip-path="url(#clip0_6_647)">
<path d="M26.6153 26.012C30.1889 26.012 33.2833 24.7303 35.8117 22.2015C38.3401 19.6731 39.6218 16.5795 39.6218 13.0056C39.6218 9.43282 38.3401 6.33881 35.8113 3.80963C33.2825 1.28169 30.1885 0 26.6153 0C23.0413 0 19.9477 1.28169 17.4194 3.81004C14.891 6.3384 13.6089 9.43241 13.6089 13.0056C13.6089 16.5795 14.891 19.6736 17.4198 22.2019C19.9485 24.7299 23.0426 26.012 26.6153 26.012Z" fill="#022CEE"/>
<path d="M49.373 41.5233C49.3 40.4711 49.1526 39.3233 48.9354 38.1112C48.7163 36.8901 48.4341 35.7357 48.0962 34.6806C47.7473 33.5901 47.2727 32.5131 46.686 31.4811C46.0771 30.41 45.3619 29.4772 44.5593 28.7097C43.7201 27.9067 42.6926 27.2611 41.5044 26.7902C40.3204 26.3218 39.0082 26.0845 37.6046 26.0845C37.0533 26.0845 36.5202 26.3107 35.4906 26.981C34.857 27.3942 34.1158 27.8721 33.2886 28.4007C32.5812 28.8514 31.6229 29.2737 30.4393 29.656C29.2845 30.0297 28.112 30.2192 26.9547 30.2192C25.7974 30.2192 24.6253 30.0297 23.4693 29.656C22.2869 29.2741 21.3286 28.8518 20.622 28.4011C19.8026 27.8775 19.061 27.3996 18.4179 26.9806C17.3896 26.3103 16.856 26.0841 16.3048 26.0841C14.9008 26.0841 13.589 26.3218 12.4053 26.7907C11.218 27.2607 10.1901 27.9063 9.35005 28.7101C8.54791 29.478 7.83229 30.4104 7.2242 31.4811C6.63794 32.5131 6.16333 33.5897 5.81396 34.681C5.47655 35.7361 5.19434 36.8901 4.97516 38.1112C4.75804 39.3216 4.61055 40.4698 4.53763 41.5245C4.46594 42.5578 4.42969 43.6302 4.42969 44.7133C4.42969 47.5321 5.32576 49.8141 7.09277 51.497C8.83795 53.1577 11.1471 54.0003 13.9552 54.0003H39.9566C42.7647 54.0003 45.0731 53.1582 46.8186 51.497C48.5861 49.8153 49.4821 47.5329 49.4821 44.7129C49.4817 43.6248 49.4451 42.5516 49.373 41.5233Z" fill="#022CEE"/>
</g>
<defs>
<clipPath id="clip0_6_647">
<rect width="54" height="54" fill="white"/>
</clipPath>
</defs>
</svg>
