<svg width="38" height="38" viewBox="0 0 38 38" fill="none" xmlns="http://www.w3.org/2000/svg">
<path d="M19 0C8.50659 0 0 8.50659 0 19C0 29.4934 8.50659 38 19 38C29.4934 38 38 29.4934 38 19C37.9889 8.51129 29.4888 0.0112123 19 0ZM27.0016 19.6054C26.8701 19.8692 26.6563 20.0831 26.3924 20.2147V20.2214L15.5352 25.65C14.8647 25.9851 14.0496 25.7132 13.7145 25.0427C13.6193 24.8521 13.5702 24.6416 13.5714 24.4286V13.5715C13.5711 12.8219 14.1784 12.2141 14.9279 12.2137C15.1387 12.2136 15.3467 12.2626 15.5352 12.3568L26.3924 17.7854C27.0632 18.1197 27.336 18.9346 27.0016 19.6054Z" fill="#002DD5"/>
</svg>
