<svg width="42" height="42" viewBox="0 0 42 42" fill="none" xmlns="http://www.w3.org/2000/svg">
<g clip-path="url(#clip0_92_10)">
<path d="M21 0C9.41977 0 0 9.41977 0 21C0 32.5802 9.41977 42 21 42C32.5802 42 42 32.5802 42 21C42 9.41977 32.5802 0 21 0ZM30.1875 22.75H22.75V30.1875C22.75 31.1532 21.9657 31.9375 21 31.9375C20.0343 31.9375 19.25 31.1532 19.25 30.1875V22.75H11.8125C10.8468 22.75 10.0625 21.9657 10.0625 21C10.0625 20.0343 10.8468 19.25 11.8125 19.25H19.25V11.8125C19.25 10.8468 20.0343 10.0625 21 10.0625C21.9657 10.0625 22.75 10.8468 22.75 11.8125V19.25H30.1875C31.1532 19.25 31.9375 20.0343 31.9375 21C31.9375 21.9657 31.1532 22.75 30.1875 22.75Z" fill="#002CCE"/>
</g>
<defs>
<clipPath id="clip0_92_10">
<rect width="42" height="42" fill="white"/>
</clipPath>
</defs>
</svg>
