<svg width="47" height="47" viewBox="0 0 47 47" fill="none" xmlns="http://www.w3.org/2000/svg">
<g clip-path="url(#clip0_6_643)">
<path d="M20.2837 27.7227H26.7166V30.4809H20.2837V27.7227Z" fill="#022CEE"/>
<path d="M36.8023 30.4788H29.4704V33.2348H17.5296V30.4788H10.1977C6.06218 30.4788 2.37345 28.5309 0 25.5042V44.3336H47V25.5042C44.6265 28.5309 40.9378 30.4788 36.8023 30.4788Z" fill="#022CEE"/>
<path d="M10.1977 27.7248H17.5296V24.9688H29.4704V27.7248H36.8023C42.3675 27.7248 46.9053 23.2443 47 17.7014V8.35782H32.9551V2.8457H14.0449V8.35782H0V17.701C0.0946655 23.2443 4.63251 27.7248 10.1977 27.7248ZM16.7988 5.59961H30.2012V8.35782H16.7988V5.59961Z" fill="#022CEE"/>
</g>
<defs>
<clipPath id="clip0_6_643">
<rect width="47" height="47" fill="white"/>
</clipPath>
</defs>
</svg>
