<svg width="148" height="21" viewBox="0 0 148 21" fill="none" xmlns="http://www.w3.org/2000/svg">
<path d="M144.249 20.7579C143.489 20.7579 142.74 20.5041 142.16 19.9965L141.98 19.8378C133.06 11.9809 120.109 11.9809 111.199 19.8378L111.019 19.9965C109.869 21.0116 107.989 21.0116 106.839 19.9965L106.66 19.8378C97.7395 11.9809 84.7895 11.9809 75.8795 19.8378L75.6995 19.9965C74.5495 21.0116 72.6695 21.0116 71.5195 19.9965L71.3395 19.8378C62.4195 11.9809 49.4695 11.9809 40.5595 19.8378L40.3795 19.9965C39.2295 21.0116 37.3495 21.0116 36.1995 19.9965L36.0195 19.8378C27.0995 11.9809 14.1495 11.9809 5.23952 19.8378C4.31952 20.6521 3.0495 21.0328 1.9095 20.6098C-0.220496 19.8167 -0.570535 17.5855 0.869465 16.3166L18.5395 0.761367C19.6895 -0.253789 21.5695 -0.253789 22.7195 0.761367L38.2895 14.4766L53.8595 0.761367C55.0095 -0.253789 56.8895 -0.253789 58.0395 0.761367L73.6095 14.4766L89.1795 0.761367C90.3295 -0.253789 92.2095 -0.253789 93.3595 0.761367L108.93 14.4766L124.499 0.761367C125.649 -0.253789 127.53 -0.253789 128.68 0.761367L146.279 16.2637C147.299 17.1625 147.47 18.8121 146.55 19.8061C145.96 20.4512 145.099 20.7684 144.249 20.7684" fill="#002DD5"/>
</svg>
