<svg width="42" height="43" viewBox="0 0 42 43" fill="none" xmlns="http://www.w3.org/2000/svg">
<path fill-rule="evenodd" clip-rule="evenodd" d="M34.9706 6.26313C39.1418 10.1782 41.3312 15.4128 41.4991 20.7147C41.6703 26.0131 39.8165 31.3756 35.9014 35.5467C31.9863 39.7179 26.7518 41.9073 21.4499 42.0752C16.1548 42.2429 10.7887 40.3858 6.61755 36.4707C2.44636 32.5556 0.256994 27.3211 0.0857805 22.0227C-0.0821242 16.7208 1.77165 11.3582 5.68676 7.18703C9.60187 3.01584 14.8363 0.826521 20.135 0.662148C25.4369 0.494244 30.7994 2.34802 34.9706 6.26313ZM23.6607 12.74L31.1138 19.7356L7.29963 20.4897C6.6634 20.5099 6.15993 21.0463 6.18008 21.6825C6.20023 22.3187 6.73306 22.8188 7.37282 22.802L31.7992 22.0251L24.1644 30.1593C23.7272 30.6251 23.7504 31.3571 24.2162 31.7943C24.6821 32.2315 25.414 32.2084 25.8513 31.7426L35.0992 21.8898C35.5364 21.424 35.5132 20.6919 35.0474 20.2547L25.244 11.0532C24.7782 10.616 24.0462 10.6392 23.6089 11.105C23.1717 11.5708 23.1949 12.3028 23.6607 12.74Z" fill="#002CEE"/>
</svg>
