<svg width="38" height="38" viewBox="0 0 38 38" fill="none" xmlns="http://www.w3.org/2000/svg">
<g clip-path="url(#clip0_94_120)">
<path d="M21.7751 21.7881C20.7645 22.7987 19.4238 23.3545 17.9941 23.3545C16.5643 23.3545 15.2236 22.7987 14.2131 21.7881C13.2025 20.7788 12.648 19.4369 12.648 18.0083C12.648 16.5798 13.2037 15.2379 14.2131 14.2273C15.2236 13.2168 16.5643 12.661 17.9941 12.661C19.4238 12.661 20.7645 13.2168 21.7751 14.2273C22.7856 15.2367 23.3402 16.5798 23.3402 18.0083C23.3402 19.4369 22.7856 20.7788 21.7751 21.7881ZM37.9263 19.0747C37.9263 29.5508 29.4024 38.0747 18.9263 38.0747C8.45014 38.0747 -0.0737305 29.5508 -0.0737305 19.0747C-0.0737305 8.59858 8.45014 0.074707 18.9263 0.074707C29.4024 0.074707 37.9263 8.59739 37.9263 19.0747ZM27.3801 25.6867L24.238 22.5363C25.1927 21.2265 25.7152 19.659 25.7152 18.0071C25.7152 15.9445 24.9125 14.0053 23.4542 12.547C21.996 11.0888 20.058 10.2848 17.9941 10.2848C15.9302 10.2848 13.9922 11.0888 12.534 12.547C11.0757 14.0053 10.273 15.9445 10.273 18.0071C10.273 20.0698 11.0769 22.009 12.534 23.4661C13.9922 24.9243 15.9302 25.7283 17.9941 25.7283C19.6625 25.7283 21.2466 25.1939 22.5648 24.2201L25.6986 27.3623C25.9301 27.595 26.2341 27.7114 26.5393 27.7114C26.8433 27.7114 27.1461 27.5962 27.3777 27.3646C27.842 26.9039 27.842 26.151 27.3801 25.6867Z" fill="#002CCE"/>
</g>
<defs>
<clipPath id="clip0_94_120">
<rect width="38" height="38" fill="white"/>
</clipPath>
</defs>
</svg>
