<svg width="44" height="44" viewBox="0 0 44 44" fill="none" xmlns="http://www.w3.org/2000/svg">
<path d="M34.8906 28.5312C32.3434 28.5312 30.0987 29.7843 28.6888 31.6899L16.4991 25.4482C16.7015 24.7583 16.8438 24.0434 16.8438 23.2891C16.8438 22.2659 16.634 21.2932 16.2716 20.3985L29.0286 12.7218C30.4483 14.388 32.535 15.4688 34.8906 15.4688C39.1556 15.4688 42.625 11.9994 42.625 7.73438C42.625 3.46938 39.1556 0 34.8906 0C30.6256 0 27.1562 3.46938 27.1562 7.73438C27.1562 8.71724 27.3586 9.64958 27.6944 10.5151L14.8994 18.2143C13.4809 16.5976 11.4243 15.5547 9.10938 15.5547C4.84438 15.5547 1.375 19.0241 1.375 23.2891C1.375 27.5541 4.84438 31.0234 9.10938 31.0234C11.6987 31.0234 13.9813 29.7336 15.3858 27.7745L27.5353 33.9959C27.3115 34.7183 27.1562 35.4707 27.1562 36.2656C27.1562 40.5306 30.6256 44 34.8906 44C39.1556 44 42.625 40.5306 42.625 36.2656C42.625 32.0006 39.1556 28.5312 34.8906 28.5312Z" fill="#002DD5"/>
</svg>
