<svg width="47" height="47" viewBox="0 0 47 47" fill="none" xmlns="http://www.w3.org/2000/svg">
<g clip-path="url(#clip0_463_77)">
<ellipse cx="23.6245" cy="23.4135" rx="23.2026" ry="23.4135" fill="white"/>
<path d="M23.5021 0C10.5213 0 0 10.5213 0 23.5021C0 36.4829 10.5213 47.0042 23.5021 47.0042C36.4829 47.0042 47.0042 36.4829 47.0042 23.5021C47.0042 10.5213 36.4787 0 23.5021 0ZM34.4706 34.3947C34.3904 34.6267 34.1331 34.5212 33.9559 34.5212C30.4713 34.5254 26.9825 34.5254 23.4979 34.5254C20.0133 34.5254 16.6426 34.5128 13.2128 34.5381C12.6306 34.5381 12.4492 34.3778 12.4492 33.783C12.4703 26.8812 12.4619 19.9753 12.4661 13.0736C12.4661 12.8922 12.3649 12.6391 12.5842 12.5547C12.7656 12.483 12.8753 12.7108 12.9934 12.8289C20.0597 19.8825 27.1259 26.9361 34.188 33.9939C34.3061 34.112 34.5297 34.2259 34.4706 34.3989V34.3947ZM34.3187 26.6577C33.9348 27.012 33.5552 27.3833 33.205 27.7714C32.9224 28.0878 32.6903 28.054 32.4457 27.7461C32.3992 27.687 32.336 27.6364 32.2811 27.5815C27.9865 23.2912 23.6877 19.005 19.3931 14.7147C19.0331 14.3575 19.0346 13.9975 19.3974 13.6347C19.7138 13.3183 20.0302 13.0019 20.3508 12.6897C20.4436 12.5969 20.5575 12.5252 20.6419 12.4577C20.857 12.4661 20.9498 12.6011 21.0553 12.7108C25.4764 17.1235 29.8934 21.5362 34.3187 25.9447C34.5929 26.2147 34.5929 26.4045 34.3187 26.6619V26.6577ZM34.3989 19.6252C33.9728 20.0513 33.5383 20.4689 33.1164 20.9034C32.897 21.1312 32.7325 21.0806 32.53 20.8781C30.3996 18.7435 28.265 16.6131 26.1261 14.4868C25.8899 14.2506 25.9067 14.0776 26.1388 13.8583C26.5606 13.4575 26.9741 13.0399 27.3748 12.618C27.5689 12.4155 27.7123 12.4281 27.9064 12.618C30.0621 14.7822 32.2263 16.9379 34.3904 19.0978C34.4706 19.178 34.5676 19.2539 34.5634 19.4227C34.5212 19.4733 34.4664 19.5534 34.3989 19.6209V19.6252Z" fill="#002CCE"/>
</g>
<defs>
<clipPath id="clip0_463_77">
<rect width="47" height="47" fill="white"/>
</clipPath>
</defs>
</svg>
