<svg width="47" height="47" viewBox="0 0 47 47" fill="none" xmlns="http://www.w3.org/2000/svg">
<ellipse cx="23.8771" cy="23.2487" rx="23.0392" ry="23.2487" fill="white"/>
<path d="M40.1176 6.88244C35.6773 2.44635 29.775 0 23.5 0C17.225 0 11.3227 2.44635 6.88244 6.88244C2.44635 11.3227 0 17.2208 0 23.5C0 29.7792 2.44635 35.6773 6.88244 40.1176C11.3227 44.5578 17.2208 47 23.5 47C29.7792 47 35.6773 44.5537 40.1176 40.1176C44.5578 35.6773 47 29.7792 47 23.5C47 17.2208 44.5537 11.3227 40.1176 6.88244ZM34.3578 33.1807C34.1274 33.6875 33.6247 33.9891 33.1011 33.9891C32.9126 33.9891 32.7199 33.9514 32.5356 33.8676C28.3173 31.9617 23.8142 30.994 19.1477 30.994C16.6636 30.994 14.188 31.2747 11.7919 31.8276C11.0504 31.9994 10.3132 31.5386 10.1414 30.7971C9.9697 30.0557 10.4305 29.3184 11.1719 29.1467C13.7733 28.5477 16.4542 28.2419 19.1477 28.2419C24.2079 28.2419 29.0922 29.2891 33.6708 31.3585C34.3619 31.6726 34.6719 32.4895 34.3578 33.1807ZM37.2649 26.5914C37.0345 27.1025 36.5318 27.4041 36.0082 27.4041C35.8197 27.4041 35.627 27.3664 35.4427 27.2826C30.307 24.9703 24.8237 23.7974 19.1477 23.7974C16.2406 23.7974 13.3418 24.1116 10.531 24.7357C9.78957 24.8991 9.05232 24.4299 8.88895 23.6885C8.72558 22.9471 9.19474 22.2098 9.93618 22.0464C12.9397 21.3804 16.0395 21.0453 19.1435 21.0453C25.2133 21.0453 31.0778 22.2978 36.5695 24.7734C37.2649 25.0876 37.5707 25.9003 37.2607 26.5956L37.2649 26.5914ZM40.0799 20.2075C39.8495 20.7185 39.3468 21.0201 38.8232 21.0201C38.6347 21.0201 38.442 20.9824 38.2619 20.8987C32.2381 18.1926 25.8081 16.8228 19.1519 16.8228C15.8384 16.8228 12.5333 17.1705 9.3246 17.8575C8.57897 18.0167 7.85009 17.5433 7.69091 16.7977C7.53173 16.052 8.00508 15.3232 8.75071 15.164C12.1479 14.4351 15.6499 14.0665 19.1519 14.0665C26.2019 14.0665 33.0089 15.5201 39.3887 18.3811C40.084 18.6911 40.394 19.5079 40.0799 20.2033V20.2075Z" fill="#002CCE"/>
</svg>
