<svg width="122" height="132" viewBox="0 0 122 132" fill="none" xmlns="http://www.w3.org/2000/svg">
<path d="M4.56 2.92498C4.56 4.27852 3.53997 5.37825 2.27997 5.37825C1.01997 5.37825 0 4.27852 0 2.92498C0 1.57144 1.01997 0.47168 2.27997 0.47168C3.53997 0.47168 4.56 1.57144 4.56 2.92498Z" fill="white"/>
<path d="M24.07 2.92498C24.07 4.27852 23.05 5.37825 21.79 5.37825C20.53 5.37825 19.51 4.27852 19.51 2.92498C19.51 1.57144 20.53 0.47168 21.79 0.47168C23.05 0.47168 24.07 1.57144 24.07 2.92498Z" fill="white"/>
<path d="M43.58 2.92498C43.58 4.27852 42.56 5.37825 41.3 5.37825C40.04 5.37825 39.02 4.27852 39.02 2.92498C39.02 1.57144 40.04 0.47168 41.3 0.47168C42.56 0.47168 43.58 1.57144 43.58 2.92498Z" fill="white"/>
<path d="M82.6 2.92498C82.6 4.27852 81.5801 5.37825 80.3201 5.37825C79.0601 5.37825 78.04 4.27852 78.04 2.92498C78.04 1.57144 79.0601 0.47168 80.3201 0.47168C81.5801 0.47168 82.6 1.57144 82.6 2.92498Z" fill="white"/>
<path d="M102.11 2.92498C102.11 4.27852 101.09 5.37825 99.8301 5.37825C98.5701 5.37825 97.55 4.27852 97.55 2.92498C97.55 1.57144 98.5701 0.47168 99.8301 0.47168C101.09 0.47168 102.11 1.57144 102.11 2.92498Z" fill="white"/>
<path d="M121.62 2.92498C121.62 4.27852 120.6 5.37825 119.34 5.37825C118.08 5.37825 117.06 4.27852 117.06 2.92498C117.06 1.57144 118.08 0.47168 119.34 0.47168C120.6 0.47168 121.62 1.57144 121.62 2.92498Z" fill="white"/>
<path d="M4.56 23.9472C4.56 25.3007 3.53997 26.4005 2.27997 26.4005C1.01997 26.4005 0 25.3007 0 23.9472C0 22.5936 1.01997 21.4939 2.27997 21.4939C3.53997 21.4939 4.56 22.5936 4.56 23.9472Z" fill="white"/>
<path d="M24.07 23.9472C24.07 25.3007 23.05 26.4005 21.79 26.4005C20.53 26.4005 19.51 25.3007 19.51 23.9472C19.51 22.5936 20.53 21.4939 21.79 21.4939C23.05 21.4939 24.07 22.5936 24.07 23.9472Z" fill="white"/>
<path d="M43.58 23.9472C43.58 25.3007 42.56 26.4005 41.3 26.4005C40.04 26.4005 39.02 25.3007 39.02 23.9472C39.02 22.5936 40.04 21.4939 41.3 21.4939C42.56 21.4939 43.58 22.5936 43.58 23.9472Z" fill="white"/>
<path d="M82.6 23.9472C82.6 25.3007 81.5801 26.4005 80.3201 26.4005C79.0601 26.4005 78.04 25.3007 78.04 23.9472C78.04 22.5936 79.0601 21.4939 80.3201 21.4939C81.5801 21.4939 82.6 22.5936 82.6 23.9472Z" fill="white"/>
<path d="M102.11 23.9472C102.11 25.3007 101.09 26.4005 99.8301 26.4005C98.5701 26.4005 97.55 25.3007 97.55 23.9472C97.55 22.5936 98.5701 21.4939 99.8301 21.4939C101.09 21.4939 102.11 22.5936 102.11 23.9472Z" fill="white"/>
<path d="M121.62 23.9472C121.62 25.3007 120.6 26.4005 119.34 26.4005C118.08 26.4005 117.06 25.3007 117.06 23.9472C117.06 22.5936 118.08 21.4939 119.34 21.4939C120.6 21.4939 121.62 22.5936 121.62 23.9472Z" fill="white"/>
<path d="M4.56 44.8319C4.56 46.1855 3.53997 47.2852 2.27997 47.2852C1.01997 47.2852 0 46.1855 0 44.8319C0 43.4784 1.01997 42.3787 2.27997 42.3787C3.53997 42.3787 4.56 43.4784 4.56 44.8319Z" fill="white"/>
<path d="M24.07 44.8319C24.07 46.1855 23.05 47.2852 21.79 47.2852C20.53 47.2852 19.51 46.1855 19.51 44.8319C19.51 43.4784 20.53 42.3787 21.79 42.3787C23.05 42.3787 24.07 43.4784 24.07 44.8319Z" fill="white"/>
<path d="M43.58 44.8319C43.58 46.1855 42.56 47.2852 41.3 47.2852C40.04 47.2852 39.02 46.1855 39.02 44.8319C39.02 43.4784 40.04 42.3787 41.3 42.3787C42.56 42.3787 43.58 43.4784 43.58 44.8319Z" fill="white"/>
<path d="M82.6 44.8319C82.6 46.1855 81.5801 47.2852 80.3201 47.2852C79.0601 47.2852 78.04 46.1855 78.04 44.8319C78.04 43.4784 79.0601 42.3787 80.3201 42.3787C81.5801 42.3787 82.6 43.4784 82.6 44.8319Z" fill="white"/>
<path d="M102.11 44.8319C102.11 46.1855 101.09 47.2852 99.8301 47.2852C98.5701 47.2852 97.55 46.1855 97.55 44.8319C97.55 43.4784 98.5701 42.3787 99.8301 42.3787C101.09 42.3787 102.11 43.4784 102.11 44.8319Z" fill="white"/>
<path d="M121.62 44.8319C121.62 46.1855 120.6 47.2852 119.34 47.2852C118.08 47.2852 117.06 46.1855 117.06 44.8319C117.06 43.4784 118.08 42.3787 119.34 42.3787C120.6 42.3787 121.62 43.4784 121.62 44.8319Z" fill="white"/>
<path d="M4.56 65.8542C4.56 67.2077 3.53997 68.3075 2.27997 68.3075C1.01997 68.3075 0 67.2077 0 65.8542C0 64.5006 1.01997 63.4009 2.27997 63.4009C3.53997 63.4009 4.56 64.5006 4.56 65.8542Z" fill="white"/>
<path d="M24.07 65.8542C24.07 67.2077 23.05 68.3075 21.79 68.3075C20.53 68.3075 19.51 67.2077 19.51 65.8542C19.51 64.5006 20.53 63.4009 21.79 63.4009C23.05 63.4009 24.07 64.5006 24.07 65.8542Z" fill="white"/>
<path d="M43.58 65.8542C43.58 67.2077 42.56 68.3075 41.3 68.3075C40.04 68.3075 39.02 67.2077 39.02 65.8542C39.02 64.5006 40.04 63.4009 41.3 63.4009C42.56 63.4009 43.58 64.5006 43.58 65.8542Z" fill="white"/>
<path d="M82.6 65.8542C82.6 67.2077 81.5801 68.3075 80.3201 68.3075C79.0601 68.3075 78.04 67.2077 78.04 65.8542C78.04 64.5006 79.0601 63.4009 80.3201 63.4009C81.5801 63.4009 82.6 64.5006 82.6 65.8542Z" fill="white"/>
<path d="M102.11 65.8542C102.11 67.2077 101.09 68.3075 99.8301 68.3075C98.5701 68.3075 97.55 67.2077 97.55 65.8542C97.55 64.5006 98.5701 63.4009 99.8301 63.4009C101.09 63.4009 102.11 64.5006 102.11 65.8542Z" fill="white"/>
<path d="M121.62 65.8542C121.62 67.2077 120.6 68.3075 119.34 68.3075C118.08 68.3075 117.06 67.2077 117.06 65.8542C117.06 64.5006 118.08 63.4009 119.34 63.4009C120.6 63.4009 121.62 64.5006 121.62 65.8542Z" fill="white"/>
<path d="M4.56 86.8764C4.56 88.2299 3.53997 89.3297 2.27997 89.3297C1.01997 89.3297 0 88.2299 0 86.8764C0 85.5229 1.01997 84.4231 2.27997 84.4231C3.53997 84.4231 4.56 85.5229 4.56 86.8764Z" fill="white"/>
<path d="M24.07 86.8764C24.07 88.2299 23.05 89.3297 21.79 89.3297C20.53 89.3297 19.51 88.2299 19.51 86.8764C19.51 85.5229 20.53 84.4231 21.79 84.4231C23.05 84.4231 24.07 85.5229 24.07 86.8764Z" fill="white"/>
<path d="M43.58 86.8764C43.58 88.2299 42.56 89.3297 41.3 89.3297C40.04 89.3297 39.02 88.2299 39.02 86.8764C39.02 85.5229 40.04 84.4231 41.3 84.4231C42.56 84.4231 43.58 85.5229 43.58 86.8764Z" fill="white"/>
<path d="M82.6 86.8764C82.6 88.2299 81.5801 89.3297 80.3201 89.3297C79.0601 89.3297 78.04 88.2299 78.04 86.8764C78.04 85.5229 79.0601 84.4231 80.3201 84.4231C81.5801 84.4231 82.6 85.5229 82.6 86.8764Z" fill="white"/>
<path d="M102.11 86.8764C102.11 88.2299 101.09 89.3297 99.8301 89.3297C98.5701 89.3297 97.55 88.2299 97.55 86.8764C97.55 85.5229 98.5701 84.4231 99.8301 84.4231C101.09 84.4231 102.11 85.5229 102.11 86.8764Z" fill="white"/>
<path d="M121.62 86.8764C121.62 88.2299 120.6 89.3297 119.34 89.3297C118.08 89.3297 117.06 88.2299 117.06 86.8764C117.06 85.5229 118.08 84.4231 119.34 84.4231C120.6 84.4231 121.62 85.5229 121.62 86.8764Z" fill="white"/>
<path d="M4.56 107.761C4.56 109.114 3.53997 110.214 2.27997 110.214C1.01997 110.214 0 109.114 0 107.761C0 106.407 1.01997 105.308 2.27997 105.308C3.53997 105.308 4.56 106.407 4.56 107.761Z" fill="white"/>
<path d="M24.07 107.761C24.07 109.114 23.05 110.214 21.79 110.214C20.53 110.214 19.51 109.114 19.51 107.761C19.51 106.407 20.53 105.308 21.79 105.308C23.05 105.308 24.07 106.407 24.07 107.761Z" fill="white"/>
<path d="M43.58 107.761C43.58 109.114 42.56 110.214 41.3 110.214C40.04 110.214 39.02 109.114 39.02 107.761C39.02 106.407 40.04 105.308 41.3 105.308C42.56 105.308 43.58 106.407 43.58 107.761Z" fill="white"/>
<path d="M82.6 107.761C82.6 109.114 81.5801 110.214 80.3201 110.214C79.0601 110.214 78.04 109.114 78.04 107.761C78.04 106.407 79.0601 105.308 80.3201 105.308C81.5801 105.308 82.6 106.407 82.6 107.761Z" fill="white"/>
<path d="M102.11 107.761C102.11 109.114 101.09 110.214 99.8301 110.214C98.5701 110.214 97.55 109.114 97.55 107.761C97.55 106.407 98.5701 105.308 99.8301 105.308C101.09 105.308 102.11 106.407 102.11 107.761Z" fill="white"/>
<path d="M121.62 107.761C121.62 109.114 120.6 110.214 119.34 110.214C118.08 110.214 117.06 109.114 117.06 107.761C117.06 106.407 118.08 105.308 119.34 105.308C120.6 105.308 121.62 106.407 121.62 107.761Z" fill="white"/>
<path d="M4.56 128.921C4.56 130.274 3.53997 131.374 2.27997 131.374C1.01997 131.374 0 130.274 0 128.921C0 127.567 1.01997 126.468 2.27997 126.468C3.53997 126.468 4.56 127.567 4.56 128.921Z" fill="white"/>
<path d="M24.07 128.921C24.07 130.274 23.05 131.374 21.79 131.374C20.53 131.374 19.51 130.274 19.51 128.921C19.51 127.567 20.53 126.468 21.79 126.468C23.05 126.468 24.07 127.567 24.07 128.921Z" fill="white"/>
<path d="M43.58 128.921C43.58 130.274 42.56 131.374 41.3 131.374C40.04 131.374 39.02 130.274 39.02 128.921C39.02 127.567 40.04 126.468 41.3 126.468C42.56 126.468 43.58 127.567 43.58 128.921Z" fill="white"/>
<path d="M82.6 128.921C82.6 130.274 81.5801 131.374 80.3201 131.374C79.0601 131.374 78.04 130.274 78.04 128.921C78.04 127.567 79.0601 126.468 80.3201 126.468C81.5801 126.468 82.6 127.567 82.6 128.921Z" fill="white"/>
<path d="M102.11 128.921C102.11 130.274 101.09 131.374 99.8301 131.374C98.5701 131.374 97.55 130.274 97.55 128.921C97.55 127.567 98.5701 126.468 99.8301 126.468C101.09 126.468 102.11 127.567 102.11 128.921Z" fill="white"/>
<path d="M121.62 128.921C121.62 130.274 120.6 131.374 119.34 131.374C118.08 131.374 117.06 130.274 117.06 128.921C117.06 127.567 118.08 126.468 119.34 126.468C120.6 126.468 121.62 127.567 121.62 128.921Z" fill="white"/>
<path d="M60.82 125.389L57.98 130.676H63.65L60.82 125.389Z" fill="white"/>
<path d="M60.82 105.117L57.98 110.405H63.65L60.82 105.117Z" fill="white"/>
<path d="M60.82 84.2327L57.98 89.5199H63.65L60.82 84.2327Z" fill="white"/>
<path d="M60.82 63.3479L57.98 68.6352H63.65L60.82 63.3479Z" fill="white"/>
<path d="M60.82 41.501L57.98 46.7777H63.65L60.82 41.501Z" fill="white"/>
<path d="M60.82 21.3035L57.98 26.5907H63.65L60.82 21.3035Z" fill="white"/>
<path d="M60.82 0.281494L57.98 5.56877H63.65L60.82 0.281494Z" fill="white"/>
</svg>
