<svg width="83" height="80" viewBox="0 0 83 80" fill="none" xmlns="http://www.w3.org/2000/svg">
<g clip-path="url(#clip0_325_139)">
<path d="M81.8962 48.3684C78.3737 46.9562 74.5681 44.311 71.7776 40.7182C68.9315 37.0537 66.6376 32.3842 65.1438 27.2144L63.4342 21.2982C63.217 20.5461 62.5285 20.0283 61.7456 20.0283C60.9626 20.0283 60.2742 20.5461 60.0569 21.2982L58.3475 27.2144C56.8537 32.3842 54.5598 37.0539 51.7136 40.7182C48.9232 44.311 45.5864 46.9562 42.0637 48.3684C41.4063 48.6319 40.9713 49.2643 40.9601 49.9724C40.949 50.6807 41.364 51.3264 42.0128 51.6103L42.5593 51.8495C49.5526 54.9107 55.2676 62.4495 58.239 72.5331L60.0594 78.7109C60.2797 79.4585 60.966 79.9718 61.7456 79.9718C62.5251 79.9718 63.2114 79.4585 63.4318 78.7109L65.2523 72.533C68.2236 62.4494 74.4075 54.9106 81.4009 51.8494L81.9472 51.6102C82.5959 51.3262 83.0109 50.6805 82.9998 49.9723C82.9886 49.2641 82.5536 48.6319 81.8962 48.3684Z" fill="#002CCE"/>
<path d="M24.4961 37.5192L24.7701 37.6389C28.04 39.0703 30.9627 42.6492 32.3797 47.4579L33.2927 50.5564C33.513 51.3042 34.1994 51.8175 34.9789 51.8175C35.7582 51.8175 36.4447 51.3042 36.6651 50.5565L37.5783 47.458C38.9953 42.6492 41.9178 39.0703 45.1877 37.6391L45.4618 37.5192C46.1107 37.2352 46.5258 36.5895 46.5146 35.8812C46.5036 35.1731 46.0685 34.5407 45.4111 34.2772C42.0467 32.9285 38.9519 29.1753 37.5251 24.2371L36.6677 21.2698C36.4502 20.5177 35.7617 20 34.9788 20C34.1959 20 33.5073 20.5179 33.29 21.27L32.4329 24.2371C31.006 29.1753 27.9112 32.9285 24.5469 34.2772C23.8895 34.5407 23.4545 35.1732 23.4433 35.8812C23.4322 36.5895 23.8473 37.2352 24.4961 37.5192Z" fill="#002CCE"/>
<path d="M39.16 66.7654C36.9711 65.8879 34.63 63.4068 33.6827 60.1284L33.0863 58.0639C32.869 57.3118 32.1805 56.7939 31.3975 56.7939C30.6147 56.7939 29.9261 57.3117 29.7089 58.0638L29.1123 60.1284C28.165 63.4068 26.2926 65.8878 24.1038 66.7654C23.4464 67.029 23.0112 67.6614 23.0002 68.3695C22.9891 69.0778 23.4042 69.7235 24.0531 70.0074L24.2436 70.0907C26.3422 71.0095 28.1487 73.4367 29.076 76.5834L29.7113 78.7392C29.9317 79.4868 30.618 80.0001 31.3975 80.0001C32.1771 80.0001 32.8633 79.4868 33.0837 78.7392L33.719 76.5834C34.6462 73.4366 36.9215 71.0096 39.02 70.091L39.2106 70.0075C39.8596 69.7236 40.2747 69.0779 40.2636 68.3696C40.2527 67.6614 39.8176 67.029 39.16 66.7654Z" fill="#002CCE"/>
</g>
<path d="M22.7915 1.30755C22.7915 1.97697 22.258 2.52085 21.5991 2.52085C20.9401 2.52085 20.4067 1.97697 20.4067 1.30755C20.4067 0.638141 20.9401 0.0942383 21.5991 0.0942383C22.258 0.0942383 22.7915 0.638141 22.7915 1.30755Z" fill="#002DD5"/>
<path d="M43.1981 1.30755C43.1981 1.97697 42.6647 2.52085 42.0057 2.52085C41.3468 2.52085 40.8133 1.97697 40.8133 1.30755C40.8133 0.638141 41.3468 0.0942383 42.0057 0.0942383C42.6647 0.0942383 43.1981 0.638141 43.1981 1.30755Z" fill="#002DD5"/>
<path d="M12.5881 11.704C12.5881 12.3734 12.0547 12.9173 11.3957 12.9173C10.7368 12.9173 10.2033 12.3734 10.2033 11.704C10.2033 11.0346 10.7368 10.4907 11.3957 10.4907C12.0547 10.4907 12.5881 11.0346 12.5881 11.704Z" fill="#002DD5"/>
<path d="M22.7915 11.704C22.7915 12.3734 22.258 12.9173 21.5991 12.9173C20.9401 12.9173 20.4067 12.3734 20.4067 11.704C20.4067 11.0346 20.9401 10.4907 21.5991 10.4907C22.258 10.4907 22.7915 11.0346 22.7915 11.704Z" fill="#002DD5"/>
<path d="M43.1981 11.704C43.1981 12.3734 42.6647 12.9173 42.0057 12.9173C41.3468 12.9173 40.8133 12.3734 40.8133 11.704C40.8133 11.0346 41.3468 10.4907 42.0057 10.4907C42.6647 10.4907 43.1981 11.0346 43.1981 11.704Z" fill="#002DD5"/>
<path d="M53.4014 11.704C53.4014 12.3734 52.868 12.9173 52.2091 12.9173C51.5501 12.9173 51.0167 12.3734 51.0167 11.704C51.0167 11.0346 51.5501 10.4907 52.2091 10.4907C52.868 10.4907 53.4014 11.0346 53.4014 11.704Z" fill="#002DD5"/>
<path d="M2.38478 22.0331C2.38478 22.7025 1.85133 23.2464 1.19238 23.2464C0.533422 23.2464 0 22.7025 0 22.0331C0 21.3637 0.533422 20.8198 1.19238 20.8198C1.85133 20.8198 2.38478 21.3637 2.38478 22.0331Z" fill="#002DD5"/>
<path d="M12.5881 22.0331C12.5881 22.7025 12.0547 23.2464 11.3957 23.2464C10.7368 23.2464 10.2033 22.7025 10.2033 22.0331C10.2033 21.3637 10.7368 20.8198 11.3957 20.8198C12.0547 20.8198 12.5881 21.3637 12.5881 22.0331Z" fill="#002DD5"/>
<path d="M22.7915 22.0331C22.7915 22.7025 22.258 23.2464 21.5991 23.2464C20.9401 23.2464 20.4067 22.7025 20.4067 22.0331C20.4067 21.3637 20.9401 20.8198 21.5991 20.8198C22.258 20.8198 22.7915 21.3637 22.7915 22.0331Z" fill="#002DD5"/>
<path d="M43.1981 22.0331C43.1981 22.7025 42.6647 23.2464 42.0057 23.2464C41.3468 23.2464 40.8133 22.7025 40.8133 22.0331C40.8133 21.3637 41.3468 20.8198 42.0057 20.8198C42.6647 20.8198 43.1981 21.3637 43.1981 22.0331Z" fill="#002DD5"/>
<path d="M53.4014 22.0331C53.4014 22.7025 52.868 23.2464 52.2091 23.2464C51.5501 23.2464 51.0167 22.7025 51.0167 22.0331C51.0167 21.3637 51.5501 20.8198 52.2091 20.8198C52.868 20.8198 53.4014 21.3637 53.4014 22.0331Z" fill="#002DD5"/>
<path d="M63.6048 22.0331C63.6048 22.7025 63.0714 23.2464 62.4124 23.2464C61.7535 23.2464 61.22 22.7025 61.22 22.0331C61.22 21.3637 61.7535 20.8198 62.4124 20.8198C63.0714 20.8198 63.6048 21.3637 63.6048 22.0331Z" fill="#002DD5"/>
<path d="M2.38478 32.4301C2.38478 33.0995 1.85133 33.6434 1.19238 33.6434C0.533422 33.6434 0 33.0995 0 32.4301C0 31.7607 0.533422 31.2168 1.19238 31.2168C1.85133 31.2168 2.38478 31.7607 2.38478 32.4301Z" fill="#002DD5"/>
<path d="M12.5881 32.4301C12.5881 33.0995 12.0547 33.6434 11.3957 33.6434C10.7368 33.6434 10.2033 33.0995 10.2033 32.4301C10.2033 31.7607 10.7368 31.2168 11.3957 31.2168C12.0547 31.2168 12.5881 31.7607 12.5881 32.4301Z" fill="#002DD5"/>
<path d="M22.7915 32.4301C22.7915 33.0995 22.258 33.6434 21.5991 33.6434C20.9401 33.6434 20.4067 33.0995 20.4067 32.4301C20.4067 31.7607 20.9401 31.2168 21.5991 31.2168C22.258 31.2168 22.7915 31.7607 22.7915 32.4301Z" fill="#002DD5"/>
<path d="M43.1981 32.4301C43.1981 33.0995 42.6647 33.6434 42.0057 33.6434C41.3468 33.6434 40.8133 33.0995 40.8133 32.4301C40.8133 31.7607 41.3468 31.2168 42.0057 31.2168C42.6647 31.2168 43.1981 31.7607 43.1981 32.4301Z" fill="#002DD5"/>
<path d="M53.4014 32.4301C53.4014 33.0995 52.868 33.6434 52.2091 33.6434C51.5501 33.6434 51.0167 33.0995 51.0167 32.4301C51.0167 31.7607 51.5501 31.2168 52.2091 31.2168C52.868 31.2168 53.4014 31.7607 53.4014 32.4301Z" fill="#002DD5"/>
<path d="M63.6048 32.4301C63.6048 33.0995 63.0714 33.6434 62.4124 33.6434C61.7535 33.6434 61.22 33.0995 61.22 32.4301C61.22 31.7607 61.7535 31.2168 62.4124 31.2168C63.0714 31.2168 63.6048 31.7607 63.6048 32.4301Z" fill="#002DD5"/>
<path d="M2.38478 42.8266C2.38478 43.496 1.85133 44.0399 1.19238 44.0399C0.533422 44.0399 0 43.496 0 42.8266C0 42.1572 0.533422 41.6133 1.19238 41.6133C1.85133 41.6133 2.38478 42.1572 2.38478 42.8266Z" fill="#002DD5"/>
<path d="M12.5881 42.8266C12.5881 43.496 12.0547 44.0399 11.3957 44.0399C10.7368 44.0399 10.2033 43.496 10.2033 42.8266C10.2033 42.1572 10.7368 41.6133 11.3957 41.6133C12.0547 41.6133 12.5881 42.1572 12.5881 42.8266Z" fill="#002DD5"/>
<path d="M22.7915 42.8266C22.7915 43.496 22.258 44.0399 21.5991 44.0399C20.9401 44.0399 20.4067 43.496 20.4067 42.8266C20.4067 42.1572 20.9401 41.6133 21.5991 41.6133C22.258 41.6133 22.7915 42.1572 22.7915 42.8266Z" fill="#002DD5"/>
<path d="M43.1981 42.8266C43.1981 43.496 42.6647 44.0399 42.0057 44.0399C41.3468 44.0399 40.8133 43.496 40.8133 42.8266C40.8133 42.1572 41.3468 41.6133 42.0057 41.6133C42.6647 41.6133 43.1981 42.1572 43.1981 42.8266Z" fill="#002DD5"/>
<path d="M53.4014 42.8266C53.4014 43.496 52.868 44.0399 52.2091 44.0399C51.5501 44.0399 51.0167 43.496 51.0167 42.8266C51.0167 42.1572 51.5501 41.6133 52.2091 41.6133C52.868 41.6133 53.4014 42.1572 53.4014 42.8266Z" fill="#002DD5"/>
<path d="M63.6048 42.8266C63.6048 43.496 63.0714 44.0399 62.4124 44.0399C61.7535 44.0399 61.22 43.496 61.22 42.8266C61.22 42.1572 61.7535 41.6133 62.4124 41.6133C63.0714 41.6133 63.6048 42.1572 63.6048 42.8266Z" fill="#002DD5"/>
<path d="M12.5881 53.1557C12.5881 53.8251 12.0547 54.369 11.3957 54.369C10.7368 54.369 10.2033 53.8251 10.2033 53.1557C10.2033 52.4863 10.7368 51.9424 11.3957 51.9424C12.0547 51.9424 12.5881 52.4863 12.5881 53.1557Z" fill="#002DD5"/>
<path d="M22.7915 53.1557C22.7915 53.8251 22.258 54.369 21.5991 54.369C20.9401 54.369 20.4067 53.8251 20.4067 53.1557C20.4067 52.4863 20.9401 51.9424 21.5991 51.9424C22.258 51.9424 22.7915 52.4863 22.7915 53.1557Z" fill="#002DD5"/>
<path d="M43.1981 53.1557C43.1981 53.8251 42.6647 54.369 42.0057 54.369C41.3468 54.369 40.8133 53.8251 40.8133 53.1557C40.8133 52.4863 41.3468 51.9424 42.0057 51.9424C42.6647 51.9424 43.1981 52.4863 43.1981 53.1557Z" fill="#002DD5"/>
<path d="M53.4014 53.1557C53.4014 53.8251 52.868 54.369 52.2091 54.369C51.5501 54.369 51.0167 53.8251 51.0167 53.1557C51.0167 52.4863 51.5501 51.9424 52.2091 51.9424C52.868 51.9424 53.4014 52.4863 53.4014 53.1557Z" fill="#002DD5"/>
<path d="M22.7915 63.6205C22.7915 64.29 22.258 64.8338 21.5991 64.8338C20.9401 64.8338 20.4067 64.29 20.4067 63.6205C20.4067 62.9511 20.9401 62.4072 21.5991 62.4072C22.258 62.4072 22.7915 62.9511 22.7915 63.6205Z" fill="#002DD5"/>
<path d="M43.1981 63.6205C43.1981 64.29 42.6647 64.8338 42.0057 64.8338C41.3468 64.8338 40.8133 64.29 40.8133 63.6205C40.8133 62.9511 41.3468 62.4072 42.0057 62.4072C42.6647 62.4072 43.1981 62.9511 43.1981 63.6205Z" fill="#002DD5"/>
<path d="M31.8076 61.8735L30.3223 64.4884H33.2876L31.8076 61.8735Z" fill="#002DD5"/>
<path d="M31.8076 51.8486L30.3223 54.4635H33.2876L31.8076 51.8486Z" fill="#002DD5"/>
<path d="M31.8076 41.5195L30.3223 44.1344H33.2876L31.8076 41.5195Z" fill="#002DD5"/>
<path d="M31.8076 31.1904L30.3223 33.8053H33.2876L31.8076 31.1904Z" fill="#002DD5"/>
<path d="M31.8076 20.3857L30.3223 22.9954H33.2876L31.8076 20.3857Z" fill="#002DD5"/>
<path d="M31.8076 10.397L30.3223 13.0119H33.2876L31.8076 10.397Z" fill="#002DD5"/>
<path d="M31.8076 0L30.3223 2.6149H33.2876L31.8076 0Z" fill="#002DD5"/>
<defs>
<clipPath id="clip0_325_139">
<rect width="60" height="60" fill="white" transform="translate(23 20)"/>
</clipPath>
</defs>
</svg>
