<svg width="137" height="84" viewBox="0 0 137 84" fill="none" xmlns="http://www.w3.org/2000/svg">
<path d="M0 68.031L68.0238 0L136.12 68.0962L0 68.031Z" fill="#E8E8FF"/>
<path d="M67.1471 17.6562C66.6617 17.1708 66.6617 16.3883 67.1471 15.9029C67.6326 15.4175 68.415 15.4175 68.9004 15.9029C69.3859 16.3883 69.3859 17.1708 68.9004 17.6562C68.415 18.1416 67.6326 18.1416 67.1471 17.6562Z" fill="#002DD5"/>
<path d="M62.1335 22.6696C61.6481 22.1842 61.6481 21.4017 62.1335 20.9163C62.619 20.4309 63.4014 20.4309 63.8868 20.9163C64.3723 21.4017 64.3723 22.1842 63.8868 22.6696C63.4014 23.155 62.619 23.155 62.1335 22.6696Z" fill="#002DD5"/>
<path d="M57.1272 27.6759C56.6418 27.1905 56.6418 26.4081 57.1272 25.9227C57.6126 25.4372 58.3951 25.4372 58.8805 25.9227C59.3659 26.4081 59.3659 27.1905 58.8805 27.6759C58.3951 28.1614 57.6126 28.1614 57.1272 27.6759Z" fill="#002DD5"/>
<path d="M52.1209 32.6823C51.6355 32.1969 51.6355 31.4144 52.1209 30.929C52.6063 30.4436 53.3888 30.4436 53.8742 30.929C54.3596 31.4144 54.3596 32.1969 53.8742 32.6823C53.3888 33.1677 52.6063 33.1677 52.1209 32.6823Z" fill="#002DD5"/>
<path d="M47.1073 37.696C46.6219 37.2106 46.6219 36.4281 47.1073 35.9427C47.5927 35.4573 48.3752 35.4573 48.8606 35.9427C49.346 36.4281 49.346 37.2106 48.8606 37.696C48.3752 38.1814 47.5927 38.1814 47.1073 37.696Z" fill="#002DD5"/>
<path d="M42.101 42.7023C41.6156 42.2169 41.6156 41.4344 42.101 40.949C42.5864 40.4636 43.3689 40.4636 43.8543 40.949C44.3397 41.4344 44.3397 42.2169 43.8543 42.7023C43.3689 43.1878 42.5864 43.1878 42.101 42.7023Z" fill="#002DD5"/>
<path d="M37.0947 47.7087C36.6092 47.2232 36.6092 46.4408 37.0947 45.9554C37.5801 45.47 38.3625 45.47 38.848 45.9554C39.3334 46.4408 39.3334 47.2232 38.848 47.7087C38.3625 48.1941 37.5801 48.1941 37.0947 47.7087Z" fill="#002DD5"/>
<path d="M32.081 52.7221C31.5956 52.2367 31.5956 51.4542 32.081 50.9688C32.5665 50.4834 33.3489 50.4834 33.8343 50.9688C34.3198 51.4542 34.3198 52.2367 33.8343 52.7221C33.3489 53.2075 32.5665 53.2075 32.081 52.7221Z" fill="#002DD5"/>
<path d="M27.0748 57.7285C26.5893 57.243 26.5893 56.4606 27.0748 55.9751C27.5602 55.4897 28.3426 55.4897 28.828 55.9751C29.3135 56.4606 29.3135 57.243 28.828 57.7285C28.3426 58.2139 27.5602 58.2139 27.0748 57.7285Z" fill="#002DD5"/>
<path d="M22.0684 62.7348C21.583 62.2494 21.583 61.4669 22.0684 60.9815C22.5538 60.4961 23.3363 60.4961 23.8217 60.9815C24.3071 61.4669 24.3071 62.2494 23.8217 62.7348C23.3363 63.2202 22.5538 63.2202 22.0684 62.7348Z" fill="#002DD5"/>
<path d="M17.0549 67.7485C16.5694 67.263 16.5694 66.4806 17.0549 65.9952C17.5403 65.5097 18.3228 65.5097 18.8082 65.9952C19.2936 66.4806 19.2936 67.263 18.8082 67.7485C18.3228 68.2339 17.5403 68.2339 17.0549 67.7485Z" fill="#002DD5"/>
<path d="M12.0485 72.7548C11.5631 72.2694 11.5631 71.4869 12.0485 71.0015C12.5339 70.5161 13.3164 70.5161 13.8018 71.0015C14.2872 71.4869 14.2872 72.2694 13.8018 72.7548C13.3164 73.2402 12.5339 73.2402 12.0485 72.7548Z" fill="#002DD5"/>
<path d="M7.04223 77.7683C6.55681 77.2828 6.55681 76.5004 7.04223 76.0149C7.52764 75.5295 8.3101 75.5295 8.79552 76.0149C9.28093 76.5004 9.28093 77.2828 8.79552 77.7683C8.3101 78.2537 7.52764 78.2537 7.04223 77.7683Z" fill="#002DD5"/>
<path d="M2.02861 82.7746C1.5432 82.2892 1.5432 81.5067 2.02861 81.0213C2.51403 80.5359 3.29651 80.5359 3.78193 81.0213C4.26734 81.5067 4.26734 82.2892 3.78193 82.7746C3.29651 83.26 2.51403 83.26 2.02861 82.7746Z" fill="#002DD5"/>
<path d="M72.1535 22.6696C71.6681 22.1842 71.6681 21.4017 72.1535 20.9163C72.6389 20.4309 73.4214 20.4309 73.9068 20.9163C74.3922 21.4017 74.3922 22.1842 73.9068 22.6696C73.4214 23.155 72.6389 23.155 72.1535 22.6696Z" fill="#002DD5"/>
<path d="M67.1471 27.6759C66.6617 27.1905 66.6617 26.4081 67.1471 25.9227C67.6326 25.4372 68.415 25.4372 68.9004 25.9227C69.3859 26.4081 69.3859 27.1905 68.9004 27.6759C68.415 28.1614 67.6326 28.1614 67.1471 27.6759Z" fill="#002DD5"/>
<path d="M62.1335 32.6823C61.6481 32.1969 61.6481 31.4144 62.1335 30.929C62.619 30.4436 63.4014 30.4436 63.8868 30.929C64.3723 31.4144 64.3723 32.1969 63.8868 32.6823C63.4014 33.1677 62.619 33.1677 62.1335 32.6823Z" fill="#002DD5"/>
<path d="M57.1272 37.696C56.6418 37.2106 56.6418 36.4281 57.1272 35.9427C57.6126 35.4573 58.3951 35.4573 58.8805 35.9427C59.3659 36.4281 59.3659 37.2106 58.8805 37.696C58.3951 38.1814 57.6126 38.1814 57.1272 37.696Z" fill="#002DD5"/>
<path d="M52.1209 42.7023C51.6355 42.2169 51.6355 41.4344 52.1209 40.949C52.6063 40.4636 53.3888 40.4636 53.8742 40.949C54.3596 41.4344 54.3596 42.2169 53.8742 42.7023C53.3888 43.1878 52.6063 43.1878 52.1209 42.7023Z" fill="#002DD5"/>
<path d="M47.1073 47.7087C46.6219 47.2232 46.6219 46.4408 47.1073 45.9554C47.5927 45.47 48.3752 45.47 48.8606 45.9554C49.346 46.4408 49.346 47.2232 48.8606 47.7087C48.3752 48.1941 47.5927 48.1941 47.1073 47.7087Z" fill="#002DD5"/>
<path d="M42.101 52.7221C41.6156 52.2367 41.6156 51.4542 42.101 50.9688C42.5864 50.4834 43.3689 50.4834 43.8543 50.9688C44.3397 51.4542 44.3397 52.2367 43.8543 52.7221C43.3689 53.2075 42.5864 53.2075 42.101 52.7221Z" fill="#002DD5"/>
<path d="M37.0947 57.7285C36.6092 57.243 36.6092 56.4606 37.0947 55.9751C37.5801 55.4897 38.3625 55.4897 38.848 55.9751C39.3334 56.4606 39.3334 57.243 38.848 57.7285C38.3625 58.2139 37.5801 58.2139 37.0947 57.7285Z" fill="#002DD5"/>
<path d="M32.081 62.7348C31.5956 62.2494 31.5956 61.4669 32.081 60.9815C32.5665 60.4961 33.3489 60.4961 33.8343 60.9815C34.3198 61.4669 34.3198 62.2494 33.8343 62.7348C33.3489 63.2202 32.5665 63.2202 32.081 62.7348Z" fill="#002DD5"/>
<path d="M27.0748 67.7485C26.5893 67.263 26.5893 66.4806 27.0748 65.9952C27.5602 65.5097 28.3426 65.5097 28.828 65.9952C29.3135 66.4806 29.3135 67.263 28.828 67.7485C28.3426 68.2339 27.5602 68.2339 27.0748 67.7485Z" fill="#002DD5"/>
<path d="M22.0684 72.7548C21.583 72.2694 21.583 71.4869 22.0684 71.0015C22.5538 70.5161 23.3363 70.5161 23.8217 71.0015C24.3071 71.4869 24.3071 72.2694 23.8217 72.7548C23.3363 73.2402 22.5538 73.2402 22.0684 72.7548Z" fill="#002DD5"/>
<path d="M17.0549 77.7683C16.5694 77.2828 16.5694 76.5004 17.0549 76.0149C17.5403 75.5295 18.3228 75.5295 18.8082 76.0149C19.2936 76.5004 19.2936 77.2828 18.8082 77.7683C18.3228 78.2537 17.5403 78.2537 17.0549 77.7683Z" fill="#002DD5"/>
<path d="M12.0485 82.7746C11.5631 82.2892 11.5631 81.5067 12.0485 81.0213C12.5339 80.5359 13.3164 80.5359 13.8018 81.0213C14.2872 81.5067 14.2872 82.2892 13.8018 82.7746C13.3164 83.26 12.5339 83.26 12.0485 82.7746Z" fill="#002DD5"/>
<path d="M77.1598 27.6759C76.6744 27.1905 76.6744 26.4081 77.1598 25.9227C77.6452 25.4372 78.4277 25.4372 78.9131 25.9227C79.3985 26.4081 79.3985 27.1905 78.9131 27.6759C78.4277 28.1614 77.6452 28.1614 77.1598 27.6759Z" fill="#002DD5"/>
<path d="M72.1535 32.6823C71.6681 32.1969 71.6681 31.4144 72.1535 30.929C72.6389 30.4436 73.4214 30.4436 73.9068 30.929C74.3922 31.4144 74.3922 32.1969 73.9068 32.6823C73.4214 33.1677 72.6389 33.1677 72.1535 32.6823Z" fill="#002DD5"/>
<path d="M67.1471 37.696C66.6617 37.2106 66.6617 36.4281 67.1471 35.9427C67.6326 35.4573 68.415 35.4573 68.9004 35.9427C69.3859 36.4281 69.3859 37.2106 68.9004 37.696C68.415 38.1814 67.6326 38.1814 67.1471 37.696Z" fill="#002DD5"/>
<path d="M62.1335 42.7023C61.6481 42.2169 61.6481 41.4344 62.1335 40.949C62.619 40.4636 63.4014 40.4636 63.8868 40.949C64.3723 41.4344 64.3723 42.2169 63.8868 42.7023C63.4014 43.1878 62.619 43.1878 62.1335 42.7023Z" fill="#002DD5"/>
<path d="M57.1272 47.7087C56.6418 47.2232 56.6418 46.4408 57.1272 45.9554C57.6126 45.47 58.3951 45.47 58.8805 45.9554C59.3659 46.4408 59.3659 47.2232 58.8805 47.7087C58.3951 48.1941 57.6126 48.1941 57.1272 47.7087Z" fill="#002DD5"/>
<path d="M52.1209 52.7221C51.6355 52.2367 51.6355 51.4542 52.1209 50.9688C52.6063 50.4834 53.3888 50.4834 53.8742 50.9688C54.3596 51.4542 54.3596 52.2367 53.8742 52.7221C53.3888 53.2075 52.6063 53.2075 52.1209 52.7221Z" fill="#002DD5"/>
<path d="M47.1073 57.7285C46.6219 57.243 46.6219 56.4606 47.1073 55.9751C47.5927 55.4897 48.3752 55.4897 48.8606 55.9751C49.346 56.4606 49.346 57.243 48.8606 57.7285C48.3752 58.2139 47.5927 58.2139 47.1073 57.7285Z" fill="#002DD5"/>
<path d="M42.101 62.7348C41.6156 62.2494 41.6156 61.4669 42.101 60.9815C42.5864 60.4961 43.3689 60.4961 43.8543 60.9815C44.3397 61.4669 44.3397 62.2494 43.8543 62.7348C43.3689 63.2202 42.5864 63.2202 42.101 62.7348Z" fill="#002DD5"/>
<path d="M37.0947 67.7485C36.6092 67.263 36.6092 66.4806 37.0947 65.9952C37.5801 65.5097 38.3625 65.5097 38.848 65.9952C39.3334 66.4806 39.3334 67.263 38.848 67.7485C38.3625 68.2339 37.5801 68.2339 37.0947 67.7485Z" fill="#002DD5"/>
<path d="M32.081 72.7548C31.5956 72.2694 31.5956 71.4869 32.081 71.0015C32.5665 70.5161 33.3489 70.5161 33.8343 71.0015C34.3198 71.4869 34.3198 72.2694 33.8343 72.7548C33.3489 73.2402 32.5665 73.2402 32.081 72.7548Z" fill="#002DD5"/>
<path d="M27.0748 77.7683C26.5893 77.2828 26.5893 76.5004 27.0748 76.0149C27.5602 75.5295 28.3426 75.5295 28.828 76.0149C29.3135 76.5004 29.3135 77.2828 28.828 77.7683C28.3426 78.2537 27.5602 78.2537 27.0748 77.7683Z" fill="#002DD5"/>
<path d="M22.0684 82.7746C21.583 82.2892 21.583 81.5067 22.0684 81.0213C22.5538 80.5359 23.3363 80.5359 23.8217 81.0213C24.3071 81.5067 24.3071 82.2892 23.8217 82.7746C23.3363 83.26 22.5538 83.26 22.0684 82.7746Z" fill="#002DD5"/>
<path d="M82.1733 32.6823C81.6879 32.1969 81.6879 31.4144 82.1733 30.929C82.6587 30.4436 83.4412 30.4436 83.9266 30.929C84.4121 31.4144 84.4121 32.1969 83.9266 32.6823C83.4412 33.1677 82.6587 33.1677 82.1733 32.6823Z" fill="#002DD5"/>
<path d="M77.1598 37.696C76.6744 37.2106 76.6744 36.4281 77.1598 35.9427C77.6452 35.4573 78.4277 35.4573 78.9131 35.9427C79.3985 36.4281 79.3985 37.2106 78.9131 37.696C78.4277 38.1814 77.6452 38.1814 77.1598 37.696Z" fill="#002DD5"/>
<path d="M72.1535 42.7023C71.6681 42.2169 71.6681 41.4344 72.1535 40.949C72.6389 40.4636 73.4214 40.4636 73.9068 40.949C74.3922 41.4344 74.3922 42.2169 73.9068 42.7023C73.4214 43.1878 72.6389 43.1878 72.1535 42.7023Z" fill="#002DD5"/>
<path d="M67.1471 47.7087C66.6617 47.2232 66.6617 46.4408 67.1471 45.9554C67.6326 45.47 68.415 45.47 68.9004 45.9554C69.3859 46.4408 69.3859 47.2232 68.9004 47.7087C68.415 48.1941 67.6326 48.1941 67.1471 47.7087Z" fill="#002DD5"/>
<path d="M62.1335 52.7221C61.6481 52.2367 61.6481 51.4542 62.1335 50.9688C62.619 50.4834 63.4014 50.4834 63.8868 50.9688C64.3723 51.4542 64.3723 52.2367 63.8868 52.7221C63.4014 53.2075 62.619 53.2075 62.1335 52.7221Z" fill="#002DD5"/>
<path d="M57.1272 57.7285C56.6418 57.243 56.6418 56.4606 57.1272 55.9751C57.6126 55.4897 58.3951 55.4897 58.8805 55.9751C59.3659 56.4606 59.3659 57.243 58.8805 57.7285C58.3951 58.2139 57.6126 58.2139 57.1272 57.7285Z" fill="#002DD5"/>
<path d="M52.1209 62.7421C51.6355 62.2567 51.6355 61.4742 52.1209 60.9888C52.6063 60.5034 53.3888 60.5034 53.8742 60.9888C54.3596 61.4742 54.3596 62.2567 53.8742 62.7421C53.3888 63.2275 52.6063 63.2275 52.1209 62.7421Z" fill="#002DD5"/>
<path d="M47.1073 67.7485C46.6219 67.263 46.6219 66.4806 47.1073 65.9952C47.5927 65.5097 48.3752 65.5097 48.8606 65.9952C49.346 66.4806 49.346 67.263 48.8606 67.7485C48.3752 68.2339 47.5927 68.2339 47.1073 67.7485Z" fill="#002DD5"/>
<path d="M42.101 72.7548C41.6156 72.2694 41.6156 71.4869 42.101 71.0015C42.5864 70.5161 43.3689 70.5161 43.8543 71.0015C44.3397 71.4869 44.3397 72.2694 43.8543 72.7548C43.3689 73.2402 42.5864 73.2402 42.101 72.7548Z" fill="#002DD5"/>
<path d="M37.0947 77.7683C36.6092 77.2828 36.6092 76.5004 37.0947 76.0149C37.5801 75.5295 38.3625 75.5295 38.848 76.0149C39.3334 76.5004 39.3334 77.2828 38.848 77.7683C38.3625 78.2537 37.5801 78.2537 37.0947 77.7683Z" fill="#002DD5"/>
<path d="M32.081 82.7746C31.5956 82.2892 31.5956 81.5067 32.081 81.0213C32.5665 80.5359 33.3489 80.5359 33.8343 81.0213C34.3198 81.5067 34.3198 82.2892 33.8343 82.7746C33.3489 83.26 32.5665 83.26 32.081 82.7746Z" fill="#002DD5"/>
<path d="M87.1797 37.696C86.6943 37.2106 86.6943 36.4281 87.1797 35.9427C87.6651 35.4573 88.4476 35.4573 88.933 35.9427C89.4184 36.4281 89.4184 37.2106 88.933 37.696C88.4476 38.1814 87.6651 38.1814 87.1797 37.696Z" fill="#002DD5"/>
<path d="M82.1733 42.7023C81.6879 42.2169 81.6879 41.4344 82.1733 40.949C82.6587 40.4636 83.4412 40.4636 83.9266 40.949C84.4121 41.4344 84.4121 42.2169 83.9266 42.7023C83.4412 43.1878 82.6587 43.1878 82.1733 42.7023Z" fill="#002DD5"/>
<path d="M77.1598 47.7087C76.6744 47.2232 76.6744 46.4408 77.1598 45.9554C77.6452 45.47 78.4277 45.47 78.9131 45.9554C79.3985 46.4408 79.3985 47.2232 78.9131 47.7087C78.4277 48.1941 77.6452 48.1941 77.1598 47.7087Z" fill="#002DD5"/>
<path d="M72.1535 52.7221C71.6681 52.2367 71.6681 51.4542 72.1535 50.9688C72.6389 50.4834 73.4214 50.4834 73.9068 50.9688C74.3922 51.4542 74.3922 52.2367 73.9068 52.7221C73.4214 53.2075 72.6389 53.2075 72.1535 52.7221Z" fill="#002DD5"/>
<path d="M67.1471 57.7285C66.6617 57.243 66.6617 56.4606 67.1471 55.9751C67.6326 55.4897 68.415 55.4897 68.9004 55.9751C69.3859 56.4606 69.3859 57.243 68.9004 57.7285C68.415 58.2139 67.6326 58.2139 67.1471 57.7285Z" fill="#002DD5"/>
<path d="M62.1335 62.7348C61.6481 62.2494 61.6481 61.4669 62.1335 60.9815C62.619 60.4961 63.4014 60.4961 63.8868 60.9815C64.3723 61.4669 64.3723 62.2494 63.8868 62.7348C63.4014 63.2202 62.619 63.2202 62.1335 62.7348Z" fill="#002DD5"/>
<path d="M57.1272 67.7485C56.6418 67.263 56.6418 66.4806 57.1272 65.9952C57.6126 65.5097 58.3951 65.5097 58.8805 65.9952C59.3659 66.4806 59.3659 67.263 58.8805 67.7485C58.3951 68.2339 57.6126 68.2339 57.1272 67.7485Z" fill="#002DD5"/>
<path d="M52.1209 72.7548C51.6355 72.2694 51.6355 71.4869 52.1209 71.0015C52.6063 70.5161 53.3888 70.5161 53.8742 71.0015C54.3596 71.4869 54.3596 72.2694 53.8742 72.7548C53.3888 73.2402 52.6063 73.2402 52.1209 72.7548Z" fill="#002DD5"/>
<path d="M47.1073 77.7683C46.6219 77.2828 46.6219 76.5004 47.1073 76.0149C47.5927 75.5295 48.3752 75.5295 48.8606 76.0149C49.346 76.5004 49.346 77.2828 48.8606 77.7683C48.3752 78.2537 47.5927 78.2537 47.1073 77.7683Z" fill="#002DD5"/>
<path d="M42.101 82.7746C41.6156 82.2892 41.6156 81.5067 42.101 81.0213C42.5864 80.5359 43.3689 80.5359 43.8543 81.0213C44.3397 81.5067 44.3397 82.2892 43.8543 82.7746C43.3689 83.26 42.5864 83.26 42.101 82.7746Z" fill="#002DD5"/>
<path d="M92.186 42.7023C91.7006 42.2169 91.7006 41.4344 92.186 40.949C92.6714 40.4636 93.4539 40.4636 93.9393 40.949C94.4248 41.4344 94.4248 42.2169 93.9393 42.7023C93.4539 43.1878 92.6714 43.1878 92.186 42.7023Z" fill="#002DD5"/>
<path d="M87.1797 47.7087C86.6943 47.2232 86.6943 46.4408 87.1797 45.9554C87.6651 45.47 88.4476 45.47 88.933 45.9554C89.4184 46.4408 89.4184 47.2232 88.933 47.7087C88.4476 48.1941 87.6651 48.1941 87.1797 47.7087Z" fill="#002DD5"/>
<path d="M82.1733 52.7221C81.6879 52.2367 81.6879 51.4542 82.1733 50.9688C82.6587 50.4834 83.4412 50.4834 83.9266 50.9688C84.4121 51.4542 84.4121 52.2367 83.9266 52.7221C83.4412 53.2075 82.6587 53.2075 82.1733 52.7221Z" fill="#002DD5"/>
<path d="M77.1598 57.7285C76.6744 57.243 76.6744 56.4606 77.1598 55.9751C77.6452 55.4897 78.4277 55.4897 78.9131 55.9751C79.3985 56.4606 79.3985 57.243 78.9131 57.7285C78.4277 58.2139 77.6452 58.2139 77.1598 57.7285Z" fill="#002DD5"/>
<path d="M72.1535 62.7348C71.6681 62.2494 71.6681 61.4669 72.1535 60.9815C72.6389 60.4961 73.4214 60.4961 73.9068 60.9815C74.3922 61.4669 74.3922 62.2494 73.9068 62.7348C73.4214 63.2202 72.6389 63.2202 72.1535 62.7348Z" fill="#002DD5"/>
<path d="M67.1471 67.7485C66.6617 67.263 66.6617 66.4806 67.1471 65.9952C67.6326 65.5097 68.415 65.5097 68.9004 65.9952C69.3859 66.4806 69.3859 67.263 68.9004 67.7485C68.415 68.2339 67.6326 68.2339 67.1471 67.7485Z" fill="#002DD5"/>
<path d="M62.1335 72.7548C61.6481 72.2694 61.6481 71.4869 62.1335 71.0015C62.619 70.5161 63.4014 70.5161 63.8868 71.0015C64.3723 71.4869 64.3723 72.2694 63.8868 72.7548C63.4014 73.2402 62.619 73.2402 62.1335 72.7548Z" fill="#002DD5"/>
<path d="M57.1272 77.7683C56.6418 77.2828 56.6418 76.5004 57.1272 76.0149C57.6126 75.5295 58.3951 75.5295 58.8805 76.0149C59.3659 76.5004 59.3659 77.2828 58.8805 77.7683C58.3951 78.2537 57.6126 78.2537 57.1272 77.7683Z" fill="#002DD5"/>
<path d="M52.1209 82.7746C51.6355 82.2892 51.6355 81.5067 52.1209 81.0213C52.6063 80.5359 53.3888 80.5359 53.8742 81.0213C54.3596 81.5067 54.3596 82.2892 53.8742 82.7746C53.3888 83.26 52.6063 83.26 52.1209 82.7746Z" fill="#002DD5"/>
<path d="M97.1996 47.7087C96.7142 47.2232 96.7142 46.4408 97.1996 45.9554C97.685 45.47 98.4674 45.47 98.9529 45.9554C99.4383 46.4408 99.4383 47.2232 98.9529 47.7087C98.4674 48.1941 97.685 48.1941 97.1996 47.7087Z" fill="#002DD5"/>
<path d="M92.186 52.7221C91.7006 52.2367 91.7006 51.4542 92.186 50.9688C92.6714 50.4834 93.4539 50.4834 93.9393 50.9688C94.4248 51.4542 94.4248 52.2367 93.9393 52.7221C93.4539 53.2075 92.6714 53.2075 92.186 52.7221Z" fill="#002DD5"/>
<path d="M87.1797 57.7285C86.6943 57.243 86.6943 56.4606 87.1797 55.9751C87.6651 55.4897 88.4476 55.4897 88.933 55.9751C89.4184 56.4606 89.4184 57.243 88.933 57.7285C88.4476 58.2139 87.6651 58.2139 87.1797 57.7285Z" fill="#002DD5"/>
<path d="M82.1733 62.7421C81.6879 62.2567 81.6879 61.4742 82.1733 60.9888C82.6587 60.5034 83.4412 60.5034 83.9266 60.9888C84.4121 61.4742 84.4121 62.2567 83.9266 62.7421C83.4412 63.2275 82.6587 63.2275 82.1733 62.7421Z" fill="#002DD5"/>
<path d="M77.1598 67.7485C76.6744 67.263 76.6744 66.4806 77.1598 65.9952C77.6452 65.5097 78.4277 65.5097 78.9131 65.9952C79.3985 66.4806 79.3985 67.263 78.9131 67.7485C78.4277 68.2339 77.6452 68.2339 77.1598 67.7485Z" fill="#002DD5"/>
<path d="M72.1535 72.7548C71.6681 72.2694 71.6681 71.4869 72.1535 71.0015C72.6389 70.5161 73.4214 70.5161 73.9068 71.0015C74.3922 71.4869 74.3922 72.2694 73.9068 72.7548C73.4214 73.2402 72.6389 73.2402 72.1535 72.7548Z" fill="#002DD5"/>
<path d="M67.1471 77.7683C66.6617 77.2828 66.6617 76.5004 67.1471 76.0149C67.6326 75.5295 68.415 75.5295 68.9004 76.0149C69.3859 76.5004 69.3859 77.2828 68.9004 77.7683C68.415 78.2537 67.6326 78.2537 67.1471 77.7683Z" fill="#002DD5"/>
<path d="M62.1335 82.7746C61.6481 82.2892 61.6481 81.5067 62.1335 81.0213C62.619 80.5359 63.4014 80.5359 63.8868 81.0213C64.3723 81.5067 64.3723 82.2892 63.8868 82.7746C63.4014 83.26 62.619 83.26 62.1335 82.7746Z" fill="#002DD5"/>
<path d="M102.206 52.7221C101.721 52.2367 101.721 51.4542 102.206 50.9688C102.691 50.4834 103.474 50.4834 103.959 50.9688C104.445 51.4542 104.445 52.2367 103.959 52.7221C103.474 53.2075 102.691 53.2075 102.206 52.7221Z" fill="#002DD5"/>
<path d="M97.1996 57.7285C96.7142 57.243 96.7142 56.4606 97.1996 55.9751C97.685 55.4897 98.4674 55.4897 98.9529 55.9751C99.4383 56.4606 99.4383 57.243 98.9529 57.7285C98.4674 58.2139 97.685 58.2139 97.1996 57.7285Z" fill="#002DD5"/>
<path d="M92.186 62.7348C91.7006 62.2494 91.7006 61.4669 92.186 60.9815C92.6714 60.4961 93.4539 60.4961 93.9393 60.9815C94.4248 61.4669 94.4248 62.2494 93.9393 62.7348C93.4539 63.2202 92.6714 63.2202 92.186 62.7348Z" fill="#002DD5"/>
<path d="M87.1797 67.7485C86.6943 67.263 86.6943 66.4806 87.1797 65.9952C87.6651 65.5097 88.4476 65.5097 88.933 65.9952C89.4184 66.4806 89.4184 67.263 88.933 67.7485C88.4476 68.2339 87.6651 68.2339 87.1797 67.7485Z" fill="#002DD5"/>
<path d="M82.1733 72.7548C81.6879 72.2694 81.6879 71.4869 82.1733 71.0015C82.6587 70.5161 83.4412 70.5161 83.9266 71.0015C84.4121 71.4869 84.4121 72.2694 83.9266 72.7548C83.4412 73.2402 82.6587 73.2402 82.1733 72.7548Z" fill="#002DD5"/>
<path d="M77.1598 77.7683C76.6744 77.2828 76.6744 76.5004 77.1598 76.0149C77.6452 75.5295 78.4277 75.5295 78.9131 76.0149C79.3985 76.5004 79.3985 77.2828 78.9131 77.7683C78.4277 78.2537 77.6452 78.2537 77.1598 77.7683Z" fill="#002DD5"/>
<path d="M72.1535 82.7746C71.6681 82.2892 71.6681 81.5067 72.1535 81.0213C72.6389 80.5359 73.4214 80.5359 73.9068 81.0213C74.3922 81.5067 74.3922 82.2892 73.9068 82.7746C73.4214 83.26 72.6389 83.26 72.1535 82.7746Z" fill="#002DD5"/>
<path d="M107.219 57.7285C106.734 57.243 106.734 56.4606 107.219 55.9751C107.705 55.4897 108.487 55.4897 108.973 55.9751C109.458 56.4606 109.458 57.243 108.973 57.7285C108.487 58.2139 107.705 58.2139 107.219 57.7285Z" fill="#002DD5"/>
<path d="M102.206 62.7348C101.721 62.2494 101.721 61.4669 102.206 60.9815C102.691 60.4961 103.474 60.4961 103.959 60.9815C104.445 61.4669 104.445 62.2494 103.959 62.7348C103.474 63.2202 102.691 63.2202 102.206 62.7348Z" fill="#002DD5"/>
<path d="M97.1996 67.7485C96.7142 67.263 96.7142 66.4806 97.1996 65.9952C97.685 65.5097 98.4674 65.5097 98.9529 65.9952C99.4383 66.4806 99.4383 67.263 98.9529 67.7485C98.4674 68.2339 97.685 68.2339 97.1996 67.7485Z" fill="#002DD5"/>
<path d="M92.186 72.7548C91.7006 72.2694 91.7006 71.4869 92.186 71.0015C92.6714 70.5161 93.4539 70.5161 93.9393 71.0015C94.4248 71.4869 94.4248 72.2694 93.9393 72.7548C93.4539 73.2402 92.6714 73.2402 92.186 72.7548Z" fill="#002DD5"/>
<path d="M87.1797 77.7683C86.6943 77.2828 86.6943 76.5004 87.1797 76.0149C87.6651 75.5295 88.4476 75.5295 88.933 76.0149C89.4184 76.5004 89.4184 77.2828 88.933 77.7683C88.4476 78.2537 87.6651 78.2537 87.1797 77.7683Z" fill="#002DD5"/>
<path d="M82.1733 82.7746C81.6879 82.2892 81.6879 81.5067 82.1733 81.0213C82.6587 80.5359 83.4412 80.5359 83.9266 81.0213C84.4121 81.5067 84.4121 82.2892 83.9266 82.7746C83.4412 83.26 82.6587 83.26 82.1733 82.7746Z" fill="#002DD5"/>
<path d="M112.226 62.7348C111.74 62.2494 111.74 61.4669 112.226 60.9815C112.711 60.4961 113.494 60.4961 113.979 60.9815C114.464 61.4669 114.464 62.2494 113.979 62.7348C113.494 63.2202 112.711 63.2202 112.226 62.7348Z" fill="#002DD5"/>
<path d="M107.219 67.7485C106.734 67.263 106.734 66.4806 107.219 65.9952C107.705 65.5097 108.487 65.5097 108.973 65.9952C109.458 66.4806 109.458 67.263 108.973 67.7485C108.487 68.2339 107.705 68.2339 107.219 67.7485Z" fill="#002DD5"/>
<path d="M102.206 72.7548C101.721 72.2694 101.721 71.4869 102.206 71.0015C102.691 70.5161 103.474 70.5161 103.959 71.0015C104.445 71.4869 104.445 72.2694 103.959 72.7548C103.474 73.2402 102.691 73.2402 102.206 72.7548Z" fill="#002DD5"/>
<path d="M97.1996 77.7683C96.7142 77.2828 96.7142 76.5004 97.1996 76.0149C97.685 75.5295 98.4674 75.5295 98.9529 76.0149C99.4383 76.5004 99.4383 77.2828 98.9529 77.7683C98.4674 78.2537 97.685 78.2537 97.1996 77.7683Z" fill="#002DD5"/>
<path d="M92.186 82.7746C91.7006 82.2892 91.7006 81.5067 92.186 81.0213C92.6714 80.5359 93.4539 80.5359 93.9393 81.0213C94.4248 81.5067 94.4248 82.2892 93.9393 82.7746C93.4539 83.26 92.6714 83.26 92.186 82.7746Z" fill="#002DD5"/>
<path d="M117.232 67.7485C116.747 67.263 116.747 66.4806 117.232 65.9952C117.718 65.5097 118.5 65.5097 118.985 65.9952C119.471 66.4806 119.471 67.263 118.985 67.7485C118.5 68.2339 117.718 68.2339 117.232 67.7485Z" fill="#002DD5"/>
<path d="M112.226 72.7548C111.74 72.2694 111.74 71.4869 112.226 71.0015C112.711 70.5161 113.494 70.5161 113.979 71.0015C114.464 71.4869 114.464 72.2694 113.979 72.7548C113.494 73.2402 112.711 73.2402 112.226 72.7548Z" fill="#002DD5"/>
<path d="M107.219 77.7683C106.734 77.2828 106.734 76.5004 107.219 76.0149C107.705 75.5295 108.487 75.5295 108.973 76.0149C109.458 76.5004 109.458 77.2828 108.973 77.7683C108.487 78.2537 107.705 78.2537 107.219 77.7683Z" fill="#002DD5"/>
<path d="M102.206 82.7746C101.721 82.2892 101.721 81.5067 102.206 81.0213C102.691 80.5359 103.474 80.5359 103.959 81.0213C104.445 81.5067 104.445 82.2892 103.959 82.7746C103.474 83.26 102.691 83.26 102.206 82.7746Z" fill="#002DD5"/>
<path d="M122.246 72.7548C121.76 72.2694 121.76 71.4869 122.246 71.0015C122.731 70.5161 123.514 70.5161 123.999 71.0015C124.484 71.4869 124.484 72.2694 123.999 72.7548C123.514 73.2402 122.731 73.2402 122.246 72.7548Z" fill="#002DD5"/>
<path d="M117.232 77.7683C116.747 77.2828 116.747 76.5004 117.232 76.0149C117.718 75.5295 118.5 75.5295 118.985 76.0149C119.471 76.5004 119.471 77.2828 118.985 77.7683C118.5 78.2537 117.718 78.2537 117.232 77.7683Z" fill="#002DD5"/>
<path d="M112.226 82.7746C111.74 82.2892 111.74 81.5067 112.226 81.0213C112.711 80.5359 113.494 80.5359 113.979 81.0213C114.464 81.5067 114.464 82.2892 113.979 82.7746C113.494 83.26 112.711 83.26 112.226 82.7746Z" fill="#002DD5"/>
<path d="M127.252 77.7683C126.767 77.2828 126.767 76.5004 127.252 76.0149C127.737 75.5295 128.52 75.5295 129.005 76.0149C129.491 76.5004 129.491 77.2828 129.005 77.7683C128.52 78.2537 127.737 78.2537 127.252 77.7683Z" fill="#002DD5"/>
<path d="M122.246 82.7746C121.76 82.2892 121.76 81.5067 122.246 81.0213C122.731 80.5359 123.514 80.5359 123.999 81.0213C124.484 81.5067 124.484 82.2892 123.999 82.7746C123.514 83.26 122.731 83.26 122.246 82.7746Z" fill="#002DD5"/>
<path d="M132.258 82.7746C131.773 82.2892 131.773 81.5067 132.258 81.0213C132.744 80.5359 133.526 80.5359 134.012 81.0213C134.497 81.5067 134.497 82.2892 134.012 82.7746C133.526 83.26 132.744 83.26 132.258 82.7746Z" fill="#002DD5"/>
</svg>
