<svg width="107" height="107" viewBox="0 0 107 107" fill="none" xmlns="http://www.w3.org/2000/svg">
<g clip-path="url(#clip0_576_67)">
<path d="M103.56 1.39C103.56 0.62 104.18 0 104.95 0C105.72 0 106.34 0.62 106.34 1.39C106.34 2.16 105.72 2.78 104.95 2.78C104.18 2.78 103.56 2.16 103.56 1.39Z" fill="#002DD5"/>
<path d="M95.6001 1.39C95.6001 0.62 96.2201 0 96.9901 0C97.7601 0 98.3801 0.62 98.3801 1.39C98.3801 2.16 97.7601 2.78 96.9901 2.78C96.2201 2.78 95.6001 2.16 95.6001 1.39Z" fill="#002DD5"/>
<path d="M87.6299 1.39C87.6299 0.62 88.2499 0 89.0199 0C89.7899 0 90.4099 0.62 90.4099 1.39C90.4099 2.16 89.7899 2.78 89.0199 2.78C88.2499 2.78 87.6299 2.16 87.6299 1.39Z" fill="#002DD5"/>
<path d="M79.6599 1.39C79.6599 0.62 80.2799 0 81.0499 0C81.8199 0 82.4399 0.62 82.4399 1.39C82.4399 2.16 81.8199 2.78 81.0499 2.78C80.2799 2.78 79.6599 2.16 79.6599 1.39Z" fill="#002DD5"/>
<path d="M71.7 1.39C71.7 0.62 72.32 0 73.09 0C73.86 0 74.48 0.62 74.48 1.39C74.48 2.16 73.86 2.78 73.09 2.78C72.32 2.78 71.7 2.16 71.7 1.39Z" fill="#002DD5"/>
<path d="M63.73 1.39C63.73 0.62 64.35 0 65.12 0C65.89 0 66.51 0.62 66.51 1.39C66.51 2.16 65.89 2.78 65.12 2.78C64.35 2.78 63.73 2.16 63.73 1.39Z" fill="#002DD5"/>
<path d="M55.77 1.39C55.77 0.62 56.39 0 57.16 0C57.93 0 58.55 0.62 58.55 1.39C58.55 2.16 57.93 2.78 57.16 2.78C56.39 2.78 55.77 2.16 55.77 1.39Z" fill="#002DD5"/>
<path d="M47.8 1.39C47.8 0.62 48.42 0 49.19 0C49.96 0 50.5801 0.62 50.5801 1.39C50.5801 2.16 49.96 2.78 49.19 2.78C48.42 2.78 47.8 2.16 47.8 1.39Z" fill="#002DD5"/>
<path d="M39.8301 1.39C39.8301 0.62 40.4501 0 41.2201 0C41.9901 0 42.6101 0.62 42.6101 1.39C42.6101 2.16 41.9901 2.78 41.2201 2.78C40.4501 2.78 39.8301 2.16 39.8301 1.39Z" fill="#002DD5"/>
<path d="M31.8701 1.39C31.8701 0.62 32.4901 0 33.2601 0C34.0301 0 34.6501 0.62 34.6501 1.39C34.6501 2.16 34.0301 2.78 33.2601 2.78C32.4901 2.78 31.8701 2.16 31.8701 1.39Z" fill="#002DD5"/>
<path d="M23.8999 1.39C23.8999 0.62 24.5199 0 25.2899 0C26.0599 0 26.6799 0.62 26.6799 1.39C26.6799 2.16 26.0599 2.78 25.2899 2.78C24.5199 2.78 23.8999 2.16 23.8999 1.39Z" fill="#002DD5"/>
<path d="M15.9299 1.39C15.9299 0.62 16.5499 0 17.3199 0C18.0899 0 18.7099 0.62 18.7099 1.39C18.7099 2.16 18.0899 2.78 17.3199 2.78C16.5499 2.78 15.9299 2.16 15.9299 1.39Z" fill="#002DD5"/>
<path d="M7.96997 1.39C7.96997 0.62 8.58997 0 9.35997 0C10.13 0 10.75 0.62 10.75 1.39C10.75 2.16 10.13 2.78 9.35997 2.78C8.58997 2.78 7.96997 2.16 7.96997 1.39Z" fill="#002DD5"/>
<path d="M0 1.39C0 0.62 0.62 0 1.39 0C2.16 0 2.78 0.62 2.78 1.39C2.78 2.16 2.16 2.78 1.39 2.78C0.62 2.78 0 2.16 0 1.39Z" fill="#002DD5"/>
<path d="M103.56 9.35997C103.56 8.58997 104.18 7.96997 104.95 7.96997C105.72 7.96997 106.34 8.58997 106.34 9.35997C106.34 10.13 105.72 10.75 104.95 10.75C104.18 10.75 103.56 10.13 103.56 9.35997Z" fill="#002DD5"/>
<path d="M95.6001 9.35997C95.6001 8.58997 96.2201 7.96997 96.9901 7.96997C97.7601 7.96997 98.3801 8.58997 98.3801 9.35997C98.3801 10.13 97.7601 10.75 96.9901 10.75C96.2201 10.75 95.6001 10.13 95.6001 9.35997Z" fill="#002DD5"/>
<path d="M87.6299 9.35997C87.6299 8.58997 88.2499 7.96997 89.0199 7.96997C89.7899 7.96997 90.4099 8.58997 90.4099 9.35997C90.4099 10.13 89.7899 10.75 89.0199 10.75C88.2499 10.75 87.6299 10.13 87.6299 9.35997Z" fill="#002DD5"/>
<path d="M79.6599 9.35997C79.6599 8.58997 80.2799 7.96997 81.0499 7.96997C81.8199 7.96997 82.4399 8.58997 82.4399 9.35997C82.4399 10.13 81.8199 10.75 81.0499 10.75C80.2799 10.75 79.6599 10.13 79.6599 9.35997Z" fill="#002DD5"/>
<path d="M71.7 9.35997C71.7 8.58997 72.32 7.96997 73.09 7.96997C73.86 7.96997 74.48 8.58997 74.48 9.35997C74.48 10.13 73.86 10.75 73.09 10.75C72.32 10.75 71.7 10.13 71.7 9.35997Z" fill="#002DD5"/>
<path d="M63.73 9.35997C63.73 8.58997 64.35 7.96997 65.12 7.96997C65.89 7.96997 66.51 8.58997 66.51 9.35997C66.51 10.13 65.89 10.75 65.12 10.75C64.35 10.75 63.73 10.13 63.73 9.35997Z" fill="#002DD5"/>
<path d="M55.77 9.35997C55.77 8.58997 56.39 7.96997 57.16 7.96997C57.93 7.96997 58.55 8.58997 58.55 9.35997C58.55 10.13 57.93 10.75 57.16 10.75C56.39 10.75 55.77 10.13 55.77 9.35997Z" fill="#002DD5"/>
<path d="M47.8 9.35997C47.8 8.58997 48.42 7.96997 49.19 7.96997C49.96 7.96997 50.5801 8.58997 50.5801 9.35997C50.5801 10.13 49.96 10.75 49.19 10.75C48.42 10.75 47.8 10.13 47.8 9.35997Z" fill="#002DD5"/>
<path d="M39.8301 9.35997C39.8301 8.58997 40.4501 7.96997 41.2201 7.96997C41.9901 7.96997 42.6101 8.58997 42.6101 9.35997C42.6101 10.13 41.9901 10.75 41.2201 10.75C40.4501 10.75 39.8301 10.13 39.8301 9.35997Z" fill="#002DD5"/>
<path d="M31.8701 9.35997C31.8701 8.58997 32.4901 7.96997 33.2601 7.96997C34.0301 7.96997 34.6501 8.58997 34.6501 9.35997C34.6501 10.13 34.0301 10.75 33.2601 10.75C32.4901 10.75 31.8701 10.13 31.8701 9.35997Z" fill="#002DD5"/>
<path d="M23.8999 9.35997C23.8999 8.58997 24.5199 7.96997 25.2899 7.96997C26.0599 7.96997 26.6799 8.58997 26.6799 9.35997C26.6799 10.13 26.0599 10.75 25.2899 10.75C24.5199 10.75 23.8999 10.13 23.8999 9.35997Z" fill="#002DD5"/>
<path d="M15.9299 9.35997C15.9299 8.58997 16.5499 7.96997 17.3199 7.96997C18.0899 7.96997 18.7099 8.58997 18.7099 9.35997C18.7099 10.13 18.0899 10.75 17.3199 10.75C16.5499 10.75 15.9299 10.13 15.9299 9.35997Z" fill="#002DD5"/>
<path d="M7.96997 9.35997C7.96997 8.58997 8.58997 7.96997 9.35997 7.96997C10.13 7.96997 10.75 8.58997 10.75 9.35997C10.75 10.13 10.13 10.75 9.35997 10.75C8.58997 10.75 7.96997 10.13 7.96997 9.35997Z" fill="#002DD5"/>
<path d="M103.56 17.3299C103.56 16.5599 104.18 15.9399 104.95 15.9399C105.72 15.9399 106.34 16.5599 106.34 17.3299C106.34 18.0999 105.72 18.7199 104.95 18.7199C104.18 18.7199 103.56 18.0999 103.56 17.3299Z" fill="#002DD5"/>
<path d="M95.6001 17.3299C95.6001 16.5599 96.2201 15.9399 96.9901 15.9399C97.7601 15.9399 98.3801 16.5599 98.3801 17.3299C98.3801 18.0999 97.7601 18.7199 96.9901 18.7199C96.2201 18.7199 95.6001 18.0999 95.6001 17.3299Z" fill="#002DD5"/>
<path d="M87.6299 17.3299C87.6299 16.5599 88.2499 15.9399 89.0199 15.9399C89.7899 15.9399 90.4099 16.5599 90.4099 17.3299C90.4099 18.0999 89.7899 18.7199 89.0199 18.7199C88.2499 18.7199 87.6299 18.0999 87.6299 17.3299Z" fill="#002DD5"/>
<path d="M79.6599 17.3299C79.6599 16.5599 80.2799 15.9399 81.0499 15.9399C81.8199 15.9399 82.4399 16.5599 82.4399 17.3299C82.4399 18.0999 81.8199 18.7199 81.0499 18.7199C80.2799 18.7199 79.6599 18.0999 79.6599 17.3299Z" fill="#002DD5"/>
<path d="M71.7 17.3299C71.7 16.5599 72.32 15.9399 73.09 15.9399C73.86 15.9399 74.48 16.5599 74.48 17.3299C74.48 18.0999 73.86 18.7199 73.09 18.7199C72.32 18.7199 71.7 18.0999 71.7 17.3299Z" fill="#002DD5"/>
<path d="M63.73 17.3299C63.73 16.5599 64.35 15.9399 65.12 15.9399C65.89 15.9399 66.51 16.5599 66.51 17.3299C66.51 18.0999 65.89 18.7199 65.12 18.7199C64.35 18.7199 63.73 18.0999 63.73 17.3299Z" fill="#002DD5"/>
<path d="M55.77 17.3299C55.77 16.5599 56.39 15.9399 57.16 15.9399C57.93 15.9399 58.55 16.5599 58.55 17.3299C58.55 18.0999 57.93 18.7199 57.16 18.7199C56.39 18.7199 55.77 18.0999 55.77 17.3299Z" fill="#002DD5"/>
<path d="M47.8 17.3299C47.8 16.5599 48.42 15.9399 49.19 15.9399C49.96 15.9399 50.5801 16.5599 50.5801 17.3299C50.5801 18.0999 49.96 18.7199 49.19 18.7199C48.42 18.7199 47.8 18.0999 47.8 17.3299Z" fill="#002DD5"/>
<path d="M39.8301 17.3299C39.8301 16.5599 40.4501 15.9399 41.2201 15.9399C41.9901 15.9399 42.6101 16.5599 42.6101 17.3299C42.6101 18.0999 41.9901 18.7199 41.2201 18.7199C40.4501 18.7199 39.8301 18.0999 39.8301 17.3299Z" fill="#002DD5"/>
<path d="M31.8701 17.3299C31.8701 16.5599 32.4901 15.9399 33.2601 15.9399C34.0301 15.9399 34.6501 16.5599 34.6501 17.3299C34.6501 18.0999 34.0301 18.7199 33.2601 18.7199C32.4901 18.7199 31.8701 18.0999 31.8701 17.3299Z" fill="#002DD5"/>
<path d="M23.8999 17.3299C23.8999 16.5599 24.5199 15.9399 25.2899 15.9399C26.0599 15.9399 26.6799 16.5599 26.6799 17.3299C26.6799 18.0999 26.0599 18.7199 25.2899 18.7199C24.5199 18.7199 23.8999 18.0999 23.8999 17.3299Z" fill="#002DD5"/>
<path d="M15.9299 17.3299C15.9299 16.5599 16.5499 15.9399 17.3199 15.9399C18.0899 15.9399 18.7099 16.5599 18.7099 17.3299C18.7099 18.0999 18.0899 18.7199 17.3199 18.7199C16.5499 18.7199 15.9299 18.0999 15.9299 17.3299Z" fill="#002DD5"/>
<path d="M103.56 25.2899C103.56 24.5199 104.18 23.8999 104.95 23.8999C105.72 23.8999 106.34 24.5199 106.34 25.2899C106.34 26.0599 105.72 26.6799 104.95 26.6799C104.18 26.6799 103.56 26.0599 103.56 25.2899Z" fill="#002DD5"/>
<path d="M95.6001 25.2899C95.6001 24.5199 96.2201 23.8999 96.9901 23.8999C97.7601 23.8999 98.3801 24.5199 98.3801 25.2899C98.3801 26.0599 97.7601 26.6799 96.9901 26.6799C96.2201 26.6799 95.6001 26.0599 95.6001 25.2899Z" fill="#002DD5"/>
<path d="M87.6299 25.2899C87.6299 24.5199 88.2499 23.8999 89.0199 23.8999C89.7899 23.8999 90.4099 24.5199 90.4099 25.2899C90.4099 26.0599 89.7899 26.6799 89.0199 26.6799C88.2499 26.6799 87.6299 26.0599 87.6299 25.2899Z" fill="#002DD5"/>
<path d="M79.6599 25.2899C79.6599 24.5199 80.2799 23.8999 81.0499 23.8999C81.8199 23.8999 82.4399 24.5199 82.4399 25.2899C82.4399 26.0599 81.8199 26.6799 81.0499 26.6799C80.2799 26.6799 79.6599 26.0599 79.6599 25.2899Z" fill="#002DD5"/>
<path d="M71.7 25.2899C71.7 24.5199 72.32 23.8999 73.09 23.8999C73.86 23.8999 74.48 24.5199 74.48 25.2899C74.48 26.0599 73.86 26.6799 73.09 26.6799C72.32 26.6799 71.7 26.0599 71.7 25.2899Z" fill="#002DD5"/>
<path d="M63.73 25.2899C63.73 24.5199 64.35 23.8999 65.12 23.8999C65.89 23.8999 66.51 24.5199 66.51 25.2899C66.51 26.0599 65.89 26.6799 65.12 26.6799C64.35 26.6799 63.73 26.0599 63.73 25.2899Z" fill="#002DD5"/>
<path d="M55.77 25.2899C55.77 24.5199 56.39 23.8999 57.16 23.8999C57.93 23.8999 58.55 24.5199 58.55 25.2899C58.55 26.0599 57.93 26.6799 57.16 26.6799C56.39 26.6799 55.77 26.0599 55.77 25.2899Z" fill="#002DD5"/>
<path d="M47.8 25.2899C47.8 24.5199 48.42 23.8999 49.19 23.8999C49.96 23.8999 50.5801 24.5199 50.5801 25.2899C50.5801 26.0599 49.96 26.6799 49.19 26.6799C48.42 26.6799 47.8 26.0599 47.8 25.2899Z" fill="#002DD5"/>
<path d="M39.8301 25.2899C39.8301 24.5199 40.4501 23.8999 41.2201 23.8999C41.9901 23.8999 42.6101 24.5199 42.6101 25.2899C42.6101 26.0599 41.9901 26.6799 41.2201 26.6799C40.4501 26.6799 39.8301 26.0599 39.8301 25.2899Z" fill="#002DD5"/>
<path d="M31.8701 25.2899C31.8701 24.5199 32.4901 23.8999 33.2601 23.8999C34.0301 23.8999 34.6501 24.5199 34.6501 25.2899C34.6501 26.0599 34.0301 26.6799 33.2601 26.6799C32.4901 26.6799 31.8701 26.0599 31.8701 25.2899Z" fill="#002DD5"/>
<path d="M23.8999 25.2899C23.8999 24.5199 24.5199 23.8999 25.2899 23.8999C26.0599 23.8999 26.6799 24.5199 26.6799 25.2899C26.6799 26.0599 26.0599 26.6799 25.2899 26.6799C24.5199 26.6799 23.8999 26.0599 23.8999 25.2899Z" fill="#002DD5"/>
<path d="M103.56 33.2601C103.56 32.4901 104.18 31.8701 104.95 31.8701C105.72 31.8701 106.34 32.4901 106.34 33.2601C106.34 34.0301 105.72 34.6501 104.95 34.6501C104.18 34.6501 103.56 34.0301 103.56 33.2601Z" fill="#002DD5"/>
<path d="M95.6001 33.2601C95.6001 32.4901 96.2201 31.8701 96.9901 31.8701C97.7601 31.8701 98.3801 32.4901 98.3801 33.2601C98.3801 34.0301 97.7601 34.6501 96.9901 34.6501C96.2201 34.6501 95.6001 34.0301 95.6001 33.2601Z" fill="#002DD5"/>
<path d="M87.6299 33.2601C87.6299 32.4901 88.2499 31.8701 89.0199 31.8701C89.7899 31.8701 90.4099 32.4901 90.4099 33.2601C90.4099 34.0301 89.7899 34.6501 89.0199 34.6501C88.2499 34.6501 87.6299 34.0301 87.6299 33.2601Z" fill="#002DD5"/>
<path d="M79.6599 33.2601C79.6599 32.4901 80.2799 31.8701 81.0499 31.8701C81.8199 31.8701 82.4399 32.4901 82.4399 33.2601C82.4399 34.0301 81.8199 34.6501 81.0499 34.6501C80.2799 34.6501 79.6599 34.0301 79.6599 33.2601Z" fill="#002DD5"/>
<path d="M71.7 33.2601C71.7 32.4901 72.32 31.8701 73.09 31.8701C73.86 31.8701 74.48 32.4901 74.48 33.2601C74.48 34.0301 73.86 34.6501 73.09 34.6501C72.32 34.6501 71.7 34.0301 71.7 33.2601Z" fill="#002DD5"/>
<path d="M63.73 33.2601C63.73 32.4901 64.35 31.8701 65.12 31.8701C65.89 31.8701 66.51 32.4901 66.51 33.2601C66.51 34.0301 65.89 34.6501 65.12 34.6501C64.35 34.6501 63.73 34.0301 63.73 33.2601Z" fill="#002DD5"/>
<path d="M55.77 33.2601C55.77 32.4901 56.39 31.8701 57.16 31.8701C57.93 31.8701 58.55 32.4901 58.55 33.2601C58.55 34.0301 57.93 34.6501 57.16 34.6501C56.39 34.6501 55.77 34.0301 55.77 33.2601Z" fill="#002DD5"/>
<path d="M47.8 33.2601C47.8 32.4901 48.42 31.8701 49.19 31.8701C49.96 31.8701 50.5801 32.4901 50.5801 33.2601C50.5801 34.0301 49.96 34.6501 49.19 34.6501C48.42 34.6501 47.8 34.0301 47.8 33.2601Z" fill="#002DD5"/>
<path d="M39.8301 33.2601C39.8301 32.4901 40.4501 31.8701 41.2201 31.8701C41.9901 31.8701 42.6101 32.4901 42.6101 33.2601C42.6101 34.0301 41.9901 34.6501 41.2201 34.6501C40.4501 34.6501 39.8301 34.0301 39.8301 33.2601Z" fill="#002DD5"/>
<path d="M31.8701 33.2601C31.8701 32.4901 32.4901 31.8701 33.2601 31.8701C34.0301 31.8701 34.6501 32.4901 34.6501 33.2601C34.6501 34.0301 34.0301 34.6501 33.2601 34.6501C32.4901 34.6501 31.8701 34.0301 31.8701 33.2601Z" fill="#002DD5"/>
<path d="M103.56 41.2301C103.56 40.4601 104.18 39.8401 104.95 39.8401C105.72 39.8401 106.34 40.4601 106.34 41.2301C106.34 42.0001 105.72 42.6201 104.95 42.6201C104.18 42.6201 103.56 42.0001 103.56 41.2301Z" fill="#002DD5"/>
<path d="M95.6001 41.2301C95.6001 40.4601 96.2201 39.8401 96.9901 39.8401C97.7601 39.8401 98.3801 40.4601 98.3801 41.2301C98.3801 42.0001 97.7601 42.6201 96.9901 42.6201C96.2201 42.6201 95.6001 42.0001 95.6001 41.2301Z" fill="#002DD5"/>
<path d="M87.6299 41.2301C87.6299 40.4601 88.2499 39.8401 89.0199 39.8401C89.7899 39.8401 90.4099 40.4601 90.4099 41.2301C90.4099 42.0001 89.7899 42.6201 89.0199 42.6201C88.2499 42.6201 87.6299 42.0001 87.6299 41.2301Z" fill="#002DD5"/>
<path d="M79.6599 41.2301C79.6599 40.4601 80.2799 39.8401 81.0499 39.8401C81.8199 39.8401 82.4399 40.4601 82.4399 41.2301C82.4399 42.0001 81.8199 42.6201 81.0499 42.6201C80.2799 42.6201 79.6599 42.0001 79.6599 41.2301Z" fill="#002DD5"/>
<path d="M71.7 41.2301C71.7 40.4601 72.32 39.8401 73.09 39.8401C73.86 39.8401 74.48 40.4601 74.48 41.2301C74.48 42.0001 73.86 42.6201 73.09 42.6201C72.32 42.6201 71.7 42.0001 71.7 41.2301Z" fill="#002DD5"/>
<path d="M63.73 41.2301C63.73 40.4601 64.35 39.8401 65.12 39.8401C65.89 39.8401 66.51 40.4601 66.51 41.2301C66.51 42.0001 65.89 42.6201 65.12 42.6201C64.35 42.6201 63.73 42.0001 63.73 41.2301Z" fill="#002DD5"/>
<path d="M55.77 41.2301C55.77 40.4601 56.39 39.8401 57.16 39.8401C57.93 39.8401 58.55 40.4601 58.55 41.2301C58.55 42.0001 57.93 42.6201 57.16 42.6201C56.39 42.6201 55.77 42.0001 55.77 41.2301Z" fill="#002DD5"/>
<path d="M47.8 41.2301C47.8 40.4601 48.42 39.8401 49.19 39.8401C49.96 39.8401 50.5801 40.4601 50.5801 41.2301C50.5801 42.0001 49.96 42.6201 49.19 42.6201C48.42 42.6201 47.8 42.0001 47.8 41.2301Z" fill="#002DD5"/>
<path d="M39.8301 41.2301C39.8301 40.4601 40.4501 39.8401 41.2201 39.8401C41.9901 39.8401 42.6101 40.4601 42.6101 41.2301C42.6101 42.0001 41.9901 42.6201 41.2201 42.6201C40.4501 42.6201 39.8301 42.0001 39.8301 41.2301Z" fill="#002DD5"/>
<path d="M103.56 49.19C103.56 48.42 104.18 47.8 104.95 47.8C105.72 47.8 106.34 48.42 106.34 49.19C106.34 49.96 105.72 50.5801 104.95 50.5801C104.18 50.5801 103.56 49.96 103.56 49.19Z" fill="#002DD5"/>
<path d="M95.6001 49.19C95.6001 48.42 96.2201 47.8 96.9901 47.8C97.7601 47.8 98.3801 48.42 98.3801 49.19C98.3801 49.96 97.7601 50.5801 96.9901 50.5801C96.2201 50.5801 95.6001 49.96 95.6001 49.19Z" fill="#002DD5"/>
<path d="M87.6299 49.19C87.6299 48.42 88.2499 47.8 89.0199 47.8C89.7899 47.8 90.4099 48.42 90.4099 49.19C90.4099 49.96 89.7899 50.5801 89.0199 50.5801C88.2499 50.5801 87.6299 49.96 87.6299 49.19Z" fill="#002DD5"/>
<path d="M79.6599 49.19C79.6599 48.42 80.2799 47.8 81.0499 47.8C81.8199 47.8 82.4399 48.42 82.4399 49.19C82.4399 49.96 81.8199 50.5801 81.0499 50.5801C80.2799 50.5801 79.6599 49.96 79.6599 49.19Z" fill="#002DD5"/>
<path d="M71.7 49.19C71.7 48.42 72.32 47.8 73.09 47.8C73.86 47.8 74.48 48.42 74.48 49.19C74.48 49.96 73.86 50.5801 73.09 50.5801C72.32 50.5801 71.7 49.96 71.7 49.19Z" fill="#002DD5"/>
<path d="M63.73 49.19C63.73 48.42 64.35 47.8 65.12 47.8C65.89 47.8 66.51 48.42 66.51 49.19C66.51 49.96 65.89 50.5801 65.12 50.5801C64.35 50.5801 63.73 49.96 63.73 49.19Z" fill="#002DD5"/>
<path d="M55.77 49.19C55.77 48.42 56.39 47.8 57.16 47.8C57.93 47.8 58.55 48.42 58.55 49.19C58.55 49.96 57.93 50.5801 57.16 50.5801C56.39 50.5801 55.77 49.96 55.77 49.19Z" fill="#002DD5"/>
<path d="M47.8 49.19C47.8 48.42 48.42 47.8 49.19 47.8C49.96 47.8 50.5801 48.42 50.5801 49.19C50.5801 49.96 49.96 50.5801 49.19 50.5801C48.42 50.5801 47.8 49.96 47.8 49.19Z" fill="#002DD5"/>
<path d="M103.56 57.16C103.56 56.39 104.18 55.77 104.95 55.77C105.72 55.77 106.34 56.39 106.34 57.16C106.34 57.93 105.72 58.55 104.95 58.55C104.18 58.55 103.56 57.93 103.56 57.16Z" fill="#002DD5"/>
<path d="M95.6001 57.16C95.6001 56.39 96.2201 55.77 96.9901 55.77C97.7601 55.77 98.3801 56.39 98.3801 57.16C98.3801 57.93 97.7601 58.55 96.9901 58.55C96.2201 58.55 95.6001 57.93 95.6001 57.16Z" fill="#002DD5"/>
<path d="M87.6299 57.16C87.6299 56.39 88.2499 55.77 89.0199 55.77C89.7899 55.77 90.4099 56.39 90.4099 57.16C90.4099 57.93 89.7899 58.55 89.0199 58.55C88.2499 58.55 87.6299 57.93 87.6299 57.16Z" fill="#002DD5"/>
<path d="M79.6599 57.16C79.6599 56.39 80.2799 55.77 81.0499 55.77C81.8199 55.77 82.4399 56.39 82.4399 57.16C82.4399 57.93 81.8199 58.55 81.0499 58.55C80.2799 58.55 79.6599 57.93 79.6599 57.16Z" fill="#002DD5"/>
<path d="M71.7 57.16C71.7 56.39 72.32 55.77 73.09 55.77C73.86 55.77 74.48 56.39 74.48 57.16C74.48 57.93 73.86 58.55 73.09 58.55C72.32 58.55 71.7 57.93 71.7 57.16Z" fill="#002DD5"/>
<path d="M63.73 57.16C63.73 56.39 64.35 55.77 65.12 55.77C65.89 55.77 66.51 56.39 66.51 57.16C66.51 57.93 65.89 58.55 65.12 58.55C64.35 58.55 63.73 57.93 63.73 57.16Z" fill="#002DD5"/>
<path d="M55.77 57.16C55.77 56.39 56.39 55.77 57.16 55.77C57.93 55.77 58.55 56.39 58.55 57.16C58.55 57.93 57.93 58.55 57.16 58.55C56.39 58.55 55.77 57.93 55.77 57.16Z" fill="#002DD5"/>
<path d="M103.56 65.13C103.56 64.36 104.18 63.74 104.95 63.74C105.72 63.74 106.34 64.36 106.34 65.13C106.34 65.9 105.72 66.52 104.95 66.52C104.18 66.52 103.56 65.9 103.56 65.13Z" fill="#002DD5"/>
<path d="M95.6001 65.13C95.6001 64.36 96.2201 63.74 96.9901 63.74C97.7601 63.74 98.3801 64.36 98.3801 65.13C98.3801 65.9 97.7601 66.52 96.9901 66.52C96.2201 66.52 95.6001 65.9 95.6001 65.13Z" fill="#002DD5"/>
<path d="M87.6299 65.13C87.6299 64.36 88.2499 63.74 89.0199 63.74C89.7899 63.74 90.4099 64.36 90.4099 65.13C90.4099 65.9 89.7899 66.52 89.0199 66.52C88.2499 66.52 87.6299 65.9 87.6299 65.13Z" fill="#002DD5"/>
<path d="M79.6599 65.13C79.6599 64.36 80.2799 63.74 81.0499 63.74C81.8199 63.74 82.4399 64.36 82.4399 65.13C82.4399 65.9 81.8199 66.52 81.0499 66.52C80.2799 66.52 79.6599 65.9 79.6599 65.13Z" fill="#002DD5"/>
<path d="M71.7 65.13C71.7 64.36 72.32 63.74 73.09 63.74C73.86 63.74 74.48 64.36 74.48 65.13C74.48 65.9 73.86 66.52 73.09 66.52C72.32 66.52 71.7 65.9 71.7 65.13Z" fill="#002DD5"/>
<path d="M63.73 65.13C63.73 64.36 64.35 63.74 65.12 63.74C65.89 63.74 66.51 64.36 66.51 65.13C66.51 65.9 65.89 66.52 65.12 66.52C64.35 66.52 63.73 65.9 63.73 65.13Z" fill="#002DD5"/>
<path d="M103.56 73.09C103.56 72.32 104.18 71.7 104.95 71.7C105.72 71.7 106.34 72.32 106.34 73.09C106.34 73.86 105.72 74.48 104.95 74.48C104.18 74.48 103.56 73.86 103.56 73.09Z" fill="#002DD5"/>
<path d="M95.6001 73.09C95.6001 72.32 96.2201 71.7 96.9901 71.7C97.7601 71.7 98.3801 72.32 98.3801 73.09C98.3801 73.86 97.7601 74.48 96.9901 74.48C96.2201 74.48 95.6001 73.86 95.6001 73.09Z" fill="#002DD5"/>
<path d="M87.6299 73.09C87.6299 72.32 88.2499 71.7 89.0199 71.7C89.7899 71.7 90.4099 72.32 90.4099 73.09C90.4099 73.86 89.7899 74.48 89.0199 74.48C88.2499 74.48 87.6299 73.86 87.6299 73.09Z" fill="#002DD5"/>
<path d="M79.6599 73.09C79.6599 72.32 80.2799 71.7 81.0499 71.7C81.8199 71.7 82.4399 72.32 82.4399 73.09C82.4399 73.86 81.8199 74.48 81.0499 74.48C80.2799 74.48 79.6599 73.86 79.6599 73.09Z" fill="#002DD5"/>
<path d="M71.7 73.09C71.7 72.32 72.32 71.7 73.09 71.7C73.86 71.7 74.48 72.32 74.48 73.09C74.48 73.86 73.86 74.48 73.09 74.48C72.32 74.48 71.7 73.86 71.7 73.09Z" fill="#002DD5"/>
<path d="M103.56 81.0599C103.56 80.2899 104.18 79.6699 104.95 79.6699C105.72 79.6699 106.34 80.2899 106.34 81.0599C106.34 81.8299 105.72 82.4499 104.95 82.4499C104.18 82.4499 103.56 81.8299 103.56 81.0599Z" fill="#002DD5"/>
<path d="M95.6001 81.0599C95.6001 80.2899 96.2201 79.6699 96.9901 79.6699C97.7601 79.6699 98.3801 80.2899 98.3801 81.0599C98.3801 81.8299 97.7601 82.4499 96.9901 82.4499C96.2201 82.4499 95.6001 81.8299 95.6001 81.0599Z" fill="#002DD5"/>
<path d="M87.6299 81.0599C87.6299 80.2899 88.2499 79.6699 89.0199 79.6699C89.7899 79.6699 90.4099 80.2899 90.4099 81.0599C90.4099 81.8299 89.7899 82.4499 89.0199 82.4499C88.2499 82.4499 87.6299 81.8299 87.6299 81.0599Z" fill="#002DD5"/>
<path d="M79.6599 81.0599C79.6599 80.2899 80.2799 79.6699 81.0499 79.6699C81.8199 79.6699 82.4399 80.2899 82.4399 81.0599C82.4399 81.8299 81.8199 82.4499 81.0499 82.4499C80.2799 82.4499 79.6599 81.8299 79.6599 81.0599Z" fill="#002DD5"/>
<path d="M103.56 89.0299C103.56 88.2599 104.18 87.6399 104.95 87.6399C105.72 87.6399 106.34 88.2599 106.34 89.0299C106.34 89.7999 105.72 90.4199 104.95 90.4199C104.18 90.4199 103.56 89.7999 103.56 89.0299Z" fill="#002DD5"/>
<path d="M95.6001 89.0299C95.6001 88.2599 96.2201 87.6399 96.9901 87.6399C97.7601 87.6399 98.3801 88.2599 98.3801 89.0299C98.3801 89.7999 97.7601 90.4199 96.9901 90.4199C96.2201 90.4199 95.6001 89.7999 95.6001 89.0299Z" fill="#002DD5"/>
<path d="M87.6299 89.0299C87.6299 88.2599 88.2499 87.6399 89.0199 87.6399C89.7899 87.6399 90.4099 88.2599 90.4099 89.0299C90.4099 89.7999 89.7899 90.4199 89.0199 90.4199C88.2499 90.4199 87.6299 89.7999 87.6299 89.0299Z" fill="#002DD5"/>
<path d="M103.56 96.9901C103.56 96.2201 104.18 95.6001 104.95 95.6001C105.72 95.6001 106.34 96.2201 106.34 96.9901C106.34 97.7601 105.72 98.3801 104.95 98.3801C104.18 98.3801 103.56 97.7601 103.56 96.9901Z" fill="#002DD5"/>
<path d="M95.6001 96.9901C95.6001 96.2201 96.2201 95.6001 96.9901 95.6001C97.7601 95.6001 98.3801 96.2201 98.3801 96.9901C98.3801 97.7601 97.7601 98.3801 96.9901 98.3801C96.2201 98.3801 95.6001 97.7601 95.6001 96.9901Z" fill="#002DD5"/>
<path d="M103.56 104.96C103.56 104.19 104.18 103.57 104.95 103.57C105.72 103.57 106.34 104.19 106.34 104.96C106.34 105.73 105.72 106.35 104.95 106.35C104.18 106.35 103.56 105.73 103.56 104.96Z" fill="#002DD5"/>
</g>
<defs>
<clipPath id="clip0_576_67">
<rect width="106.35" height="106.35" fill="white"/>
</clipPath>
</defs>
</svg>
