<svg width="33" height="33" viewBox="0 0 33 33" fill="none" xmlns="http://www.w3.org/2000/svg">
<path d="M25.785 28.5058H20.4514H19.0151H18.7049V21.3516H21.0447C21.6381 21.3516 21.9888 20.6773 21.6381 20.1918L17.0866 13.8939C16.7967 13.4893 16.1966 13.4893 15.9066 13.8939L11.3551 20.1918C11.0045 20.6773 11.3484 21.3516 11.9485 21.3516H14.2883V28.5058H13.9781H12.5419H6.3586C2.81855 28.3103 0 24.9995 0 21.4123C0 18.9376 1.34185 16.7799 3.33102 15.6133C3.14896 15.1211 3.05456 14.5951 3.05456 14.0422C3.05456 11.5136 5.09767 9.4705 7.62628 9.4705C8.17246 9.4705 8.69841 9.5649 9.19064 9.74696C10.6539 6.6452 13.8096 4.4942 17.4777 4.4942C22.2248 4.50094 26.1357 8.1354 26.5807 12.7678C30.2286 13.3949 33 16.7731 33 20.5964C33 24.6826 29.8173 28.2226 25.785 28.5058Z" fill="#022CEE"/>
</svg>
