<svg width="92" height="92" viewBox="0 0 92 92" fill="none" xmlns="http://www.w3.org/2000/svg">
<path d="M89.2637 1.19812C89.2637 0.534422 89.7981 0 90.4618 0C91.1255 0 91.6599 0.534422 91.6599 1.19812C91.6599 1.86183 91.1255 2.39622 90.4618 2.39622C89.7981 2.39622 89.2637 1.86183 89.2637 1.19812Z" fill="#002DD5"/>
<path d="M82.4028 1.19812C82.4028 0.534422 82.9373 0 83.601 0C84.2647 0 84.7991 0.534422 84.7991 1.19812C84.7991 1.86183 84.2647 2.39622 83.601 2.39622C82.9373 2.39622 82.4028 1.86183 82.4028 1.19812Z" fill="#002DD5"/>
<path d="M75.5327 1.19812C75.5327 0.534422 76.0671 0 76.7308 0C77.3945 0 77.9289 0.534422 77.9289 1.19812C77.9289 1.86183 77.3945 2.39622 76.7308 2.39622C76.0671 2.39622 75.5327 1.86183 75.5327 1.19812Z" fill="#002DD5"/>
<path d="M68.6631 1.19812C68.6631 0.534422 69.1975 0 69.8612 0C70.5249 0 71.0593 0.534422 71.0593 1.19812C71.0593 1.86183 70.5249 2.39622 69.8612 2.39622C69.1975 2.39622 68.6631 1.86183 68.6631 1.19812Z" fill="#002DD5"/>
<path d="M61.8018 1.19812C61.8018 0.534422 62.3362 0 62.9999 0C63.6636 0 64.198 0.534422 64.198 1.19812C64.198 1.86183 63.6636 2.39622 62.9999 2.39622C62.3362 2.39622 61.8018 1.86183 61.8018 1.19812Z" fill="#002DD5"/>
<path d="M54.9321 1.19812C54.9321 0.534422 55.4666 0 56.1303 0C56.794 0 57.3284 0.534422 57.3284 1.19812C57.3284 1.86183 56.794 2.39622 56.1303 2.39622C55.4666 2.39622 54.9321 1.86183 54.9321 1.19812Z" fill="#002DD5"/>
<path d="M48.0625 1.19812C48.0625 0.534422 48.5969 0 49.2606 0C49.9243 0 50.4587 0.534422 50.4587 1.19812C50.4587 1.86183 49.9243 2.39622 49.2606 2.39622C48.5969 2.39622 48.0625 1.86183 48.0625 1.19812Z" fill="#002DD5"/>
<path d="M41.2012 1.19812C41.2012 0.534422 41.7356 0 42.3993 0C43.063 0 43.5974 0.534422 43.5974 1.19812C43.5974 1.86183 43.063 2.39622 42.3993 2.39622C41.7356 2.39622 41.2012 1.86183 41.2012 1.19812Z" fill="#002DD5"/>
<path d="M34.3315 1.19812C34.3315 0.534422 34.866 0 35.5297 0C36.1934 0 36.7278 0.534422 36.7278 1.19812C36.7278 1.86183 36.1934 2.39622 35.5297 2.39622C34.866 2.39622 34.3315 1.86183 34.3315 1.19812Z" fill="#002DD5"/>
<path d="M27.4707 1.19812C27.4707 0.534422 28.0051 0 28.6688 0C29.3325 0 29.8669 0.534422 29.8669 1.19812C29.8669 1.86183 29.3325 2.39622 28.6688 2.39622C28.0051 2.39622 27.4707 1.86183 27.4707 1.19812Z" fill="#002DD5"/>
<path d="M20.6006 1.19812C20.6006 0.534422 21.135 0 21.7987 0C22.4624 0 22.9968 0.534422 22.9968 1.19812C22.9968 1.86183 22.4624 2.39622 21.7987 2.39622C21.135 2.39622 20.6006 1.86183 20.6006 1.19812Z" fill="#002DD5"/>
<path d="M13.731 1.19812C13.731 0.534422 14.2654 0 14.9291 0C15.5928 0 16.1272 0.534422 16.1272 1.19812C16.1272 1.86183 15.5928 2.39622 14.9291 2.39622C14.2654 2.39622 13.731 1.86183 13.731 1.19812Z" fill="#002DD5"/>
<path d="M6.87012 1.19812C6.87012 0.534422 7.40451 0 8.06822 0C8.73192 0 9.26634 0.534422 9.26634 1.19812C9.26634 1.86183 8.73192 2.39622 8.06822 2.39622C7.40451 2.39622 6.87012 1.86183 6.87012 1.19812Z" fill="#002DD5"/>
<path d="M0 1.19812C0 0.534422 0.534396 0 1.1981 0C1.8618 0 2.39622 0.534422 2.39622 1.19812C2.39622 1.86183 1.8618 2.39622 1.1981 2.39622C0.534396 2.39622 0 1.86183 0 1.19812Z" fill="#002DD5"/>
<path d="M89.2637 8.05918C89.2637 7.39548 89.7981 6.86108 90.4618 6.86108C91.1255 6.86108 91.6599 7.39548 91.6599 8.05918C91.6599 8.72288 91.1255 9.25731 90.4618 9.25731C89.7981 9.25731 89.2637 8.72288 89.2637 8.05918Z" fill="#002DD5"/>
<path d="M82.4028 8.05918C82.4028 7.39548 82.9373 6.86108 83.601 6.86108C84.2647 6.86108 84.7991 7.39548 84.7991 8.05918C84.7991 8.72288 84.2647 9.25731 83.601 9.25731C82.9373 9.25731 82.4028 8.72288 82.4028 8.05918Z" fill="#002DD5"/>
<path d="M75.5327 8.05918C75.5327 7.39548 76.0671 6.86108 76.7308 6.86108C77.3945 6.86108 77.9289 7.39548 77.9289 8.05918C77.9289 8.72288 77.3945 9.25731 76.7308 9.25731C76.0671 9.25731 75.5327 8.72288 75.5327 8.05918Z" fill="#002DD5"/>
<path d="M68.6631 8.05918C68.6631 7.39548 69.1975 6.86108 69.8612 6.86108C70.5249 6.86108 71.0593 7.39548 71.0593 8.05918C71.0593 8.72288 70.5249 9.25731 69.8612 9.25731C69.1975 9.25731 68.6631 8.72288 68.6631 8.05918Z" fill="#002DD5"/>
<path d="M61.8018 8.05918C61.8018 7.39548 62.3362 6.86108 62.9999 6.86108C63.6636 6.86108 64.198 7.39548 64.198 8.05918C64.198 8.72288 63.6636 9.25731 62.9999 9.25731C62.3362 9.25731 61.8018 8.72288 61.8018 8.05918Z" fill="#002DD5"/>
<path d="M54.9321 8.05918C54.9321 7.39548 55.4666 6.86108 56.1303 6.86108C56.794 6.86108 57.3284 7.39548 57.3284 8.05918C57.3284 8.72288 56.794 9.25731 56.1303 9.25731C55.4666 9.25731 54.9321 8.72288 54.9321 8.05918Z" fill="#002DD5"/>
<path d="M48.0625 8.05918C48.0625 7.39548 48.5969 6.86108 49.2606 6.86108C49.9243 6.86108 50.4587 7.39548 50.4587 8.05918C50.4587 8.72288 49.9243 9.25731 49.2606 9.25731C48.5969 9.25731 48.0625 8.72288 48.0625 8.05918Z" fill="#002DD5"/>
<path d="M41.2012 8.05918C41.2012 7.39548 41.7356 6.86108 42.3993 6.86108C43.063 6.86108 43.5974 7.39548 43.5974 8.05918C43.5974 8.72288 43.063 9.25731 42.3993 9.25731C41.7356 9.25731 41.2012 8.72288 41.2012 8.05918Z" fill="#002DD5"/>
<path d="M34.3315 8.05918C34.3315 7.39548 34.866 6.86108 35.5297 6.86108C36.1934 6.86108 36.7278 7.39548 36.7278 8.05918C36.7278 8.72288 36.1934 9.25731 35.5297 9.25731C34.866 9.25731 34.3315 8.72288 34.3315 8.05918Z" fill="#002DD5"/>
<path d="M27.4707 8.05918C27.4707 7.39548 28.0051 6.86108 28.6688 6.86108C29.3325 6.86108 29.8669 7.39548 29.8669 8.05918C29.8669 8.72288 29.3325 9.25731 28.6688 9.25731C28.0051 9.25731 27.4707 8.72288 27.4707 8.05918Z" fill="#002DD5"/>
<path d="M20.6006 8.05918C20.6006 7.39548 21.135 6.86108 21.7987 6.86108C22.4624 6.86108 22.9968 7.39548 22.9968 8.05918C22.9968 8.72288 22.4624 9.25731 21.7987 9.25731C21.135 9.25731 20.6006 8.72288 20.6006 8.05918Z" fill="#002DD5"/>
<path d="M13.731 8.05918C13.731 7.39548 14.2654 6.86108 14.9291 6.86108C15.5928 6.86108 16.1272 7.39548 16.1272 8.05918C16.1272 8.72288 15.5928 9.25731 14.9291 9.25731C14.2654 9.25731 13.731 8.72288 13.731 8.05918Z" fill="#002DD5"/>
<path d="M6.87012 8.05918C6.87012 7.39548 7.40451 6.86108 8.06822 6.86108C8.73192 6.86108 9.26634 7.39548 9.26634 8.05918C9.26634 8.72288 8.73192 9.25731 8.06822 9.25731C7.40451 9.25731 6.87012 8.72288 6.87012 8.05918Z" fill="#002DD5"/>
<path d="M89.2637 14.9288C89.2637 14.2651 89.7981 13.7307 90.4618 13.7307C91.1255 13.7307 91.6599 14.2651 91.6599 14.9288C91.6599 15.5925 91.1255 16.127 90.4618 16.127C89.7981 16.127 89.2637 15.5925 89.2637 14.9288Z" fill="#002DD5"/>
<path d="M82.4028 14.9288C82.4028 14.2651 82.9373 13.7307 83.601 13.7307C84.2647 13.7307 84.7991 14.2651 84.7991 14.9288C84.7991 15.5925 84.2647 16.127 83.601 16.127C82.9373 16.127 82.4028 15.5925 82.4028 14.9288Z" fill="#002DD5"/>
<path d="M75.5327 14.9288C75.5327 14.2651 76.0671 13.7307 76.7308 13.7307C77.3945 13.7307 77.9289 14.2651 77.9289 14.9288C77.9289 15.5925 77.3945 16.127 76.7308 16.127C76.0671 16.127 75.5327 15.5925 75.5327 14.9288Z" fill="#002DD5"/>
<path d="M68.6631 14.9288C68.6631 14.2651 69.1975 13.7307 69.8612 13.7307C70.5249 13.7307 71.0593 14.2651 71.0593 14.9288C71.0593 15.5925 70.5249 16.127 69.8612 16.127C69.1975 16.127 68.6631 15.5925 68.6631 14.9288Z" fill="#002DD5"/>
<path d="M61.8018 14.9288C61.8018 14.2651 62.3362 13.7307 62.9999 13.7307C63.6636 13.7307 64.198 14.2651 64.198 14.9288C64.198 15.5925 63.6636 16.127 62.9999 16.127C62.3362 16.127 61.8018 15.5925 61.8018 14.9288Z" fill="#002DD5"/>
<path d="M54.9321 14.9288C54.9321 14.2651 55.4666 13.7307 56.1303 13.7307C56.794 13.7307 57.3284 14.2651 57.3284 14.9288C57.3284 15.5925 56.794 16.127 56.1303 16.127C55.4666 16.127 54.9321 15.5925 54.9321 14.9288Z" fill="#002DD5"/>
<path d="M48.0625 14.9288C48.0625 14.2651 48.5969 13.7307 49.2606 13.7307C49.9243 13.7307 50.4587 14.2651 50.4587 14.9288C50.4587 15.5925 49.9243 16.127 49.2606 16.127C48.5969 16.127 48.0625 15.5925 48.0625 14.9288Z" fill="#002DD5"/>
<path d="M41.2012 14.9288C41.2012 14.2651 41.7356 13.7307 42.3993 13.7307C43.063 13.7307 43.5974 14.2651 43.5974 14.9288C43.5974 15.5925 43.063 16.127 42.3993 16.127C41.7356 16.127 41.2012 15.5925 41.2012 14.9288Z" fill="#002DD5"/>
<path d="M34.3315 14.9288C34.3315 14.2651 34.866 13.7307 35.5297 13.7307C36.1934 13.7307 36.7278 14.2651 36.7278 14.9288C36.7278 15.5925 36.1934 16.127 35.5297 16.127C34.866 16.127 34.3315 15.5925 34.3315 14.9288Z" fill="#002DD5"/>
<path d="M27.4707 14.9288C27.4707 14.2651 28.0051 13.7307 28.6688 13.7307C29.3325 13.7307 29.8669 14.2651 29.8669 14.9288C29.8669 15.5925 29.3325 16.127 28.6688 16.127C28.0051 16.127 27.4707 15.5925 27.4707 14.9288Z" fill="#002DD5"/>
<path d="M20.6006 14.9288C20.6006 14.2651 21.135 13.7307 21.7987 13.7307C22.4624 13.7307 22.9968 14.2651 22.9968 14.9288C22.9968 15.5925 22.4624 16.127 21.7987 16.127C21.135 16.127 20.6006 15.5925 20.6006 14.9288Z" fill="#002DD5"/>
<path d="M13.731 14.9288C13.731 14.2651 14.2654 13.7307 14.9291 13.7307C15.5928 13.7307 16.1272 14.2651 16.1272 14.9288C16.1272 15.5925 15.5928 16.127 14.9291 16.127C14.2654 16.127 13.731 15.5925 13.731 14.9288Z" fill="#002DD5"/>
<path d="M89.2637 21.7987C89.2637 21.135 89.7981 20.6006 90.4618 20.6006C91.1255 20.6006 91.6599 21.135 91.6599 21.7987C91.6599 22.4624 91.1255 22.9968 90.4618 22.9968C89.7981 22.9968 89.2637 22.4624 89.2637 21.7987Z" fill="#002DD5"/>
<path d="M82.4028 21.7987C82.4028 21.135 82.9373 20.6006 83.601 20.6006C84.2647 20.6006 84.7991 21.135 84.7991 21.7987C84.7991 22.4624 84.2647 22.9968 83.601 22.9968C82.9373 22.9968 82.4028 22.4624 82.4028 21.7987Z" fill="#002DD5"/>
<path d="M75.5327 21.7987C75.5327 21.135 76.0671 20.6006 76.7308 20.6006C77.3945 20.6006 77.9289 21.135 77.9289 21.7987C77.9289 22.4624 77.3945 22.9968 76.7308 22.9968C76.0671 22.9968 75.5327 22.4624 75.5327 21.7987Z" fill="#002DD5"/>
<path d="M68.6631 21.7987C68.6631 21.135 69.1975 20.6006 69.8612 20.6006C70.5249 20.6006 71.0593 21.135 71.0593 21.7987C71.0593 22.4624 70.5249 22.9968 69.8612 22.9968C69.1975 22.9968 68.6631 22.4624 68.6631 21.7987Z" fill="#002DD5"/>
<path d="M61.8018 21.7987C61.8018 21.135 62.3362 20.6006 62.9999 20.6006C63.6636 20.6006 64.198 21.135 64.198 21.7987C64.198 22.4624 63.6636 22.9968 62.9999 22.9968C62.3362 22.9968 61.8018 22.4624 61.8018 21.7987Z" fill="#002DD5"/>
<path d="M54.9321 21.7987C54.9321 21.135 55.4666 20.6006 56.1303 20.6006C56.794 20.6006 57.3284 21.135 57.3284 21.7987C57.3284 22.4624 56.794 22.9968 56.1303 22.9968C55.4666 22.9968 54.9321 22.4624 54.9321 21.7987Z" fill="#002DD5"/>
<path d="M48.0625 21.7987C48.0625 21.135 48.5969 20.6006 49.2606 20.6006C49.9243 20.6006 50.4587 21.135 50.4587 21.7987C50.4587 22.4624 49.9243 22.9968 49.2606 22.9968C48.5969 22.9968 48.0625 22.4624 48.0625 21.7987Z" fill="#002DD5"/>
<path d="M41.2012 21.7987C41.2012 21.135 41.7356 20.6006 42.3993 20.6006C43.063 20.6006 43.5974 21.135 43.5974 21.7987C43.5974 22.4624 43.063 22.9968 42.3993 22.9968C41.7356 22.9968 41.2012 22.4624 41.2012 21.7987Z" fill="#002DD5"/>
<path d="M34.3315 21.7987C34.3315 21.135 34.866 20.6006 35.5297 20.6006C36.1934 20.6006 36.7278 21.135 36.7278 21.7987C36.7278 22.4624 36.1934 22.9968 35.5297 22.9968C34.866 22.9968 34.3315 22.4624 34.3315 21.7987Z" fill="#002DD5"/>
<path d="M27.4707 21.7987C27.4707 21.135 28.0051 20.6006 28.6688 20.6006C29.3325 20.6006 29.8669 21.135 29.8669 21.7987C29.8669 22.4624 29.3325 22.9968 28.6688 22.9968C28.0051 22.9968 27.4707 22.4624 27.4707 21.7987Z" fill="#002DD5"/>
<path d="M20.6006 21.7987C20.6006 21.135 21.135 20.6006 21.7987 20.6006C22.4624 20.6006 22.9968 21.135 22.9968 21.7987C22.9968 22.4624 22.4624 22.9968 21.7987 22.9968C21.135 22.9968 20.6006 22.4624 20.6006 21.7987Z" fill="#002DD5"/>
<path d="M89.2637 28.6598C89.2637 27.9961 89.7981 27.4617 90.4618 27.4617C91.1255 27.4617 91.6599 27.9961 91.6599 28.6598C91.6599 29.3235 91.1255 29.8579 90.4618 29.8579C89.7981 29.8579 89.2637 29.3235 89.2637 28.6598Z" fill="#002DD5"/>
<path d="M82.4028 28.6598C82.4028 27.9961 82.9373 27.4617 83.601 27.4617C84.2647 27.4617 84.7991 27.9961 84.7991 28.6598C84.7991 29.3235 84.2647 29.8579 83.601 29.8579C82.9373 29.8579 82.4028 29.3235 82.4028 28.6598Z" fill="#002DD5"/>
<path d="M75.5327 28.6598C75.5327 27.9961 76.0671 27.4617 76.7308 27.4617C77.3945 27.4617 77.9289 27.9961 77.9289 28.6598C77.9289 29.3235 77.3945 29.8579 76.7308 29.8579C76.0671 29.8579 75.5327 29.3235 75.5327 28.6598Z" fill="#002DD5"/>
<path d="M68.6631 28.6598C68.6631 27.9961 69.1975 27.4617 69.8612 27.4617C70.5249 27.4617 71.0593 27.9961 71.0593 28.6598C71.0593 29.3235 70.5249 29.8579 69.8612 29.8579C69.1975 29.8579 68.6631 29.3235 68.6631 28.6598Z" fill="#002DD5"/>
<path d="M61.8018 28.6598C61.8018 27.9961 62.3362 27.4617 62.9999 27.4617C63.6636 27.4617 64.198 27.9961 64.198 28.6598C64.198 29.3235 63.6636 29.8579 62.9999 29.8579C62.3362 29.8579 61.8018 29.3235 61.8018 28.6598Z" fill="#002DD5"/>
<path d="M54.9321 28.6598C54.9321 27.9961 55.4666 27.4617 56.1303 27.4617C56.794 27.4617 57.3284 27.9961 57.3284 28.6598C57.3284 29.3235 56.794 29.8579 56.1303 29.8579C55.4666 29.8579 54.9321 29.3235 54.9321 28.6598Z" fill="#002DD5"/>
<path d="M48.0625 28.6598C48.0625 27.9961 48.5969 27.4617 49.2606 27.4617C49.9243 27.4617 50.4587 27.9961 50.4587 28.6598C50.4587 29.3235 49.9243 29.8579 49.2606 29.8579C48.5969 29.8579 48.0625 29.3235 48.0625 28.6598Z" fill="#002DD5"/>
<path d="M41.2012 28.6598C41.2012 27.9961 41.7356 27.4617 42.3993 27.4617C43.063 27.4617 43.5974 27.9961 43.5974 28.6598C43.5974 29.3235 43.063 29.8579 42.3993 29.8579C41.7356 29.8579 41.2012 29.3235 41.2012 28.6598Z" fill="#002DD5"/>
<path d="M34.3315 28.6598C34.3315 27.9961 34.866 27.4617 35.5297 27.4617C36.1934 27.4617 36.7278 27.9961 36.7278 28.6598C36.7278 29.3235 36.1934 29.8579 35.5297 29.8579C34.866 29.8579 34.3315 29.3235 34.3315 28.6598Z" fill="#002DD5"/>
<path d="M27.4707 28.6598C27.4707 27.9961 28.0051 27.4617 28.6688 27.4617C29.3325 27.4617 29.8669 27.9961 29.8669 28.6598C29.8669 29.3235 29.3325 29.8579 28.6688 29.8579C28.0051 29.8579 27.4707 29.3235 27.4707 28.6598Z" fill="#002DD5"/>
<path d="M89.2637 35.5294C89.2637 34.8657 89.7981 34.3313 90.4618 34.3313C91.1255 34.3313 91.6599 34.8657 91.6599 35.5294C91.6599 36.1931 91.1255 36.7275 90.4618 36.7275C89.7981 36.7275 89.2637 36.1931 89.2637 35.5294Z" fill="#002DD5"/>
<path d="M82.4028 35.5294C82.4028 34.8657 82.9373 34.3313 83.601 34.3313C84.2647 34.3313 84.7991 34.8657 84.7991 35.5294C84.7991 36.1931 84.2647 36.7275 83.601 36.7275C82.9373 36.7275 82.4028 36.1931 82.4028 35.5294Z" fill="#002DD5"/>
<path d="M75.5327 35.5294C75.5327 34.8657 76.0671 34.3313 76.7308 34.3313C77.3945 34.3313 77.9289 34.8657 77.9289 35.5294C77.9289 36.1931 77.3945 36.7275 76.7308 36.7275C76.0671 36.7275 75.5327 36.1931 75.5327 35.5294Z" fill="#002DD5"/>
<path d="M68.6631 35.5294C68.6631 34.8657 69.1975 34.3313 69.8612 34.3313C70.5249 34.3313 71.0593 34.8657 71.0593 35.5294C71.0593 36.1931 70.5249 36.7275 69.8612 36.7275C69.1975 36.7275 68.6631 36.1931 68.6631 35.5294Z" fill="#002DD5"/>
<path d="M61.8018 35.5294C61.8018 34.8657 62.3362 34.3313 62.9999 34.3313C63.6636 34.3313 64.198 34.8657 64.198 35.5294C64.198 36.1931 63.6636 36.7275 62.9999 36.7275C62.3362 36.7275 61.8018 36.1931 61.8018 35.5294Z" fill="#002DD5"/>
<path d="M54.9321 35.5294C54.9321 34.8657 55.4666 34.3313 56.1303 34.3313C56.794 34.3313 57.3284 34.8657 57.3284 35.5294C57.3284 36.1931 56.794 36.7275 56.1303 36.7275C55.4666 36.7275 54.9321 36.1931 54.9321 35.5294Z" fill="#002DD5"/>
<path d="M48.0625 35.5294C48.0625 34.8657 48.5969 34.3313 49.2606 34.3313C49.9243 34.3313 50.4587 34.8657 50.4587 35.5294C50.4587 36.1931 49.9243 36.7275 49.2606 36.7275C48.5969 36.7275 48.0625 36.1931 48.0625 35.5294Z" fill="#002DD5"/>
<path d="M41.2012 35.5294C41.2012 34.8657 41.7356 34.3313 42.3993 34.3313C43.063 34.3313 43.5974 34.8657 43.5974 35.5294C43.5974 36.1931 43.063 36.7275 42.3993 36.7275C41.7356 36.7275 41.2012 36.1931 41.2012 35.5294Z" fill="#002DD5"/>
<path d="M34.3315 35.5294C34.3315 34.8657 34.866 34.3313 35.5297 34.3313C36.1934 34.3313 36.7278 34.8657 36.7278 35.5294C36.7278 36.1931 36.1934 36.7275 35.5297 36.7275C34.866 36.7275 34.3315 36.1931 34.3315 35.5294Z" fill="#002DD5"/>
<path d="M89.2637 42.3993C89.2637 41.7356 89.7981 41.2012 90.4618 41.2012C91.1255 41.2012 91.6599 41.7356 91.6599 42.3993C91.6599 43.063 91.1255 43.5974 90.4618 43.5974C89.7981 43.5974 89.2637 43.063 89.2637 42.3993Z" fill="#002DD5"/>
<path d="M82.4028 42.3993C82.4028 41.7356 82.9373 41.2012 83.601 41.2012C84.2647 41.2012 84.7991 41.7356 84.7991 42.3993C84.7991 43.063 84.2647 43.5974 83.601 43.5974C82.9373 43.5974 82.4028 43.063 82.4028 42.3993Z" fill="#002DD5"/>
<path d="M75.5327 42.3993C75.5327 41.7356 76.0671 41.2012 76.7308 41.2012C77.3945 41.2012 77.9289 41.7356 77.9289 42.3993C77.9289 43.063 77.3945 43.5974 76.7308 43.5974C76.0671 43.5974 75.5327 43.063 75.5327 42.3993Z" fill="#002DD5"/>
<path d="M68.6631 42.3993C68.6631 41.7356 69.1975 41.2012 69.8612 41.2012C70.5249 41.2012 71.0593 41.7356 71.0593 42.3993C71.0593 43.063 70.5249 43.5974 69.8612 43.5974C69.1975 43.5974 68.6631 43.063 68.6631 42.3993Z" fill="#002DD5"/>
<path d="M61.8018 42.3993C61.8018 41.7356 62.3362 41.2012 62.9999 41.2012C63.6636 41.2012 64.198 41.7356 64.198 42.3993C64.198 43.063 63.6636 43.5974 62.9999 43.5974C62.3362 43.5974 61.8018 43.063 61.8018 42.3993Z" fill="#002DD5"/>
<path d="M54.9321 42.3993C54.9321 41.7356 55.4666 41.2012 56.1303 41.2012C56.794 41.2012 57.3284 41.7356 57.3284 42.3993C57.3284 43.063 56.794 43.5974 56.1303 43.5974C55.4666 43.5974 54.9321 43.063 54.9321 42.3993Z" fill="#002DD5"/>
<path d="M48.0625 42.3993C48.0625 41.7356 48.5969 41.2012 49.2606 41.2012C49.9243 41.2012 50.4587 41.7356 50.4587 42.3993C50.4587 43.063 49.9243 43.5974 49.2606 43.5974C48.5969 43.5974 48.0625 43.063 48.0625 42.3993Z" fill="#002DD5"/>
<path d="M41.2012 42.3993C41.2012 41.7356 41.7356 41.2012 42.3993 41.2012C43.063 41.2012 43.5974 41.7356 43.5974 42.3993C43.5974 43.063 43.063 43.5974 42.3993 43.5974C41.7356 43.5974 41.2012 43.063 41.2012 42.3993Z" fill="#002DD5"/>
<path d="M89.2637 49.2604C89.2637 48.5967 89.7981 48.0623 90.4618 48.0623C91.1255 48.0623 91.6599 48.5967 91.6599 49.2604C91.6599 49.9241 91.1255 50.4585 90.4618 50.4585C89.7981 50.4585 89.2637 49.9241 89.2637 49.2604Z" fill="#002DD5"/>
<path d="M82.4028 49.2604C82.4028 48.5967 82.9373 48.0623 83.601 48.0623C84.2647 48.0623 84.7991 48.5967 84.7991 49.2604C84.7991 49.9241 84.2647 50.4585 83.601 50.4585C82.9373 50.4585 82.4028 49.9241 82.4028 49.2604Z" fill="#002DD5"/>
<path d="M75.5327 49.2604C75.5327 48.5967 76.0671 48.0623 76.7308 48.0623C77.3945 48.0623 77.9289 48.5967 77.9289 49.2604C77.9289 49.9241 77.3945 50.4585 76.7308 50.4585C76.0671 50.4585 75.5327 49.9241 75.5327 49.2604Z" fill="#002DD5"/>
<path d="M68.6631 49.2604C68.6631 48.5967 69.1975 48.0623 69.8612 48.0623C70.5249 48.0623 71.0593 48.5967 71.0593 49.2604C71.0593 49.9241 70.5249 50.4585 69.8612 50.4585C69.1975 50.4585 68.6631 49.9241 68.6631 49.2604Z" fill="#002DD5"/>
<path d="M61.8018 49.2604C61.8018 48.5967 62.3362 48.0623 62.9999 48.0623C63.6636 48.0623 64.198 48.5967 64.198 49.2604C64.198 49.9241 63.6636 50.4585 62.9999 50.4585C62.3362 50.4585 61.8018 49.9241 61.8018 49.2604Z" fill="#002DD5"/>
<path d="M54.9321 49.2604C54.9321 48.5967 55.4666 48.0623 56.1303 48.0623C56.794 48.0623 57.3284 48.5967 57.3284 49.2604C57.3284 49.9241 56.794 50.4585 56.1303 50.4585C55.4666 50.4585 54.9321 49.9241 54.9321 49.2604Z" fill="#002DD5"/>
<path d="M48.0625 49.2604C48.0625 48.5967 48.5969 48.0623 49.2606 48.0623C49.9243 48.0623 50.4587 48.5967 50.4587 49.2604C50.4587 49.9241 49.9243 50.4585 49.2606 50.4585C48.5969 50.4585 48.0625 49.9241 48.0625 49.2604Z" fill="#002DD5"/>
<path d="M89.2637 56.1303C89.2637 55.4666 89.7981 54.9321 90.4618 54.9321C91.1255 54.9321 91.6599 55.4666 91.6599 56.1303C91.6599 56.794 91.1255 57.3284 90.4618 57.3284C89.7981 57.3284 89.2637 56.794 89.2637 56.1303Z" fill="#002DD5"/>
<path d="M82.4028 56.1303C82.4028 55.4666 82.9373 54.9321 83.601 54.9321C84.2647 54.9321 84.7991 55.4666 84.7991 56.1303C84.7991 56.794 84.2647 57.3284 83.601 57.3284C82.9373 57.3284 82.4028 56.794 82.4028 56.1303Z" fill="#002DD5"/>
<path d="M75.5327 56.1303C75.5327 55.4666 76.0671 54.9321 76.7308 54.9321C77.3945 54.9321 77.9289 55.4666 77.9289 56.1303C77.9289 56.794 77.3945 57.3284 76.7308 57.3284C76.0671 57.3284 75.5327 56.794 75.5327 56.1303Z" fill="#002DD5"/>
<path d="M68.6631 56.1303C68.6631 55.4666 69.1975 54.9321 69.8612 54.9321C70.5249 54.9321 71.0593 55.4666 71.0593 56.1303C71.0593 56.794 70.5249 57.3284 69.8612 57.3284C69.1975 57.3284 68.6631 56.794 68.6631 56.1303Z" fill="#002DD5"/>
<path d="M61.8018 56.1303C61.8018 55.4666 62.3362 54.9321 62.9999 54.9321C63.6636 54.9321 64.198 55.4666 64.198 56.1303C64.198 56.794 63.6636 57.3284 62.9999 57.3284C62.3362 57.3284 61.8018 56.794 61.8018 56.1303Z" fill="#002DD5"/>
<path d="M54.9321 56.1303C54.9321 55.4666 55.4666 54.9321 56.1303 54.9321C56.794 54.9321 57.3284 55.4666 57.3284 56.1303C57.3284 56.794 56.794 57.3284 56.1303 57.3284C55.4666 57.3284 54.9321 56.794 54.9321 56.1303Z" fill="#002DD5"/>
<path d="M89.2637 62.9999C89.2637 62.3362 89.7981 61.8018 90.4618 61.8018C91.1255 61.8018 91.6599 62.3362 91.6599 62.9999C91.6599 63.6636 91.1255 64.198 90.4618 64.198C89.7981 64.198 89.2637 63.6636 89.2637 62.9999Z" fill="#002DD5"/>
<path d="M82.4028 62.9999C82.4028 62.3362 82.9373 61.8018 83.601 61.8018C84.2647 61.8018 84.7991 62.3362 84.7991 62.9999C84.7991 63.6636 84.2647 64.198 83.601 64.198C82.9373 64.198 82.4028 63.6636 82.4028 62.9999Z" fill="#002DD5"/>
<path d="M75.5327 62.9999C75.5327 62.3362 76.0671 61.8018 76.7308 61.8018C77.3945 61.8018 77.9289 62.3362 77.9289 62.9999C77.9289 63.6636 77.3945 64.198 76.7308 64.198C76.0671 64.198 75.5327 63.6636 75.5327 62.9999Z" fill="#002DD5"/>
<path d="M68.6631 62.9999C68.6631 62.3362 69.1975 61.8018 69.8612 61.8018C70.5249 61.8018 71.0593 62.3362 71.0593 62.9999C71.0593 63.6636 70.5249 64.198 69.8612 64.198C69.1975 64.198 68.6631 63.6636 68.6631 62.9999Z" fill="#002DD5"/>
<path d="M61.8018 62.9999C61.8018 62.3362 62.3362 61.8018 62.9999 61.8018C63.6636 61.8018 64.198 62.3362 64.198 62.9999C64.198 63.6636 63.6636 64.198 62.9999 64.198C62.3362 64.198 61.8018 63.6636 61.8018 62.9999Z" fill="#002DD5"/>
<path d="M89.2637 69.8609C89.2637 69.1972 89.7981 68.6628 90.4618 68.6628C91.1255 68.6628 91.6599 69.1972 91.6599 69.8609C91.6599 70.5246 91.1255 71.059 90.4618 71.059C89.7981 71.059 89.2637 70.5246 89.2637 69.8609Z" fill="#002DD5"/>
<path d="M82.4028 69.8609C82.4028 69.1972 82.9373 68.6628 83.601 68.6628C84.2647 68.6628 84.7991 69.1972 84.7991 69.8609C84.7991 70.5246 84.2647 71.059 83.601 71.059C82.9373 71.059 82.4028 70.5246 82.4028 69.8609Z" fill="#002DD5"/>
<path d="M75.5327 69.8609C75.5327 69.1972 76.0671 68.6628 76.7308 68.6628C77.3945 68.6628 77.9289 69.1972 77.9289 69.8609C77.9289 70.5246 77.3945 71.059 76.7308 71.059C76.0671 71.059 75.5327 70.5246 75.5327 69.8609Z" fill="#002DD5"/>
<path d="M68.6631 69.8609C68.6631 69.1972 69.1975 68.6628 69.8612 68.6628C70.5249 68.6628 71.0593 69.1972 71.0593 69.8609C71.0593 70.5246 70.5249 71.059 69.8612 71.059C69.1975 71.059 68.6631 70.5246 68.6631 69.8609Z" fill="#002DD5"/>
<path d="M89.2637 76.7308C89.2637 76.0671 89.7981 75.5327 90.4618 75.5327C91.1255 75.5327 91.6599 76.0671 91.6599 76.7308C91.6599 77.3945 91.1255 77.929 90.4618 77.929C89.7981 77.929 89.2637 77.3945 89.2637 76.7308Z" fill="#002DD5"/>
<path d="M82.4028 76.7308C82.4028 76.0671 82.9373 75.5327 83.601 75.5327C84.2647 75.5327 84.7991 76.0671 84.7991 76.7308C84.7991 77.3945 84.2647 77.929 83.601 77.929C82.9373 77.929 82.4028 77.3945 82.4028 76.7308Z" fill="#002DD5"/>
<path d="M75.5327 76.7308C75.5327 76.0671 76.0671 75.5327 76.7308 75.5327C77.3945 75.5327 77.9289 76.0671 77.9289 76.7308C77.9289 77.3945 77.3945 77.929 76.7308 77.929C76.0671 77.929 75.5327 77.3945 75.5327 76.7308Z" fill="#002DD5"/>
<path d="M89.2637 83.6005C89.2637 82.9368 89.7981 82.4023 90.4618 82.4023C91.1255 82.4023 91.6599 82.9368 91.6599 83.6005C91.6599 84.2642 91.1255 84.7986 90.4618 84.7986C89.7981 84.7986 89.2637 84.2642 89.2637 83.6005Z" fill="#002DD5"/>
<path d="M82.4028 83.6005C82.4028 82.9368 82.9373 82.4023 83.601 82.4023C84.2647 82.4023 84.7991 82.9368 84.7991 83.6005C84.7991 84.2642 84.2647 84.7986 83.601 84.7986C82.9373 84.7986 82.4028 84.2642 82.4028 83.6005Z" fill="#002DD5"/>
<path d="M89.2637 90.4616C89.2637 89.7979 89.7981 89.2634 90.4618 89.2634C91.1255 89.2634 91.6599 89.7979 91.6599 90.4616C91.6599 91.1253 91.1255 91.6597 90.4618 91.6597C89.7981 91.6597 89.2637 91.1253 89.2637 90.4616Z" fill="#002DD5"/>
</svg>
