<svg width="56" height="56" viewBox="0 0 56 56" fill="none" xmlns="http://www.w3.org/2000/svg">
<path d="M27.933 0C12.506 0 0 12.506 0 27.933C0 43.36 12.506 55.866 27.933 55.866C43.36 55.866 55.866 43.36 55.866 27.933C55.8496 12.5129 43.3532 0.0164839 27.933 0ZM39.6967 28.823C39.5033 29.2109 39.1889 29.5254 38.8009 29.7188V29.7287L22.8392 37.7096C21.8535 38.2021 20.6552 37.8024 20.1625 36.8167C20.0225 36.5364 19.9503 36.2271 19.9521 35.9139V19.9522C19.9516 18.8502 20.8444 17.9566 21.9464 17.956C22.2563 17.9559 22.562 18.0279 22.8392 18.1665L38.8009 26.1474C39.7872 26.6388 40.1883 27.8368 39.6967 28.823Z" fill="white"/>
</svg>
