<svg width="69" height="69" viewBox="0 0 69 69" fill="none" xmlns="http://www.w3.org/2000/svg">
<g clip-path="url(#clip0_5_428)">
<path d="M58.7095 56.0027H46.9445H22.537C21.5194 56.0027 20.6943 56.8276 20.6943 57.8453V58.9794C20.6943 59.9969 21.5193 60.8223 22.537 60.8223H46.9446H58.7097H64.8045V56.003L58.7095 56.0027Z" fill="#022CEE"/>
<path d="M18.7035 26.9952C24.3376 26.9952 28.905 22.4278 28.905 16.7937C28.905 11.1595 24.3376 6.59216 18.7035 6.59216C13.0693 6.59216 8.50195 11.1595 8.50195 16.7937C8.50195 22.4278 13.0693 26.9952 18.7035 26.9952Z" fill="#022CEE"/>
<path d="M43.5935 41.8146L20.2157 41.8017L19.6622 41.7999V39.087L19.643 36.8163C19.643 31.3923 15.2458 26.9949 9.8215 26.9949C9.63774 26.9949 9.45521 27.0011 9.27383 27.011L9.26002 26.9949C4.14588 26.9951 0 31.1408 0 36.2551V62.4079H19.6622V51.2668L19.4021 51.2463C19.3836 51.2446 19.379 51.2465 19.3675 51.2465C18.0372 51.2465 16.7622 50.6864 15.8638 49.7056L7.88322 40.9943C7.62878 40.7167 7.64765 40.2855 7.92538 40.0313C8.20284 39.7768 8.63414 39.7958 8.88841 40.0734L16.8689 48.7846C17.5173 49.4925 18.4318 49.9254 19.3948 49.9394C19.4588 49.9403 20.333 49.9529 20.333 49.9529H43.5935C45.8408 49.9529 47.6627 48.131 47.6627 45.8837C47.6628 43.6363 45.8408 41.8146 43.5935 41.8146Z" fill="#022CEE"/>
<path d="M67.7679 27.3756C66.8164 27.0496 65.7807 27.5571 65.4544 28.5087L57.7309 51.0558H30.0939C29.0882 51.0558 28.2725 51.8711 28.2725 52.877C28.2725 53.8829 29.0882 54.6984 30.0939 54.6984H59.0102C59.6296 54.6984 60.1764 54.3882 60.5051 53.9154C60.6187 53.7654 60.7114 53.596 60.776 53.4081L68.9018 29.6883C69.2268 28.7373 68.72 27.7014 67.7679 27.3756Z" fill="#022CEE"/>
</g>
<defs>
<clipPath id="clip0_5_428">
<rect width="69" height="69" fill="white"/>
</clipPath>
</defs>
</svg>
