<svg width="47" height="47" viewBox="0 0 47 47" fill="none" xmlns="http://www.w3.org/2000/svg">
<ellipse cx="23.6245" cy="23.4135" rx="23.2026" ry="23.4135" fill="white"/>
<g clip-path="url(#clip0_463_89)">
<path d="M35.9598 15.031L35.9514 15.0226C35.1667 14.1873 34.3146 14.0902 33.7493 14.027C33.6944 14.0185 33.6396 14.0143 33.5889 14.0101C29.6445 13.7232 23.7089 13.681 23.4979 13.681C23.287 13.681 17.3471 13.7232 13.3689 14.0101C13.3225 14.0143 13.2761 14.0227 13.2213 14.027C12.6729 14.0902 11.8418 14.1873 11.0529 15.0521C10.5762 15.5668 10.264 16.845 10.1712 17.5453C10.1501 17.7647 9.95605 20.1018 9.95605 22.3757V24.6706C9.95605 26.974 10.1586 29.3449 10.1754 29.5052C10.2514 30.1928 10.5551 31.4626 11.0402 31.9731L11.0571 31.99C11.7659 32.7662 12.6855 32.8717 13.3563 32.9518C13.4871 32.9687 13.6136 32.9814 13.7317 32.9982C16.0014 33.2092 23.2364 33.3189 23.5443 33.3231C23.8143 33.3231 29.712 33.2767 33.6353 32.994C33.6944 32.9856 33.7577 32.9814 33.8252 32.9729C34.3989 32.9139 35.1836 32.8295 35.9472 31.99C36.4408 31.45 36.7529 30.0916 36.8289 29.501C36.8457 29.2858 37.044 26.9445 37.044 24.6706V22.3757C37.044 20.0639 36.8415 17.693 36.8246 17.5369C36.7487 16.8366 36.445 15.5415 35.9598 15.0352V15.031ZM28.2144 24.3163L21.435 27.9612C21.2494 28.0624 21.0469 28.113 20.8444 28.113C20.625 28.113 20.4057 28.054 20.2074 27.9359C19.8277 27.708 19.5999 27.3115 19.5999 26.8685V19.5154C19.5999 19.0725 19.8277 18.6717 20.2116 18.4439C20.5955 18.2161 21.0553 18.2076 21.4434 18.4228L28.2228 22.131C28.6236 22.3504 28.8725 22.7722 28.8725 23.2278C28.8725 23.6835 28.6194 24.1053 28.2186 24.3205L28.2144 24.3163Z" fill="#002CCE"/>
<path d="M23.5021 0C10.5213 0 0 10.5213 0 23.5021C0 36.4829 10.5213 47.0042 23.5021 47.0042C36.4829 47.0042 47.0042 36.4829 47.0042 23.5021C47.0042 10.5213 36.4787 0 23.5021 0ZM38.8411 24.6665C38.8411 27.1217 38.626 29.5685 38.6133 29.6698V29.6993C38.5796 29.9398 38.2843 32.0913 37.2676 33.1966C36.0484 34.5381 34.6689 34.6858 34.0065 34.7575C33.9433 34.7659 33.8842 34.7701 33.8336 34.7786H33.7787C29.7204 35.0781 23.5949 35.1203 23.5359 35.1203H23.5274H23.519C23.2068 35.1161 15.8663 35.0064 13.5208 34.7828L13.4491 34.7743C13.3773 34.7617 13.2677 34.749 13.1453 34.7364C12.3564 34.6478 10.8883 34.479 9.72821 33.2092C8.66511 32.0913 8.40777 29.9356 8.38246 29.6909V29.674C8.36981 29.5727 8.15465 27.1259 8.15465 24.6665V22.3715C8.15465 19.9163 8.36981 17.4694 8.37824 17.3682V17.3387C8.41199 17.0982 8.7073 14.9467 9.72399 13.8414C10.9601 12.4788 12.348 12.3185 13.0103 12.2425C13.0609 12.2383 13.1116 12.2299 13.1538 12.2257H13.2086C17.3007 11.9261 23.4262 11.8839 23.4895 11.8839H23.4937H23.4979C23.5612 11.8839 29.6867 11.9261 33.7408 12.2214H33.7956C33.842 12.2341 33.8926 12.2383 33.9475 12.2467C34.6225 12.3227 36.0188 12.483 37.2549 13.7992C38.3222 14.9172 38.5796 17.1151 38.6091 17.3598V17.3724C38.6175 17.4737 38.8369 19.9205 38.8369 22.3757V24.6707L38.8411 24.6665Z" fill="#002CCE"/>
<path d="M21.4011 25.9405L26.4677 23.2153L21.4011 20.4436V25.9405Z" fill="#002CCE"/>
</g>
<defs>
<clipPath id="clip0_463_89">
<rect width="47" height="47" fill="white"/>
</clipPath>
</defs>
</svg>
