<svg width="242" height="150" viewBox="0 0 242 150" fill="none" xmlns="http://www.w3.org/2000/svg">
<rect width="241" height="150" rx="20" fill="white"/>
<path d="M63.8385 54H33.5016C29.9108 54 27 56.888 27 60.4505V90.5495C27 94.112 29.9108 97 33.5016 97H63.8385C67.4292 97 70.34 94.112 70.34 90.5495V60.4505C70.34 56.888 67.4292 54 63.8385 54Z" fill="#C80A0A"/>
<path d="M34.2518 92.2909C33.537 92.2909 32.8903 92.0509 32.413 91.5948C31.3265 90.5561 31.166 88.4743 33.262 86.1633C35.4549 83.7237 38.0942 81.9844 41.5979 80.7559C42.4799 79.1127 43.2585 77.5328 43.8194 76.2955C44.0701 75.7456 44.3274 75.2 44.5738 74.6741C45.0225 73.7183 45.4645 72.7778 45.8692 71.8242C44.565 69.8733 43.705 67.6955 43.551 64.1276V64.1189C43.4718 61.821 44.2504 59.8811 45.5833 59.0562C46.3663 58.5718 47.2549 58.5281 48.0225 58.9362C49.3488 59.6389 49.7535 61.3388 49.8634 62.5695H49.8942C50.1494 66.0152 49.4587 68.8826 48.4536 71.5165C48.9023 72.1035 49.4015 72.7014 49.9514 73.3604C50.3935 73.8907 50.851 74.4363 51.3415 75.0473C52.23 76.1624 53.255 77.4106 54.3349 78.6042C54.7066 78.5933 55.0827 78.589 55.4632 78.589C58.648 78.589 61.1576 78.9818 62.9259 79.7543C63.9179 80.1798 64.6459 80.7384 65.0902 81.4127C65.5696 82.1394 65.6862 82.9642 65.4157 83.7346C65.1166 84.5922 64.3556 85.2861 63.3328 85.6374C62.3431 85.9778 61.1818 85.9888 59.9743 85.668C58.1069 85.1748 55.9955 83.6647 53.3825 80.913C51.6736 81.0003 49.9844 81.1814 48.5108 81.4105C46.5071 81.7335 44.7497 82.1263 43.1859 82.6129C42.9022 83.1279 42.6097 83.6473 42.3083 84.1623C40.507 87.2588 38.9278 89.4541 37.6103 90.6826C36.7547 91.5053 35.831 92.0378 34.938 92.2211C34.7049 92.2691 34.4761 92.2931 34.2518 92.2931V92.2909ZM39.7614 83.9833C37.8787 84.9457 36.3346 86.1502 34.9644 87.6756C33.8515 88.902 33.8229 89.7945 33.9966 89.9603C34.1572 90.1131 34.9666 90.0673 36.0223 89.0482L36.0355 89.0351C37.155 87.992 38.4835 86.0935 39.7592 83.9833H39.7614ZM56.5629 80.8737C57.9552 82.159 59.343 83.1519 60.5615 83.4727C62.1737 83.9004 63.1261 83.357 63.2558 82.9861C63.3482 82.722 62.9435 82.2289 62.0154 81.8295L62.0066 81.8251C60.6341 81.2229 58.6832 80.9414 56.5651 80.8715L56.5629 80.8737ZM47.4462 73.906C47.1823 74.4865 46.914 75.0604 46.6456 75.6299C46.4015 76.1515 46.1464 76.6905 45.9022 77.2273C45.5789 77.9409 45.1434 78.8508 44.631 79.8677C45.7285 79.6015 46.8986 79.3702 48.1501 79.1694C48.9067 79.0516 50.068 78.8945 51.4602 78.7723C50.851 78.0609 50.2153 77.2884 49.5533 76.457C49.0804 75.8678 48.6295 75.3288 48.194 74.8072C47.9367 74.4995 47.6882 74.2006 47.4462 73.9082V73.906ZM45.834 64.0338C45.9264 66.1745 46.2915 67.7042 46.8986 69.0179C47.4352 67.2307 47.7454 65.3344 47.6442 63.1893H47.6134C47.5628 61.6028 47.1141 61.0224 46.9448 60.9351C46.9338 60.9285 46.9008 60.9111 46.7908 60.9787C46.4301 61.2013 45.7681 62.1265 45.834 64.0338Z" fill="white"/>
<path fill-rule="evenodd" clip-rule="evenodd" d="M82.2035 80.6571L80.945 86.7494H78L82.8761 64.6668H86.3704L90.9613 86.7494H87.9759L86.7173 80.6571H82.2074H82.2035ZM86.3261 78.2029L85.3104 72.9214L84.497 67.8886H84.233L83.4196 72.9412L82.4039 78.2029H86.3241H86.3261ZM102.435 64.0631V82.632L102.556 86.7277H99.9561L99.7538 84.7943H99.4685C98.8846 86.1004 97.6221 86.9487 96.219 86.9783C93.3743 86.9783 91.5877 83.796 91.5877 78.8066C91.5877 73.1917 93.9236 70.5303 96.3809 70.5303C97.599 70.5303 98.4124 71.1537 99.1428 72.3177H99.2045V64L102.435 64.0631ZM99.3876 76.8929L99.3471 75.8946C99.2045 74.4386 98.3931 73.1917 97.3157 73.1917C95.2843 73.1917 94.8179 75.8946 94.8179 78.848C94.8179 82.0914 95.6312 84.3997 97.2155 84.3997C97.9055 84.3997 98.7997 84.0249 99.2874 82.1131C99.3664 81.7718 99.4011 81.4226 99.3895 81.0734V76.8948L99.3876 76.8929ZM109.585 86.998C106.498 86.998 104.221 84.2537 104.221 78.8046C104.221 73.0437 106.902 70.55 109.707 70.55C112.754 70.55 114.987 73.3772 114.987 78.7434C114.987 85.0646 111.94 86.9783 109.583 86.9783V87L109.585 86.998ZM109.668 84.5654C111.537 84.5654 111.942 81.1977 111.942 78.7434C111.942 76.2892 111.536 72.9629 109.606 72.9629C107.677 72.9629 107.249 76.374 107.249 78.7434C107.249 81.4049 107.696 84.5654 109.647 84.5654H109.668ZM116.838 64.0631H119.885V72.588H119.946C120.76 71.132 121.835 70.55 123.196 70.55C125.836 70.55 127.502 73.606 127.502 78.5146C127.502 84.2123 125.227 86.9783 122.668 86.9783C121.145 86.9783 120.291 86.1457 119.621 84.6917H119.519L119.316 86.708H116.735L116.857 82.6123V64.1046L116.836 64.0631H116.838ZM119.885 81.1149C119.879 81.4522 119.919 81.7876 120.006 82.1131C120.494 84.0466 121.429 84.4412 122.038 84.4412C123.824 84.4412 124.476 82.0086 124.476 78.7434C124.476 75.7072 123.786 73.2331 121.997 73.2331C121.022 73.2331 120.21 74.4386 120.006 75.6046C119.941 75.9538 119.906 76.3089 119.904 76.666V81.1168H119.883L119.885 81.1149ZM131.667 79.4497C131.688 83.5257 133.413 84.524 135.221 84.524C136.151 84.5299 137.073 84.3307 137.923 83.942L138.37 86.1872C137.198 86.706 135.93 86.9605 134.652 86.9349C130.751 86.9349 128.7 83.8986 128.7 79.0335C128.7 73.8349 131.036 70.5914 134.266 70.5914C137.497 70.5914 139 73.7737 139 77.7649L138.919 79.4695L131.667 79.4478V79.4497ZM136.136 77.2046C136.176 74.3972 135.201 72.9214 134.024 72.9214C132.48 72.9214 131.992 75.208 131.667 77.2046H136.136Z" fill="black"/>
<path fill-rule="evenodd" clip-rule="evenodd" d="M148.185 79.9009L146.932 85.7387H144L148.855 64.5785H152.334L156.905 85.7387H153.932L152.679 79.9009H148.189H148.185ZM152.311 77.5491L151.299 72.4883L150.49 67.6656H150.388L149.578 72.5072L148.567 77.5491H152.309H152.311ZM166.468 85.4003C165.964 85.6801 165.012 85.9183 163.88 85.9183C160.32 85.9183 157.933 83.2281 157.933 78.207C157.933 73.7246 160.36 70.2367 164.405 70.2367C165.275 70.2367 166.184 70.4352 166.428 70.6942L165.923 73.0857C165.392 72.855 164.824 72.7208 164.244 72.6868C161.938 72.6868 160.806 75.237 160.806 78.1257C160.806 81.4132 162.12 83.4058 164.244 83.4058C164.891 83.4058 165.457 83.2867 165.942 83.0069L166.468 85.3984V85.4003ZM168.005 74.6415L167.884 70.4976H170.554L170.715 72.8286H170.816C171.383 71.3143 172.678 70.2386 173.992 70.2386C174.276 70.2386 174.457 70.2594 174.639 70.2783V73.2671C174.437 73.2274 174.234 73.2274 173.971 73.2274C172.636 73.2274 171.463 74.3636 171.139 76.0575C171.058 76.5358 171.018 77.0141 171.018 77.4924V85.7009H167.984L168.005 74.6415ZM180.261 85.9977C177.187 85.9977 174.921 83.368 174.921 78.1465C174.921 72.6263 177.59 70.2367 180.382 70.2367C183.416 70.2367 185.64 72.9458 185.64 78.0879C185.64 84.145 182.606 85.9788 180.259 85.9788V85.9996L180.261 85.9977ZM180.342 83.6667C182.203 83.6667 182.606 80.4396 182.606 78.0879C182.606 75.7361 182.201 72.5488 180.28 72.5488C178.36 72.5488 177.934 75.8174 177.934 78.0879C177.934 80.6381 178.379 83.6667 180.321 83.6667H180.342ZM187.482 64.0208H190.516V72.1896H190.577C191.387 70.7944 192.458 70.2367 193.812 70.2367C196.441 70.2367 198.099 73.1651 198.099 77.8686C198.099 83.3283 195.835 85.9788 193.287 85.9788C191.771 85.9788 190.921 85.181 190.253 83.7877H189.969V85.7198H187.34L187.461 81.7951V64L187.482 64.0208ZM190.516 80.3602C190.51 80.6835 190.55 81.0049 190.637 81.3168C191.122 83.1695 192.053 83.5476 192.659 83.5476C194.438 83.5476 195.087 81.2166 195.087 78.0879C195.087 75.1784 194.4 72.8078 192.619 72.8078C191.648 72.8078 190.84 73.9628 190.637 75.0801C190.575 75.4185 190.535 75.7569 190.535 76.0764L190.514 80.3602H190.516ZM208.88 82.2923C208.856 83.4512 208.918 84.61 209.062 85.7595H206.149V84.1658H206.068C205.414 85.3171 204.171 86.0203 202.833 85.9996C200.669 85.9996 199.032 84.2055 199.032 81.5569C199.032 77.6909 202.267 76.0178 205.786 75.9781V75.5206C205.786 73.7265 205.18 72.5317 203.399 72.5317C202.348 72.5317 201.438 72.8512 200.649 73.3295L200.043 71.2765C201.263 70.5751 202.655 70.2102 204.067 70.2197C207.707 70.2197 208.839 72.6111 208.839 75.9573V82.2545L208.88 82.2942V82.2923ZM205.907 78.0274C204.612 78.0482 201.983 78.3469 201.983 81.2752C201.983 83.109 202.954 83.7461 203.743 83.7461C204.673 83.7461 205.765 83.0882 205.827 81.7932C205.888 81.5342 205.907 81.2544 205.907 80.9954V78.0274ZM215.007 66.8093V70.5146H218V72.7057H215.007V81.0748C215.007 82.988 215.734 83.4663 216.624 83.4663C216.964 83.4663 217.303 83.4342 217.635 83.3661L217.716 85.6782C217.231 85.837 216.563 85.9372 215.653 85.9372C214.602 85.9372 213.671 85.6782 213.024 85.0014C212.378 84.3246 211.973 83.2073 211.973 81.0162V72.7265H210.111V70.5354H211.973V67.9057L215.007 66.8093Z" fill="black"/>
</svg>
