<svg width="241" height="150" viewBox="0 0 241 150" fill="none" xmlns="http://www.w3.org/2000/svg">
<rect x="0.5" y="0.5" width="240" height="149" rx="19.5" fill="white" stroke="#E7E7E7"/>
<g clip-path="url(#clip0_0_123)">
<path d="M39.5118 59.4224C38.8216 59.5381 37.1538 60.6375 35.7735 61.8527C32.2653 64.9774 31 68.6807 31 75.798C31 80.7164 31.1725 81.6423 32.7254 84.7669C34.0481 87.4287 35.0834 88.586 37.2688 89.9747L40.0869 91.7107L51.8769 91.8843C64.8746 92.1157 64.6446 92.1736 64.6446 88.4703C64.6446 86.5029 64.5296 86.3293 62.5166 85.9821C61.3089 85.8085 56.4779 85.6349 51.8194 85.6349C39.3968 85.6349 37.6714 84.5933 37.1538 76.6081C36.8087 71.1688 37.9015 67.8706 40.662 66.2504C42.0423 65.3824 43.8827 65.0931 48.4262 64.9195L54.2924 64.688V59.0173L47.5635 59.0752C43.8252 59.1331 40.2019 59.3067 39.5118 59.4224Z" fill="black"/>
<path d="M80.7479 59.2488C80.7479 59.596 84.0261 68.1021 85.0613 70.4745C85.5214 71.5161 85.924 72.6155 85.924 72.9627C85.924 73.3099 86.2691 74.4093 86.7292 75.393C87.9945 78.1126 91.6752 87.8338 91.6752 88.4124C91.6752 88.9332 93.4581 90.4955 95.0684 91.3635C95.7011 91.7107 97.4264 92 98.9218 92C103.12 92 104.385 90.2062 109.446 77.1868C111.804 71.1689 114.047 65.4403 114.508 64.5145C114.91 63.5308 115.485 61.9106 115.773 60.869L116.348 59.0174H113.185C109.677 59.0174 110.309 58.2651 106.916 66.5397C106.053 68.6228 105.018 71.0531 104.615 72.0368C104.213 72.9627 103.695 74.4093 103.465 75.2194C102.833 77.6497 100.187 83.5518 99.0943 84.9406L98.0591 86.2715L96.3912 82.626C95.471 80.6008 94.3783 77.939 93.9757 76.666C93.5731 75.393 92.9405 73.5413 92.5379 72.6155C91.3877 70.0695 89.0297 63.6465 88.2245 61.1584L87.5344 59.0174H84.1411C82.3008 59.0174 80.7479 59.1331 80.7479 59.2488Z" fill="black"/>
<path d="M145.679 60.5797C144.874 61.5055 143.781 63.3572 143.206 64.8038C141.251 69.7801 140.101 72.6154 138.375 76.9553C135.327 84.5355 133.717 88.7596 133.314 90.3798C133.084 91.4599 133.928 92 135.845 92C137.57 92 138.95 91.7107 139.238 91.2477C139.468 90.9006 141.883 84.9405 144.586 78.1125C148.497 68.3335 149.763 65.6139 150.683 65.4981C151.948 65.3245 152.236 65.961 156.606 77.8232C158.274 82.2788 159.942 86.6765 160.402 87.6602C160.805 88.586 161.322 89.9747 161.553 90.6691C161.84 91.8264 162.3 92 164.773 92C167.706 92 168.914 91.0163 167.706 89.5118C167.419 89.1646 166.729 87.3708 166.153 85.6349C165.578 83.899 165.003 82.163 164.773 81.8737C164.601 81.5265 164.026 80.1378 163.508 78.6912C159.08 66.0768 157.009 61.2162 155.686 60.1746C154.594 59.3067 153.328 59.0173 150.683 59.0173C147.52 59.0173 146.944 59.1909 145.679 60.5797Z" fill="black"/>
<path d="M184.845 61.9105V64.8038H194.047V92H199.798V64.2251H209V59.0173H184.845V61.9105Z" fill="black"/>
</g>
<defs>
<clipPath id="clip0_0_123">
<rect width="178" height="33" fill="white" transform="translate(31 59)"/>
</clipPath>
</defs>
</svg>
