<svg width="240" height="150" viewBox="0 0 240 150" fill="none" xmlns="http://www.w3.org/2000/svg">
<rect x="0.5" y="0.5" width="239" height="149" rx="19.5" fill="white" stroke="#E7E7E7"/>
<g clip-path="url(#clip0_0_73)">
<path fill-rule="evenodd" clip-rule="evenodd" d="M104.737 71.8848H94.5957C94.7551 74.1025 96.1821 75.2146 98.8598 75.2146C100.57 75.2146 102.072 74.8172 103.368 74.0224V77.4291C101.935 78.1822 100.068 78.5604 97.7686 78.5604C95.2604 78.5604 93.3122 77.8778 91.9246 76.5061C90.54 75.1409 89.8459 73.2276 89.8459 70.7824C89.8459 68.2442 90.5921 66.2316 92.0936 64.7478C93.5925 63.264 95.4329 62.5269 97.6188 62.5269C99.8827 62.5269 101.639 63.1902 102.88 64.5106C104.118 65.8342 104.74 67.6353 104.74 69.9043V71.8848H104.737ZM136.661 81.6498V82.9221H131.869V81.6498V78.9482V62.8922H136.661V65.19H136.723C137.909 63.4114 139.573 62.5204 141.717 62.5204C143.733 62.5204 145.287 63.1967 146.385 64.5587C147.483 65.9143 148.034 67.7635 148.034 70.1062C148.034 72.6539 147.392 74.6986 146.111 76.2433C144.831 77.7881 143.127 78.5572 141.003 78.5572C139.134 78.5572 137.707 77.8425 136.723 76.4068H136.661V78.9482V81.6498ZM100.29 68.9845C100.29 66.7988 99.3875 65.7028 97.5829 65.7028C96.8175 65.7028 96.1493 66.0137 95.5892 66.6418C95.0257 67.2699 94.6868 68.0551 94.5629 68.9877H100.29V68.9845ZM130.172 78.1854H125.39V69.4652C125.39 67.2443 124.559 66.1354 122.901 66.1354C122.112 66.1354 121.471 66.4655 120.973 67.1353C120.474 67.8051 120.226 68.632 120.226 69.6287V78.1886H115.435V69.3755C115.435 67.2186 114.617 66.1386 112.988 66.1386C112.17 66.1386 111.513 66.4559 111.024 67.0905C110.532 67.7282 110.281 68.5935 110.281 69.6895V78.1886H105.489V62.8922H110.281V65.283H110.343C110.841 64.469 111.535 63.7991 112.431 63.2896C113.327 62.7736 114.308 62.5204 115.369 62.5204C117.565 62.5204 119.07 63.4691 119.878 65.3695C121.064 63.4691 122.8 62.5204 125.1 62.5204C128.478 62.5204 130.169 64.5683 130.169 68.6736V78.1854H130.172ZM136.589 70.1382V71.3624C136.589 72.42 136.87 73.2789 137.44 73.9487C138.003 74.6153 138.753 74.9486 139.674 74.9486C140.762 74.9486 141.613 74.5352 142.212 73.7051C142.815 72.8751 143.121 71.6957 143.121 70.1734C143.121 67.4815 142.059 66.1419 139.928 66.1419C138.948 66.1419 138.147 66.504 137.524 67.2379C136.899 67.9654 136.589 68.9332 136.589 70.1382ZM153.842 78.1854H149.05V55.6526H153.842V78.1854ZM163.188 78.5572C160.598 78.5572 158.559 77.8425 157.076 76.4164C155.594 74.9903 154.855 73.0449 154.855 70.5997C154.855 68.0711 155.62 66.0874 157.161 64.6612C158.699 63.2351 160.783 62.5204 163.399 62.5204C165.979 62.5204 168.006 63.2351 169.472 64.6612C170.938 66.0874 171.674 67.9814 171.674 70.3305C171.674 72.8687 170.918 74.8781 169.403 76.3491C167.892 77.8233 165.817 78.5572 163.188 78.5572ZM163.311 66.1354C162.178 66.1354 161.295 66.5168 160.67 67.2827C160.044 68.0519 159.725 69.1383 159.725 70.5388C159.725 73.4744 160.934 74.9422 163.341 74.9422C165.637 74.9422 166.787 73.4327 166.787 70.4202C166.787 67.5615 165.628 66.1354 163.311 66.1354ZM187.486 62.8922H182.733L179.808 72.2277C179.564 72.9937 179.398 73.6667 179.306 74.2468H179.244C179.147 73.4584 179 72.7725 178.821 72.1989L175.925 62.8954H170.602L176.518 77.1919C177.003 78.9706 174.648 80.2429 172.078 78.8648V82.6272C172.83 82.8868 173.788 83.015 174.948 83.015C178.006 83.015 179.916 82.6882 182.131 76.8875L187.486 62.8922ZM201.158 71.8848H191.141C191.301 74.1025 192.728 75.2146 195.405 75.2146C197.116 75.2146 198.617 74.8172 199.914 74.0224V77.4291C198.481 78.1822 196.614 78.5604 194.311 78.5604C191.802 78.5604 189.854 77.8778 188.467 76.5061C187.082 75.1409 186.388 73.2276 186.388 70.7824C186.388 68.2442 187.135 66.2316 188.636 64.7478C190.135 63.264 191.972 62.5269 194.161 62.5269C196.425 62.5269 198.184 63.187 199.422 64.5106C201.243 66.4559 201.224 68.3403 201.11 70.5708C201.087 70.9907 201.122 71.3849 201.158 71.8848ZM196.836 68.9845C196.836 66.7988 195.933 65.7028 194.128 65.7028C193.363 65.7028 192.695 66.0137 192.135 66.6418C191.571 67.2699 191.232 68.0551 191.109 68.9877H196.836V68.9845ZM216 71.8848V69.8946C216 67.6256 215.378 65.8278 214.14 64.501C212.902 63.1806 211.143 62.5172 208.879 62.5172C206.693 62.5172 204.852 63.2575 203.354 64.7382C201.852 66.222 201.106 68.2346 201.106 70.7728C201.106 73.2212 201.8 75.1313 203.184 76.4965C204.572 77.8681 206.52 78.5508 209.029 78.5508C211.329 78.5508 213.195 78.1726 214.632 77.4195V74.0224C213.335 74.8172 211.834 75.2146 210.123 75.2146C207.445 75.2146 206.019 74.1057 205.859 71.8848H216ZM211.553 68.9845H205.827C205.95 68.0519 206.289 67.2667 206.853 66.6386C207.413 66.0137 208.081 65.6996 208.846 65.6996C210.651 65.7028 211.553 66.7988 211.553 68.9845Z" fill="#374E6E"/>
<path fill-rule="evenodd" clip-rule="evenodd" d="M91.452 96.9948V87.3257H93.3774L97.4231 93.8061V87.3257H99.2639V96.9948H97.2764L93.2925 90.6397V96.9948H91.452ZM113.581 96.9948H111.438L110.587 94.793H106.645L105.828 96.9948H103.723L107.538 87.3257H109.642L113.581 96.9948ZM109.942 93.1586L108.577 89.5787L107.251 93.1586H109.942ZM119.497 96.9948L115.982 87.3257H118.132L120.627 94.482L123.021 87.3257H125.136L121.64 96.9948H119.497ZM129.432 96.9948V87.3257H131.423V96.9948H129.432ZM141.244 93.4404V91.8059H145.515V95.6646C145.101 96.0621 144.499 96.4115 143.711 96.7157C142.922 97.0172 142.124 97.1676 141.316 97.1676C140.29 97.1676 139.394 96.9561 138.629 96.53C137.866 96.1035 137.293 95.4948 136.909 94.7034C136.524 93.9147 136.332 93.0496 136.332 92.1234C136.332 91.114 136.547 90.2197 136.974 89.4344C137.404 88.6525 138.029 88.0468 138.857 87.6302C139.489 87.3097 140.271 87.1495 141.209 87.1495C142.427 87.1495 143.381 87.4028 144.069 87.9059C144.753 88.4122 145.196 89.1078 145.391 89.9987L143.414 90.364C143.277 89.8897 143.017 89.5115 142.632 89.2358C142.251 88.9601 141.776 88.8223 141.205 88.8223C140.339 88.8223 139.651 89.0915 139.14 89.6365C138.629 90.178 138.375 90.9827 138.375 92.0463C138.375 93.197 138.632 94.059 139.15 94.6328C139.668 95.2066 140.345 95.4948 141.186 95.4948C141.6 95.4948 142.016 95.4147 142.433 95.2544C142.851 95.0942 143.209 94.8986 143.508 94.6681V93.4404H141.244ZM159.565 96.9948H157.422L156.571 94.793H152.63L151.812 96.9948H149.708L153.525 87.3257H155.63L159.565 96.9948ZM155.93 93.1586L154.565 89.5787L153.239 93.1586H155.93ZM165.178 96.9948V88.9601H162.269V87.3257H170.068V88.9601H167.172V96.9948H165.178ZM174.055 92.2165C174.055 91.2291 174.205 90.4024 174.505 89.7325C174.726 89.2392 175.032 88.7968 175.42 88.4057C175.808 88.0149 176.231 87.7233 176.69 87.5342C177.303 87.2809 178.01 87.1529 178.811 87.1529C180.261 87.1529 181.421 87.5949 182.29 88.4794C183.16 89.3672 183.593 90.598 183.593 92.1747C183.593 93.7385 183.16 94.9628 182.297 95.8472C181.434 96.732 180.277 97.174 178.834 97.174C177.371 97.174 176.208 96.7351 175.345 95.8571C174.488 94.9723 174.055 93.7609 174.055 92.2165ZM176.101 92.1523C176.101 93.2482 176.358 94.0784 176.876 94.6457C177.391 95.2096 178.046 95.4948 178.837 95.4948C179.632 95.4948 180.28 95.2127 180.792 94.6521C181.3 94.0878 181.554 93.2482 181.554 92.1234C181.554 91.0146 181.307 90.1844 180.811 89.6395C180.316 89.0915 179.662 88.8192 178.84 88.8192C178.023 88.8192 177.361 89.0949 176.86 89.6459C176.352 90.2038 176.101 91.037 176.101 92.1523ZM188.506 96.9948V87.3257H192.685C193.734 87.3257 194.5 87.4123 194.975 87.5854C195.454 87.7586 195.832 88.0662 196.119 88.5116C196.405 88.9571 196.549 89.4633 196.549 90.034C196.549 90.7613 196.334 91.3605 195.901 91.8318C195.467 92.3061 194.822 92.6008 193.962 92.7257C194.389 92.9695 194.744 93.2418 195.018 93.5368C195.298 93.8315 195.672 94.3571 196.145 95.1071L197.344 96.9948H194.969L193.545 94.8827C193.034 94.1327 192.685 93.6583 192.496 93.4632C192.307 93.2706 192.109 93.1362 191.9 93.0625C191.689 92.9919 191.353 92.9535 190.897 92.9535H190.496V96.9948H188.506ZM190.496 91.4152H191.965C192.916 91.4152 193.509 91.3734 193.747 91.2967C193.982 91.2166 194.171 91.0787 194.304 90.8862C194.438 90.694 194.506 90.4506 194.506 90.159C194.506 89.832 194.418 89.5723 194.242 89.3706C194.067 89.1686 193.816 89.0437 193.497 88.9924C193.334 88.97 192.852 88.9571 192.05 88.9571H190.499V91.4152H190.496Z" fill="#374E6E"/>
<path d="M56.5273 74.0131L55.3513 68.8791L53.4944 60.7613L51.6343 68.8791L50.4584 74.0131L45.2397 75.1701L36.9882 77L45.2397 78.8267L50.4584 79.9836L51.6343 85.1178L53.4944 93.2387L55.3513 85.1178L56.5273 79.9836L61.7459 78.8267L70.0005 77L61.7459 75.1701L56.5273 74.0131Z" fill="#5AA84C"/>
<path d="M76.3336 80.5413H83.7738C83.9139 79.3779 83.9857 78.1986 83.9857 76.9968C83.9857 60.4313 70.3329 47 53.4944 47C36.6526 47 23 60.4313 23 77C23 93.5687 36.6526 107 53.4944 107C64.8961 107 74.8186 100.834 80.0504 91.7163L71.9355 90.7134C67.9648 95.8761 61.8111 99.3215 54.8235 99.7123L53.4944 105.397L52.1653 99.7123C41.223 99.1035 32.3168 91.0081 30.6521 80.5477H40.5064L31.4893 77L40.5064 73.4555H30.6521C32.3168 62.9951 41.2198 54.903 52.1653 54.2909L53.4944 49.0927L54.8235 54.2909C65.7657 54.8998 74.6723 62.9951 76.3367 73.4555H66.4825L75.3922 77L66.4825 80.5445H69.0822H76.3336V80.5413Z" fill="#5AA84C"/>
</g>
<defs>
<clipPath id="clip0_0_73">
<rect width="193" height="60" fill="white" transform="translate(23 47)"/>
</clipPath>
</defs>
</svg>
