<svg width="240" height="150" viewBox="0 0 240 150" fill="none" xmlns="http://www.w3.org/2000/svg">
<rect width="240" height="150" rx="20" fill="white"/>
<g clip-path="url(#clip0_1957_80)">
<path fill-rule="evenodd" clip-rule="evenodd" d="M104.736 71.8846H94.5954C94.7549 74.1023 96.1819 75.2144 98.8596 75.2144C100.57 75.2144 102.071 74.8169 103.368 74.0222V77.4289C101.935 78.182 100.068 78.5602 97.7684 78.5602C95.2601 78.5602 93.312 77.8776 91.9243 76.5059C90.5397 75.1406 89.8457 73.2274 89.8457 70.7821C89.8457 68.2439 90.5918 66.2314 92.0934 64.7475C93.5922 63.2637 95.4327 62.5266 97.6186 62.5266C99.8825 62.5266 101.638 63.19 102.879 64.5104C104.117 65.834 104.74 67.6351 104.74 69.9041V71.8846H104.736ZM136.661 81.6496V82.9219H131.869V81.6496V78.948V62.892H136.661V65.1898H136.723C137.908 63.4111 139.573 62.5202 141.717 62.5202C143.733 62.5202 145.287 63.1964 146.385 64.5585C147.482 65.9141 148.033 67.7632 148.033 70.1059C148.033 72.6537 147.391 74.6984 146.111 76.2431C144.831 77.7878 143.127 78.557 141.003 78.557C139.133 78.557 137.707 77.8423 136.723 76.4065H136.661V78.948V81.6496ZM100.29 68.9843C100.29 66.7986 99.3872 65.7026 97.5827 65.7026C96.8173 65.7026 96.1491 66.0134 95.589 66.6416C95.0254 67.2697 94.6865 68.0549 94.5626 68.9875H100.29V68.9843ZM130.172 78.1852H125.389V69.465C125.389 67.2441 124.559 66.1352 122.901 66.1352C122.112 66.1352 121.471 66.4653 120.972 67.1351C120.474 67.8049 120.226 68.6317 120.226 69.6284V78.1884H115.434V69.3753C115.434 67.2184 114.616 66.1384 112.988 66.1384C112.17 66.1384 111.512 66.4557 111.024 67.0902C110.531 67.728 110.281 68.5933 110.281 69.6893V78.1884H105.489V62.892H110.281V65.2827H110.343C110.841 64.4687 111.535 63.7989 112.431 63.2894C113.326 62.7734 114.307 62.5202 115.369 62.5202C117.565 62.5202 119.07 63.4688 119.878 65.3693C121.063 63.4688 122.8 62.5202 125.099 62.5202C128.478 62.5202 130.168 64.5681 130.168 68.6734V78.1852H130.172ZM136.589 70.138V71.3622C136.589 72.4198 136.869 73.2787 137.44 73.9485C138.003 74.6151 138.752 74.9484 139.674 74.9484C140.762 74.9484 141.613 74.535 142.212 73.7049C142.815 72.8749 143.121 71.6955 143.121 70.1732C143.121 67.4812 142.059 66.1416 139.928 66.1416C138.948 66.1416 138.146 66.5038 137.524 67.2377C136.899 67.9651 136.589 68.933 136.589 70.138ZM153.841 78.1852H149.05V55.6523H153.841V78.1852ZM163.188 78.557C160.598 78.557 158.558 77.8423 157.076 76.4161C155.594 74.99 154.855 73.0447 154.855 70.5995C154.855 68.0709 155.62 66.0871 157.161 64.661C158.698 63.2349 160.783 62.5202 163.399 62.5202C165.979 62.5202 168.005 63.2349 169.471 64.661C170.937 66.0871 171.673 67.9812 171.673 70.3303C171.673 72.8685 170.918 74.8779 169.403 76.3488C167.891 77.8231 165.816 78.557 163.188 78.557ZM163.311 66.1352C162.177 66.1352 161.295 66.5166 160.669 67.2825C160.044 68.0517 159.725 69.1381 159.725 70.5386C159.725 73.4742 160.933 74.942 163.34 74.942C165.637 74.942 166.787 73.4325 166.787 70.42C166.787 67.5613 165.628 66.1352 163.311 66.1352ZM187.486 62.892H182.733L179.808 72.2275C179.563 72.9934 179.397 73.6665 179.306 74.2465H179.244C179.146 73.4581 179 72.7723 178.821 72.1987L175.925 62.8952H170.602L176.518 77.1917C177.003 78.9704 174.648 80.2427 172.078 78.8646V82.627C172.83 82.8866 173.788 83.0148 174.948 83.0148C178.006 83.0148 179.915 82.6879 182.131 76.8873L187.486 62.892ZM201.158 71.8846H191.141C191.301 74.1023 192.727 75.2144 195.405 75.2144C197.115 75.2144 198.617 74.8169 199.914 74.0222V77.4289C198.48 78.182 196.614 78.5602 194.311 78.5602C191.802 78.5602 189.854 77.8776 188.466 76.5059C187.082 75.1406 186.388 73.2274 186.388 70.7821C186.388 68.2439 187.134 66.2314 188.636 64.7475C190.134 63.2637 191.972 62.5266 194.161 62.5266C196.425 62.5266 198.184 63.1868 199.422 64.5104C201.243 66.4557 201.223 68.3401 201.109 70.5706C201.086 70.9905 201.122 71.3846 201.158 71.8846ZM196.835 68.9843C196.835 66.7986 195.933 65.7026 194.128 65.7026C193.363 65.7026 192.695 66.0134 192.135 66.6416C191.571 67.2697 191.232 68.0549 191.109 68.9875H196.835V68.9843ZM216 71.8846V69.8944C216 67.6254 215.378 65.8275 214.14 64.5007C212.902 63.1804 211.143 62.517 208.878 62.517C206.693 62.517 204.852 63.2573 203.354 64.7379C201.852 66.2217 201.106 68.2343 201.106 70.7725C201.106 73.221 201.8 75.131 203.184 76.4963C204.572 77.8679 206.52 78.5505 209.029 78.5505C211.328 78.5505 213.195 78.1724 214.631 77.4192V74.0222C213.335 74.8169 211.833 75.2144 210.123 75.2144C207.445 75.2144 206.019 74.1055 205.859 71.8846H216ZM211.553 68.9843H205.826C205.95 68.0517 206.289 67.2665 206.852 66.6383C207.413 66.0134 208.081 65.6993 208.846 65.6993C210.651 65.7026 211.553 66.7986 211.553 68.9843Z" fill="#374E6E"/>
<path fill-rule="evenodd" clip-rule="evenodd" d="M91.4521 96.9947V87.3256H93.3775L97.4232 93.806V87.3256H99.264V96.9947H97.2765L93.2926 90.6397V96.9947H91.4521ZM113.581 96.9947H111.438L110.587 94.793H106.645L105.828 96.9947H103.723L107.538 87.3256H109.642L113.581 96.9947ZM109.942 93.1585L108.577 89.5787L107.252 93.1585H109.942ZM119.497 96.9947L115.982 87.3256H118.132L120.627 94.4819L123.022 87.3256H125.136L121.64 96.9947H119.497ZM129.433 96.9947V87.3256H131.423V96.9947H129.433ZM141.245 93.4403V91.8059H145.515V95.6645C145.102 96.0621 144.499 96.4114 143.711 96.7156C142.922 97.0171 142.124 97.1675 141.316 97.1675C140.29 97.1675 139.394 96.956 138.629 96.5299C137.866 96.1035 137.293 95.4947 136.909 94.7033C136.524 93.9146 136.332 93.0495 136.332 92.1233C136.332 91.114 136.547 90.2197 136.974 89.4344C137.404 88.6525 138.029 88.0468 138.857 87.6302C139.489 87.3097 140.271 87.1494 141.209 87.1494C142.427 87.1494 143.381 87.4027 144.069 87.9059C144.753 88.4121 145.196 89.1078 145.391 89.9987L143.414 90.364C143.277 89.8897 143.017 89.5114 142.632 89.2357C142.251 88.96 141.776 88.8222 141.206 88.8222C140.339 88.8222 139.652 89.0914 139.14 89.6364C138.629 90.1779 138.375 90.9826 138.375 92.0463C138.375 93.1969 138.632 94.0589 139.15 94.6327C139.668 95.2065 140.346 95.4947 141.186 95.4947C141.6 95.4947 142.017 95.4146 142.433 95.2544C142.851 95.0941 143.209 94.8985 143.508 94.668V93.4403H141.245ZM159.565 96.9947H157.422L156.572 94.793H152.63L151.812 96.9947H149.708L153.526 87.3256H155.63L159.565 96.9947ZM155.93 93.1585L154.565 89.5787L153.239 93.1585H155.93ZM165.178 96.9947V88.96H162.269V87.3256H170.068V88.96H167.172V96.9947H165.178ZM174.055 92.2164C174.055 91.229 174.205 90.4023 174.505 89.7325C174.726 89.2392 175.032 88.7968 175.42 88.4056C175.808 88.0149 176.231 87.7232 176.691 87.5341C177.303 87.2808 178.01 87.1528 178.811 87.1528C180.261 87.1528 181.421 87.5949 182.29 88.4793C183.16 89.3671 183.593 90.5979 183.593 92.1746C183.593 93.7384 183.16 94.9627 182.297 95.8471C181.434 96.7319 180.277 97.174 178.834 97.174C177.371 97.174 176.208 96.735 175.345 95.857C174.488 94.9722 174.055 93.7608 174.055 92.2164ZM176.101 92.1522C176.101 93.2481 176.358 94.0783 176.876 94.6456C177.391 95.2095 178.046 95.4947 178.837 95.4947C179.632 95.4947 180.28 95.2126 180.792 94.6521C181.3 94.0878 181.554 93.2481 181.554 92.1233C181.554 91.0145 181.307 90.1844 180.812 89.6394C180.316 89.0914 179.662 88.8192 178.841 88.8192C178.023 88.8192 177.361 89.0949 176.86 89.6459C176.352 90.2037 176.101 91.0369 176.101 92.1522ZM188.506 96.9947V87.3256H192.685C193.734 87.3256 194.5 87.4122 194.975 87.5854C195.454 87.7585 195.832 88.0661 196.119 88.5116C196.406 88.957 196.549 89.4632 196.549 90.034C196.549 90.7612 196.334 91.3604 195.901 91.8317C195.468 92.306 194.823 92.6007 193.963 92.7256C194.389 92.9694 194.744 93.2417 195.018 93.5368C195.298 93.8314 195.673 94.357 196.145 95.107L197.344 96.9947H194.969L193.545 94.8826C193.034 94.1326 192.685 93.6583 192.497 93.4631C192.307 93.2706 192.109 93.1361 191.9 93.0625C191.689 92.9918 191.353 92.9535 190.897 92.9535H190.496V96.9947H188.506ZM190.496 91.4151H191.965C192.916 91.4151 193.509 91.3733 193.748 91.2966C193.982 91.2165 194.171 91.0787 194.305 90.8861C194.438 90.694 194.506 90.4506 194.506 90.1589C194.506 89.8319 194.418 89.5722 194.242 89.3706C194.067 89.1685 193.816 89.0436 193.497 88.9923C193.334 88.9699 192.852 88.957 192.05 88.957H190.499V91.4151H190.496Z" fill="#374E6E"/>
<path d="M56.5274 74.013L55.3514 68.879L53.4946 60.7612L51.6345 68.879L50.4585 74.013L45.2398 75.17L36.9883 76.9999L45.2398 78.8266L50.4585 79.9835L51.6345 85.1177L53.4946 93.2386L55.3514 85.1177L56.5274 79.9835L61.746 78.8266L70.0007 76.9999L61.746 75.17L56.5274 74.013Z" fill="#5AA84C"/>
<path d="M76.3336 80.5413H83.7738C83.9139 79.3779 83.9857 78.1986 83.9857 76.9968C83.9857 60.4313 70.3329 47 53.4944 47C36.6526 47 23 60.4313 23 77C23 93.5687 36.6526 107 53.4944 107C64.8961 107 74.8186 100.834 80.0504 91.7163L71.9355 90.7134C67.9648 95.8761 61.8111 99.3215 54.8235 99.7123L53.4944 105.397L52.1653 99.7123C41.223 99.1035 32.3168 91.0081 30.6521 80.5477H40.5064L31.4893 77L40.5064 73.4555H30.6521C32.3168 62.9951 41.2198 54.903 52.1653 54.2909L53.4944 49.0927L54.8235 54.2909C65.7657 54.8998 74.6723 62.9951 76.3367 73.4555H66.4825L75.3922 77L66.4825 80.5445H69.0822H76.3336V80.5413Z" fill="#5AA84C"/>
</g>
<defs>
<clipPath id="clip0_1957_80">
<rect width="193" height="60" fill="white" transform="translate(23 47)"/>
</clipPath>
</defs>
</svg>
