<svg width="241" height="150" viewBox="0 0 241 150" fill="none" xmlns="http://www.w3.org/2000/svg">
<rect x="0.5" y="0.5" width="240" height="149" rx="19.5" fill="white" stroke="#E7E7E7"/>
<g clip-path="url(#clip0_0_210)">
<path d="M79.6765 53.0146V86.9515L84.0385 86.9661V70.8115H94.5822V66.5377H84.0385V57.2933H97.7633V53.0146H79.6765ZM105.643 59.9053C107.224 59.9053 108.492 58.6237 108.492 57.0594C108.492 55.4951 107.209 54.2135 105.643 54.2135C104.077 54.2135 102.794 55.4951 102.794 57.0594C102.794 58.6237 104.077 59.9053 105.643 59.9053ZM103.428 64.1791V86.9515H107.79V64.1791H103.428Z" fill="black"/>
<path fill-rule="evenodd" clip-rule="evenodd" d="M123.998 63.5163C118.187 63.5163 114.138 68.4236 114.138 74.2471C114.138 80.0706 118.187 84.9779 123.998 84.9779C126.662 84.9779 128.843 83.9447 130.443 82.283V85.2946C130.443 89.0713 127.477 92.2145 123.598 92.2145C122.198 92.2145 120.817 91.6834 119.719 90.9183L117.519 94.7096C119.266 95.8402 121.349 96.4883 123.583 96.4883C129.78 96.4883 134.791 91.4787 134.791 85.2946V64.1791H130.443V66.2063C128.843 64.5446 126.662 63.5115 123.998 63.5115V63.5163ZM118.519 74.2422C118.519 70.6312 121.285 67.7853 124.481 67.7853C127.677 67.7853 130.443 70.6312 130.443 74.2422C130.443 77.8533 127.677 80.6992 124.481 80.6992C121.285 80.6992 118.519 77.8533 118.519 74.2422Z" fill="black"/>
<path d="M150.565 67.7901C147.984 67.7901 145.886 69.9879 145.886 72.5659V86.9564H141.524V64.1791H145.886V66.26C147.169 64.6128 149.052 63.5164 151.516 63.5164C154.58 63.5164 156.927 65.0319 158.293 67.3613C159.811 65.1148 162.275 63.5164 165.256 63.5164C170.237 63.5164 173.336 67.527 173.35 72.483V86.9564H168.988V72.5512C168.988 69.9733 166.89 67.7755 164.309 67.7755C161.728 67.7755 159.63 69.9733 159.63 72.5512V86.9564H155.268V72.5512C155.254 69.9733 153.151 67.795 150.57 67.795L150.565 67.7901Z" fill="black"/>
<path fill-rule="evenodd" clip-rule="evenodd" d="M196.633 66.757C194.686 64.7444 192.018 63.5115 188.939 63.5115C182.445 63.5115 177.815 69.0182 177.815 75.5726C177.815 82.127 182.43 87.6337 188.939 87.6337C192.022 87.6337 194.686 86.3862 196.633 84.3882V86.9515H200.995V64.1791H196.633V66.757ZM182.196 75.5775C182.196 71.2355 185.528 67.7901 189.427 67.7901C193.325 67.7901 196.658 71.216 196.658 75.5775C196.658 79.939 193.325 83.3648 189.427 83.3648C185.528 83.3502 182.196 79.9195 182.196 75.5775Z" fill="black"/>
<path d="M55.6763 75.0074C55.6763 70.9626 58.9599 67.6732 63.0193 67.6732C67.0787 67.6732 70.3624 70.9529 70.3624 75.0074C70.3624 79.0619 67.0787 82.3415 63.0193 82.3415C58.9599 82.3415 55.6763 79.0472 55.6763 75.0074Z" fill="#1ABCFE"/>
<path d="M41 89.6658C41 85.6211 44.2836 82.3317 48.343 82.3317H55.6861V89.6658C55.6861 93.7106 52.4024 97 48.343 97C44.2836 97 41 93.7252 41 89.6658Z" fill="#0ACF83"/>
<path d="M55.6763 53.0146V67.6732H63.0193C67.069 67.6732 70.3624 64.3935 70.3624 60.339C70.3624 56.2845 67.0836 53 63.0193 53H55.6763V53.0146Z" fill="#FF7262"/>
<path d="M41 60.3537C41 64.3984 44.2836 67.6878 48.343 67.6878H55.6861V53.0146H48.343C44.2836 53.0146 41 56.2943 41 60.3537Z" fill="#F24E1E"/>
<path d="M41 75.0074C41 79.0521 44.2836 82.3415 48.343 82.3415H55.6861V67.6683H48.343C44.2787 67.6683 41 70.9626 41 75.0025V75.0074Z" fill="#A259FF"/>
</g>
<defs>
<clipPath id="clip0_0_210">
<rect width="160" height="44" fill="white" transform="translate(41 53)"/>
</clipPath>
</defs>
</svg>
