<svg width="241" height="150" viewBox="0 0 241 150" fill="none" xmlns="http://www.w3.org/2000/svg">
<rect x="0.5" y="0.5" width="240" height="149" rx="19.5" fill="white" stroke="#E7E7E7"/>
<g clip-path="url(#clip0_0_117)">
<path d="M79.5696 85.9001C78.8577 85.6001 78.3491 85.05 78.3491 84.25C78.3491 83.3 79.1628 82.55 80.0782 82.55C80.3833 82.55 80.5868 82.6 80.7902 82.7001C82.0107 83.25 83.333 83.6 84.9604 83.6C87.91 83.6 89.2832 82.2 89.2832 79.55V78.85C88.0118 80.35 86.6386 81.25 84.3501 81.25C80.841 81.25 77.6371 78.75 77.6371 74.35V74.3C77.6371 69.85 80.8919 67.4 84.3501 67.4C86.6895 67.4 88.0626 68.35 89.2323 69.6V69.5C89.2323 68.35 90.1986 67.4 91.3683 67.4C92.538 67.4 93.5042 68.35 93.5042 69.5V79.05C93.5042 81.7 92.8431 83.6501 91.5717 84.9001C90.1477 86.3001 88.0118 86.9001 85.0621 86.9001C83.0787 86.9501 81.3496 86.6001 79.5696 85.9001ZM89.2832 74.3V74.25C89.2832 72.25 87.6558 70.8 85.5707 70.8C83.4856 70.8 81.909 72.2 81.909 74.25V74.3C81.909 76.35 83.4856 77.75 85.5707 77.75C87.6558 77.75 89.2832 76.3 89.2832 74.3ZM95.8945 69.55C95.8945 68.4 96.8607 67.45 98.0304 67.45C99.2001 67.45 100.166 68.4 100.166 69.55V70.2C100.777 68.75 101.794 67.45 103.065 67.45C104.337 67.45 105.15 68.3 105.15 69.5C105.15 70.6 104.438 71.25 103.523 71.45C101.336 71.95 100.166 73.6 100.166 76.55V80.5C100.166 81.65 99.2001 82.6 98.0304 82.6C96.8607 82.6 95.8945 81.65 95.8945 80.5V69.55ZM104.693 78.15V78.1C104.693 74.85 107.185 73.35 110.795 73.35C112.321 73.35 113.44 73.6 114.508 73.95V73.7C114.508 71.95 113.389 71 111.253 71C110.083 71 109.117 71.15 108.303 71.4C108.049 71.5 107.897 71.5 107.693 71.5C106.727 71.5 105.913 70.75 105.913 69.8C105.913 69.05 106.371 68.4 107.083 68.15C108.456 67.65 109.88 67.35 111.914 67.35C114.254 67.35 115.932 67.95 117 69C118.119 70.1 118.627 71.75 118.627 73.75V80.5C118.627 81.65 117.712 82.5 116.542 82.5C115.372 82.5 114.508 81.65 114.508 80.75V80.7001C113.491 81.85 112.016 82.6 109.931 82.6C107.032 82.7 104.693 81.1 104.693 78.15ZM114.508 77.2V76.45C113.796 76.1 112.83 75.9 111.762 75.9C109.931 75.9 108.812 76.6 108.812 77.95V78C108.812 79.15 109.778 79.8 111.151 79.8C113.135 79.8 114.508 78.75 114.508 77.2ZM120.865 69.55C120.865 68.4 121.831 67.45 123.001 67.45C124.17 67.45 125.137 68.4 125.137 69.55V69.7C126.103 68.45 127.425 67.3 129.612 67.3C131.595 67.3 133.07 68.15 133.884 69.65C135.206 68.15 136.783 67.3 138.817 67.3C142.021 67.3 143.903 69.2 143.903 72.75V80.5C143.903 81.65 142.936 82.6 141.767 82.6C140.597 82.6 139.631 81.65 139.631 80.5V74.15C139.631 72.15 138.715 71.15 137.139 71.15C135.562 71.15 134.545 72.2 134.545 74.15V80.5C134.545 81.65 133.579 82.6 132.409 82.6C131.239 82.6 130.273 81.65 130.273 80.5V74.15C130.273 72.15 129.358 71.15 127.781 71.15C126.205 71.15 125.188 72.2 125.188 74.15V80.5C125.188 81.65 124.221 82.6 123.052 82.6C121.882 82.6 120.916 81.65 120.916 80.5V69.55H120.865ZM146.191 69.55C146.191 68.4 147.157 67.45 148.327 67.45C149.497 67.45 150.463 68.4 150.463 69.55V69.7C151.429 68.45 152.752 67.3 154.938 67.3C156.922 67.3 158.397 68.15 159.21 69.65C160.533 68.15 162.109 67.3 164.143 67.3C167.347 67.3 169.229 69.2 169.229 72.75V80.5C169.229 81.65 168.263 82.6 167.093 82.6C165.923 82.6 164.957 81.65 164.957 80.5V74.15C164.957 72.15 164.042 71.15 162.465 71.15C160.889 71.15 159.871 72.2 159.871 74.15V80.5C159.871 81.65 158.905 82.6 157.736 82.6C156.566 82.6 155.6 81.65 155.6 80.5V74.15C155.6 72.15 154.684 71.15 153.108 71.15C151.531 71.15 150.514 72.2 150.514 74.15V80.5C150.514 81.65 149.548 82.6 148.378 82.6C147.208 82.6 146.242 81.65 146.242 80.5V69.55H146.191ZM170.653 78.15V78.1C170.653 74.85 173.145 73.35 176.756 73.35C178.281 73.35 179.4 73.6 180.468 73.95V73.7C180.468 71.95 179.349 71 177.213 71C176.044 71 175.077 71.15 174.264 71.4C174.009 71.5 173.857 71.5 173.653 71.5C172.687 71.5 171.874 70.75 171.874 69.8C171.874 69.05 172.331 68.4 173.043 68.15C174.416 67.65 175.84 67.35 177.875 67.35C180.214 67.35 181.892 67.95 182.96 69C184.079 70.1 184.588 71.75 184.588 73.75V80.5C184.588 81.65 183.672 82.5 182.502 82.5C181.333 82.5 180.468 81.65 180.468 80.75V80.7001C179.4 81.85 177.976 82.6 175.891 82.6C172.992 82.7 170.653 81.1 170.653 78.15ZM180.468 77.2V76.45C179.756 76.1 178.79 75.9 177.722 75.9C175.891 75.9 174.772 76.6 174.772 77.95V78C174.772 79.15 175.739 79.8 177.112 79.8C179.146 79.8 180.468 78.75 180.468 77.2ZM186.825 69.55C186.825 68.4 187.791 67.45 188.961 67.45C190.131 67.45 191.097 68.4 191.097 69.55V70.2C191.707 68.75 192.725 67.45 193.996 67.45C195.267 67.45 196.081 68.3 196.081 69.5C196.081 70.6 195.369 71.25 194.454 71.45C192.267 71.95 191.097 73.6 191.097 76.55V80.5C191.097 81.65 190.131 82.6 188.961 82.6C187.791 82.6 186.825 81.65 186.825 80.5V69.55ZM197.403 64.15C197.403 63 198.37 62.05 199.539 62.05C200.709 62.05 201.675 63 201.675 64.15V80.5C201.675 81.65 200.709 82.6 199.539 82.6C198.37 82.6 197.403 81.65 197.403 80.5V64.15ZM205.083 86.55C204.472 86.35 203.709 85.85 203.709 84.8C203.709 83.75 204.523 83.1 205.388 83.1C205.744 83.1 205.947 83.1501 206.1 83.2001C206.456 83.3001 206.71 83.35 207.015 83.35C207.778 83.35 208.134 83.2001 208.541 82.4501L208.693 82.1L203.557 70.35C203.455 70.05 203.353 69.65 203.353 69.4C203.353 68.2 204.269 67.4 205.489 67.4C206.557 67.4 207.168 68 207.524 69L210.778 77.65L213.932 69.05C214.288 68.15 214.898 67.45 215.966 67.45C217.034 67.45 218 68.3 218 69.4C218 69.75 217.898 70.2 217.797 70.4L212.508 82.85C211.236 85.85 209.965 87 207.422 87C206.456 86.9501 205.795 86.8 205.083 86.55Z" fill="#4C4C4C"/>
<path d="M42.3938 98C55.3139 98 65.7876 87.7025 65.7876 75C65.7876 62.2975 55.3139 52 42.3938 52C29.4738 52 19 62.2975 19 75C19 87.7025 29.4738 98 42.3938 98Z" fill="#2BB673"/>
<path d="M47.0217 78.1C46.0555 78.1 45.2926 78.9501 45.4452 79.9501C45.5978 80.7001 46.3097 81.2001 47.0726 81.2001H49.5137L50.9376 81C48.6491 84.3 44.7332 85.8 40.4104 85.1C36.9014 84.55 33.9008 82.2001 32.6294 78.9501C29.7306 71.5501 35.2231 64.45 42.3938 64.45C46.1063 64.45 49.412 66.6001 51.2936 69.2001V69.25C51.8022 69.95 52.7685 70.15 53.4805 69.65C54.1416 69.2 54.345 68.3 53.9382 67.6C51.3445 63.6 46.6657 61.05 41.4275 61.4C34.6128 61.95 29.0695 67.4501 28.6627 74.2001C28.205 82.0501 34.5111 88.4001 42.3938 88.4001C46.5132 88.4001 50.2257 86.65 52.7176 83.75L52.4125 85.4001V86.9001C52.4125 87.6501 52.921 88.35 53.6839 88.5C54.701 88.7001 55.5656 87.9001 55.5656 86.9501V78.1H47.0217Z" fill="white"/>
</g>
<defs>
<clipPath id="clip0_0_117">
<rect width="199" height="46" fill="white" transform="translate(19 52)"/>
</clipPath>
</defs>
</svg>
