<svg width="241" height="150" viewBox="0 0 241 150" fill="none" xmlns="http://www.w3.org/2000/svg">
<rect width="241" height="150" rx="20" fill="white"/>
<g clip-path="url(#clip0_1956_630)">
<path d="M61.3524 61.1177V73.241H50.2613V61.1177H45V90.0575H50.2613V78.3294H61.3476V90.0575H66.6138V61.1177H61.3524ZM83.4666 80.7053C83.4666 83.1202 81.5185 85.0814 79.1088 85.0814C76.6992 85.0814 74.7511 83.1251 74.7511 80.7053V68.3087H69.757V80.7053C69.757 85.8863 73.9398 90.0819 79.0991 90.0819C84.2536 90.0819 88.4316 85.8815 88.4364 80.7053V68.3087H83.4617V80.7053H83.4666ZM120.461 69.5869C120.461 67.0452 122.137 66.2402 123.969 66.2402C125.446 66.2402 127.399 67.372 128.676 68.7429L131.946 64.8742C130.313 62.6544 127.005 61.1226 124.289 61.1226C118.873 61.1226 114.952 64.3083 114.952 69.5918C114.952 79.3929 126.879 76.2804 126.879 81.7639C126.879 83.4568 125.242 84.9496 123.371 84.9496C120.417 84.9496 119.46 83.5007 118.105 81.9688L114.476 85.7595C116.798 88.6184 119.66 90.0722 123.089 90.0722C128.234 90.0722 132.378 86.8474 132.378 81.8078C132.378 70.9285 120.451 74.3094 120.451 69.5918M194.241 85.4375C191.292 85.4375 190.452 84.1544 190.452 82.1932V73.5044H195.038V69.0991H190.452V63.2887L185.39 65.5718V83.2714C185.39 87.7988 188.499 90.0819 192.764 90.0819C193.435 90.0917 194.105 90.038 194.761 89.9209L195.995 85.3546C195.436 85.3936 194.8 85.4326 194.236 85.4326M102.472 68.4502C99.9987 68.4502 98.2741 69.1722 96.6029 70.8163V61.2933H91.6039V78.949C91.6039 85.5595 96.36 90.0868 101.709 90.0868C107.641 90.0868 112.858 85.4765 112.858 79.271C112.858 73.0654 108.058 68.4551 102.472 68.4551M102.438 85.0326C99.304 85.0326 96.7632 82.4811 96.7632 79.3344C96.7632 76.1877 99.304 73.6362 102.438 73.6362C105.571 73.6362 108.112 76.1877 108.112 79.3344C108.112 82.4811 105.571 85.0326 102.438 85.0326ZM156.776 79.0075C156.776 72.7922 151.568 68.1916 145.626 68.1916C140.282 68.1916 135.521 72.719 135.521 79.3295V96.9949H140.52V87.4573C142.187 89.0965 143.916 89.8234 146.389 89.8234C151.971 89.8234 156.776 85.135 156.776 79.0075ZM152.039 78.9441C152.039 82.0908 149.498 84.6423 146.365 84.6423C143.231 84.6423 140.69 82.0908 140.69 78.9441C140.69 75.7974 143.231 73.2459 146.365 73.2459C149.498 73.2459 152.039 75.7974 152.039 78.9441Z" fill="#33475B"/>
<path d="M172.934 67.9528V62.9083C174.289 62.2741 175.159 60.9081 175.163 59.4055V59.2884C175.163 57.1418 173.429 55.405 171.296 55.405H171.18C169.042 55.405 167.313 57.1467 167.313 59.2884V59.4055C167.318 60.9081 168.187 62.2692 169.543 62.9083V67.9528C167.633 68.2455 165.836 69.0407 164.335 70.2555L150.557 59.4787C150.654 59.1225 150.708 58.7566 150.712 58.3907C150.712 55.9661 148.764 54 146.355 54C143.945 54 141.992 55.9514 141.987 58.3712C141.982 60.791 143.931 62.7522 146.34 62.7571C147.093 62.7571 147.836 62.5522 148.487 62.1717L162.056 72.7729C159.564 76.5587 159.627 81.4909 162.226 85.2035L158.102 89.3504C157.766 89.243 157.422 89.1845 157.072 89.1796C155.095 89.1796 153.491 90.7895 153.496 92.7751C153.496 94.7607 155.099 96.3707 157.077 96.3658C159.054 96.3658 160.652 94.7558 160.652 92.7751C160.652 92.4239 160.589 92.0726 160.482 91.7409L164.563 87.638C169.382 91.3603 176.29 90.4578 180.002 85.6231C183.709 80.7835 182.81 73.8462 177.996 70.1189C176.519 68.9773 174.775 68.2309 172.934 67.9479M171.238 84.5449C168.119 84.6327 165.52 82.1642 165.437 79.0321C165.35 75.9 167.808 73.29 170.927 73.2071C171.029 73.2071 171.136 73.2071 171.238 73.2071C174.357 73.3144 176.796 75.944 176.684 79.076C176.582 82.052 174.206 84.4376 171.243 84.5449" fill="#FF7A59"/>
</g>
<defs>
<clipPath id="clip0_1956_630">
<rect width="151" height="43" fill="white" transform="translate(45 54)"/>
</clipPath>
</defs>
</svg>
