<svg width="241" height="150" viewBox="0 0 241 150" fill="none" xmlns="http://www.w3.org/2000/svg">
<rect x="0.5" y="0.5" width="240" height="149" rx="19.5" fill="white" stroke="#E7E7E7"/>
<g clip-path="url(#clip0_0_266)">
<path d="M61.3524 61.1179V73.2412H50.2613V61.1179H45V90.0577H50.2613V78.3296H61.3476V90.0577H66.6138V61.1179H61.3524ZM83.4666 80.7054C83.4666 83.1204 81.5185 85.0816 79.1088 85.0816C76.6992 85.0816 74.7511 83.1252 74.7511 80.7054V68.3089H69.757V80.7054C69.757 85.8865 73.9398 90.0821 79.0991 90.0821C84.2536 90.0821 88.4316 85.8816 88.4364 80.7054V68.3089H83.4617V80.7054H83.4666ZM120.461 69.5871C120.461 67.0454 122.137 66.2404 123.969 66.2404C125.446 66.2404 127.399 67.3722 128.676 68.7431L131.946 64.8744C130.313 62.6546 127.005 61.1227 124.289 61.1227C118.873 61.1227 114.952 64.3085 114.952 69.592C114.952 79.3931 126.879 76.2806 126.879 81.7641C126.879 83.457 125.242 84.9498 123.371 84.9498C120.417 84.9498 119.46 83.5009 118.105 81.969L114.476 85.7597C116.798 88.6185 119.66 90.0724 123.089 90.0724C128.234 90.0724 132.378 86.8476 132.378 81.808C132.378 70.9287 120.451 74.3096 120.451 69.592M194.241 85.4377C191.292 85.4377 190.452 84.1546 190.452 82.1934V73.5046H195.038V69.0993H190.452V63.2888L185.39 65.572V83.2716C185.39 87.7989 188.499 90.0821 192.764 90.0821C193.435 90.0919 194.105 90.0382 194.761 89.9211L195.995 85.3548C195.436 85.3938 194.8 85.4328 194.236 85.4328M102.472 68.4504C99.9987 68.4504 98.2741 69.1724 96.6029 70.8165V61.2935H91.6039V78.9492C91.6039 85.5597 96.36 90.087 101.709 90.087C107.641 90.087 112.858 85.4767 112.858 79.2711C112.858 73.0656 108.058 68.4553 102.472 68.4553M102.438 85.0328C99.304 85.0328 96.7632 82.4813 96.7632 79.3346C96.7632 76.1879 99.304 73.6364 102.438 73.6364C105.571 73.6364 108.112 76.1879 108.112 79.3346C108.112 82.4813 105.571 85.0328 102.438 85.0328ZM156.776 79.0077C156.776 72.7924 151.568 68.1918 145.626 68.1918C140.282 68.1918 135.521 72.7192 135.521 79.3297V96.9951H140.52V87.4574C142.187 89.0966 143.916 89.8236 146.389 89.8236C151.971 89.8236 156.776 85.1352 156.776 79.0077ZM152.039 78.9443C152.039 82.091 149.498 84.6425 146.365 84.6425C143.231 84.6425 140.69 82.091 140.69 78.9443C140.69 75.7976 143.231 73.2461 146.365 73.2461C149.498 73.2461 152.039 75.7976 152.039 78.9443Z" fill="#33475B"/>
<path d="M172.934 67.9528V62.9083C174.289 62.2741 175.159 60.9081 175.164 59.4055V59.2884C175.164 57.1418 173.429 55.405 171.296 55.405H171.18C169.042 55.405 167.313 57.1467 167.313 59.2884V59.4055C167.318 60.9081 168.187 62.2692 169.543 62.9083V67.9528C167.633 68.2455 165.836 69.0407 164.335 70.2555L150.557 59.4787C150.654 59.1225 150.708 58.7566 150.713 58.3907C150.713 55.9661 148.765 54 146.355 54C143.945 54 141.992 55.9514 141.987 58.3712C141.983 60.791 143.931 62.7522 146.34 62.7571C147.093 62.7571 147.837 62.5522 148.488 62.1717L162.056 72.7729C159.564 76.5587 159.627 81.4909 162.226 85.2035L158.102 89.3504C157.767 89.243 157.422 89.1845 157.072 89.1796C155.095 89.1796 153.491 90.7895 153.496 92.7751C153.496 94.7607 155.099 96.3707 157.077 96.3658C159.054 96.3658 160.652 94.7558 160.652 92.7751C160.652 92.4239 160.589 92.0726 160.482 91.7409L164.563 87.638C169.382 91.3603 176.291 90.4578 180.002 85.6231C183.709 80.7835 182.81 73.8462 177.996 70.1189C176.519 68.9773 174.775 68.2309 172.934 67.9479M171.238 84.5449C168.119 84.6327 165.52 82.1642 165.438 79.0321C165.35 75.9 167.808 73.29 170.927 73.2071C171.029 73.2071 171.136 73.2071 171.238 73.2071C174.357 73.3144 176.796 75.944 176.684 79.076C176.582 82.052 174.206 84.4376 171.243 84.5449" fill="#FF7A59"/>
</g>
<defs>
<clipPath id="clip0_0_266">
<rect width="151" height="43" fill="white" transform="translate(45 54)"/>
</clipPath>
</defs>
</svg>
