<svg width="241" height="149" viewBox="0 0 241 149" fill="none" xmlns="http://www.w3.org/2000/svg">
<rect x="0.5" y="0.5" width="240" height="148" rx="19.5" fill="white" stroke="#E7E7E7"/>
<g clip-path="url(#clip0_0_81)">
<path fill-rule="evenodd" clip-rule="evenodd" d="M31.7373 102.211V65.5628H41.8484V102.159L31.7373 102.211ZM36.7402 60.6203C33.5278 60.6203 31 58.2541 31 55.0993C31 51.9445 33.5278 49.5784 36.7402 49.5784C40.0579 49.5784 42.5857 51.9445 42.5857 55.0993C42.5857 58.2541 40.0053 60.6203 36.7402 60.6203ZM51.1697 102.211V65.5628H61.3335V71.3992C63.1767 67.7712 67.1791 64.7215 73.2879 64.7215C80.5026 64.7215 85.6635 69.0857 85.6635 78.8656V102.159H75.447V80.3905C75.447 75.3953 73.4985 73.0292 68.9696 73.0292C64.5986 73.0292 61.3335 75.7108 61.3335 81.074V102.211H51.1697ZM108.098 103C99.1978 103 92.1937 96.6378 92.1937 84.4391V83.9133C92.1937 71.8724 99.1451 64.7741 108.308 64.7741C114.207 64.7741 117.84 67.3505 119.894 71.0837V49H130.005V102.211H119.894V96.112C117.998 99.8452 113.469 103 108.098 103ZM111.099 95.1129C116.418 95.1129 120.157 91.5375 120.157 84.1237V83.5453C120.157 76.2892 116.945 72.556 111.363 72.556C105.675 72.556 102.516 76.3944 102.516 83.703V84.2814C102.516 91.4849 106.044 95.1129 111.099 95.1129ZM139.326 102.211V65.5628H149.438V102.159L139.326 102.211ZM144.277 60.6203C141.064 60.6203 138.537 58.2541 138.537 55.0993C138.537 51.9445 141.064 49.5784 144.277 49.5784C147.594 49.5784 150.122 51.9445 150.122 55.0993C150.122 58.2541 147.594 60.6203 144.277 60.6203ZM175.874 95.2707C181.562 95.2707 184.879 91.0643 184.879 84.1237V83.6504C184.879 76.6573 181.562 72.4508 175.874 72.4508C170.187 72.4508 166.869 76.4995 166.869 83.4927V84.0711C166.869 91.0643 170.134 95.2707 175.874 95.2707ZM175.822 103C164.868 103 156.547 95.7439 156.547 84.2814V83.703C156.547 72.2405 164.92 64.7215 175.927 64.7215C186.933 64.7215 195.201 72.0828 195.201 83.4927V84.0711C195.201 95.6388 186.828 103 175.822 103Z" fill="#51C2BC"/>
<path d="M197.571 64.7215H203.048V65.9309H201.099V70.5053H199.52V65.9309H197.571V64.7215ZM209.473 70.5053V67.2454L207.735 69.927H207.05L205.312 67.2979V70.5053H203.838V64.7215H205.102L207.419 68.1918L209.683 64.7215H210.947L211 70.4528H209.473V70.5053Z" fill="black"/>
</g>
<defs>
<clipPath id="clip0_0_81">
<rect width="180" height="54" fill="white" transform="translate(31 49)"/>
</clipPath>
</defs>
</svg>
