<svg width="241" height="150" viewBox="0 0 241 150" fill="none" xmlns="http://www.w3.org/2000/svg">
<rect x="0.5" y="0.5" width="240" height="149" rx="19.5" fill="white" stroke="#E7E7E7"/>
<path d="M121.953 60.1385H126.63V83.0936C126.63 89.1443 123.846 93.3704 117.393 93.3704C114.965 93.3704 113.072 92.9701 111.769 92.514V88.1157C113.189 88.6882 114.904 88.9721 116.624 88.9721C120.589 88.9721 121.953 86.6868 121.953 83.3776V60.1385Z" fill="#253858"/>
<path d="M135.211 58.3699C137.048 58.3699 138.346 59.4543 138.346 61.3952C138.346 63.336 137.044 64.4205 135.211 64.4205C133.379 64.4205 132.076 63.336 132.076 61.3952C132.076 59.4543 133.379 58.3699 135.211 58.3699ZM132.901 68.0183H137.4V93.1424H132.901V68.0183Z" fill="#253858"/>
<path d="M148.53 93.147H144.148V68.0182H148.53V72.4166C150.068 69.4471 152.673 67.334 157.768 67.618V71.8441C152.027 71.2716 148.53 72.9285 148.53 78.295V93.1423V93.147Z" fill="#253858"/>
<path d="M178.782 88.6324C177.123 91.9463 173.988 93.659 169.962 93.659C163.035 93.659 159.544 88.004 159.544 80.5804C159.544 73.1567 163.213 67.5017 170.496 67.5017C174.283 67.5017 177.245 69.1587 178.782 72.412V68.0137H183.281V93.1378H178.782V88.6277V88.6324ZM171.143 89.661C175.169 89.661 178.721 87.2035 178.721 81.609V79.6123C178.721 74.0178 175.464 71.5603 171.616 71.5603C166.583 71.5603 163.982 74.7578 163.982 80.5804C164.043 86.631 166.527 89.661 171.143 89.661Z" fill="#253858"/>
<path d="M98.4497 55H77.9647C77.9647 59.9103 82.1076 63.9084 87.2019 63.9084H90.9887V67.3898C90.9887 72.3001 95.1316 76.2982 100.226 76.2982V56.7128C100.226 55.74 99.4573 55 98.4497 55Z" fill="#2684FF"/>
<path d="M88.3267 64.8206H67.8418C67.8418 69.7309 71.9847 73.729 77.079 73.729H80.8657V77.271C80.8657 82.1813 85.0086 86.1793 90.1029 86.1793V66.5334C90.1029 65.6212 89.3343 64.8206 88.3267 64.8206Z" fill="url(#paint0_linear_0_151)"/>
<path d="M78.2037 74.7017H57.7188C57.7188 79.612 61.8617 83.6101 66.956 83.6101H70.7427V87.0915C70.7427 92.0019 74.8856 95.9999 79.9799 95.9999V76.4145C79.9799 75.4418 79.1504 74.7017 78.2037 74.7017Z" fill="url(#paint1_linear_0_151)"/>
<defs>
<linearGradient id="paint0_linear_0_151" x1="89.339" y1="64.5693" x2="80.9556" y2="73.5308" gradientUnits="userSpaceOnUse">
<stop offset="0.18" stop-color="#0052CC"/>
<stop offset="1" stop-color="#2684FF"/>
</linearGradient>
<linearGradient id="paint1_linear_0_151" x1="79.7972" y1="74.455" x2="70.084" y2="84.2589" gradientUnits="userSpaceOnUse">
<stop offset="0.18" stop-color="#0052CC"/>
<stop offset="1" stop-color="#2684FF"/>
</linearGradient>
</defs>
</svg>
