<svg width="241" height="150" viewBox="0 0 241 150" fill="none" xmlns="http://www.w3.org/2000/svg">
<rect x="0.5" y="0.5" width="240" height="149" rx="19.5" fill="white" stroke="#E7E7E7"/>
<g clip-path="url(#clip0_0_195)">
<path d="M54.0677 51L33 63.2583V87.7459L39.0117 91.2494L38.9708 66.7577L54.0226 57.9988L69.0745 66.7577V91.2411L75.0903 87.7459V63.2376L54.0677 51Z" fill="#F26322"/>
<path d="M57.0469 91.2453L54.0431 93.0053L51.0229 91.2618V66.7577L45.0153 70.2571L45.0276 94.7488L54.039 100L63.0628 94.7488V70.2571L57.0469 66.7577V91.2453Z" fill="#F26322"/>
<path d="M88.8636 63.4111L97.1334 84.4737H97.203L105.272 63.4111H108.419V87.5434H106.243V66.5139H106.174C106.059 66.894 105.94 67.2782 105.809 67.6583C105.694 67.9723 105.567 68.3194 105.419 68.7036C105.276 69.0879 105.145 69.4473 105.038 69.7861L98.1046 87.5476H96.1294L89.13 69.7944C88.9948 69.4804 88.8596 69.1374 88.7284 68.7656C88.5932 68.3938 88.4702 68.0385 88.3555 67.6997C88.2203 67.2948 88.085 66.8981 87.9539 66.518H87.8842V87.5476H85.8188V63.4111H88.8636Z" fill="#4D4D4D"/>
<path d="M114.742 87.6425C114.091 87.4608 113.484 87.1509 112.956 86.7336C112.452 86.3246 112.042 85.804 111.767 85.2132C111.476 84.6059 111.333 83.8994 111.333 83.0896C111.333 82.0567 111.521 81.2098 111.902 80.557C112.275 79.9124 112.804 79.3712 113.443 78.9911C114.091 78.5986 114.845 78.3011 115.705 78.0987C116.615 77.888 117.537 77.731 118.463 77.6277C119.312 77.5368 120.033 77.4418 120.623 77.3385C121.213 77.2352 121.693 77.103 122.061 76.946C122.43 76.789 122.697 76.5783 122.865 76.318C123.033 76.0577 123.115 75.7024 123.115 75.2521V74.9133C123.115 73.7234 122.758 72.8393 122.041 72.265C121.328 71.6907 120.299 71.4015 118.963 71.4015C115.882 71.4015 114.263 72.6947 114.107 75.2851H112.062C112.177 73.5995 112.796 72.2485 113.919 71.2362C115.046 70.224 116.722 69.7158 118.955 69.7158C120.852 69.7158 122.348 70.1372 123.438 70.9842C124.532 71.8312 125.077 73.207 125.077 75.1199V84.6017C125.077 85.1182 125.172 85.4941 125.364 85.7296C125.557 85.9651 125.84 86.0974 126.221 86.1221C126.34 86.1221 126.454 86.1097 126.569 86.0891C126.692 86.0684 126.827 86.0312 126.987 85.9858H127.09V87.5062C126.905 87.5847 126.717 87.6467 126.52 87.6921C126.245 87.7541 125.963 87.783 125.68 87.7789C124.922 87.7789 124.319 87.5806 123.869 87.1839C123.418 86.7873 123.172 86.1635 123.131 85.3124V84.9447H123.041C122.77 85.3124 122.471 85.6635 122.156 85.9941C121.783 86.3742 121.357 86.7047 120.898 86.9732C120.361 87.2831 119.787 87.5227 119.189 87.6797C118.541 87.8615 117.804 87.9524 116.98 87.9483C116.222 87.9524 115.464 87.8533 114.734 87.6425M119.844 85.8081C120.57 85.5065 121.18 85.114 121.672 84.6431C122.606 83.7589 123.139 82.5277 123.147 81.2345V78.0946C122.59 78.4086 121.914 78.6523 121.119 78.8217C120.324 78.9911 119.504 79.1357 118.656 79.2431C117.918 79.3588 117.238 79.4745 116.611 79.5943C115.984 79.7141 115.443 79.9124 114.988 80.181C114.537 80.4454 114.16 80.8214 113.898 81.28C113.628 81.7386 113.497 82.3418 113.497 83.0896C113.497 83.6969 113.603 84.201 113.816 84.61C114.013 84.9984 114.304 85.333 114.656 85.5892C115.025 85.8453 115.439 86.023 115.878 86.1139C116.361 86.2172 116.857 86.2667 117.353 86.2626C118.291 86.2626 119.123 86.1097 119.848 85.8081" fill="#4D4D4D"/>
<path d="M130.647 92.3566C129.487 91.489 128.827 90.4024 128.671 89.0969H130.679C130.86 90.1091 131.401 90.8362 132.302 91.2742C133.204 91.7121 134.282 91.9311 135.536 91.9311C137.388 91.9311 138.757 91.4849 139.638 90.5966C140.519 89.7083 140.961 88.4854 140.961 86.9319V84.1638H140.859C140.211 85.1512 139.461 85.9032 138.613 86.4237C137.765 86.9402 136.683 87.2005 135.363 87.2005C134.224 87.2005 133.2 86.9856 132.286 86.5601C131.384 86.1428 130.585 85.5355 129.942 84.7711C129.294 84.0068 128.798 83.0896 128.45 82.0195C128.102 80.9495 127.93 79.772 127.93 78.4912C127.93 77.0741 128.13 75.8222 128.528 74.7274C128.93 73.6367 129.462 72.7194 130.134 71.9758C130.79 71.2445 131.597 70.6702 132.495 70.2901C133.4 69.9059 134.372 69.7117 135.355 69.7158C136.691 69.7158 137.798 69.9926 138.666 70.5463C139.535 71.0999 140.261 71.8477 140.842 72.7897H140.945V70.0835H142.998V86.8576C142.998 88.7911 142.461 90.357 141.392 91.551C140.076 92.9474 138.146 93.6415 135.601 93.6415C133.458 93.6415 131.806 93.2077 130.643 92.3401M139.72 83.5234C140.638 82.2385 141.092 80.5528 141.092 78.4623C141.092 77.4294 140.982 76.4833 140.756 75.6281C140.535 74.7728 140.187 74.0333 139.715 73.4177C139.252 72.8021 138.65 72.3104 137.957 71.984C137.253 71.6453 136.433 71.4759 135.495 71.4759C133.773 71.4759 132.442 72.1162 131.491 73.397C130.544 74.6778 130.069 76.3883 130.069 78.5284C130.061 79.458 130.175 80.3793 130.405 81.28C130.626 82.1228 130.962 82.8541 131.409 83.4738C131.843 84.0853 132.417 84.5811 133.081 84.924C133.749 85.2752 134.544 85.4487 135.458 85.4487C137.376 85.4487 138.793 84.8083 139.707 83.5234" fill="#4D4D4D"/>
<path d="M150.198 87.2914C149.223 86.8535 148.358 86.1965 147.67 85.3702C146.989 84.5481 146.473 83.5813 146.117 82.4658C145.76 81.3503 145.58 80.1397 145.58 78.8383C145.58 77.5368 145.768 76.3222 146.149 75.2108C146.53 74.0994 147.055 73.1326 147.735 72.3105C148.411 71.4924 149.256 70.8355 150.214 70.3852C151.186 69.9266 152.272 69.6952 153.481 69.6952C154.866 69.6952 156.03 69.9596 156.98 70.4884C157.911 70.9966 158.701 71.7279 159.287 72.6121C159.878 73.5003 160.3 74.5208 160.545 75.6694C160.791 76.8345 160.914 78.0202 160.91 79.2101H147.719C147.731 80.1438 147.875 81.0693 148.137 81.9617C148.37 82.7591 148.743 83.5069 149.239 84.1721C149.723 84.8083 150.35 85.3165 151.067 85.6594C151.805 86.0189 152.661 86.2007 153.645 86.2007C155.095 86.2007 156.218 85.8454 157.009 85.1347C157.8 84.4241 158.365 83.4739 158.697 82.284H160.709C160.332 84.0192 159.55 85.4033 158.365 86.4362C157.181 87.4691 155.607 87.9896 153.649 87.9896C152.354 87.9896 151.202 87.7583 150.198 87.2997M158.365 75.1406C158.144 74.3886 157.82 73.7358 157.394 73.1822C156.968 72.6286 156.415 72.1824 155.788 71.8808C155.14 71.5668 154.37 71.4098 153.481 71.4098C152.587 71.4098 151.813 71.5668 151.149 71.8808C150.485 72.1824 149.899 72.6244 149.424 73.1822C148.94 73.7606 148.563 74.4175 148.305 75.124C148.018 75.9049 147.829 76.7229 147.752 77.5534H158.734C158.718 76.7353 158.595 75.9255 158.369 75.1406" fill="#4D4D4D"/>
<path d="M165.565 70.0918V72.7566H165.635C166.229 71.8684 167.012 71.1247 167.93 70.5793C168.877 70.005 170.045 69.7158 171.43 69.7158C173.036 69.7158 174.36 70.1827 175.401 71.1164C176.442 72.0501 176.958 73.397 176.954 75.1529V87.5475H174.88V75.3595C174.88 74.0333 174.528 73.0582 173.823 72.4385C173.118 71.8188 172.151 71.5089 170.926 71.513C170.217 71.513 169.512 71.637 168.852 71.889C168.225 72.1245 167.647 72.4716 167.143 72.9178C166.651 73.3516 166.258 73.8887 165.988 74.4836C165.705 75.1075 165.561 75.7892 165.57 76.475V87.5517H163.5V70.0959H165.574L165.565 70.0918Z" fill="#4D4D4D"/>
<path d="M182.306 86.9526C181.703 86.4692 181.404 85.6636 181.404 84.5398V71.8147H178.794V70.0918H181.404V64.725H183.478V70.0918H186.695V71.8147H183.478V84.201C183.478 84.8332 183.617 85.267 183.896 85.5025C184.174 85.738 184.592 85.8536 185.15 85.8536C185.404 85.8536 185.658 85.8247 185.904 85.7669C186.117 85.7256 186.326 85.6595 186.527 85.581H186.629V87.3699C186.014 87.5806 185.367 87.6798 184.719 87.6756C183.715 87.6756 182.912 87.4319 182.31 86.9485" fill="#4D4D4D"/>
<path d="M192.833 87.2914C191.862 86.8452 190.998 86.1883 190.305 85.3661C189.612 84.5439 189.08 83.5771 188.711 82.4657C188.342 81.3544 188.158 80.1438 188.158 78.8383C188.158 77.5327 188.342 76.3222 188.711 75.2108C189.08 74.0994 189.608 73.1285 190.305 72.3063C190.998 71.4841 191.858 70.8272 192.833 70.381C193.829 69.9224 194.948 69.691 196.198 69.691C197.448 69.691 198.562 69.9224 199.546 70.381C200.513 70.8313 201.37 71.4883 202.058 72.3063C202.751 73.1285 203.275 74.0953 203.628 75.2108C203.98 76.3263 204.16 77.5368 204.164 78.8383C204.164 80.1438 203.984 81.3544 203.628 82.4657C203.271 83.5771 202.746 84.5439 202.058 85.3661C201.37 86.1841 200.513 86.841 199.546 87.2914C198.567 87.75 197.448 87.9813 196.198 87.9813C194.948 87.9813 193.825 87.75 192.833 87.2914ZM198.747 85.6553C199.476 85.2793 200.107 84.7381 200.587 84.0729C201.079 83.3995 201.447 82.6103 201.689 81.7097C202.181 79.8298 202.181 77.855 201.689 75.9751C201.443 75.0744 201.079 74.2853 200.587 73.6119C200.103 72.9467 199.472 72.4013 198.747 72.0295C198.009 71.6453 197.165 71.4552 196.206 71.4552C195.247 71.4552 194.391 71.6494 193.641 72.0295C192.915 72.4096 192.284 72.9508 191.801 73.6119C191.297 74.2853 190.924 75.0744 190.682 75.9751C190.19 77.855 190.19 79.8298 190.682 81.7097C190.928 82.6103 191.301 83.3953 191.801 84.0729C192.288 84.734 192.92 85.2752 193.641 85.6553C194.366 86.0354 195.223 86.2296 196.206 86.2296C197.19 86.2296 198.038 86.0395 198.747 85.6553Z" fill="#4D4D4D"/>
<path d="M206.82 72.9922C205.537 72.9922 204.644 72.0915 204.644 70.7488C204.644 69.406 205.558 68.4971 206.82 68.4971C208.082 68.4971 209 69.406 209 70.7488C209 72.0915 208.086 72.9922 206.82 72.9922ZM206.82 68.7532C205.783 68.7532 204.955 69.4721 204.955 70.7446C204.955 72.0171 205.779 72.7236 206.82 72.7236C207.861 72.7236 208.693 72.0047 208.693 70.7446C208.693 69.4845 207.861 68.7532 206.82 68.7532ZM207.463 71.951L206.726 70.8851H206.488V71.9138H206.062V69.4184H206.812C207.328 69.4184 207.672 69.6787 207.672 70.1456C207.672 70.505 207.48 70.7322 207.172 70.8314L207.885 71.8477L207.467 71.951H207.463ZM206.816 69.815H206.488V70.5463H206.795C207.07 70.5463 207.246 70.4306 207.246 70.1786C207.246 69.9266 207.09 69.8109 206.816 69.8109" fill="#4D4D4D"/>
</g>
<defs>
<clipPath id="clip0_0_195">
<rect width="176" height="49" fill="white" transform="translate(33 51)"/>
</clipPath>
</defs>
</svg>
