<svg width="241" height="150" viewBox="0 0 241 150" fill="none" xmlns="http://www.w3.org/2000/svg">
<rect x="0.5" y="0.5" width="240" height="149" rx="19.5" fill="white" stroke="#E7E7E7"/>
<g clip-path="url(#clip0_0_252)">
<path d="M63.7603 80.1967C64.7001 79.177 65.5628 78.3152 66.2717 77.6111L68.1552 75.7296C68.706 75.1793 69.2528 74.7099 69.7227 74.3214C70.1926 73.933 70.6624 73.4596 71.2133 73.0671C72.311 72.1283 73.1737 71.5012 73.8785 71.1087C74.5833 70.7162 75.2881 70.5584 75.9159 70.5584C76.8557 70.5584 77.6415 70.8699 78.4273 71.578C79.1321 72.2821 79.525 73.0671 79.525 73.929C79.525 74.5561 79.367 75.2602 78.9741 75.8874C78.5812 76.5914 77.9534 77.5342 77.0906 78.7077C72.8578 84.2714 70.7394 87.7957 70.7394 89.4386C70.7394 90.1426 71.0513 90.5351 71.8371 90.5351C72.3879 90.5351 73.0117 90.3004 73.6396 89.831C74.2674 89.3617 75.1301 88.5767 76.1509 87.4032C76.7017 86.7761 77.3255 85.9951 78.1113 84.9754C78.8971 83.9558 79.6019 83.017 80.2297 82.1552C80.8576 81.2933 81.3274 80.6661 81.7203 80.3545C82.1132 80.043 82.5831 79.8852 83.1299 79.8852C83.6767 79.8852 84.1506 80.043 84.5395 80.4355C84.9283 80.828 85.0904 81.2973 85.0904 81.8436C85.0904 82.8633 84.6205 84.2714 83.6808 85.9951C82.7411 87.7189 81.4854 89.4426 79.9948 91.2432C78.1113 93.5132 76.1509 95.3179 74.1904 96.5722C72.23 97.8266 70.4275 98.4538 68.7789 98.4538C67.2883 98.4538 66.0327 97.9844 65.016 96.9647C63.9993 95.9451 63.5254 94.6947 63.5254 93.1248C63.5254 92.3398 63.6024 91.5588 63.7603 90.7738C63.9183 90.0698 64.0722 89.2848 64.3882 88.5038C64.6231 87.7189 65.016 86.857 65.5628 85.9951C66.1096 85.1333 66.6605 84.1136 67.4463 83.017C67.5233 82.9401 67.6043 82.7055 67.8392 82.3898C66.4296 83.4864 65.016 84.8176 63.6064 86.5414C62.1968 88.1882 60.7832 90.3004 59.3736 92.967C58.3529 94.6907 57.5711 95.8641 57.0203 96.4144C56.4694 96.9647 55.7646 97.2763 54.9829 97.2763C54.1201 97.2763 53.4153 96.9647 52.7875 96.3376C52.2366 95.7104 51.9247 94.9294 51.9247 93.9866C51.9247 93.3594 52.0017 92.8132 52.1597 92.2629C52.3176 91.7126 52.5526 90.9317 53.0224 89.912C53.2573 89.127 53.6502 88.346 54.1201 87.4032C54.59 86.5414 54.9059 85.8373 55.2948 85.287L56.8623 82.6245C56.9393 82.5476 57.0972 82.232 57.3322 81.8395C56.2345 82.7014 55.2137 83.7211 54.1161 84.8176C52.9414 85.6795 51.9207 86.7761 50.981 88.0304C50.0412 89.2039 49.1785 90.4582 48.4696 91.6357C47.7648 92.8901 47.137 94.0635 46.6672 95.1601C45.9624 96.6491 45.3345 97.6688 44.8647 98.215C44.3138 98.7654 43.69 99 42.9042 99C42.1184 99 41.3367 98.6885 40.7858 97.9804C40.2349 97.3532 40 96.4913 40 95.4716C40 93.4363 41.0207 89.831 42.9812 84.8176C44.1558 81.9205 45.3345 79.2539 46.6672 76.8261C47.9998 74.3983 49.3324 72.2821 50.5881 70.5584C51.3739 69.6196 51.9976 68.9115 52.5485 68.4421C53.0994 68.0496 53.7232 67.8149 54.351 67.8149C55.0558 67.8149 55.6836 68.0496 56.1535 68.519C56.7043 68.9884 56.9393 69.6156 56.9393 70.3196C56.9393 70.8699 56.7813 71.4162 56.5464 72.0434C56.3114 72.6705 55.6836 73.6902 54.8208 75.1752C54.6629 75.4099 54.4279 75.8793 54.1161 76.4296C53.8042 76.9799 53.4113 77.684 52.8604 78.6227L51.9976 80.4233C53.6462 78.4649 55.0558 76.818 56.3114 75.4868C57.5671 74.1555 58.5838 73.059 59.5275 72.1971C60.4673 71.4121 61.2531 70.789 62.0389 70.3965C62.7437 70.004 63.4484 69.8462 63.9993 69.8462C64.7851 69.8462 65.4089 70.0809 65.9598 70.6312C66.5106 71.1815 66.7456 71.8046 66.7456 72.5127C66.7456 72.9821 66.6686 73.5324 66.4337 74.1596C66.1988 74.7868 65.7289 75.6486 65.0241 76.903L63.2986 80.0349L62.7477 81.2083L63.7684 80.1886L63.7603 80.1967Z" fill="#27AAE1"/>
<path d="M84.2317 95.6294C82.7411 95.6294 81.4085 95.0022 80.4687 93.8287C79.448 92.6553 78.9781 91.0853 78.9781 89.2078C78.9781 87.1725 79.448 84.8985 80.4687 82.3938C81.4085 79.8851 82.7411 77.5382 84.4666 75.3451C86.3501 72.7595 88.3105 70.8779 90.348 69.5467C92.3854 68.2154 94.3458 67.5883 96.2293 67.5883C97.9548 67.5883 99.3644 68.1386 100.462 69.2351C101.56 70.3317 102.111 71.8207 102.111 73.6213C102.111 74.2485 102.034 74.8757 101.876 75.3451C101.718 75.8954 101.564 76.4416 101.248 77.1457C101.799 77.6151 102.111 77.9307 102.346 78.2423C102.504 78.4769 102.581 78.7926 102.581 79.1041C102.581 79.3388 102.504 79.6544 102.423 79.8891C102.342 80.1238 102.03 80.5163 101.637 81.0625C100.851 82.1591 100.146 83.1788 99.6763 84.1944C99.2064 85.1332 98.9715 85.995 98.9715 86.5453C98.9715 87.4072 99.4414 87.8766 100.381 87.8766C101.167 87.8766 102.107 87.4072 103.204 86.3875C104.302 85.4488 105.558 83.8019 107.125 81.6857C108.065 80.3544 109.009 79.7273 109.871 79.7273C110.499 79.7273 110.969 79.8851 111.281 80.2776C111.593 80.6701 111.832 81.1394 111.832 81.7666C111.832 82.7054 111.362 83.8828 110.499 85.3719C109.637 86.8609 108.462 88.35 106.89 89.9159C103.362 93.5981 99.9882 95.4796 96.7721 95.4796C95.5974 95.4796 94.5767 95.0871 93.7909 94.2253C93.0051 93.3634 92.5352 92.3437 92.5352 91.1703V90.4662C89.87 93.8368 87.1237 95.6374 84.2236 95.6374L84.2317 95.6294ZM91.9925 84.1944C91.8345 83.725 91.7575 83.4094 91.7575 83.3325C91.7575 83.021 91.9155 82.7054 92.1504 82.4707L93.4831 81.0625C94.1109 80.4354 94.7387 79.5735 95.2086 78.6347C95.7594 77.696 95.9944 76.911 95.9944 76.3648C95.9944 75.5029 95.5245 75.0335 94.6618 75.0335C93.957 75.0335 93.0942 75.426 92.0735 76.2069C91.0527 76.9879 90.113 78.0076 89.1733 79.3388C88.3105 80.5932 87.6058 81.9244 86.9779 83.2557C86.4271 84.5869 86.1152 85.6835 86.1152 86.4685C86.1152 87.4072 86.5081 87.8766 87.3708 87.8766C87.9987 87.8766 88.5455 87.6419 89.1733 87.2494C89.8011 86.78 90.5059 85.995 91.4456 84.8985C91.6036 84.6638 91.7575 84.4291 91.9965 84.1944H91.9925Z" fill="#27AAE1"/>
<path d="M120.383 81.451C118.345 82.8591 116.385 84.5829 114.578 86.5413C112.772 88.4997 111.362 90.535 110.422 92.4935L108.62 96.2525C108.15 97.1144 107.757 97.7415 107.21 98.0531C106.74 98.3647 106.113 98.6034 105.327 98.6034C104.464 98.6034 103.759 98.3687 103.208 97.8184C102.657 97.2681 102.423 96.645 102.423 95.7022C102.423 94.9981 102.581 93.9785 102.973 92.7241C103.366 91.4697 103.836 90.0616 104.383 88.4957C105.011 86.9297 105.639 85.3638 106.501 83.717C107.287 82.0701 108.15 80.5042 109.013 79.0151C109.799 77.6839 110.58 76.4295 111.443 75.2561C112.306 74.0017 113.011 73.063 113.715 72.4358C114.813 71.2623 115.911 70.712 117.089 70.712C117.875 70.712 118.499 70.9467 119.05 71.4161C119.601 71.8855 119.836 72.5127 119.836 73.1398C119.836 73.6901 119.678 74.1595 119.443 74.6289C119.208 75.0983 118.58 75.8023 117.717 76.8989C116.932 77.7607 116.227 78.6995 115.599 79.7192C114.971 80.7389 114.343 81.7545 114.031 82.5395L114.582 81.9123C116.073 80.2654 117.405 78.7804 118.738 77.6839C120.071 76.5104 121.484 75.3329 123.129 74.0786C124.619 72.982 125.794 72.197 126.58 71.8086C127.366 71.3392 127.989 71.1814 128.617 71.1814C129.245 71.1814 129.873 71.4161 130.343 71.9664C130.894 72.5167 131.129 73.1398 131.129 73.767C131.129 74.3942 130.971 75.0214 130.578 75.4908C130.185 76.0411 129.48 76.5873 128.54 77.2145C127.601 77.9186 126.892 78.5457 126.268 79.1729C125.717 79.8001 125.405 80.2695 125.405 80.581C125.405 81.0504 125.64 81.2082 126.191 81.2082C126.584 81.2082 127.131 80.9735 127.84 80.581C128.544 80.1117 129.407 79.5614 130.351 78.7804C131.137 78.1532 131.683 77.7607 131.999 77.607C132.315 77.4532 132.627 77.2954 132.939 77.2954C133.567 77.2954 134.037 77.5301 134.43 77.9226C134.823 78.3151 134.981 78.8614 134.981 79.4117C134.981 80.2735 134.588 81.2123 133.883 82.2319C133.178 83.2516 132.08 84.1904 130.748 85.1291C128.083 87.0107 125.571 87.8725 123.299 87.8725C122.124 87.8725 121.104 87.561 120.318 86.9338C119.532 86.3066 119.143 85.5257 119.143 84.506C119.301 83.5672 119.694 82.5476 120.399 81.451H120.383Z" fill="#27AAE1"/>
<path d="M146.889 85.6835C144.694 89.2888 142.417 92.186 139.987 94.2213C137.557 96.2566 135.203 97.3532 133.085 97.3532C131.594 97.3532 130.262 96.8029 129.322 95.6294C128.301 94.456 127.831 93.0438 127.831 91.2432C127.831 89.9888 128.066 88.5807 128.536 86.9339C129.006 85.3679 129.634 83.6442 130.497 81.7626L133.243 76.0452C133.713 75.2602 134.029 74.4792 134.418 73.6943L135.357 71.3433C135.827 70.1699 136.297 69.3849 136.767 68.9924C137.318 68.523 137.942 68.3652 138.65 68.3652C139.436 68.3652 140.06 68.5999 140.611 69.1502C141.162 69.7005 141.397 70.4046 141.397 71.2665C141.397 72.0514 141.239 72.9902 140.846 74.1636C140.453 75.3371 139.983 76.5146 139.436 77.6111L137.318 81.7626C136.69 82.9361 136.143 84.1904 135.669 85.3679C135.195 86.5454 135.041 87.4842 135.041 88.0304C135.041 88.342 135.118 88.6576 135.353 88.8923C135.511 89.127 135.746 89.2848 136.058 89.2848C136.609 89.2848 137.233 88.9732 137.861 88.346C138.565 87.7189 139.428 86.6992 140.526 85.2142C141.312 84.2754 141.935 83.4136 142.409 82.6286C142.883 81.8436 143.272 81.2204 143.584 80.5123C143.507 79.8851 143.426 79.4158 143.426 79.1042V78.1655C143.426 76.992 143.584 75.8955 143.896 74.7949C144.208 73.6983 144.682 72.6786 145.228 71.8977C145.779 71.0358 146.403 70.3318 147.031 69.7815C147.736 69.2311 148.44 68.9965 149.149 68.9965C149.935 68.9965 150.482 69.389 150.952 70.093C151.422 70.7971 151.58 71.6589 151.58 72.7555C151.58 73.9289 151.422 75.1833 151.11 76.5146C150.798 77.8458 150.324 79.0233 149.7 80.0389C149.935 80.1158 150.251 80.1158 150.486 80.1158C151.426 80.1158 152.523 79.6464 153.621 78.7845C154.172 78.3152 154.561 77.9996 154.954 77.7649C155.347 77.5302 155.505 77.2955 155.739 77.2146C155.897 77.0568 156.051 76.9799 156.209 76.9799C156.367 76.9799 156.521 76.903 156.76 76.903C157.23 76.903 157.7 77.1377 158.093 77.5302C158.486 77.9227 158.721 78.392 158.721 78.9383C158.721 79.7233 158.486 80.5852 157.935 81.447C157.384 82.3089 156.679 83.0939 155.816 83.798C154.954 84.502 154.014 85.0523 152.993 85.5217C151.973 85.9911 150.956 86.1489 150.012 86.1489C149.542 86.1489 149.072 86.072 148.602 85.9911C147.975 86.0679 147.505 85.9142 146.877 85.6795L146.889 85.6835Z" fill="#27AAE1"/>
<path d="M156.926 86.3066C156.691 86.6991 156.533 87.0107 156.456 87.2454C156.379 87.48 156.298 87.7957 156.298 88.1072C156.298 89.046 156.61 89.7541 157.161 90.2235C157.712 90.6928 158.494 90.9275 159.515 90.9275C161.005 90.9275 162.731 90.3003 164.691 88.9691C166.652 87.6379 168.377 86.0719 169.868 84.1135L171.593 81.8435C172.221 81.0585 172.926 80.5891 173.631 80.5891C174.258 80.5891 174.728 80.8238 175.121 81.2163C175.514 81.6857 175.749 82.236 175.749 82.9401C175.749 83.8788 175.356 85.0563 174.574 86.3875C173.793 87.7188 172.691 89.1309 171.281 90.616C169.244 92.8091 166.968 94.4559 164.614 95.7062C162.184 96.9606 159.988 97.5069 157.87 97.5069C155.44 97.5069 153.556 96.7219 152.066 95.1559C150.575 93.59 149.793 91.6316 149.793 89.2038C149.793 86.776 150.344 84.5019 151.361 81.9973C152.382 79.5695 153.714 77.2954 155.359 75.337C157.007 73.3017 158.81 71.6548 160.77 70.4005C162.731 69.1461 164.691 68.5189 166.575 68.5189C168.142 68.5189 169.398 69.0692 170.419 70.0849C171.358 71.1045 171.909 72.4358 171.909 74.0786C171.909 75.7214 171.516 77.2104 170.811 78.6995C170.107 80.1886 169.163 81.5967 167.988 82.7742C166.814 83.9516 165.477 84.9673 163.99 85.6713C162.5 86.3754 160.932 86.7679 159.365 86.7679C158.895 86.7679 158.579 86.691 158.267 86.6101C157.797 86.4523 157.404 86.3754 156.934 86.2985L156.926 86.3066ZM159.357 80.5123C159.592 80.5891 159.75 80.5891 159.907 80.6701C160.065 80.6701 160.219 80.7469 160.458 80.7469C161.086 80.7469 161.633 80.5891 162.261 80.3544C162.889 80.1198 163.435 79.7273 163.986 79.2579C164.537 78.7885 164.926 78.3191 165.242 77.7688C165.554 77.2185 165.712 76.6723 165.712 76.122C165.712 75.4948 165.477 75.1832 164.926 75.1832C164.298 75.1832 163.435 75.7335 162.338 76.8301C161.24 77.7688 160.219 79.0232 159.357 80.5123Z" fill="#27AAE1"/>
<path d="M177.394 87.0916C177.317 87.1685 177.317 87.3263 177.317 87.4841V87.7957C177.317 88.4229 177.552 88.9691 178.021 89.4425C178.491 89.9119 179.042 90.1466 179.589 90.1466C181.472 90.1466 184.373 87.7188 188.136 82.8592L189.545 81.2123C190.485 80.0389 191.429 79.4117 192.21 79.4117C192.761 79.4117 193.15 79.5695 193.543 79.962C193.855 80.3545 194.013 80.8238 194.013 81.451C194.013 81.9204 193.855 82.5476 193.543 83.2516C193.231 83.9557 192.838 84.8176 192.287 85.6794C191.736 86.5413 191.113 87.4801 190.404 88.4229C189.695 89.3657 188.913 90.3044 188.051 91.1663C184.053 95.3178 180.286 97.434 176.916 97.434C174.878 97.434 173.23 96.73 171.974 95.3987C170.718 94.0675 170.091 92.186 170.091 89.835C170.091 88.1113 170.325 86.2297 170.876 84.3522C171.427 82.3938 172.367 80.0429 173.623 77.1457C174.562 75.0295 175.66 72.8364 176.997 70.4855C178.329 68.2155 179.662 65.9414 181.076 63.7483C182.485 61.5552 183.899 59.5199 185.389 57.6384C186.799 55.7568 188.213 54.1909 189.387 52.9365C191.113 51.2128 192.68 49.9584 194.013 49.1775C195.345 48.3925 196.601 48.004 197.699 48.004C198.72 48.004 199.582 48.3965 200.129 49.1775C200.757 49.9625 200.992 50.9781 200.992 52.1556C200.992 53.4099 200.757 54.8181 200.364 56.4649C199.894 58.1118 199.343 59.8355 198.562 61.6361C197.78 63.4367 196.836 65.2414 195.738 67.1998C194.641 69.0814 193.466 70.9589 192.052 72.8404C190.015 75.5838 187.82 78.0885 185.466 80.3626C183.194 82.5557 180.525 84.8297 177.39 87.0997L177.394 87.0916ZM179.824 79.1001C181.549 77.4532 183.117 75.8873 184.373 74.4792C185.705 72.9901 186.961 71.3473 188.294 69.4658C189.156 68.2923 189.942 67.038 190.724 65.7836C191.506 64.5293 192.133 63.2749 192.684 62.1015C193.235 60.928 193.705 59.9083 194.094 58.9696C194.406 58.1077 194.645 57.4037 194.645 56.8534C194.645 56.384 194.487 56.1493 194.094 56.1493C193.543 56.1493 192.761 56.7765 191.664 58.1077C190.566 59.439 189.31 61.3205 187.82 63.7483C187.192 64.6871 186.645 65.6299 186.094 66.5686C185.543 67.5074 184.761 68.9964 183.822 70.797C183.194 71.8936 182.724 72.8323 182.331 73.6173C181.938 74.4023 181.545 75.1064 181.233 75.7336C180.922 76.3607 180.683 76.907 180.448 77.4573C180.29 78.0076 180.055 78.5539 179.82 79.1042L179.824 79.1001Z" fill="#27AAE1"/>
</g>
<defs>
<clipPath id="clip0_0_252">
<rect width="161" height="51" fill="white" transform="translate(40 48)"/>
</clipPath>
</defs>
</svg>
