<svg width="241" height="150" viewBox="0 0 241 150" fill="none" xmlns="http://www.w3.org/2000/svg">
<rect width="241" height="150" rx="20" fill="white"/>
<g clip-path="url(#clip0_1954_613)">
<path d="M87.9789 87.5715H83.8052V67.9463H89.2508L95.6534 79.2257V67.9463H99.8115V87.5715H95.3966L87.9789 74.2056V87.5715Z" fill="black"/>
<path d="M116.203 67.9502H103.468V87.5714H116.203V83.8025H107.984V79.0256H115.581V75.092H108.008V71.8054H116.203V67.9502Z" fill="black"/>
<path d="M118.84 67.9502H134.252V71.8054H128.814V87.5754H124.309V71.8093C124.309 71.8093 119.54 71.8054 118.84 71.8054V67.9502Z" fill="black"/>
<path d="M124.309 71.8096C124.309 71.8096 119.054 71.8057 118.836 71.8057L124.309 71.8096Z" fill="black"/>
<path d="M137.056 83.1048C138.145 83.7558 139.9 85.4226 142.875 85.7364C146.438 86.1129 147.936 84.1754 148.111 82.5165C148.368 80.0614 146.248 79.5358 143.105 78.9123C139.631 78.222 137.398 77.5671 137.072 73.3549C136.827 70.1939 139.479 67.3544 144.633 67.5701C146.609 67.6525 148.694 68.2447 149.745 68.935L149.733 72.0019C148.967 71.5156 147.076 70.0096 143.673 69.8331C141.02 69.6958 139.573 71.4293 139.561 72.8922C139.534 76.2258 142.265 75.8532 144.917 76.5395C148.597 77.4925 150.596 78.4299 150.519 82.187C150.445 85.6815 147.407 87.9562 142.848 87.9562C140.713 87.9562 138.429 87.2149 137.056 86.4031V83.1048Z" fill="black"/>
<path d="M157.532 67.9502V79.6335C157.532 84.0143 159.375 85.885 161.849 85.885C164.572 85.885 166.358 83.9555 166.358 79.6335V67.9502H168.777V79.461C168.777 85.5085 165.782 87.9597 161.764 87.9597C157.971 87.9597 155.108 85.6811 155.108 79.5472V67.9502H157.528H157.532Z" fill="black"/>
<path d="M178.101 67.9502H175.794V87.5754H178.101V67.9502Z" fill="black"/>
<path d="M182.126 67.9502H196.981V70.2563H190.696V87.5714H188.381V70.2563H182.126V67.9502Z" fill="black"/>
<path d="M212 67.9502H200.583V87.5714H212V85.3085H202.797V78.002H212V75.6999H202.797V70.2563H212V67.9502Z" fill="black"/>
<path fill-rule="evenodd" clip-rule="evenodd" d="M25 52H55.2779V78.1394L43.488 63.0676H25V52Z" fill="#00467F"/>
<path fill-rule="evenodd" clip-rule="evenodd" d="M43.418 73.0059C47.3505 77.9082 51.1197 82.9714 55.0094 87.9169H73.5947V99.0002H43.418V73.0059Z" fill="#00467F"/>
<path fill-rule="evenodd" clip-rule="evenodd" d="M57.1763 63.0243V54.2432H71.4672V85.9792H61.9762V63.0243H57.1802H57.1763Z" fill="#B9C7D4"/>
<path fill-rule="evenodd" clip-rule="evenodd" d="M36.7391 64.9502V87.7207C38.2405 87.7207 39.882 87.7207 41.434 87.7207V96.6862H27.248V64.9502H36.7391Z" fill="#B9C7D4"/>
</g>
<defs>
<clipPath id="clip0_1954_613">
<rect width="187" height="47" fill="white" transform="translate(25 52)"/>
</clipPath>
</defs>
</svg>
