<svg width="241" height="150" viewBox="0 0 241 150" fill="none" xmlns="http://www.w3.org/2000/svg">
<rect x="0.5" y="0.5" width="240" height="149" rx="19.5" fill="white" stroke="#E7E7E7"/>
<g clip-path="url(#clip0_0_169)">
<path d="M87.979 87.5716H83.8053V67.9464H89.251L95.6535 79.2258V67.9464H99.8117V87.5716H95.3968L87.979 74.2058V87.5716Z" fill="black"/>
<path d="M116.203 67.9503H103.468V87.5716H116.203V83.8027H107.984V79.0258H115.581V75.0921H108.007V71.8056H116.203V67.9503Z" fill="black"/>
<path d="M118.84 67.9503H134.252V71.8056H128.814V87.5755H124.309V71.8095C124.309 71.8095 119.54 71.8056 118.84 71.8056V67.9503Z" fill="black"/>
<path d="M124.309 71.8095C124.309 71.8095 119.054 71.8056 118.836 71.8056L124.309 71.8095Z" fill="black"/>
<path d="M137.056 83.1046C138.145 83.7556 139.9 85.4224 142.875 85.7361C146.438 86.1126 147.936 84.1752 148.111 82.5163C148.368 80.0612 146.248 79.5356 143.105 78.912C139.631 78.2218 137.398 77.5668 137.072 73.3547C136.827 70.1937 139.479 67.3542 144.633 67.5699C146.609 67.6523 148.694 68.2445 149.744 68.9347L149.733 72.0017C148.967 71.5154 147.076 70.0093 143.673 69.8329C141.02 69.6956 139.573 71.4291 139.561 72.8919C139.534 76.2255 142.264 75.853 144.917 76.5393C148.597 77.4923 150.596 78.4297 150.519 82.1868C150.445 85.6812 147.407 87.9559 142.848 87.9559C140.712 87.9559 138.429 87.2147 137.056 86.4029V83.1046Z" fill="black"/>
<path d="M157.532 67.9503V79.6337C157.532 84.0144 159.375 85.8852 161.849 85.8852C164.572 85.8852 166.358 83.9556 166.358 79.6337V67.9503H168.777V79.4611C168.777 85.5087 165.782 87.9599 161.764 87.9599C157.971 87.9599 155.108 85.6812 155.108 79.5474V67.9503H157.528H157.532Z" fill="black"/>
<path d="M178.101 67.9503H175.794V87.5755H178.101V67.9503Z" fill="black"/>
<path d="M182.127 67.9503H196.982V70.2564H190.696V87.5716H188.381V70.2564H182.127V67.9503Z" fill="black"/>
<path d="M212 67.9503H200.584V87.5716H212V85.3087H202.797V78.0022H212V75.7H202.797V70.2564H212V67.9503Z" fill="black"/>
<path fill-rule="evenodd" clip-rule="evenodd" d="M25 52H55.2779V78.1394L43.488 63.0676H25V52Z" fill="#00467F"/>
<path fill-rule="evenodd" clip-rule="evenodd" d="M43.418 73.0057C47.3505 77.908 51.1197 82.9712 55.0095 87.9167H73.5947V99H43.418V73.0057Z" fill="#00467F"/>
<path fill-rule="evenodd" clip-rule="evenodd" d="M57.1761 63.0244V54.2433H71.467V85.9793H61.976V63.0244H57.1799H57.1761Z" fill="#B9C7D4"/>
<path fill-rule="evenodd" clip-rule="evenodd" d="M36.7393 64.9501V87.7206C38.2407 87.7206 39.8822 87.7206 41.4342 87.7206V96.6861H27.2483V64.9501H36.7393Z" fill="#B9C7D4"/>
</g>
<defs>
<clipPath id="clip0_0_169">
<rect width="187" height="47" fill="white" transform="translate(25 52)"/>
</clipPath>
</defs>
</svg>
