<svg width="241" height="150" viewBox="0 0 241 150" fill="none" xmlns="http://www.w3.org/2000/svg">
<rect x="0.5" y="0.5" width="240" height="149" rx="19.5" fill="white" stroke="#E7E7E7"/>
<g clip-path="url(#clip0_0_231)">
<path d="M76.1423 83.6205L70.8751 78.921L70.492 78.5413L70.5088 78.6873L70.492 78.5246L70.3446 77.5312L68.7573 66.2752L68.8289 66.3461L74.0961 71.0455L74.4792 71.4253L74.4624 71.2793L74.4792 71.442L74.6266 72.4353L76.1929 83.6914L76.1381 83.6205H76.1423ZM88.2093 53.5708L74.7192 50.0108C72.8793 49.5225 71.6035 50.6619 71.8772 52.5233L73.9361 67.2476L73.8645 67.1391L73.8477 67.1224L67.7047 60.5824L67.6668 60.5449C67.1026 59.8771 66.1889 59.9313 65.2627 60.8704L59.8144 66.3085C58.4839 67.6441 57.1703 70.2484 56.8966 72.1098L53.9451 92.1638C53.6714 94.0252 54.9472 95.9408 56.7703 96.4291L70.2604 99.9892C72.1003 100.477 73.3761 99.3381 73.1024 97.4767L71.0435 82.7524L71.1151 82.8609L71.132 82.8776L77.2581 89.4176C77.2581 89.4176 77.2749 89.4342 77.296 89.4551C77.8602 90.1229 78.7738 90.0686 79.7001 89.1296L85.1484 83.6914C86.4789 82.3559 87.7925 79.7516 88.0662 77.8902L91.0008 57.8529C91.3124 55.9748 90.0367 54.0591 88.2136 53.5708H88.2093Z" fill="#F24711"/>
<path d="M114.369 90.1605C114.297 90.6112 113.914 90.9368 113.438 90.9534H108.882C108.499 90.9701 108.188 90.6655 108.171 90.2857C108.171 90.2314 108.171 90.1939 108.188 90.1396L110.482 73.967C110.499 73.6582 110.39 73.3535 110.171 73.1365C109.952 72.957 109.897 72.957 109.897 72.957C109.459 72.9195 108.731 72.8652 108.293 72.8652H105.889C105.325 72.8652 104.76 72.9028 104.192 72.9904L103.628 73.0823C103.173 73.2283 102.845 73.5873 102.773 74.0589L100.512 90.1396C100.441 90.5903 100.057 90.9159 99.6027 90.9326H95.0471C94.6639 90.9326 94.3524 90.6446 94.3355 90.2648C94.3355 90.2272 94.3355 90.173 94.3523 90.1396L97.2154 69.4137C97.287 68.9629 97.6701 68.6374 98.1249 68.6207H102.099C102.554 68.6207 102.899 68.9838 102.899 69.4346V70.9162C103.594 70.0314 104.558 69.3803 105.653 69.0923C106.781 68.7835 108.954 68.6583 108.954 68.6583C109.392 68.6416 110.12 68.6207 110.575 68.6207H111.889C112.727 68.604 113.548 68.6917 114.348 68.892C114.912 69.0381 115.459 69.3093 115.897 69.7058C116.28 70.0689 116.554 70.5364 116.68 71.0414C116.773 71.4045 116.827 71.7801 116.844 72.1599C116.861 72.7025 116.844 73.2242 116.773 73.7667L114.369 90.1563V90.1605Z" fill="#0B0B21"/>
<path d="M129.168 63.5791C129.075 64.0507 128.659 64.3929 128.166 64.4096H123.189C122.789 64.4263 122.444 64.1216 122.423 63.721V63.5749L122.97 59.8521C123.063 59.3805 123.48 59.0215 123.972 59.0215H128.949C129.349 59.0048 129.694 59.3095 129.715 59.7102V59.8562L129.168 63.5791ZM125.215 90.1396C125.122 90.6112 124.705 90.9535 124.212 90.9701H119.236C118.836 90.9868 118.491 90.6822 118.469 90.2815V90.1354L121.64 68.7418C121.733 68.2701 122.149 67.9279 122.642 67.9112H127.619C128.019 67.8945 128.364 68.1992 128.385 68.5999V68.7459L125.215 90.1396Z" fill="#0B0B21"/>
<path d="M147.088 71.9261C147.016 72.3769 146.612 72.7191 146.157 72.74H140.562C140.086 72.7567 139.707 73.0822 139.614 73.5538L137.972 84.7181V85.2982C137.972 85.4777 138.01 85.678 138.082 85.8408C138.153 86.0036 138.301 86.1496 138.465 86.2373L138.646 86.3291C139.012 86.3458 139.665 86.3834 140.124 86.3834H144.044C144.427 86.3667 144.755 86.6713 144.772 87.0511C144.772 87.1054 144.772 87.143 144.755 87.1972L144.427 89.5469C143.189 90.1604 141.858 90.5778 140.49 90.7573C139.471 90.9033 138.448 90.9743 137.408 90.991C136.625 90.991 135.821 90.9534 135.037 90.8449C134.381 90.774 133.745 90.5569 133.176 90.2105C132.646 89.8683 132.229 89.38 131.972 88.7999C131.682 88.1655 131.606 87.1388 131.606 87.1388C131.568 86.5962 131.589 86.0537 131.661 85.5111L133.412 73.5497C133.484 73.1699 133.231 72.8276 132.848 72.7567C132.793 72.7567 132.755 72.74 132.701 72.74H130.423C130.04 72.7567 129.711 72.452 129.711 72.0722V71.947L130.04 69.5973C130.111 69.1466 130.515 68.8043 130.97 68.7835H133.248C133.724 68.7668 134.124 68.4204 134.195 67.9696L134.814 63.65C134.907 63.1784 135.269 62.8194 135.745 62.7485L140.393 62.2435C140.722 62.1892 141.033 62.4062 141.105 62.7318C141.121 62.8027 141.121 62.8946 141.105 62.9655L140.376 67.9696C140.305 68.3494 140.557 68.7083 140.94 68.7626C140.978 68.7626 141.033 68.7793 141.088 68.7793H146.683C147.067 68.7626 147.395 69.0673 147.395 69.447C147.395 69.5013 147.395 69.5389 147.378 69.5931L147.088 71.922V71.9261Z" fill="#0B0B21"/>
<path d="M164.603 72.9779C164.51 73.4495 164.093 73.7708 163.618 73.7708H161.428C161.117 73.7708 160.683 73.7875 160.115 73.8084C159.529 73.846 158.932 73.8794 158.275 73.9336C157.618 73.9879 156.999 74.0421 156.38 74.1131L155.761 74.184C155.268 74.3092 154.906 74.689 154.797 75.1773L152.481 90.1396C152.389 90.6112 151.972 90.9325 151.496 90.9325H146.574C146.191 90.9492 145.846 90.6613 145.829 90.2815V90.1354L148.965 69.3928C149.058 68.9212 149.475 68.5998 149.951 68.5998H154.178C154.633 68.5831 155.033 68.942 155.054 69.4136V71.2041C156.039 70.4988 157.079 69.902 158.19 69.4345C159.411 68.892 160.889 68.6415 162.603 68.6207H164.371C164.754 68.604 165.1 68.892 165.117 69.2717V69.4178L164.607 72.9779H164.603Z" fill="#0B0B21"/>
<path d="M177.474 73.0113H174.156C173.499 72.9946 172.864 73.1365 172.278 73.4286C171.967 73.6081 171.731 73.9002 171.605 74.2216C171.424 74.7266 171.293 75.2525 171.205 75.7742L169.765 85.0604C169.765 85.5111 170.001 85.9076 170.384 86.1455C170.657 86.3249 170.969 86.4335 171.293 86.471C171.748 86.5253 172.497 86.5628 172.952 86.5628H175.394C176.051 86.5795 176.708 86.4376 177.289 86.1288C177.6 85.9493 177.836 85.678 177.963 85.3525C178.127 84.8475 178.253 84.3216 178.346 83.7999L179.786 74.6014C179.769 73.5371 179.002 73.0113 177.47 73.0113H177.474ZM184.653 83.9794C184.451 85.3358 184.068 86.4543 183.503 87.36C182.973 88.2281 182.244 88.9668 181.369 89.5094C180.459 90.0519 179.436 90.4317 178.379 90.6279C177.449 90.774 176.501 90.8825 175.554 90.9159C175.099 90.9326 174.35 90.9534 173.895 90.9534H171.453C170.304 90.9701 169.159 90.8616 168.009 90.6654C167.117 90.5194 166.258 90.1771 165.512 89.6888C164.839 89.2381 164.291 88.587 163.98 87.8274C163.651 87.0511 163.542 85.6405 163.542 85.6405C163.504 85.0979 163.525 84.5762 163.597 84.0337L164.91 75.073C165.037 73.9879 165.458 72.957 166.093 72.0555C166.695 71.2417 167.462 70.5572 168.333 70.048C169.243 69.5222 170.249 69.1466 171.268 68.9295C172.089 68.7668 172.91 68.6749 173.748 68.6207C174.203 68.604 174.952 68.5831 175.407 68.5831H178.325C179.381 68.5831 180.421 68.6749 181.461 68.892C182.337 69.0547 183.175 69.397 183.92 69.8853C184.594 70.336 185.158 70.9704 185.524 71.6924C185.924 72.4312 186.034 73.6624 186.034 73.6624C186.072 74.2049 186.051 74.7266 185.979 75.2692L184.649 83.9794H184.653Z" fill="#0B0B21"/>
</g>
<defs>
<clipPath id="clip0_0_231">
<rect width="144" height="58" fill="white" transform="translate(48 46)"/>
</clipPath>
</defs>
</svg>
