<svg width="241" height="150" viewBox="0 0 241 150" fill="none" xmlns="http://www.w3.org/2000/svg">
<rect x="0.5" y="0.5" width="240" height="149" rx="19.5" fill="white" stroke="#E7E7E7"/>
<g clip-path="url(#clip0_0_223)">
<path d="M185.362 57.2594C173.964 57.2594 164.724 66.6027 164.724 78.1297C164.724 89.6567 173.964 99 185.362 99C196.761 99 206 89.6567 206 78.1297C206 66.6027 196.761 57.2594 185.362 57.2594ZM185.362 90.4399C178.636 90.4399 173.189 84.9361 173.189 78.1297C173.189 71.3234 178.632 65.8195 185.362 65.8195C192.093 65.8195 197.535 71.3234 197.535 78.1297C197.535 84.9361 192.093 90.4399 185.362 90.4399Z" fill="#888888"/>
<path d="M141.607 57.2594C130.209 57.2594 120.969 66.6027 120.969 78.1297C120.969 89.6567 130.209 99 141.607 99C153.006 99 162.245 89.6567 162.245 78.1297C162.245 66.6027 153.006 57.2594 141.607 57.2594ZM141.607 90.4399C134.881 90.4399 129.434 84.9361 129.434 78.1297C129.434 71.3234 134.877 65.8195 141.607 65.8195C148.338 65.8195 153.78 71.3234 153.78 78.1297C153.78 84.9361 148.338 90.4399 141.607 90.4399Z" fill="#888888"/>
<path d="M114.984 44C114.984 44 114.963 44 114.95 44C112.694 44.0085 110.871 45.8687 110.88 48.1502V61.4692C107.403 58.8471 103.097 57.2594 98.4247 57.2594C87.0219 57.2594 77.7868 66.5985 77.7868 78.1297C77.7868 89.6609 87.0219 99 98.4247 99C109.827 99 119.063 89.6609 119.063 78.1297V77.9552C119.092 77.8956 119.092 77.8105 119.092 77.7551V48.1502C119.088 45.8729 117.236 44 114.984 44ZM98.4247 90.4399C91.7025 90.4399 86.2516 84.9276 86.2516 78.1297C86.2516 71.3319 91.7025 65.8195 98.4247 65.8195C105.147 65.8195 110.598 71.3319 110.598 78.1297C110.598 84.9276 105.147 90.4399 98.4247 90.4399Z" fill="#888888"/>
<path d="M55.6379 57.2041C44.2393 57.2041 35 66.5474 35 78.0744C35 89.6013 44.2393 98.9447 55.6379 98.9447C67.0365 98.9447 76.2757 89.6013 76.2757 78.0744C76.2757 66.5474 67.0365 57.2041 55.6379 57.2041ZM55.44 90.4697C48.7179 90.4697 43.2669 84.9574 43.2669 78.1595C43.2669 71.3617 48.7179 65.8493 55.44 65.8493C62.1622 65.8493 67.6131 71.3617 67.6131 78.1595C67.6131 84.9574 62.1622 90.4697 55.44 90.4697Z" fill="#9C5789"/>
</g>
<defs>
<clipPath id="clip0_0_223">
<rect width="171" height="55" fill="white" transform="translate(35 44)"/>
</clipPath>
</defs>
</svg>
