<svg width="240" height="150" viewBox="0 0 240 150" fill="none" xmlns="http://www.w3.org/2000/svg">
<rect width="240" height="150" rx="20" fill="white"/>
<g clip-path="url(#clip0_1957_38)">
<path d="M18.3843 62.9172C18.8415 61.6304 19.883 61.159 21.1067 60.9822C22.9839 60.7116 24.7558 61.0099 26.3618 62.0769C26.7775 62.3427 27.1232 62.7062 27.3691 63.1362C27.7846 63.8848 27.6452 64.6764 27.0002 65.2395C26.3551 65.8026 25.5963 66.0407 24.7919 66.1305C23.1556 66.3132 21.581 66.0809 20.1164 65.2701C19.3237 64.8433 18.7092 64.1441 18.3843 63.2997V62.9172Z" fill="#094D83"/>
<path d="M193.293 75.4569C192.289 75.4569 191.409 75.4512 190.529 75.4569C190.298 75.4569 190.2 75.2896 190.072 75.1586C188.026 73.077 185.982 70.9934 183.94 68.9079C183.821 68.7865 183.712 68.6545 183.598 68.5255L183.482 68.5695C183.482 68.7657 183.482 68.9617 183.482 69.1574C183.482 71.1164 183.474 73.0773 183.491 75.0343C183.491 75.3642 183.414 75.4856 183.076 75.4569C182.714 75.4262 182.35 75.4262 181.987 75.4569C181.635 75.4875 181.579 75.3394 181.579 75.0229C181.588 68.0946 181.588 61.166 181.579 54.2371C181.579 53.9187 181.638 53.7734 181.988 53.8049C182.335 53.8383 182.685 53.8383 183.032 53.8049C183.417 53.7657 183.496 53.9139 183.496 54.283C183.483 58.5834 183.48 62.8837 183.487 67.1841C183.487 67.4346 183.487 67.6851 183.487 68.0446C184.299 67.2673 185.037 66.5627 185.772 65.8552C187.029 64.6442 188.284 63.4332 189.538 62.2221C189.59 62.1646 189.655 62.119 189.726 62.0885C189.797 62.058 189.875 62.0432 189.952 62.0453C190.789 62.0529 191.626 62.0453 192.469 62.0453C192.495 62.2193 192.345 62.2604 192.266 62.3321C190.269 64.1862 188.267 66.0346 186.261 67.8773C186.02 68.0971 185.998 68.2148 186.244 68.4566C188.57 70.7617 190.884 73.062 193.293 75.4569Z" fill="#1D1D1D"/>
<path d="M32.2491 80.9753C32.2377 81.9858 31.7662 82.9285 30.9913 83.6982C29.3047 85.3713 27.2833 86.0883 24.9413 85.5788C22.419 85.0299 21.478 82.68 22.843 80.48C24.2905 78.1482 27.7633 76.9875 30.2258 78.0124C31.4874 78.5392 32.2424 79.6005 32.2491 80.9753Z" fill="#094D82"/>
<path d="M46.3842 96.7726C46.2789 99.0355 45.4527 100.948 43.5783 102.281C41.5285 103.738 39.139 102.71 38.8013 100.206C38.4579 97.6591 39.2756 95.506 41.2458 93.8397C41.6163 93.5136 42.0525 93.2729 42.5243 93.134C42.9962 92.9946 43.4924 92.9605 43.9786 93.0335C44.783 93.1445 45.3645 93.6215 45.7809 94.3012C46.2353 95.0519 46.4069 95.8884 46.3842 96.7726Z" fill="#235F8F"/>
<path d="M127.488 61.7642C125.116 61.4773 123.56 62.2738 122.332 64.5014C122.332 63.7126 122.323 63.0615 122.332 62.4114C122.338 62.1609 122.295 62.029 122.004 62.0491C121.578 62.073 121.151 62.0682 120.725 62.0491C120.486 62.0395 120.44 62.1246 120.451 62.3512C120.49 63.0023 120.519 63.6543 120.522 64.3064C120.539 67.5245 120.543 70.7416 120.56 73.9626C120.56 74.4502 120.348 75.1022 120.655 75.3785C120.923 75.6195 121.559 75.4216 122.029 75.4655C122.402 75.4999 122.463 75.3575 122.461 75.0152C122.446 72.657 122.444 70.2987 122.455 67.9404C122.469 65.4966 124.276 63.6065 126.574 63.5989C126.939 63.5989 127.408 63.8742 127.628 63.6266C127.848 63.379 127.83 62.8808 127.913 62.4927C127.919 62.4456 127.929 62.3992 127.944 62.3541C128.149 61.876 127.849 61.8082 127.488 61.7642Z" fill="#1D1D1D"/>
<path d="M213.316 64.4341C214.37 62.2093 216.48 61.4053 218.706 61.7944C218.948 61.8365 219.053 61.9292 218.974 62.2093C218.87 62.6087 218.787 63.0134 218.725 63.4216C218.688 63.6415 218.642 63.7429 218.369 63.6932C215.347 63.1453 213.417 65.5785 213.45 68.1341C213.481 70.4286 213.45 72.7232 213.465 75.0177C213.465 75.3638 213.401 75.5073 213.029 75.469C212.683 75.4328 212.333 75.4328 211.986 75.469C211.611 75.5082 211.549 75.3571 211.549 75.0139C211.562 71.8908 211.562 68.7692 211.549 65.6492C211.549 64.568 211.497 63.4876 211.455 62.4063C211.444 62.1453 211.507 62.0296 211.789 62.0564C212.286 62.1023 212.937 61.8499 213.239 62.1615C213.479 62.4082 213.303 63.066 213.309 63.5412C213.316 63.8356 213.316 64.1348 213.316 64.4341Z" fill="#1D1D1D"/>
<path d="M157.461 64.4054C158.045 63.2973 158.85 62.4694 160.011 62.0152C160.935 61.6538 161.887 61.6423 162.852 61.7924C163.102 61.8316 163.192 61.9444 163.124 62.2103C163.02 62.6102 162.937 63.0151 162.873 63.4235C162.837 63.6558 162.791 63.7409 162.52 63.6921C159.346 63.1252 157.555 65.7783 157.608 68.0786C157.661 70.3788 157.608 72.6677 157.629 74.9555C157.629 75.3379 157.567 75.512 157.155 75.4603C156.691 75.403 156.064 75.6573 155.8 75.3561C155.569 75.0942 155.729 74.4794 155.728 74.0176C155.728 71.6141 155.738 69.2106 155.722 66.806C155.713 65.327 155.672 63.8489 155.62 62.3709C155.611 62.1156 155.646 62.0142 155.904 62.0515C155.92 62.0525 155.936 62.0525 155.952 62.0515C156.438 62.0621 157.077 61.888 157.374 62.1328C157.673 62.3776 157.446 63.0554 157.47 63.542C157.471 63.8327 157.461 64.1195 157.461 64.4054Z" fill="#1D1D1D"/>
<path d="M61.3545 102.733C61.3345 103.748 61.1724 104.732 60.6533 105.619C59.8139 107.053 58.4184 107.108 57.4577 105.747C56.8886 104.947 56.6345 104.026 56.5413 103.07C56.4465 102.049 56.512 101.036 56.8848 100.063C57.023 99.6894 57.219 99.3396 57.4654 99.0276C58.2479 98.0525 59.3626 98.0331 60.1801 98.9903C60.8089 99.7228 61.1058 100.606 61.2613 101.545C61.3333 101.937 61.3645 102.335 61.3545 102.733Z" fill="#3A709A"/>
<path d="M29.6503 54.8821C28.1562 54.8432 26.7267 54.2601 25.6264 53.2405C25.5561 53.1767 25.4899 53.1083 25.4282 53.0359C25.0782 52.6267 24.7547 52.1754 24.9843 51.6181C25.2262 51.0377 25.7896 50.9727 26.3464 50.9613C27.9362 50.9288 29.3003 51.5081 30.5088 52.5101C30.7407 52.7028 30.9403 52.932 31.0997 53.1889C31.61 54.0073 31.2629 54.7635 30.3115 54.8783C30.0913 54.8926 29.8706 54.8939 29.6503 54.8821Z" fill="#235F8F"/>
<path d="M69.9938 98.8865C70.0142 99.3344 69.9279 99.7808 69.7427 100.188C69.4932 100.701 69.0511 100.827 68.5656 100.531C68.2718 100.341 68.025 100.085 67.8444 99.7839C66.9984 98.4665 66.6472 97.0276 66.8656 95.4676C66.9245 95.0468 67.0873 94.6435 67.5294 94.5026C67.9449 94.3718 68.2714 94.6202 68.5302 94.9063C69.5567 96.0304 69.9067 97.4123 69.9938 98.8865Z" fill="#5382A7"/>
<path d="M92.7382 87.2002C92.7382 88.0942 92.7228 88.841 92.7455 89.5855C92.7552 89.9076 92.6508 89.9861 92.3424 89.9841C92.0343 89.9826 91.8969 89.9298 91.9042 89.5723C91.9269 88.4575 91.9042 87.3419 91.9177 86.226C91.9177 86.0711 91.8048 85.8226 92.0401 85.7766C92.2754 85.7308 92.553 85.6725 92.7636 85.9574C93.2634 86.6381 93.7956 87.2884 94.3173 87.9478C94.3724 88.0165 94.4125 88.1144 94.5915 88.121C94.5915 87.4898 94.6004 86.8625 94.5915 86.2365C94.5861 85.9373 94.5869 85.7327 94.9997 85.7384C95.3743 85.7384 95.4386 85.8722 95.4329 86.2097C95.414 87.3245 95.4329 88.4404 95.4205 89.556C95.4205 89.6945 95.5249 89.9057 95.3004 89.9593C95.1029 90.0062 94.9123 89.9958 94.7567 89.7873C94.2253 89.0743 93.6743 88.3771 93.1291 87.6746C93.032 87.55 92.9307 87.4335 92.7382 87.2002Z" fill="#727272"/>
<path d="M37.3345 51.0802C36.0217 50.889 34.9194 50.324 34.1236 49.2197C33.9282 48.9482 33.839 48.626 34.0031 48.3239C34.1672 48.0218 34.4859 47.9806 34.7923 48.0065C36.1203 48.1202 37.1865 48.7283 38.008 49.7742C38.2328 50.061 38.357 50.4043 38.1787 50.7494C38.0089 51.0773 37.6656 51.0726 37.3345 51.0802Z" fill="#608AAE"/>
<path d="M76.8485 90.104C76.2043 90.0753 75.6221 89.9262 75.2359 89.3517C75.16 89.2376 74.9902 89.0649 75.2301 88.9624C75.4199 88.8813 75.6097 88.5447 75.8685 88.8774C76.2678 89.389 76.8173 89.3995 77.376 89.2857C77.6309 89.2341 77.8504 89.082 77.8608 88.7749C77.8712 88.4683 77.6794 88.3064 77.4168 88.2416C77.0811 88.1585 76.7357 88.1162 76.398 88.0448C75.5982 87.8744 75.2547 87.4711 75.2805 86.7558C75.284 86.6206 75.3144 86.4875 75.3702 86.3646C75.4261 86.2416 75.5066 86.1315 75.6059 86.0407C76.232 85.4384 77.6556 85.4413 78.2713 86.0589C78.3806 86.1679 78.6167 86.3314 78.4495 86.4728C78.2828 86.6144 78.0703 86.9059 77.7657 86.6316C77.4187 86.3142 76.9983 86.2788 76.5658 86.3553C76.3002 86.4021 76.0734 86.5551 76.0734 86.8524C76.0734 87.1497 76.3052 87.2471 76.5477 87.2968C76.8723 87.3628 77.2004 87.4059 77.5231 87.4777C78.3225 87.6566 78.6898 88.0638 78.6887 88.7501C78.6887 89.3785 78.2809 89.8373 77.5439 90.0131C77.314 90.0562 77.0818 90.0869 76.8485 90.104Z" fill="#717171"/>
<path d="M63.0034 87.2123C63.0034 86.8478 63.0034 86.5429 63.0034 86.2427C63.0034 85.7905 63.2672 85.6126 63.6873 85.7647C63.8902 85.8364 63.8143 85.998 63.8155 86.1223C63.824 86.8222 63.8078 87.5228 63.8228 88.2254C63.8382 88.9082 64.2472 89.3231 64.8721 89.3258C65.497 89.3289 65.8806 88.9388 65.9002 88.2169C65.9195 87.517 65.9222 86.8164 65.9002 86.1136C65.8898 85.8019 66.0065 85.7312 66.2799 85.7532C66.5209 85.7704 66.7543 85.7188 66.7285 86.1079C66.6838 86.9165 66.7693 87.7332 66.6715 88.5383C66.556 89.4943 65.9125 90.0602 64.9376 90.0746C63.9075 90.0897 63.1998 89.5238 63.0489 88.5802C62.9768 88.0993 63.0184 87.6234 63.0034 87.2123Z" fill="#727272"/>
<path d="M55.7579 90.0688C54.7439 90.0688 53.9888 89.563 53.6995 88.6959C53.3817 87.7395 53.6739 86.6382 54.3881 86.0981C55.1413 85.5244 56.2957 85.5082 57.0443 86.0637C57.1552 86.1459 57.452 86.2166 57.2195 86.4317C57.0612 86.578 56.9873 86.9329 56.5918 86.6899C55.607 86.0847 54.4811 86.623 54.3938 87.7041C54.3493 88.2607 54.4678 88.7665 54.963 89.079C55.4581 89.3918 56.0112 89.3833 56.5395 89.0965C56.6053 89.0572 56.6789 89.0324 56.7547 89.0235C56.831 89.0149 56.908 89.0223 56.9807 89.0452C57.0539 89.0681 57.1213 89.1065 57.1787 89.1574C57.2364 89.2086 57.2826 89.2711 57.3146 89.341C57.4093 89.5246 57.2537 89.5696 57.1675 89.6344C56.7643 89.9442 56.2641 90.0983 55.7579 90.0688Z" fill="#727272"/>
<path d="M81.8239 87.9586C81.8239 87.0177 82.1377 86.3331 82.8959 85.9344C83.6737 85.53 84.475 85.5272 85.2293 86.03C85.3545 86.1132 85.6752 86.1801 85.4654 86.422C85.3183 86.5913 85.2047 86.949 84.8015 86.6744C84.5512 86.5027 84.2528 86.4166 83.9502 86.4288C83.6479 86.441 83.3572 86.5509 83.1215 86.7423C82.6633 87.119 82.4946 87.7738 82.6945 88.3925C82.9679 89.2376 83.9602 89.5628 84.8108 89.0858C84.8793 89.0512 84.9544 89.0318 85.0306 89.0279C85.1073 89.0245 85.1835 89.0369 85.2547 89.0648C85.3264 89.0928 85.391 89.1351 85.4453 89.1894C85.4996 89.2442 85.542 89.3094 85.5697 89.3812C85.6352 89.5628 85.475 89.597 85.3857 89.6556C84.5955 90.1862 83.7465 90.2289 82.9117 89.8276C82.1181 89.4472 81.8162 88.7298 81.8239 87.9586Z" fill="#727272"/>
<path d="M60.0085 85.7528C60.4825 85.7528 60.9569 85.7653 61.4313 85.7481C61.7158 85.7376 61.7339 85.8905 61.7235 86.1056C61.7139 86.2968 61.7516 86.5091 61.4548 86.4947C61.3924 86.4947 61.3288 86.4947 61.2653 86.4947C60.3935 86.5062 60.3935 86.5062 60.3935 87.3646C60.3935 88.1297 60.3774 88.8943 60.4001 89.6594C60.4116 90.0235 60.1979 89.9738 59.9761 89.9777C59.754 89.9816 59.551 90.0006 59.5595 89.6477C59.5826 88.7414 59.5595 87.8312 59.5749 86.9279C59.5814 86.6037 59.5017 86.4498 59.1575 86.4947C59.0019 86.5148 58.8418 86.4871 58.6831 86.5005C58.3874 86.5253 58.226 86.4699 58.2241 86.098C58.2241 85.7041 58.4459 85.7547 58.6823 85.7547C59.1248 85.7547 59.5668 85.7541 60.0085 85.7528Z" fill="#737373"/>
<path d="M44.6642 51.3482C43.9404 51.3214 42.5384 50.2965 42.3013 49.6139C42.1371 49.1444 42.3515 48.8576 42.823 48.9848C43.7716 49.2381 44.5389 49.7735 45.0483 50.6283C45.313 51.0728 45.1337 51.3654 44.6642 51.3482Z" fill="#9DB8CD"/>
<path d="M72.9411 87.8686C72.9411 87.2654 72.9553 86.6613 72.9357 86.058C72.9253 85.7349 73.1101 85.7397 73.3265 85.7531C73.5425 85.7665 73.777 85.6718 73.7732 86.0513C73.7585 87.2585 73.7585 88.4656 73.7732 89.6728C73.7732 90 73.5937 89.9864 73.3804 89.974C73.1671 89.9616 72.9222 90.0641 72.9345 89.6806C72.9553 89.0762 72.9403 88.4722 72.9411 87.8686Z" fill="#747474"/>
<path d="M49.5184 51.6377C50.0325 51.6922 51.2258 52.7171 51.3691 53.2324C51.4582 53.546 51.3454 53.6837 51.0181 53.6435C50.4689 53.5766 49.3107 52.523 49.1855 51.9723C49.1257 51.7065 49.2262 51.6071 49.5184 51.6377Z" fill="#B6C9DA"/>
<path d="M56.6117 56.7035C56.6486 57.0037 56.4352 57.0123 56.217 56.9836C55.7901 56.9263 54.9839 56.0849 54.9175 55.6394C54.8881 55.4358 54.9497 55.2914 55.1783 55.2742C55.7048 55.235 56.6117 56.1289 56.6117 56.7035Z" fill="#E6ECF2"/>
<path d="M100.626 62.0569C99.6146 62.0569 99.6096 62.0569 99.3373 63.0273C98.5995 65.6673 97.8637 68.308 97.1302 70.9493C96.9519 71.4133 96.8187 71.8936 96.7316 72.3833C96.5911 72.4943 96.7031 72.7448 96.4852 72.8231C96.4074 72.5803 96.3331 72.3394 96.2538 72.0994C95.6585 70.3147 95.0628 68.5301 94.4663 66.7454C94.4814 66.6441 94.4556 66.541 94.3955 66.4586C94.3909 66.4505 94.3843 66.4439 94.3762 66.4395C93.9315 65.0503 93.4818 63.6669 93.0482 62.2701C92.9819 62.0579 92.8491 62.0598 92.687 62.0607C92.2449 62.0607 91.801 62.0799 91.3589 62.055C91.084 62.0387 90.985 62.1449 90.9046 62.3982C90.3944 64.0006 89.8611 65.5963 89.3412 67.1938C88.724 69.0658 88.1129 70.9426 87.4564 72.9541C87.2373 72.1893 87.0524 71.5573 86.873 70.9225C86.0775 68.0977 85.2812 65.2734 84.4837 62.4498C84.4402 62.2959 84.4837 62.0483 84.1838 62.054C83.5134 62.0655 82.8426 62.054 82.1426 62.054C82.1984 62.2452 82.2373 62.3791 82.28 62.5139L85.8145 73.7697C85.9855 74.3146 86.0043 75.045 86.3686 75.3548C86.7613 75.6866 87.4899 75.4131 88.0694 75.459C88.3755 75.4839 88.4941 75.3634 88.5861 75.0766C89.461 72.2935 90.3555 69.5161 91.2423 66.7378C91.4748 66.0131 91.7166 65.2903 91.9916 64.4432C92.0867 64.7301 92.131 64.8763 92.1814 65.0255L93.2411 68.2694C93.8737 70.3183 94.5072 72.3671 95.2149 74.3882C95.1702 74.5919 95.3289 74.7429 95.3516 74.9275C95.4067 75.3825 95.6666 75.5011 96.0944 75.459C96.4706 75.4234 96.8495 75.4234 97.2261 75.459C97.5503 75.4867 97.6889 75.3739 97.7809 75.0575C98.181 73.6836 98.6099 72.3183 99.0281 70.9464C99.5915 69.1828 100.155 67.4192 100.718 65.6555C101.097 64.4662 101.465 63.273 101.848 62.0474L100.626 62.0569Z" fill="#1E1E1E"/>
<path d="M63.3353 67.4106C63.0897 66.4335 62.8764 65.443 62.2141 64.638C62.1174 64.4758 62.0107 64.32 61.8945 64.1714C59.9422 61.9572 57.4902 61.3185 54.6853 61.9371C53.2786 62.2478 52.1242 63.0251 51.187 64.2967C51.187 63.5777 51.1756 62.9783 51.1927 62.3788C51.1993 62.1302 51.131 62.0404 50.8768 62.0537C50.4979 62.0825 50.1174 62.0825 49.7385 62.0537C49.3515 62.0155 49.2794 62.1637 49.2813 62.526C49.2946 65.7919 49.2889 69.0579 49.2889 72.3248C49.2889 75.9731 49.2889 79.6214 49.2813 83.2698C49.2813 83.5967 49.3477 83.7239 49.6911 83.6914C50.0381 83.6575 50.3875 83.6575 50.7345 83.6914C51.1215 83.7316 51.1974 83.5796 51.1955 83.2134C51.1813 80.0909 51.187 76.9683 51.187 73.8439C51.187 73.6757 51.187 73.5074 51.187 73.2454C51.5266 73.6164 51.7561 73.952 52.071 74.2149C53.8373 75.6977 55.8653 76.0897 58.0678 75.627C61.9853 74.8019 64.0211 71.1125 63.3353 67.4106ZM60.9584 71.0666C60.1833 72.9184 58.5006 74.0399 56.461 74.0543C54.2433 74.0696 52.3822 72.8821 51.5341 70.9126C50.5856 68.7137 51.2173 66.051 53.0301 64.6074C54.9054 63.114 57.6145 63.049 59.4509 64.4468C59.9488 64.8292 60.318 65.3158 60.6773 65.8178C61.0077 66.4746 61.2041 67.1763 61.3681 67.8895C61.4497 68.9757 61.3862 70.0436 60.9584 71.0666Z" fill="#1D1E1A"/>
<path d="M206.556 69.2534L206.581 69.2438C206.611 69.256 206.643 69.2647 206.676 69.2697C207.824 69.3328 207.845 69.3318 207.814 68.1778C207.675 62.9787 203.213 60.6966 199.167 62.102C196.009 63.1986 194.197 66.6491 194.859 70.1177C195.499 73.4639 197.947 75.6447 201.344 75.7958C203.424 75.8914 205.259 75.2164 206.729 73.679C207.393 72.9878 207.378 72.9763 206.655 72.3778C206.503 72.2637 206.358 72.1398 206.222 72.0069C205.982 71.7487 205.847 71.7898 205.624 72.0719C204.283 73.7593 202.538 74.3836 200.448 73.9046C199.156 73.6083 198.214 72.7755 197.488 71.6818C197.135 71.0729 196.9 70.402 196.796 69.7047C196.731 69.3787 196.856 69.2869 197.125 69.2725H198C200.676 69.2821 203.352 69.2783 206.028 69.2725C206.199 69.2725 206.375 69.3108 206.54 69.2314L206.556 69.2534ZM205.348 67.7084C202.708 67.7084 200.069 67.7084 197.429 67.7084C197.224 67.7084 197.018 67.7142 196.813 67.717C196.634 67.6549 196.841 67.5717 196.801 67.5019C197.115 64.6557 200.37 62.4768 203.536 63.8641C204.858 64.4435 205.775 65.9808 205.75 67.4321C205.743 67.7925 205.532 67.7084 205.348 67.7084Z" fill="#1D1D1D"/>
<path d="M177.541 66.0712C177.496 65.8584 177.405 65.6579 177.277 65.4832C177.281 65.3694 177.209 65.292 177.148 65.2126C176.291 63.6256 175.004 62.5771 173.286 62.0672C172.282 61.7151 171.208 61.6143 170.156 61.7737C169.32 61.8148 168.499 62.0217 167.743 62.3826C166.986 62.7435 166.307 63.2513 165.745 63.877C164.174 65.5903 163.65 67.663 164.007 69.928C164.42 72.5428 165.846 74.3937 168.353 75.3307C169.54 75.7991 170.77 75.8862 172.023 75.7246C177.131 75.0697 179.06 69.9394 177.541 66.0712ZM175.719 70.5169C174.96 73.0514 172.531 74.5056 169.949 73.9654C169.636 73.9004 169.296 73.9262 169.017 73.7264C165.987 72.407 165.412 68.7453 166.463 66.3456C166.858 65.4182 167.533 64.64 168.392 64.1215C169.251 63.603 170.251 63.3706 171.249 63.4573C171.38 63.4678 171.513 63.4697 171.644 63.4745L171.651 63.4611L171.673 63.4755L172.907 63.7776C174.343 64.4287 175.263 65.5387 175.758 67.0282C176.016 68.1946 176.067 69.3591 175.72 70.5169H175.719Z" fill="#1D1D1B"/>
<path d="M70.703 88.5076C71.5347 88.1253 71.8412 87.571 71.6714 86.8156C71.5263 86.1626 70.9695 85.7639 70.1774 85.7553C69.6245 85.7495 69.0715 85.7619 68.5194 85.7505C68.2937 85.7505 68.177 85.7839 68.1797 86.0564C68.1932 87.2659 68.1797 88.4762 68.1882 89.6896C68.1882 89.785 68.1447 89.9065 68.2918 89.9706C68.6711 90.1367 68.9937 89.9314 69.0011 89.5067C69.0011 89.3798 68.9899 89.2505 69.0011 89.1244C69.0222 88.933 68.8544 88.6551 69.1177 88.5833C69.3815 88.5115 69.7088 88.4808 69.9271 88.7976C70.0885 89.0309 70.3291 89.2113 70.4774 89.4512C70.8139 89.9993 71.2902 90.0595 71.9132 89.9294L70.703 88.5076ZM70.023 87.8128H69.7381C69.6121 87.8128 69.4851 87.8031 69.3588 87.8128C69.1008 87.8365 69.0041 87.7418 68.9937 87.4658C68.9602 86.5153 68.9491 86.5153 69.889 86.5163H70.0315C70.6006 86.522 70.8963 86.7496 70.8928 87.1704C70.889 87.5908 70.6044 87.8089 70.0238 87.8128H70.023Z" fill="#727272"/>
<path d="M104.09 85.7631C103.571 85.7383 103.047 85.7631 102.527 85.7479C102.257 85.7373 102.169 85.832 102.176 86.1026C102.192 86.6762 102.181 87.25 102.181 87.8233C102.181 88.4288 102.189 89.034 102.181 89.6399C102.181 89.8732 102.227 89.99 102.492 89.9803C103.029 89.962 103.568 89.9966 104.105 89.9679C105.22 89.9077 105.947 89.0522 105.943 87.8369C105.937 86.659 105.191 85.8157 104.09 85.7631ZM105.119 87.9498C105.094 88.6858 104.635 89.1535 103.896 89.1927C102.997 89.2424 102.997 89.2424 102.997 88.3578C102.997 87.9603 102.99 87.5625 102.997 87.1646C103.011 86.4391 102.855 86.528 103.652 86.5175C104.678 86.5338 105.151 86.9954 105.119 87.9498Z" fill="#737373"/>
<path d="M100.956 89.7237C100.392 88.4657 99.8419 87.2026 99.2716 85.9473C99.1427 85.6605 98.3533 85.6481 98.2281 85.9291C97.6232 87.2523 97.0379 88.5833 96.4126 89.9846C96.7923 89.8891 97.2228 90.2066 97.3841 89.7524C97.5651 89.242 97.8735 89.1415 98.3479 89.1873C98.7414 89.2152 99.1361 89.2152 99.5296 89.1873C99.7545 89.178 99.9089 89.2525 99.947 89.4741C100.042 89.9694 100.373 90.023 100.788 89.9791C100.982 89.9589 101.044 89.9205 100.956 89.7237ZM97.9979 88.4102L98.7422 86.6787L99.4796 88.4102H97.9979Z" fill="#727272"/>
<path d="M111.319 89.8448C110.749 88.5561 110.172 87.2702 109.611 85.9767C109.464 85.6363 109.192 85.7855 108.964 85.7549C108.736 85.7243 108.59 85.7778 108.49 86.0216C108.147 86.8389 107.776 87.6471 107.415 88.4548C107.199 88.9423 106.982 89.4299 106.751 89.9461C107.274 89.9997 107.741 90.0936 107.866 89.4369C107.903 89.2358 108.061 89.1861 108.26 89.1912C108.796 89.2036 109.332 89.1985 109.868 89.1912C110.037 89.1912 110.191 89.2036 110.235 89.4031C110.374 90.0362 110.81 90.0494 111.311 89.9337C111.315 89.9061 111.329 89.8696 111.319 89.8448ZM109.524 88.43C109.144 88.43 108.771 88.43 108.308 88.43L109.057 86.6784C109.307 87.2577 109.526 87.7484 109.73 88.2437C109.819 88.4606 109.637 88.4288 109.524 88.43Z" fill="#727272"/>
<path d="M51.1099 85.9832C51.0349 85.813 50.9296 85.7662 50.7513 85.7452C50.3083 85.6945 49.983 85.7872 49.8739 86.2815C49.8354 86.4025 49.7852 86.5194 49.724 86.6305L48.2642 89.9336C48.8067 90.038 49.2507 90.0294 49.393 89.401C49.4404 89.1945 49.5969 89.1926 49.762 89.1937C50.2988 89.1937 50.8348 89.1996 51.3745 89.1937C51.5472 89.1937 51.6999 89.2139 51.7416 89.4061C51.8801 90.0407 52.3222 90.0457 52.8733 89.9347C52.2709 88.5874 51.6885 87.2875 51.1099 85.9832ZM50.112 88.4326C49.89 88.4376 49.8274 88.3658 49.9223 88.1527C50.1271 87.6947 50.3216 87.232 50.5597 86.6811L51.3186 88.4306C50.868 88.4306 50.4923 88.4252 50.1167 88.4326H50.112Z" fill="#717171"/>
<path d="M89.0113 85.9452C88.8669 85.6287 88.094 85.6584 87.9431 85.9796C87.6928 86.5112 87.4687 87.0534 87.2261 87.5906C86.8815 88.3669 86.5353 89.1433 86.1826 89.9464C86.7128 89.9988 87.1834 90.0803 87.3039 89.4254C87.3378 89.2418 87.4753 89.1891 87.6585 89.1922C88.2119 89.2011 88.7652 89.2011 89.3185 89.1922C89.5014 89.1922 89.6374 89.2407 89.6732 89.4254C89.7975 90.0667 90.2538 90.0162 90.7964 89.9405C90.1911 88.5781 89.6096 87.2568 89.0113 85.9452ZM88.962 88.431C88.6458 88.4213 88.3293 88.4213 88.0132 88.431C87.831 88.4356 87.7352 88.3976 87.8237 88.1938C88.0255 87.7339 88.2269 87.2731 88.4818 86.6909C88.7371 87.2723 88.9381 87.7331 89.141 88.1919C89.2342 88.3937 89.1479 88.4387 88.9581 88.4337L88.962 88.431Z" fill="#717171"/>
<path d="M80.1359 67.6975L80.1132 67.4106C80.0366 66.9814 79.9788 66.5502 79.7605 66.1582C79.5865 65.5178 79.2611 64.9295 78.8117 64.444C78.6781 64.0721 78.3805 63.8302 78.1082 63.5778C76.3893 61.9821 74.325 61.462 72.0686 61.7851C69.3301 62.1772 67.4271 63.6839 66.4976 66.3561L66.4664 66.5091C66.2927 66.7443 66.3031 67.032 66.2396 67.2988C66.1572 67.4842 66.193 67.6812 66.1892 67.8724C66.0717 68.4506 66.0717 69.0468 66.1892 69.6249C66.1818 69.9117 66.1722 70.1985 66.3058 70.4662C66.302 70.6519 66.3582 70.8338 66.4664 70.9844C66.5369 71.4162 66.6986 71.8277 66.9404 72.191C67.0059 72.3685 67.106 72.531 67.2346 72.669C67.5515 73.3469 68.0771 73.8622 68.6528 74.2867C71.0243 76.0363 73.6158 76.2743 76.2838 75.1309C79.3878 73.8077 80.6103 70.4328 80.1359 67.6975ZM77.8595 70.7158C76.7135 74.0237 73.2846 74.6548 70.935 73.5792C69.647 72.9902 68.8984 71.9653 68.4591 70.6603C68.0097 69.9346 68.0351 69.122 68.0655 68.318C68.0929 67.7963 68.1938 67.2812 68.3651 66.7882C68.4075 66.6171 68.5084 66.4665 68.6497 66.3628C69.3851 64.7872 70.5765 63.7719 72.2981 63.5195C74.2045 63.2403 75.8541 63.7661 77.0959 65.336C77.1275 65.3704 77.1614 65.4024 77.1976 65.4316L77.7921 66.5578L77.8737 66.749C78.1668 67.0827 78.2114 67.4766 78.1517 67.8963C78.181 68.8457 78.1737 69.7941 77.8549 70.7158H77.8595Z" fill="#1D1E1A"/>
<path d="M116.76 67.664C116.698 66.272 116.251 65.0119 115.367 63.9497C113.747 62.0022 111.618 61.4046 109.201 61.8291C107.205 62.181 105.667 63.2632 104.689 65.0912C104.562 65.2354 104.472 65.4087 104.426 65.596C104.047 66.2911 103.873 67.0492 103.797 67.8256C103.549 70.3601 104.243 72.561 106.196 74.2475C108.771 76.4703 113.362 76.4215 115.91 73.4702C116.447 72.8478 116.421 73.0266 115.835 72.5304C115.62 72.3679 115.415 72.1933 115.219 72.0074C114.974 71.7473 114.851 71.7732 114.626 72.0686C113.079 74.0878 110.389 74.6624 108.27 73.4205C106.721 72.5122 105.969 71.0781 105.75 69.3247C105.92 69.3084 106.092 69.2778 106.263 69.2778C109.488 69.2778 112.713 69.2778 115.938 69.2778C116.065 69.2845 116.223 69.2778 116.433 69.2778C116.51 69.2832 116.587 69.2715 116.658 69.2434C116.785 69.2673 116.83 69.1966 116.825 69.0847C116.809 68.6105 116.892 68.1315 116.76 67.664ZM106.102 67.7185C105.857 67.7185 105.807 67.6124 105.818 67.4107C105.799 67.3818 105.79 67.3475 105.792 67.3129C105.794 67.2784 105.808 67.2455 105.83 67.2194C106.004 66.359 106.434 65.6238 106.991 64.9593C108.204 63.7881 109.628 63.2737 111.304 63.5013C113.391 63.7804 114.719 65.3809 114.758 67.6975C111.873 67.7003 108.988 67.708 106.104 67.7185H106.102Z" fill="#1D1D1D"/>
<path d="M151.738 66.1656C151.031 64.2127 149.709 62.8809 147.77 62.1702C144.746 61.1807 142.101 61.7075 139.912 64.219V63.699C139.912 60.5439 139.907 57.3889 139.918 54.2387C139.918 53.9184 139.861 53.7769 139.512 53.8113C139.182 53.8472 138.849 53.8472 138.518 53.8113C138.092 53.7597 138.003 53.9146 138.004 54.3314C138.018 60.8614 138.012 67.3903 138.018 73.9202C138.018 74.4231 137.795 75.1144 138.113 75.3782C138.431 75.6421 139.08 75.4337 139.583 75.4633C139.867 75.4806 139.92 75.3677 139.914 75.1077C139.897 74.514 139.909 73.9202 139.909 73.2634C140.214 73.5923 140.441 73.8782 140.708 74.1172C142.256 75.5016 144.078 75.9786 146.108 75.7368C151.202 75.1306 153.201 70.0797 151.738 66.1656ZM149.902 70.4239C149.253 72.6229 147.564 73.9671 145.34 74.0569C143.024 74.1459 140.976 72.8676 140.2 70.7423C139.435 68.6389 139.742 66.6656 141.313 65.0432C142.884 63.4208 144.818 63.0928 146.936 63.7697C147.184 63.8491 147.421 63.9705 147.663 64.0728C148.812 64.7965 149.537 65.8434 149.949 67.1322C150.165 68.2278 150.226 69.333 149.902 70.4249V70.4239Z" fill="#1E1E1E"/>
</g>
<defs>
<clipPath id="clip0_1957_38">
<rect width="201" height="59" fill="white" transform="translate(18 48)"/>
</clipPath>
</defs>
</svg>
