<svg width="240" height="150" viewBox="0 0 240 150" fill="none" xmlns="http://www.w3.org/2000/svg">
<rect x="0.5" y="0.5" width="239" height="149" rx="19.5" fill="white" stroke="#E7E7E7"/>
<g clip-path="url(#clip0_0_31)">
<path d="M18.3841 62.9171C18.8413 61.6302 19.8829 61.1589 21.1065 60.9821C22.9838 60.7115 24.7557 61.0098 26.3616 62.0767C26.7774 62.3426 27.1231 62.7061 27.369 63.1361C27.7845 63.8847 27.645 64.6763 27 65.2394C26.355 65.8025 25.5961 66.0406 24.7917 66.1304C23.1554 66.3131 21.5808 66.0807 20.1162 65.27C19.3236 64.8431 18.709 64.144 18.3841 63.2996V62.9171Z" fill="#094D83"/>
<path d="M193.294 75.457C192.29 75.457 191.409 75.4512 190.529 75.457C190.299 75.457 190.2 75.2897 190.072 75.1587C188.026 73.077 185.982 70.9934 183.941 68.9079C183.821 68.7865 183.712 68.6546 183.598 68.5255L183.482 68.5695C183.482 68.7658 183.482 68.9618 183.482 69.1575C183.482 71.1164 183.475 73.0773 183.491 75.0344C183.491 75.3642 183.414 75.4856 183.076 75.457C182.714 75.4263 182.35 75.4263 181.988 75.457C181.636 75.4876 181.579 75.3394 181.579 75.0229C181.588 68.0946 181.588 61.166 181.579 54.2371C181.579 53.9187 181.638 53.7734 181.988 53.805C182.335 53.8383 182.685 53.8383 183.032 53.805C183.417 53.7658 183.497 53.914 183.496 54.283C183.483 58.5834 183.48 62.8838 183.487 67.1842C183.487 67.4346 183.487 67.6851 183.487 68.0446C184.299 67.2673 185.037 66.5627 185.772 65.8552C187.029 64.6442 188.285 63.4332 189.538 62.2222C189.59 62.1646 189.655 62.119 189.726 62.0885C189.798 62.058 189.875 62.0433 189.952 62.0453C190.789 62.0529 191.627 62.0453 192.469 62.0453C192.496 62.2193 192.345 62.2604 192.266 62.3321C190.269 64.1863 188.267 66.0346 186.261 67.8773C186.021 68.0972 185.998 68.2148 186.245 68.4567C188.57 70.7617 190.884 73.062 193.294 75.457Z" fill="#1D1D1D"/>
<path d="M32.2493 80.9752C32.2379 81.9858 31.7665 82.9284 30.9915 83.6981C29.3049 85.3712 27.2835 86.0882 24.9415 85.5787C22.4192 85.0298 21.4782 82.6799 22.8432 80.4799C24.2908 78.1481 27.7635 76.9874 30.226 78.0123C31.4876 78.5391 32.2427 79.6004 32.2493 80.9752Z" fill="#094D82"/>
<path d="M46.3841 96.7724C46.2789 99.0354 45.4526 100.948 43.5783 102.28C41.5284 103.738 39.1389 102.71 38.8012 100.206C38.4578 97.659 39.2755 95.5059 41.2457 93.8395C41.6162 93.5135 42.0524 93.2728 42.5243 93.1338C42.9961 92.9945 43.4923 92.9603 43.9786 93.0333C44.7829 93.1443 45.3644 93.6214 45.7808 94.301C46.2352 95.0517 46.4069 95.8882 46.3841 96.7724Z" fill="#235F8F"/>
<path d="M127.488 61.7642C125.116 61.4773 123.56 62.2737 122.333 64.5014C122.333 63.7126 122.323 63.0615 122.333 62.4114C122.338 62.1609 122.296 62.029 122.004 62.049C121.579 62.0729 121.151 62.0682 120.725 62.049C120.486 62.0395 120.44 62.1246 120.451 62.3512C120.49 63.0022 120.52 63.6543 120.523 64.3063C120.539 67.5244 120.543 70.7416 120.56 73.9626C120.56 74.4502 120.348 75.1022 120.656 75.3785C120.923 75.6194 121.559 75.4215 122.029 75.4655C122.402 75.4999 122.463 75.3575 122.461 75.0152C122.446 72.6569 122.445 70.2986 122.456 67.9403C122.469 65.4966 124.276 63.6065 126.575 63.5988C126.939 63.5988 127.408 63.8742 127.629 63.6265C127.848 63.3789 127.83 62.8808 127.913 62.4927C127.919 62.4456 127.93 62.3992 127.944 62.354C128.149 61.876 127.85 61.8081 127.488 61.7642Z" fill="#1D1D1D"/>
<path d="M213.316 64.4343C214.37 62.2095 216.481 61.4055 218.706 61.7946C218.948 61.8367 219.053 61.9294 218.974 62.2095C218.87 62.6089 218.787 63.0136 218.725 63.4218C218.688 63.6417 218.642 63.7431 218.369 63.6933C215.347 63.1455 213.417 65.5787 213.451 68.1343C213.481 70.4288 213.451 72.7234 213.465 75.0179C213.465 75.364 213.401 75.5074 213.029 75.4692C212.683 75.433 212.333 75.433 211.986 75.4692C211.612 75.5084 211.549 75.3573 211.55 75.0141C211.562 71.891 211.562 68.7694 211.55 65.6494C211.55 64.5681 211.497 63.4878 211.455 62.4065C211.444 62.1455 211.507 62.0298 211.789 62.0566C212.286 62.1024 212.937 61.8501 213.239 62.1617C213.479 62.4084 213.303 63.0662 213.309 63.5413C213.316 63.8358 213.316 64.135 213.316 64.4343Z" fill="#1D1D1D"/>
<path d="M157.461 64.4056C158.045 63.2975 158.851 62.4696 160.011 62.0155C160.936 61.6541 161.887 61.6426 162.852 61.7927C163.102 61.8319 163.192 61.9447 163.124 62.2105C163.02 62.6104 162.937 63.0153 162.874 63.4237C162.837 63.656 162.791 63.7412 162.52 63.6924C159.346 63.1254 157.555 65.7785 157.608 68.0788C157.661 70.3791 157.608 72.6679 157.629 74.9558C157.629 75.3382 157.567 75.5122 157.155 75.4606C156.691 75.4032 156.065 75.6575 155.8 75.3564C155.569 75.0944 155.729 74.4797 155.728 74.0179C155.728 71.6143 155.739 69.2108 155.722 66.8063C155.713 65.3273 155.672 63.8492 155.62 62.3711C155.611 62.1158 155.647 62.0145 155.905 62.0518C155.92 62.0528 155.936 62.0528 155.952 62.0518C156.439 62.0623 157.077 61.8883 157.375 62.1331C157.673 62.3778 157.447 63.0556 157.47 63.5423C157.472 63.8329 157.461 64.1197 157.461 64.4056Z" fill="#1D1D1D"/>
<path d="M61.3544 102.733C61.3344 103.748 61.1722 104.732 60.6532 105.619C59.8138 107.053 58.4183 107.108 57.4576 105.747C56.8885 104.947 56.6343 104.026 56.5412 103.07C56.4464 102.049 56.5119 101.036 56.8846 100.063C57.0229 99.6894 57.2189 99.3397 57.4653 99.0276C58.2477 98.0526 59.3625 98.0332 60.18 98.9904C60.8087 99.7228 61.1056 100.606 61.2612 101.545C61.3332 101.937 61.3644 102.335 61.3544 102.733Z" fill="#3A709A"/>
<path d="M29.6504 54.8822C28.1564 54.8433 26.7268 54.2602 25.6266 53.2406C25.5562 53.1768 25.49 53.1084 25.4283 53.036C25.0783 52.6268 24.7548 52.1756 24.9844 51.6182C25.2263 51.0379 25.7897 50.9729 26.3465 50.9614C27.9364 50.9289 29.3004 51.5082 30.5089 52.5102C30.7408 52.7029 30.9404 52.9322 31.0998 53.189C31.6102 54.0074 31.263 54.7637 30.3116 54.8784C30.0915 54.8927 29.8707 54.894 29.6504 54.8822Z" fill="#235F8F"/>
<path d="M69.994 98.8863C70.0144 99.3343 69.9281 99.7807 69.7429 100.188C69.4934 100.701 69.0513 100.827 68.5658 100.531C68.272 100.34 68.0252 100.085 67.8446 99.7838C66.9986 98.4663 66.6474 97.0274 66.8657 95.4674C66.9247 95.0467 67.0875 94.6434 67.5296 94.5025C67.9451 94.3717 68.2716 94.6201 68.5303 94.9062C69.5569 96.0303 69.9069 97.4121 69.994 98.8863Z" fill="#5382A7"/>
<path d="M92.7381 87.2005C92.7381 88.0944 92.7227 88.8412 92.7454 89.5857C92.755 89.9079 92.6507 89.9863 92.3423 89.9843C92.0342 89.9828 91.8967 89.93 91.9041 89.5725C91.9268 88.4577 91.9041 87.3421 91.9175 86.2262C91.9175 86.0713 91.8047 85.8228 92.04 85.7768C92.2753 85.731 92.5529 85.6727 92.7635 85.9576C93.2633 86.6383 93.7955 87.2886 94.3172 87.948C94.3723 88.0168 94.4123 88.1146 94.5914 88.1212C94.5914 87.49 94.6002 86.8628 94.5914 86.2367C94.586 85.9375 94.5868 85.7329 94.9995 85.7386C95.3742 85.7386 95.4385 85.8725 95.4327 86.21C95.4139 87.3247 95.4327 88.4406 95.4204 89.5562C95.4204 89.6948 95.5248 89.9059 95.3003 89.9595C95.1027 90.0064 94.9121 89.996 94.7566 89.7875C94.2252 89.0745 93.6742 88.3773 93.1289 87.6748C93.0319 87.5502 92.9306 87.4337 92.7381 87.2005Z" fill="#727272"/>
<path d="M37.3347 51.0802C36.0219 50.889 34.9196 50.324 34.1238 49.2197C33.9283 48.9482 33.8392 48.626 34.0033 48.3239C34.1674 48.0218 34.4861 47.9806 34.7925 48.0065C36.1205 48.1202 37.1867 48.7283 38.0082 49.7742C38.233 50.061 38.3572 50.4043 38.1789 50.7494C38.0091 51.0773 37.6657 51.0726 37.3347 51.0802Z" fill="#608AAE"/>
<path d="M76.8484 90.1039C76.2042 90.0752 75.6219 89.9261 75.2357 89.3516C75.1599 89.2375 74.9901 89.0648 75.23 88.9623C75.4198 88.8812 75.6096 88.5447 75.8684 88.8773C76.2677 89.3889 76.8172 89.3994 77.3759 89.2856C77.6308 89.234 77.8503 89.0819 77.8607 88.7748C77.8711 88.4682 77.6793 88.3063 77.4167 88.2415C77.0809 88.1584 76.7355 88.1161 76.3978 88.0447C75.5981 87.8743 75.2546 87.471 75.2804 86.7558C75.2839 86.6206 75.3143 86.4874 75.3701 86.3645C75.426 86.2415 75.5064 86.1314 75.6058 86.0406C76.2319 85.4383 77.6554 85.4412 78.2711 86.0588C78.3805 86.1678 78.6165 86.3313 78.4494 86.4727C78.2827 86.6143 78.0701 86.9059 77.7656 86.6315C77.4186 86.3141 76.9981 86.2787 76.5657 86.3552C76.3 86.402 76.0732 86.555 76.0732 86.8523C76.0732 87.1496 76.305 87.247 76.5476 87.2967C76.8722 87.3627 77.2003 87.4058 77.523 87.4776C78.3224 87.6565 78.6897 88.0637 78.6885 88.75C78.6885 89.3784 78.2808 89.8372 77.5438 90.0131C77.3139 90.0561 77.0817 90.0868 76.8484 90.1039Z" fill="#717171"/>
<path d="M63.0032 87.2121C63.0032 86.8476 63.0032 86.5427 63.0032 86.2425C63.0032 85.7903 63.2669 85.6124 63.687 85.7645C63.89 85.8362 63.8141 85.9978 63.8153 86.122C63.8237 86.822 63.8076 87.5226 63.8226 88.2252C63.838 88.908 64.2469 89.3229 64.8719 89.3256C65.4968 89.3287 65.8803 88.9386 65.9 88.2167C65.9192 87.5168 65.9219 86.8162 65.9 86.1134C65.8896 85.8017 66.0062 85.731 66.2796 85.753C66.5207 85.7702 66.754 85.7185 66.7282 86.1077C66.6836 86.9163 66.769 87.733 66.6712 88.538C66.5557 89.4941 65.9123 90.06 64.9373 90.0744C63.9073 90.0895 63.1996 89.5236 63.0486 88.58C62.9766 88.099 63.0182 87.6232 63.0032 87.2121Z" fill="#727272"/>
<path d="M55.7581 90.0685C54.744 90.0685 53.989 89.5628 53.6997 88.6956C53.3819 87.7392 53.674 86.638 54.3883 86.0978C55.1415 85.5242 56.2959 85.5079 57.0445 86.0634C57.1554 86.1456 57.4522 86.2164 57.2197 86.4315C57.0614 86.5778 56.9875 86.9326 56.592 86.6896C55.6072 86.0845 54.4813 86.6227 54.394 87.7039C54.3494 88.2605 54.468 88.7663 54.9631 89.0787C55.4583 89.3916 56.0113 89.3831 56.5396 89.0962C56.6055 89.057 56.679 89.0322 56.7549 89.0232C56.8311 89.0147 56.9081 89.0221 56.9809 89.045C57.0541 89.0679 57.1215 89.1063 57.1788 89.1571C57.2366 89.2084 57.2828 89.2709 57.3148 89.3407C57.4095 89.5243 57.2539 89.5694 57.1677 89.6342C56.7645 89.9439 56.2643 90.098 55.7581 90.0685Z" fill="#727272"/>
<path d="M81.8237 87.9585C81.8237 87.0176 82.1375 86.3331 82.8957 85.9344C83.6735 85.53 84.4748 85.5271 85.2291 86.03C85.3543 86.1132 85.675 86.1801 85.4652 86.422C85.3181 86.5912 85.2045 86.9489 84.8013 86.6744C84.551 86.5026 84.2526 86.4165 83.95 86.4287C83.6477 86.4409 83.357 86.5509 83.1213 86.7423C82.6631 87.1189 82.4945 87.7738 82.6943 88.3925C82.9677 89.2375 83.96 89.5628 84.8106 89.0857C84.8791 89.0512 84.9542 89.0318 85.0304 89.0279C85.1071 89.0244 85.1833 89.0368 85.2545 89.0648C85.3262 89.0927 85.3909 89.135 85.4452 89.1894C85.4994 89.2441 85.5418 89.3093 85.5695 89.3811C85.635 89.5628 85.4748 89.5969 85.3855 89.6556C84.5953 90.1862 83.7463 90.2289 82.9115 89.8275C82.1179 89.4471 81.816 88.7298 81.8237 87.9585Z" fill="#727272"/>
<path d="M60.0086 85.7529C60.4826 85.7529 60.957 85.7653 61.4314 85.7481C61.7159 85.7376 61.734 85.8906 61.7236 86.1057C61.714 86.2969 61.7518 86.5091 61.4549 86.4948C61.3925 86.4948 61.329 86.4948 61.2654 86.4948C60.3937 86.5063 60.3937 86.5063 60.3937 87.3646C60.3937 88.1297 60.3775 88.8944 60.4002 89.6594C60.4118 90.0235 60.198 89.9738 59.9763 89.9777C59.7541 89.9816 59.5512 90.0006 59.5596 89.6478C59.5827 88.7414 59.5596 87.8312 59.575 86.928C59.5816 86.6038 59.5019 86.4499 59.1576 86.4948C59.0021 86.5149 58.8419 86.4871 58.6832 86.5005C58.3875 86.5254 58.2262 86.4699 58.2242 86.098C58.2242 85.7041 58.446 85.7548 58.6825 85.7548C59.1249 85.7548 59.5669 85.7542 60.0086 85.7529Z" fill="#737373"/>
<path d="M44.6643 51.3481C43.9406 51.3213 42.5386 50.2964 42.3014 49.6137C42.1373 49.1443 42.3517 48.8575 42.8232 48.9847C43.7717 49.238 44.5391 49.7734 45.0485 50.6281C45.3132 51.0727 45.1339 51.3653 44.6643 51.3481Z" fill="#9DB8CD"/>
<path d="M72.9411 87.8685C72.9411 87.2653 72.9554 86.6611 72.9357 86.0579C72.9254 85.7347 73.1102 85.7395 73.3266 85.7529C73.5426 85.7663 73.7771 85.6716 73.7732 86.0512C73.7586 87.2583 73.7586 88.4655 73.7732 89.6726C73.7732 89.9998 73.5938 89.9863 73.3805 89.9738C73.1672 89.9614 72.9223 90.0639 72.9346 89.6804C72.9554 89.076 72.9404 88.4721 72.9411 87.8685Z" fill="#747474"/>
<path d="M49.5183 51.6375C50.0324 51.692 51.2257 52.7169 51.3689 53.2322C51.4581 53.5458 51.3452 53.6835 51.0179 53.6433C50.4687 53.5764 49.3105 52.5228 49.1853 51.9721C49.1255 51.7063 49.2261 51.6069 49.5183 51.6375Z" fill="#B6C9DA"/>
<path d="M56.6116 56.7036C56.6486 57.0038 56.4352 57.0124 56.217 56.9837C55.7901 56.9264 54.9838 56.085 54.9175 55.6395C54.888 55.4359 54.9497 55.2915 55.1783 55.2743C55.7047 55.2351 56.6116 56.129 56.6116 56.7036Z" fill="#E6ECF2"/>
<path d="M100.626 62.0568C99.6144 62.0568 99.6094 62.0568 99.3372 63.0272C98.5994 65.6672 97.8636 68.3078 97.13 70.9491C96.9518 71.4132 96.8185 71.8935 96.7315 72.3832C96.591 72.4942 96.703 72.7446 96.4851 72.823C96.4073 72.5802 96.333 72.3392 96.2537 72.0993C95.6584 70.3146 95.0627 68.53 94.4662 66.7453C94.4812 66.644 94.4554 66.5409 94.3954 66.4585C94.3907 66.4504 94.3842 66.4438 94.3761 66.4394C93.9314 65.0502 93.4816 63.6668 93.0481 62.27C92.9818 62.0578 92.849 62.0597 92.6869 62.0606C92.2448 62.0606 91.8009 62.0797 91.3588 62.0549C91.0839 62.0386 90.9849 62.1447 90.9044 62.3981C90.3942 64.0005 89.8609 65.5961 89.3411 67.1937C88.7239 69.0657 88.1128 70.9425 87.4563 72.954C87.2372 72.1891 87.0523 71.5572 86.8729 70.9224C86.0774 68.0975 85.2811 65.2733 84.4836 62.4497C84.4401 62.2958 84.4836 62.0482 84.1836 62.0539C83.5133 62.0654 82.8425 62.0539 82.1425 62.0539C82.1983 62.2451 82.2372 62.379 82.2799 62.5138L85.8144 73.7695C85.9853 74.3145 86.0042 75.0449 86.3685 75.3547C86.7612 75.6865 87.4897 75.413 88.0693 75.4589C88.3754 75.4838 88.494 75.3633 88.586 75.0765C89.4609 72.2934 90.3553 69.516 91.2421 66.7377C91.4747 66.013 91.7165 65.2902 91.9915 64.4431C92.0866 64.73 92.1308 64.8762 92.1813 65.0254L93.241 68.2693C93.8736 70.3181 94.507 72.367 95.2148 74.3881C95.1701 74.5917 95.3287 74.7428 95.3515 74.9273C95.4065 75.3824 95.6664 75.5009 96.0942 75.4589C96.4704 75.4233 96.8493 75.4233 97.2259 75.4589C97.5502 75.4866 97.6888 75.3738 97.7808 75.0574C98.1809 73.6835 98.6098 72.3182 99.028 70.9463C99.5913 69.1827 100.155 67.419 100.718 65.6554C101.097 64.4661 101.465 63.2729 101.848 62.0472L100.626 62.0568Z" fill="#1E1E1E"/>
<path d="M63.3351 67.4105C63.0895 66.4334 62.8761 65.4429 62.2138 64.6379C62.1172 64.4757 62.0105 64.3199 61.8942 64.1713C59.942 61.9571 57.49 61.3184 54.6851 61.937C53.2784 62.2477 52.124 63.025 51.1868 64.2966C51.1868 63.5776 51.1754 62.9782 51.1925 62.3787C51.1991 62.1301 51.1308 62.0403 50.8766 62.0536C50.4977 62.0824 50.1172 62.0824 49.7383 62.0536C49.3513 62.0154 49.2792 62.1636 49.2811 62.5259C49.2944 65.7918 49.2887 69.0578 49.2887 72.3247C49.2887 75.973 49.2887 79.6213 49.2811 83.2697C49.2811 83.5966 49.3475 83.7238 49.6909 83.6913C50.0379 83.6574 50.3873 83.6574 50.7343 83.6913C51.1213 83.7314 51.1972 83.5794 51.1953 83.2133C51.1811 80.0908 51.1868 76.9682 51.1868 73.8438C51.1868 73.6756 51.1868 73.5073 51.1868 73.2453C51.5263 73.6163 51.7559 73.9518 52.0708 74.2148C53.8371 75.6976 55.8651 76.0896 58.0675 75.6269C61.9851 74.8018 64.0209 71.1124 63.3351 67.4105ZM60.9582 71.0665C60.1831 72.9183 58.5004 74.0398 56.4608 74.0542C54.243 74.0695 52.3819 72.882 51.5339 70.9125C50.5854 68.7136 51.2171 66.0509 53.0298 64.6073C54.9051 63.1139 57.6143 63.0489 59.4507 64.4467C59.9486 64.8291 60.3178 65.3157 60.6771 65.8176C61.0075 66.4745 61.2038 67.1762 61.3679 67.8894C61.4495 68.9755 61.386 70.0435 60.9582 71.0665Z" fill="#1D1E1A"/>
<path d="M206.556 69.2533L206.581 69.2437C206.612 69.2559 206.643 69.2646 206.676 69.2695C207.824 69.3326 207.845 69.3317 207.814 68.1777C207.675 62.9786 203.213 60.6965 199.167 62.1019C196.009 63.1985 194.197 66.649 194.86 70.1176C195.499 73.4638 197.947 75.6446 201.344 75.7956C203.424 75.8912 205.26 75.2163 206.729 73.6789C207.393 72.9877 207.379 72.9762 206.655 72.3777C206.503 72.2636 206.359 72.1397 206.222 72.0067C205.982 71.7486 205.848 71.7897 205.624 72.0718C204.283 73.7592 202.538 74.3835 200.448 73.9045C199.156 73.6082 198.215 72.7754 197.488 71.6817C197.135 71.0728 196.9 70.4018 196.796 69.7045C196.731 69.3785 196.856 69.2867 197.126 69.2724H198C200.676 69.282 203.352 69.2782 206.028 69.2724C206.199 69.2724 206.375 69.3106 206.54 69.2313L206.556 69.2533ZM205.348 67.7083C202.708 67.7083 200.069 67.7083 197.429 67.7083C197.224 67.7083 197.018 67.714 196.813 67.7169C196.634 67.6548 196.841 67.5716 196.801 67.5018C197.115 64.6556 200.371 62.4767 203.536 63.8639C204.858 64.4433 205.775 65.9807 205.75 67.432C205.743 67.7924 205.533 67.7083 205.348 67.7083Z" fill="#1D1D1D"/>
<path d="M177.54 66.071C177.495 65.8582 177.405 65.6577 177.277 65.483C177.281 65.3692 177.209 65.2918 177.148 65.2124C176.291 63.6254 175.004 62.5769 173.286 62.067C172.282 61.7149 171.207 61.6141 170.156 61.7735C169.319 61.8146 168.499 62.0215 167.743 62.3824C166.986 62.7433 166.307 63.2511 165.745 63.8768C164.174 65.5901 163.65 67.6628 164.007 69.9278C164.42 72.5426 165.846 74.3935 168.353 75.3305C169.54 75.7989 170.77 75.886 172.023 75.7244C177.131 75.0695 179.06 69.9392 177.54 66.071ZM175.719 70.5167C174.96 73.0512 172.531 74.5054 169.949 73.9652C169.636 73.9002 169.296 73.926 169.016 73.7262C165.987 72.4068 165.412 68.7451 166.463 66.3454C166.858 65.418 167.533 64.6398 168.392 64.1213C169.251 63.6028 170.251 63.3704 171.249 63.4571C171.38 63.4676 171.512 63.4695 171.644 63.4743L171.651 63.4609L171.673 63.4753L172.907 63.7774C174.343 64.4285 175.263 65.5385 175.758 67.028C176.016 68.1944 176.066 69.3589 175.72 70.5167H175.719Z" fill="#1D1D1B"/>
<path d="M70.7028 88.5074C71.5346 88.125 71.8411 87.5708 71.6712 86.8153C71.5261 86.1623 70.9693 85.7637 70.1772 85.755C69.6243 85.7493 69.0713 85.7617 68.5192 85.7503C68.2935 85.7503 68.1769 85.7837 68.1796 86.0562C68.193 87.2657 68.1796 88.4759 68.188 89.6893C68.188 89.7848 68.1445 89.9063 68.2916 89.9704C68.6709 90.1365 68.9936 89.9311 69.0009 89.5065C69.0009 89.3796 68.9897 89.2503 69.0009 89.1242C69.0221 88.9328 68.8542 88.6549 69.1176 88.5831C69.3813 88.5113 69.7086 88.4806 69.9269 88.7973C70.0883 89.0306 70.3289 89.2111 70.4772 89.451C70.8137 89.9991 71.29 90.0592 71.9131 89.9292L70.7028 88.5074ZM70.0228 87.8126H69.7379C69.612 87.8126 69.4849 87.8029 69.3586 87.8126C69.1006 87.8363 69.004 87.7416 68.9936 87.4656C68.9601 86.5151 68.9489 86.5151 69.8888 86.5161H70.0313C70.6004 86.5218 70.8961 86.7493 70.8927 87.1702C70.8888 87.5906 70.6043 87.8087 70.0236 87.8126H70.0228Z" fill="#727272"/>
<path d="M104.09 85.7629C103.571 85.7381 103.047 85.7629 102.527 85.7476C102.257 85.7371 102.169 85.8318 102.176 86.1023C102.192 86.676 102.181 87.2498 102.181 87.8231C102.181 88.4286 102.189 89.0337 102.181 89.6396C102.181 89.8729 102.227 89.9898 102.492 89.9801C103.029 89.9618 103.568 89.9964 104.105 89.9676C105.22 89.9075 105.947 89.052 105.943 87.8366C105.937 86.6587 105.191 85.8155 104.09 85.7629ZM105.119 87.9496C105.094 88.6855 104.635 89.1533 103.896 89.1925C102.997 89.2422 102.997 89.2422 102.997 88.3576C102.997 87.9601 102.99 87.5622 102.997 87.1644C103.011 86.4389 102.855 86.5278 103.652 86.5173C104.678 86.5335 105.151 86.9951 105.119 87.9496Z" fill="#737373"/>
<path d="M100.956 89.7235C100.392 88.4654 99.842 87.2024 99.2718 85.947C99.1428 85.6602 98.3534 85.6478 98.2283 85.9289C97.6233 87.2521 97.0381 88.5831 96.4127 89.9843C96.7924 89.8888 97.2229 90.2063 97.3842 89.7522C97.5652 89.2418 97.8736 89.1412 98.348 89.187C98.7415 89.215 99.1362 89.215 99.5298 89.187C99.7546 89.1777 99.909 89.2522 99.9472 89.4739C100.042 89.9692 100.373 90.0227 100.789 89.9789C100.982 89.9587 101.044 89.9203 100.956 89.7235ZM97.998 88.4099L98.7423 86.6784L99.4797 88.4099H97.998Z" fill="#727272"/>
<path d="M111.319 89.8446C110.75 88.5559 110.172 87.2699 109.611 85.9764C109.464 85.6361 109.192 85.7852 108.964 85.7547C108.736 85.7241 108.591 85.7776 108.49 86.0214C108.147 86.8387 107.776 87.6468 107.415 88.4546C107.199 88.9421 106.983 89.4297 106.751 89.9459C107.274 89.9995 107.741 90.0934 107.866 89.4366C107.904 89.2356 108.061 89.1859 108.261 89.1909C108.797 89.2034 109.332 89.1983 109.868 89.1909C110.037 89.1909 110.192 89.2034 110.235 89.4029C110.374 90.036 110.81 90.0492 111.311 89.9335C111.315 89.9059 111.329 89.8694 111.319 89.8446ZM109.524 88.4298C109.145 88.4298 108.771 88.4298 108.308 88.4298L109.057 86.6782C109.307 87.2575 109.527 87.7482 109.73 88.2434C109.819 88.4604 109.637 88.4286 109.524 88.4298Z" fill="#727272"/>
<path d="M51.11 85.9831C51.035 85.8129 50.9297 85.7661 50.7514 85.7451C50.3084 85.6944 49.9831 85.7871 49.874 86.2814C49.8355 86.4024 49.7853 86.5193 49.7241 86.6304L48.2643 89.9335C48.8068 90.0379 49.2508 90.0293 49.393 89.4009C49.4405 89.1944 49.597 89.1925 49.762 89.1936C50.2989 89.1936 50.8349 89.1995 51.3746 89.1936C51.5473 89.1936 51.7 89.2138 51.7417 89.406C51.8802 90.0406 52.3223 90.0457 52.8733 89.9346C52.271 88.5873 51.6886 87.2874 51.11 85.9831ZM50.1121 88.4325C49.8901 88.4375 49.8275 88.3657 49.9223 88.1526C50.1272 87.6946 50.3217 87.2319 50.5598 86.6811L51.3186 88.4305C50.8681 88.4305 50.4924 88.4251 50.1168 88.4325H50.1121Z" fill="#717171"/>
<path d="M89.0111 85.9451C88.8667 85.6286 88.0939 85.6583 87.943 85.9795C87.6927 86.5111 87.4686 87.0533 87.226 87.5905C86.8814 88.3669 86.5352 89.1432 86.1825 89.9463C86.7127 89.9987 87.1833 90.0802 87.3038 89.4254C87.3377 89.2418 87.4751 89.189 87.6584 89.1921C88.2118 89.201 88.7651 89.201 89.3184 89.1921C89.5013 89.1921 89.6372 89.2406 89.673 89.4254C89.7974 90.0666 90.2537 90.0161 90.7963 89.9405C90.1909 88.578 89.6095 87.2567 89.0111 85.9451ZM88.9618 88.4309C88.6457 88.4212 88.3292 88.4212 88.0131 88.4309C87.8309 88.4356 87.735 88.3975 87.8236 88.1937C88.0254 87.7338 88.2268 87.273 88.4817 86.6908C88.737 87.2723 88.938 87.733 89.1409 88.1918C89.2341 88.3936 89.1478 88.4387 88.958 88.4336L88.9618 88.4309Z" fill="#717171"/>
<path d="M80.1359 67.6975L80.1132 67.4107C80.0366 66.9815 79.9788 66.5503 79.7605 66.1583C79.5865 65.5179 79.2611 64.9296 78.8117 64.4441C78.6781 64.0722 78.3805 63.8303 78.1082 63.5779C76.3893 61.9822 74.325 61.4621 72.0686 61.7852C69.3301 62.1772 67.4271 63.684 66.4976 66.3562L66.4664 66.5092C66.2927 66.7443 66.3031 67.0321 66.2396 67.2989C66.1572 67.4843 66.193 67.6813 66.1892 67.8725C66.0717 68.4506 66.0717 69.0469 66.1892 69.625C66.1818 69.9118 66.1722 70.1986 66.3058 70.4663C66.302 70.652 66.3582 70.8339 66.4664 70.9845C66.5369 71.4163 66.6986 71.8278 66.9404 72.1911C67.0059 72.3686 67.106 72.5311 67.2346 72.6691C67.5515 73.347 68.0771 73.8623 68.6528 74.2868C71.0243 76.0363 73.6158 76.2744 76.2838 75.131C79.3878 73.8078 80.6103 70.4329 80.1359 67.6975ZM77.8595 70.7159C76.7135 74.0238 73.2846 74.6549 70.935 73.5793C69.647 72.9903 68.8984 71.9654 68.4591 70.6604C68.0097 69.9347 68.0351 69.1221 68.0655 68.3181C68.0929 67.7964 68.1938 67.2813 68.3651 66.7883C68.4075 66.6172 68.5084 66.4665 68.6497 66.3629C69.3851 64.7873 70.5765 63.772 72.2981 63.5196C74.2045 63.2404 75.8541 63.7662 77.0959 65.3361C77.1275 65.3705 77.1614 65.4025 77.1976 65.4317L77.7921 66.5579L77.8737 66.7491C78.1668 67.0828 78.2114 67.4767 78.1517 67.8964C78.181 68.8458 78.1737 69.7942 77.8549 70.7159H77.8595Z" fill="#1D1E1A"/>
<path d="M116.76 67.6639C116.698 66.2719 116.251 65.0118 115.367 63.9496C113.747 62.0021 111.618 61.4046 109.201 61.829C107.205 62.1809 105.667 63.2631 104.689 65.0911C104.562 65.2353 104.472 65.4086 104.426 65.5959C104.047 66.291 103.873 67.0492 103.797 67.8255C103.549 70.36 104.243 72.5609 106.196 74.2474C108.771 76.4702 113.362 76.4215 115.91 73.4701C116.446 72.8477 116.421 73.0265 115.835 72.5303C115.62 72.3678 115.415 72.1932 115.219 72.0073C114.974 71.7473 114.851 71.7731 114.626 72.0685C113.079 74.0877 110.389 74.6623 108.27 73.4204C106.721 72.5121 105.969 71.078 105.75 69.3246C105.92 69.3083 106.092 69.2778 106.263 69.2778C109.488 69.2778 112.713 69.2778 115.938 69.2778C116.065 69.2844 116.223 69.2778 116.433 69.2778C116.51 69.2831 116.587 69.2714 116.658 69.2433C116.785 69.2672 116.83 69.1965 116.825 69.0846C116.809 68.6104 116.892 68.1314 116.76 67.6639ZM106.102 67.7184C105.857 67.7184 105.807 67.6123 105.818 67.4106C105.799 67.3817 105.79 67.3474 105.792 67.3128C105.794 67.2783 105.808 67.2454 105.83 67.2194C106.004 66.3589 106.433 65.6237 106.991 64.9592C108.204 63.788 109.627 63.2737 111.304 63.5012C113.391 63.7804 114.719 65.3808 114.758 67.6974C111.873 67.7002 108.988 67.7079 106.103 67.7184H106.102Z" fill="#1D1D1D"/>
<path d="M151.737 66.1657C151.031 64.2128 149.709 62.881 147.769 62.1703C144.746 61.1808 142.101 61.7076 139.911 64.2192V63.6991C139.911 60.5441 139.907 57.3891 139.918 54.2388C139.918 53.9185 139.86 53.7771 139.512 53.8115C139.182 53.8473 138.848 53.8473 138.518 53.8115C138.092 53.7598 138.003 53.9147 138.004 54.3315C138.018 60.8615 138.012 67.3905 138.018 73.9204C138.018 74.4233 137.795 75.1145 138.113 75.3784C138.431 75.6422 139.08 75.4338 139.582 75.4634C139.867 75.4807 139.92 75.3678 139.913 75.1078C139.897 74.5141 139.909 73.9204 139.909 73.2636C140.214 73.5924 140.441 73.8783 140.708 74.1173C142.255 75.5017 144.078 75.9788 146.107 75.7369C151.201 75.1308 153.201 70.0799 151.737 66.1657ZM149.902 70.424C149.253 72.623 147.564 73.9672 145.339 74.0571C143.024 74.146 140.976 72.8678 140.2 70.7424C139.434 68.639 139.742 66.6657 141.313 65.0433C142.883 63.4209 144.818 63.0929 146.936 63.7698C147.184 63.8492 147.42 63.9706 147.662 64.0729C148.812 64.7966 149.537 65.8435 149.948 67.1323C150.165 68.2279 150.225 69.3332 149.902 70.425V70.424Z" fill="#1E1E1E"/>
</g>
<defs>
<clipPath id="clip0_0_31">
<rect width="201" height="59" fill="white" transform="translate(18 48)"/>
</clipPath>
</defs>
</svg>
