<svg width="241" height="150" viewBox="0 0 241 150" fill="none" xmlns="http://www.w3.org/2000/svg">
<rect width="241" height="150" rx="20" fill="white"/>
<g clip-path="url(#clip0_1954_611)">
<path d="M46.7948 94.7023C58.8298 94.7023 68.5896 84.9173 68.5896 72.8512C68.5896 60.785 58.8298 51 46.7948 51C34.7598 51 25 60.785 25 72.8512C25 84.9173 34.7551 94.7023 46.7948 94.7023Z" fill="#2CA01C"/>
<path d="M39.5251 64.3496C34.8437 64.3496 31.0454 68.1578 31.0454 72.8512C31.0454 77.5446 34.8344 81.3434 39.5251 81.3434H40.7351V78.191H39.5251C36.5864 78.191 34.199 75.7975 34.199 72.8512C34.199 69.9049 36.5864 67.5114 39.5251 67.5114H42.4357V84.0227C42.4357 85.7605 43.8466 87.1751 45.58 87.1751V64.3496H39.5251ZM54.0596 81.3434C58.7409 81.3434 62.5392 77.5353 62.5392 72.8512C62.5392 68.1671 58.7503 64.359 54.0596 64.359H52.8496V67.5114H54.0596C56.9983 67.5114 59.3857 69.9049 59.3857 72.8512C59.3857 75.7975 56.9983 78.191 54.0596 78.191H51.149V61.6797C51.149 59.9419 49.738 58.5273 48.0047 58.5273V81.3434H54.0596Z" fill="white"/>
<path d="M89.2769 100H85.9038V91.4423H85.8477C84.9787 92.7913 83.2641 93.6345 81.3766 93.6345C77.2746 93.6345 74.7471 90.3697 74.7471 86.4257C74.7471 82.4817 77.4475 79.3246 81.2925 79.3246C83.764 79.3246 85.2824 80.5331 85.9552 81.6058H86.0392V79.7181H89.2676V100H89.2769ZM82.0587 90.8146C84.5302 90.8146 86.0159 88.5897 86.0159 86.4772C86.0159 84.3647 84.5302 82.0836 82.0587 82.0836C79.4518 82.0836 78.1856 84.3085 78.1856 86.421C78.1856 88.5335 79.4471 90.8146 82.0587 90.8146ZM104.405 93.2363H101.205V91.0629H101.148C100.56 92.4119 98.962 93.6251 96.9623 93.6251C93.449 93.6251 91.9914 90.9177 91.9914 88.1635V79.7134H95.3645V87.2032C95.3645 88.8099 95.7243 90.8053 97.8921 90.8053C100.06 90.8053 101.036 88.9457 101.036 87.147V79.7134H104.409V93.2269V93.2363H104.405ZM107.792 79.4277H111.165V92.9506H107.792V79.4277ZM123.766 83.4653C123.233 82.7065 122.079 82.1351 120.981 82.1351C118.51 82.1351 117.271 84.36 117.271 86.4725C117.271 88.585 118.538 90.81 121.088 90.81C122.13 90.81 123.275 90.3837 123.929 89.6015L126.031 91.7374C124.905 92.9459 123.051 93.6251 121.06 93.6251C117.071 93.6251 113.758 90.9786 113.758 86.4725C113.758 81.9664 117.014 79.32 120.976 79.32C122.943 79.32 124.994 80.1069 126.064 81.4278L123.761 83.4513H123.77L123.766 83.4653ZM127.732 71.9472H131.105V85.4045H131.189L136.305 79.7181H140.631L134.787 85.8308L141 93.2363H136.539L131.199 86.3039H131.115V93.2363H127.741V71.9519L127.732 71.9426V71.9472ZM145.897 71.9472V81.4418H145.981C146.682 80.5706 148.027 79.334 150.508 79.334C154.353 79.334 157.053 82.4302 157.053 86.435C157.053 90.4399 154.526 93.6438 150.424 93.6438C148.541 93.6438 146.714 92.7726 145.794 91.2222H145.738V93.255H142.538V71.9566H145.911L145.901 71.9472H145.897ZM149.746 82.0882C147.275 82.0882 145.789 84.3694 145.789 86.4819C145.789 88.5944 147.275 90.8193 149.746 90.8193C152.358 90.8193 153.619 88.5382 153.619 86.4257C153.619 84.3132 152.358 82.0882 149.746 82.0882ZM165.837 79.3293C169.911 79.3293 173.167 82.1772 173.167 86.4304C173.167 90.6835 169.911 93.6391 165.837 93.6391C161.763 93.6391 158.506 90.6835 158.506 86.4304C158.506 82.1772 161.763 79.3293 165.837 79.3293ZM165.837 90.8146C168.509 90.8146 169.738 88.5335 169.738 86.421C169.738 84.3085 168.504 82.0836 165.837 82.0836C163.169 82.0836 161.936 84.3085 161.936 86.421C161.936 88.5335 163.169 90.8146 165.837 90.8146ZM181.974 79.3293C186.048 79.3293 189.304 82.1772 189.304 86.4304C189.304 90.6835 186.048 93.6391 181.974 93.6391C177.9 93.6391 174.643 90.6835 174.643 86.4304C174.643 82.1772 177.9 79.3293 181.974 79.3293ZM181.974 90.8146C184.646 90.8146 185.875 88.5335 185.875 86.421C185.875 84.3085 184.641 82.0836 181.974 82.0836C179.306 82.0836 178.073 84.3085 178.073 86.421C178.073 88.5335 179.306 90.8146 181.974 90.8146ZM191.341 71.9472H194.714V85.4045H194.798L199.914 79.7181H204.236L198.4 85.8308L204.605 93.2363H200.143L194.803 86.3039H194.719V93.2363H191.346V71.9519V71.9426L191.341 71.9472ZM213.804 83.3248C213.215 82.5379 212.089 81.8634 210.856 81.8634C209.795 81.8634 208.688 82.2615 208.688 83.3342C208.688 84.4068 209.73 84.6645 211.608 85.1095C213.608 85.5919 215.962 86.4866 215.962 89.1377C215.962 92.4306 213.29 93.6485 210.347 93.6485C208.272 93.6485 206.105 92.8616 204.806 91.4236L207.025 89.3438C207.754 90.3041 209.025 91.0348 210.482 91.0348C211.468 91.0348 212.65 90.6367 212.65 89.4282C212.65 88.2993 211.608 87.9667 209.562 87.4843C207.562 87.0018 205.572 86.1915 205.572 83.6574C205.572 80.6409 208.272 79.3527 210.94 79.3527C212.874 79.3527 214.897 80.0272 215.995 81.4044L213.813 83.3482L213.799 83.3248H213.804ZM111.679 61.2676C111.679 64.6963 114.412 67.1976 117.893 67.1976C121.373 67.1976 124.111 64.6963 124.111 61.2676V53.3983H120.738V60.8694C120.738 62.7149 119.505 63.9562 117.883 63.9562C116.262 63.9562 115.024 62.7196 115.024 60.8694V53.3983H111.66L111.684 61.2676H111.679ZM133.119 56.5601H137.141V66.9259H140.505V56.5601H144.523V53.3983H133.119V56.5601ZM130.942 53.3983H127.578V66.9353H130.942V53.3983ZM98.0883 56.5601H102.111V66.9259H105.475V56.5601H109.493V53.3983H98.0976V56.5601H98.0883ZM80.4235 53.3983H77.0597V66.9353H80.4235V53.3983ZM96.3176 59.0614C96.3176 55.6326 93.5752 53.1313 90.0992 53.1313C86.6232 53.1313 83.8808 55.6326 83.8808 59.0614V66.9306H87.2446V59.4595C87.2446 57.614 88.478 56.3727 90.0992 56.3727C91.7204 56.3727 92.9538 57.6093 92.9538 59.4595V66.9306H96.3176V59.0614Z" fill="black"/>
</g>
<defs>
<clipPath id="clip0_1954_611">
<rect width="191" height="49" fill="white" transform="translate(25 51)"/>
</clipPath>
</defs>
</svg>
