<svg width="241" height="150" viewBox="0 0 241 150" fill="none" xmlns="http://www.w3.org/2000/svg">
<rect x="0.5" y="0.5" width="240" height="149" rx="19.5" fill="white" stroke="#E7E7E7"/>
<g clip-path="url(#clip0_0_131)">
<path d="M46.7948 94.7023C58.8298 94.7023 68.5896 84.9173 68.5896 72.8512C68.5896 60.785 58.8298 51 46.7948 51C34.7598 51 25 60.785 25 72.8512C25 84.9173 34.7551 94.7023 46.7948 94.7023Z" fill="#2CA01C"/>
<path d="M39.5252 64.3496C34.8439 64.3496 31.0455 68.1577 31.0455 72.8512C31.0455 77.5446 34.8345 81.3434 39.5252 81.3434H40.7352V78.191H39.5252C36.5865 78.191 34.1991 75.7974 34.1991 72.8512C34.1991 69.9049 36.5865 67.5113 39.5252 67.5113H42.4358V84.0227C42.4358 85.7605 43.8468 87.175 45.5801 87.175V64.3496H39.5252ZM54.0597 81.3434C58.7411 81.3434 62.5394 77.5352 62.5394 72.8512C62.5394 68.1671 58.7504 64.359 54.0597 64.359H52.8497V67.5113H54.0597C56.9984 67.5113 59.3858 69.9049 59.3858 72.8512C59.3858 75.7974 56.9984 78.191 54.0597 78.191H51.1491V61.6797C51.1491 59.9419 49.7382 58.5273 48.0048 58.5273V81.3434H54.0597Z" fill="white"/>
<path d="M89.2772 100H85.904V91.4422H85.8479C84.9789 92.7912 83.2643 93.6344 81.3768 93.6344C77.2748 93.6344 74.7473 90.3696 74.7473 86.4256C74.7473 82.4816 77.4477 79.3245 81.2927 79.3245C83.7642 79.3245 85.2826 80.533 85.9554 81.6057H86.0395V79.718H89.2678V100H89.2772ZM82.0589 90.8146C84.5304 90.8146 86.0161 88.5896 86.0161 86.4771C86.0161 84.3646 84.5304 82.0835 82.0589 82.0835C79.452 82.0835 78.1859 84.3084 78.1859 86.4209C78.1859 88.5334 79.4473 90.8146 82.0589 90.8146ZM104.405 93.2362H101.205V91.0628H101.149C100.56 92.4118 98.9622 93.625 96.9626 93.625C93.4492 93.625 91.9916 90.9176 91.9916 88.1634V79.7133H95.3647V87.2031C95.3647 88.8098 95.7245 90.8052 97.8923 90.8052C100.06 90.8052 101.037 88.9456 101.037 87.1469V79.7133H104.41V93.2268V93.2362H104.405ZM107.792 79.4276H111.165V92.9505H107.792V79.4276ZM123.766 83.4653C123.233 82.7064 122.079 82.135 120.981 82.135C118.51 82.135 117.272 84.3599 117.272 86.4724C117.272 88.5849 118.538 90.8099 121.089 90.8099C122.131 90.8099 123.275 90.3836 123.929 89.6014L126.032 91.7373C124.906 92.9458 123.051 93.625 121.061 93.625C117.071 93.625 113.758 90.9785 113.758 86.4724C113.758 81.9664 117.015 79.3199 120.977 79.3199C122.943 79.3199 124.994 80.1068 126.064 81.4277L123.761 83.4512H123.77L123.766 83.4653ZM127.732 71.9471H131.105V85.4045H131.19L136.305 79.718H140.632L134.787 85.8307L141.001 93.2362H136.539L131.199 86.3038H131.115V93.2362H127.742V71.9518L127.732 71.9425V71.9471ZM145.897 71.9471V81.4417H145.981C146.682 80.5705 148.027 79.3339 150.508 79.3339C154.353 79.3339 157.054 82.4301 157.054 86.435C157.054 90.4398 154.526 93.6437 150.424 93.6437C148.541 93.6437 146.714 92.7725 145.794 91.2221H145.738V93.255H142.538V71.9565H145.911L145.902 71.9471H145.897ZM149.747 82.0881C147.275 82.0881 145.789 84.3693 145.789 86.4818C145.789 88.5943 147.275 90.8192 149.747 90.8192C152.358 90.8192 153.62 88.5381 153.62 86.4256C153.62 84.3131 152.358 82.0881 149.747 82.0881ZM165.837 79.3292C169.911 79.3292 173.167 82.1771 173.167 86.4303C173.167 90.6834 169.911 93.639 165.837 93.639C161.763 93.639 158.507 90.6834 158.507 86.4303C158.507 82.1771 161.763 79.3292 165.837 79.3292ZM165.837 90.8146C168.509 90.8146 169.738 88.5334 169.738 86.4209C169.738 84.3084 168.505 82.0835 165.837 82.0835C163.169 82.0835 161.936 84.3084 161.936 86.4209C161.936 88.5334 163.169 90.8146 165.837 90.8146ZM181.974 79.3292C186.048 79.3292 189.304 82.1771 189.304 86.4303C189.304 90.6834 186.048 93.639 181.974 93.639C177.9 93.639 174.644 90.6834 174.644 86.4303C174.644 82.1771 177.9 79.3292 181.974 79.3292ZM181.974 90.8146C184.646 90.8146 185.875 88.5334 185.875 86.4209C185.875 84.3084 184.642 82.0835 181.974 82.0835C179.306 82.0835 178.073 84.3084 178.073 86.4209C178.073 88.5334 179.306 90.8146 181.974 90.8146ZM191.341 71.9471H194.714V85.4045H194.799L199.914 79.718H204.236L198.401 85.8307L204.605 93.2362H200.143L194.803 86.3038H194.719V93.2362H191.346V71.9518V71.9425L191.341 71.9471ZM213.804 83.3247C213.215 82.5378 212.09 81.8633 210.856 81.8633C209.796 81.8633 208.688 82.2615 208.688 83.3341C208.688 84.4068 209.73 84.6644 211.608 85.1094C213.608 85.5918 215.963 86.4865 215.963 89.1377C215.963 92.4306 213.29 93.6484 210.347 93.6484C208.273 93.6484 206.105 92.8615 204.806 91.4235L207.025 89.3438C207.754 90.304 209.025 91.0347 210.482 91.0347C211.468 91.0347 212.65 90.6366 212.65 89.4281C212.65 88.2992 211.608 87.9666 209.562 87.4842C207.562 87.0017 205.572 86.1914 205.572 83.6573C205.572 80.6408 208.273 79.3526 210.94 79.3526C212.874 79.3526 214.897 80.0272 215.995 81.4043L213.814 83.3482L213.799 83.3247H213.804ZM111.679 61.2675C111.679 64.6962 114.412 67.1975 117.893 67.1975C121.374 67.1975 124.111 64.6962 124.111 61.2675V53.3982H120.738V60.8693C120.738 62.7149 119.505 63.9561 117.884 63.9561C116.263 63.9561 115.024 62.7195 115.024 60.8693V53.3982H111.661L111.684 61.2675H111.679ZM133.119 56.56H137.142V66.9258H140.505V56.56H144.523V53.3982H133.119V56.56ZM130.942 53.3982H127.578V66.9352H130.942V53.3982ZM98.0885 56.56H102.111V66.9258H105.475V56.56H109.493V53.3982H98.0979V56.56H98.0885ZM80.4237 53.3982H77.0599V66.9352H80.4237V53.3982ZM96.3178 59.0613C96.3178 55.6325 93.5754 53.1313 90.0994 53.1313C86.6235 53.1313 83.881 55.6325 83.881 59.0613V66.9305H87.2448V59.4594C87.2448 57.6139 88.4782 56.3726 90.0994 56.3726C91.7206 56.3726 92.954 57.6092 92.954 59.4594V66.9305H96.3178V59.0613Z" fill="black"/>
</g>
<defs>
<clipPath id="clip0_0_131">
<rect width="191" height="49" fill="white" transform="translate(25 51)"/>
</clipPath>
</defs>
</svg>
