<svg width="241" height="150" viewBox="0 0 241 150" fill="none" xmlns="http://www.w3.org/2000/svg">
<rect x="0.5" y="0.5" width="240" height="149" rx="19.5" fill="white" stroke="#E7E7E7"/>
<g clip-path="url(#clip0_0_243)">
<path fill-rule="evenodd" clip-rule="evenodd" d="M110.771 45.3853C114.318 41.6928 119.26 39.4049 124.716 39.4049C131.992 39.4049 138.297 43.445 141.692 49.468C144.707 48.1201 147.971 47.4249 151.27 47.4284C164.368 47.4284 174.996 58.137 174.996 71.3535C174.996 84.5699 164.364 95.2785 151.27 95.2785C149.67 95.2785 148.109 95.1189 146.58 94.8139C143.611 100.11 137.931 103.706 131.464 103.706C128.832 103.71 126.231 103.114 123.865 101.961C120.853 109.034 113.839 114.004 105.676 114.004C97.5135 114.004 89.911 108.63 87.1226 101.071C85.8809 101.333 84.6145 101.465 83.348 101.465C73.2019 101.465 64.9963 93.1396 64.9963 82.9134C64.9963 76.0427 68.6893 70.0623 74.1704 66.8274C73.0068 64.1493 72.4108 61.2585 72.4108 58.3392C72.4179 46.5381 81.9963 37 93.7992 37C100.71 37 106.897 40.2952 110.774 45.4066" fill="#00A1E0"/>
<path fill-rule="evenodd" clip-rule="evenodd" d="M81.0209 76.9082C80.9535 77.0891 81.0457 77.1246 81.067 77.1565C81.2728 77.3055 81.4821 77.4154 81.6949 77.536C82.8195 78.1284 83.8767 78.3022 84.9836 78.3022C87.2398 78.3022 88.6411 77.1033 88.6411 75.1701V75.1311C88.6411 73.3434 87.0553 72.6943 85.576 72.2296L85.3809 72.1657C84.2598 71.8039 83.2949 71.4882 83.2949 70.7505V70.7114C83.2949 70.0801 83.8625 69.6154 84.7352 69.6154C85.7037 69.6154 86.8602 69.9382 87.6017 70.3461C87.6017 70.3461 87.8216 70.488 87.8997 70.2751C87.9422 70.1616 88.3183 69.1507 88.3609 69.0372C88.4034 68.9202 88.3289 68.8279 88.2509 68.7818C87.403 68.2639 86.2288 67.9128 85.019 67.9128H84.7955C82.7308 67.9128 81.287 69.1614 81.287 70.9491V70.9881C81.287 72.8716 82.8798 73.4852 84.3663 73.9109L84.604 73.9854C85.686 74.3188 86.6261 74.6061 86.6261 75.3687V75.4078C86.6261 76.1065 86.0159 76.628 85.0368 76.628C84.6572 76.628 83.4439 76.6209 82.1313 75.7909C81.9716 75.6986 81.883 75.6312 81.7588 75.5567C81.6949 75.5177 81.5317 75.4468 81.4608 75.6596L81.0173 76.8975M114.045 76.9046C113.978 77.0855 114.07 77.121 114.091 77.1529C114.297 77.3019 114.507 77.4119 114.719 77.5325C115.844 78.1248 116.901 78.2986 118.008 78.2986C120.264 78.2986 121.666 77.0997 121.666 75.1666V75.1275C121.666 73.3398 120.087 72.6907 118.6 72.226L118.405 72.1622C117.284 71.8004 116.319 71.4847 116.319 70.7469V70.7079C116.319 70.0765 116.887 69.6118 117.76 69.6118C118.728 69.6118 119.881 69.9346 120.626 70.3425C120.626 70.3425 120.846 70.4844 120.924 70.2716C120.967 70.1581 121.343 69.1472 121.382 69.0337C121.424 68.9166 121.35 68.8244 121.272 68.7783C120.424 68.2604 119.25 67.9092 118.04 67.9092H117.813C115.748 67.9092 114.304 69.1578 114.304 70.9455V70.9846C114.304 72.8681 115.897 73.4817 117.384 73.9074L117.621 73.9818C118.707 74.3153 119.643 74.6026 119.643 75.3652V75.4042C119.643 76.103 119.033 76.6244 118.054 76.6244C117.675 76.6244 116.458 76.6173 115.149 75.7873C114.989 75.6951 114.897 75.6312 114.776 75.5532C114.734 75.5284 114.546 75.4539 114.478 75.6561L114.035 76.894M136.594 73.1199C136.594 74.2124 136.392 75.0708 135.991 75.6809C135.593 76.2839 134.994 76.5783 134.157 76.5783C133.319 76.5783 132.723 76.2874 132.33 75.6844C131.936 75.0779 131.737 74.2124 131.737 73.1234C131.737 72.0345 131.939 71.1761 132.33 70.5731C132.72 69.9736 133.316 69.6863 134.157 69.6863C134.997 69.6863 135.597 69.9772 135.991 70.5731C136.392 71.1761 136.594 72.0309 136.594 73.1234M138.478 71.0981C138.293 70.4702 138.006 69.9204 137.619 69.4629C137.236 69.0017 136.75 68.6293 136.172 68.3633C135.597 68.0937 134.919 67.9589 134.15 67.9589C133.38 67.9589 132.706 68.0937 132.127 68.3633C131.553 68.6328 131.063 69.0017 130.68 69.4629C130.297 69.924 130.01 70.4738 129.821 71.0981C129.637 71.7188 129.545 72.3998 129.545 73.1234C129.545 73.8471 129.637 74.5245 129.821 75.1488C130.006 75.7767 130.293 76.3265 130.68 76.784C131.063 77.2452 131.553 77.614 132.127 77.8765C132.706 78.139 133.383 78.2703 134.15 78.2703C134.916 78.2703 135.593 78.1355 136.168 77.8765C136.743 77.614 137.232 77.2452 137.616 76.784C137.999 76.3229 138.286 75.7731 138.474 75.1488C138.659 74.5281 138.751 73.8471 138.751 73.1234C138.751 72.3998 138.659 71.7224 138.474 71.0981M153.956 76.2697C153.895 76.0853 153.714 76.1562 153.714 76.1562C153.441 76.2626 153.147 76.3584 152.838 76.408C152.526 76.4577 152.175 76.4825 151.806 76.4825C150.898 76.4825 150.17 76.213 149.652 75.6738C149.131 75.1346 148.84 74.2727 148.844 73.0986C148.844 72.0309 149.103 71.2329 149.567 70.6157C150.025 70.0091 150.727 69.6934 151.657 69.6934C152.434 69.6934 153.026 69.7821 153.651 69.9772C153.651 69.9772 153.8 70.041 153.871 69.8459C154.037 69.3884 154.158 69.062 154.335 68.5619C154.385 68.42 154.261 68.3562 154.218 68.342C153.973 68.2462 153.399 68.0901 152.962 68.0227C152.554 67.9589 152.083 67.927 151.547 67.927C150.756 67.927 150.05 68.0618 149.45 68.3313C148.847 68.6009 148.34 68.9698 147.935 69.4309C147.531 69.8921 147.222 70.4419 147.017 71.0661C146.811 71.6869 146.708 72.3715 146.708 73.0951C146.708 74.6558 147.127 75.9185 147.96 76.8443C148.794 77.7737 150.046 78.2419 151.678 78.2419C152.643 78.2419 153.633 78.0468 154.346 77.7666C154.346 77.7666 154.481 77.7027 154.424 77.5431L153.959 76.2662M157.251 72.07C157.34 71.4634 157.507 70.9597 157.769 70.566C158.16 69.9665 158.756 69.6402 159.593 69.6402C160.43 69.6402 160.983 69.9701 161.381 70.566C161.643 70.9597 161.757 71.4847 161.799 72.07H157.234H157.255H157.251ZM163.595 70.7363C163.435 70.1333 163.038 69.5232 162.779 69.2465C162.367 68.8067 161.966 68.4945 161.565 68.3242C160.987 68.0795 160.366 67.9518 159.738 67.9554C158.944 67.9554 158.22 68.0901 157.631 68.3633C157.046 68.6399 156.553 69.0124 156.162 69.4841C155.776 69.9524 155.485 70.5057 155.297 71.1406C155.112 71.7685 155.016 72.4531 155.016 73.1731C155.016 73.8932 155.112 74.5919 155.304 75.2091C155.499 75.8299 155.808 76.3761 156.23 76.8301C156.648 77.2877 157.188 77.6424 157.833 77.8943C158.475 78.1426 159.256 78.2703 160.15 78.2703C161.995 78.2632 162.963 77.8553 163.36 77.6318C163.431 77.5928 163.499 77.5254 163.414 77.3267L162.999 76.1597C162.935 75.9859 162.757 76.0498 162.757 76.0498C162.3 76.22 161.654 76.5251 160.139 76.5215C159.149 76.5215 158.419 76.2271 157.957 75.7696C157.489 75.3014 157.255 74.6168 157.216 73.6484H163.602C163.602 73.6484 163.768 73.6484 163.786 73.4888C163.793 73.4214 164.006 72.1799 163.595 70.7434H163.587L163.595 70.7363ZM106.198 72.07C106.287 71.4634 106.454 70.9597 106.716 70.566C107.106 69.9665 107.702 69.6402 108.54 69.6402C109.377 69.6402 109.93 69.9701 110.328 70.566C110.59 70.9597 110.704 71.4847 110.746 72.07H106.18H106.202H106.198ZM112.545 70.7363C112.385 70.1333 111.988 69.5232 111.729 69.2465C111.317 68.8067 110.916 68.4945 110.516 68.3242C109.937 68.0795 109.316 67.9518 108.689 67.9554C107.894 67.9554 107.17 68.0901 106.581 68.3633C105.996 68.6399 105.503 69.0124 105.113 69.4841C104.726 69.9524 104.435 70.5057 104.247 71.1406C104.062 71.7685 103.967 72.4531 103.967 73.1731C103.967 73.8932 104.062 74.5919 104.258 75.2091C104.449 75.8299 104.761 76.3761 105.18 76.8301C105.599 77.2877 106.138 77.6424 106.783 77.8943C107.426 78.1426 108.202 78.2703 109.1 78.2703C110.945 78.2632 111.913 77.8553 112.311 77.6318C112.382 77.5928 112.449 77.5254 112.364 77.3267L111.949 76.1597C111.885 75.9859 111.708 76.0498 111.708 76.0498C111.25 76.22 110.604 76.5251 109.089 76.5215C108.103 76.5215 107.369 76.2271 106.908 75.7696C106.439 75.3014 106.205 74.6168 106.166 73.6484H112.552C112.552 73.6484 112.719 73.6484 112.736 73.4888C112.743 73.4214 112.956 72.1799 112.545 70.7434H112.541L112.545 70.7363ZM92.4157 76.2307C92.1639 76.0321 92.1319 75.9824 92.0468 75.8512C91.9191 75.6561 91.8552 75.3794 91.8552 75.0211C91.8552 74.4642 92.0397 74.0599 92.4264 73.7868C92.4228 73.7868 92.9763 73.3114 94.2782 73.3256C94.8565 73.3363 95.4347 73.3859 96.0094 73.4746V76.3726C96.0094 76.3726 95.2006 76.5464 94.2889 76.6031C92.9904 76.6812 92.4157 76.2307 92.4228 76.2307H92.4193H92.4157ZM94.9558 71.7436C94.6968 71.7259 94.3634 71.7153 93.9625 71.7153C93.4162 71.7153 92.8876 71.7827 92.3945 71.9174C91.8978 72.0522 91.4473 72.258 91.0641 72.5346C90.6774 72.8078 90.3617 73.1696 90.1382 73.5846C89.9111 74.0031 89.7976 74.4962 89.7976 75.0566C89.7976 75.617 89.897 76.1101 90.0885 76.5109C90.2801 76.9082 90.5639 77.2522 90.9222 77.5076C91.277 77.7666 91.7133 77.9546 92.2206 78.0681C92.7208 78.1816 93.2884 78.2419 93.9093 78.2419C94.5656 78.2419 95.2148 78.1887 95.8463 78.0823C96.3819 77.99 96.9176 77.8872 97.4498 77.7701C97.6626 77.7205 97.8968 77.6566 97.8968 77.6566C98.0529 77.6176 98.0422 77.4473 98.0422 77.4473V71.6266C98.0387 70.3496 97.6981 69.399 97.0241 68.8137C96.3536 68.2285 95.3709 67.9341 94.0973 67.9341C93.6219 67.9341 92.8485 67.9979 92.3874 68.0901C92.3874 68.0901 90.9967 68.3597 90.422 68.8102C90.422 68.8102 90.2943 68.8882 90.3652 69.062L90.8193 70.2751C90.8761 70.4312 91.0286 70.378 91.0286 70.378C91.0286 70.378 91.0783 70.3603 91.1351 70.3248C92.359 69.6579 93.9128 69.6792 93.9128 69.6792C94.6011 69.6792 95.1332 69.8176 95.488 70.0907C95.8356 70.3567 96.013 70.7611 96.013 71.6088V71.8784C95.4667 71.8004 94.9629 71.7543 94.9629 71.7543L94.9558 71.7401V71.7436ZM146.289 68.459C146.328 68.3704 146.289 68.271 146.201 68.232C146.201 68.232 146.197 68.232 146.194 68.232C146.084 68.1895 145.544 68.076 145.126 68.0511C144.324 68.0015 143.881 68.1363 143.48 68.3172C143.086 68.4945 142.646 68.7818 142.405 69.1117V68.3349C142.405 68.2285 142.327 68.1433 142.22 68.1433H140.588C140.482 68.1433 140.407 68.2285 140.407 68.3349V77.834C140.407 77.9404 140.493 78.0291 140.603 78.0291H142.277C142.383 78.0291 142.469 77.9439 142.469 77.834V73.0667C142.469 72.4282 142.54 71.7933 142.678 71.3925C142.816 70.9952 143.004 70.6795 143.235 70.456C143.455 70.2361 143.724 70.0765 144.022 69.9843C144.303 69.9027 144.59 69.8637 144.881 69.8637C145.214 69.8637 145.58 69.9488 145.58 69.9488C145.704 69.963 145.771 69.8885 145.814 69.775C145.924 69.4841 146.233 68.6116 146.296 68.4378" fill="#FFFFFE"/>
<path fill-rule="evenodd" clip-rule="evenodd" d="M130.659 64.0749C130.453 64.011 130.24 63.9614 130.027 63.9259C129.74 63.8798 129.453 63.8549 129.162 63.8585C128.009 63.8585 127.101 64.1848 126.462 64.8268C125.827 65.4653 125.398 66.4372 125.181 67.7177L125.103 68.1505H123.656C123.656 68.1505 123.478 68.1434 123.443 68.3349L123.205 69.6615C123.188 69.7892 123.244 69.8672 123.415 69.8672H124.823L123.393 77.8446C123.28 78.4866 123.152 79.0152 123.01 79.416C122.872 79.8097 122.733 80.1077 122.567 80.324C122.403 80.5333 122.251 80.6858 121.981 80.7745C121.761 80.849 121.51 80.8809 121.233 80.8809C121.077 80.8809 120.874 80.8561 120.722 80.8242C120.569 80.7958 120.491 80.7603 120.378 80.7142C120.378 80.7142 120.211 80.6504 120.147 80.8171C120.094 80.9519 119.718 81.9841 119.675 82.1118C119.629 82.2395 119.693 82.3388 119.775 82.3671C119.963 82.4345 120.101 82.4771 120.357 82.5374C120.711 82.6225 121.009 82.6261 121.29 82.6261C121.875 82.6261 122.411 82.5445 122.854 82.3849C123.301 82.2253 123.688 81.9415 124.032 81.562C124.404 81.1505 124.638 80.7213 124.862 80.136C125.082 79.5543 125.27 78.8343 125.422 77.9936L126.859 69.8672H128.959C128.959 69.8672 129.137 69.8743 129.172 69.6828L129.41 68.3562C129.428 68.2285 129.371 68.1505 129.201 68.1505H127.161C127.171 68.1043 127.264 67.3878 127.498 66.7139C127.597 66.4266 127.785 66.1925 127.945 66.0328C128.094 65.8803 128.278 65.7668 128.481 65.6994C128.7 65.632 128.935 65.5966 129.165 65.6001C129.357 65.6001 129.545 65.6214 129.69 65.6533C129.889 65.6959 129.963 65.7172 130.017 65.7313C130.226 65.7952 130.251 65.7313 130.293 65.632L130.779 64.2948C130.829 64.1493 130.708 64.089 130.662 64.0713M102.172 77.8624C102.172 77.9688 102.097 78.0574 101.991 78.0574H100.298C100.192 78.0574 100.114 77.9723 100.114 77.8624V64.2558C100.114 64.1493 100.189 64.0642 100.298 64.0642H101.991C102.097 64.0642 102.172 64.1493 102.172 64.2558V77.8624Z" fill="#FFFFFE"/>
</g>
<defs>
<clipPath id="clip0_0_243">
<rect width="110" height="77" fill="white" transform="translate(65 37)"/>
</clipPath>
</defs>
</svg>
