<svg width="241" height="150" viewBox="0 0 241 150" fill="none" xmlns="http://www.w3.org/2000/svg">
<rect x="0.5" y="0.5" width="240" height="149" rx="19.5" fill="white" stroke="#E7E7E7"/>
<g clip-path="url(#clip0_0_274)">
<path d="M133.126 90.9876C133.126 87.6457 131.044 85.2395 127.193 85.2395H114.493V102.584H118.658V96.6281H123.553L128.339 102.584H133.023V102.165L128.339 96.5241C131.358 95.8966 133.126 93.702 133.126 90.9876ZM126.671 93.0745H118.655V88.7894H126.671C128.129 88.7894 129.065 89.6249 129.065 90.9839C129.168 92.343 128.232 93.0745 126.671 93.0745Z" fill="black"/>
<path d="M196 85.1355H192.149V91.7191H181.636V85.1355H177.47V102.48H181.636V95.6886H192.149V102.48H196V85.1355Z" fill="black"/>
<path d="M103.354 85.1355L98.7745 99.6581H98.5674L93.884 85.1355H86.4928V102.48H90.4474V88.2695H90.6545L95.2343 102.48H101.582L106.266 88.2695H106.473V102.48H110.531V85.1355H103.347H103.354Z" fill="black"/>
<path d="M58.0746 92.239C56.617 92.135 53.9091 91.8194 52.348 91.7154C50.8905 91.6115 50.0581 91.0879 50.0581 90.1484C50.0581 89.209 50.9941 88.4775 54.5343 88.4775C57.6565 88.4775 60.5716 89.209 63.1722 90.3564V86.4909C60.6752 85.2358 57.8637 84.7159 54.3234 84.7159C49.4292 84.7159 45.9963 86.8065 45.9963 90.2524C45.9963 93.1785 47.9754 94.8494 52.0336 95.269C53.4911 95.477 55.9881 95.6886 57.6528 95.7926C59.5247 95.8966 60.0463 96.5241 60.0463 97.3596C60.0463 98.5107 58.6923 99.2385 55.4665 99.2385C52.2407 99.2385 48.7005 98.0874 46.2034 96.6281V100.598C48.1826 101.957 51.512 103 55.363 103C60.6715 103 64.1081 100.909 64.1081 97.2519C64.1081 94.4298 62.3399 92.6549 58.0709 92.2353L58.0746 92.239Z" fill="black"/>
<path d="M66.9233 85.1355V102.48H82.9525V98.9266H70.8779V95.373H82.7453V91.8194H70.8779V88.6854H82.9525V85.1318H66.9233V85.1355Z" fill="black"/>
<path d="M168.829 92.239C167.371 92.135 164.663 91.8194 163.102 91.7154C161.644 91.6115 160.812 91.0879 160.812 90.1484C160.812 89.209 161.748 88.4775 165.288 88.4775C168.41 88.4775 171.326 89.105 173.926 90.3564V86.4909C171.429 85.2358 168.618 84.7159 165.077 84.7159C160.183 84.7159 156.75 86.8065 156.75 90.2524C156.75 93.1785 158.729 94.8494 162.788 95.269C164.245 95.477 166.742 95.6886 168.407 95.7926C170.279 95.8966 170.8 96.5241 170.8 97.3596C170.8 98.5107 169.446 99.2385 166.221 99.2385C162.995 99.2385 159.454 98.0874 156.957 96.6281V100.598C158.937 101.957 162.266 103 166.117 103C171.425 103 174.862 100.909 174.862 97.2519C174.862 94.4298 172.99 92.6549 168.825 92.2353L168.829 92.239Z" fill="black"/>
<path d="M149.781 85.1355V94.0176C149.781 97.3596 147.698 99.2422 144.679 99.2422C141.661 99.2422 139.578 97.4672 139.578 94.0176V85.1355H135.413V93.598C135.413 99.866 139.367 103 144.676 103C149.984 103 153.835 99.97 153.835 93.806V85.1355H149.777H149.781Z" fill="black"/>
<path d="M133.803 57.3752C133.803 58.2106 133.385 58.3146 132.346 58.3146C131.199 58.3146 130.992 58.1067 130.888 57.2712C130.681 55.0767 129.224 53.1977 126.723 53.0901C125.994 52.9861 125.787 52.7781 125.787 51.731C125.787 50.7916 125.89 50.372 126.619 50.372C130.785 50.4759 133.803 53.9255 133.803 57.3715V57.3752ZM139.944 57.3752C139.944 50.8955 135.572 44 125.373 44H105.282C104.864 44 104.553 44.2079 104.553 44.6275C104.553 44.8355 104.656 45.0471 104.864 45.1511C105.592 45.7787 106.632 46.4062 108.089 47.1377C109.443 47.8692 110.586 48.2888 111.63 48.7047C112.048 48.9126 112.255 49.1243 112.255 49.3322C112.255 49.6442 112.048 49.9598 111.526 49.9598H95.6005C95.0789 49.8558 94.8717 50.1677 94.8717 50.4834C94.8717 50.799 94.9753 51.0069 95.1824 51.2149C96.4328 52.5739 98.5118 54.2449 101.53 56.1275C104.131 57.7985 107.464 59.5771 110.065 60.8285C110.483 61.0364 110.69 61.2481 110.69 61.56C110.69 61.8719 110.483 62.0836 109.961 62.0836H102.57C102.152 62.0836 101.945 62.2915 101.945 62.6072C101.945 62.8151 102.048 63.0267 102.256 63.2347C103.92 64.8017 106.628 66.3687 110.168 67.9357C114.955 69.9223 119.746 71.1736 125.158 71.1736C135.464 71.1736 139.941 63.4426 139.941 57.3826L139.944 57.3752ZM126.516 66.6732C121.518 66.6732 117.253 62.5997 117.253 57.3752C117.253 52.1506 121.418 48.2851 126.516 48.2851C131.613 48.2851 135.779 52.3586 135.779 57.3752C135.779 62.3918 131.721 66.6732 126.516 66.6732Z" fill="#FF642D"/>
</g>
<defs>
<clipPath id="clip0_0_274">
<rect width="150" height="59" fill="white" transform="translate(46 44)"/>
</clipPath>
</defs>
</svg>
