<svg width="61" height="58" viewBox="0 0 61 58" fill="none" xmlns="http://www.w3.org/2000/svg">
<path d="M30.5023 0C32.6985 0 34.4817 1.77256 34.4817 3.95561V54.0444C34.4817 56.2274 32.6985 58 30.5023 58C28.3062 58 26.523 56.2274 26.523 54.0444V3.95561C26.523 1.77256 28.3062 0 30.5023 0ZM43.7591 7.91121C45.9553 7.91121 47.7385 9.68377 47.7385 11.8668V46.1379C47.7385 48.3209 45.9553 50.0935 43.7591 50.0935C41.563 50.0935 39.7798 48.3209 39.7798 46.1379V11.8622C39.7798 9.67911 41.563 7.90655 43.7591 7.90655V7.91121ZM57.0206 15.8178C59.2168 15.8178 61 17.5903 61 19.7734V38.2266C61 40.4097 59.2168 42.1822 57.0206 42.1822C54.8244 42.1822 53.0412 40.4097 53.0412 38.2266V19.7734C53.0412 17.5903 54.8244 15.8178 57.0206 15.8178ZM17.2409 7.91121C19.437 7.91121 21.2202 9.68377 21.2202 11.8668V46.1379C21.2202 48.3209 19.437 50.0935 17.2409 50.0935C15.0447 50.0935 13.2615 48.3209 13.2615 46.1379V11.8622C13.2615 9.67911 15.0447 7.90655 17.2409 7.90655V7.91121ZM3.97938 15.8178C6.17555 15.8178 7.95877 17.5903 7.95877 19.7734V38.2266C7.95877 40.4097 6.17555 42.1822 3.97938 42.1822C1.78321 42.1822 0 40.4097 0 38.2266V19.7734C0 17.5903 1.78321 15.8178 3.97938 15.8178Z" fill="#0095F7"/>
</svg>
