<svg width="241" height="150" viewBox="0 0 241 150" fill="none" xmlns="http://www.w3.org/2000/svg">
<rect x="0.5" y="0.5" width="240" height="149" rx="19.5" fill="white" stroke="#E7E7E7"/>
<g clip-path="url(#clip0_10_3)">
<path d="M120.502 49C122.699 49 124.482 50.7726 124.482 52.9556V103.044C124.482 105.227 122.699 107 120.502 107C118.306 107 116.523 105.227 116.523 103.044V52.9556C116.523 50.7726 118.306 49 120.502 49ZM133.759 56.9112C135.955 56.9112 137.739 58.6838 137.739 60.8668V95.1379C137.739 97.3209 135.955 99.0935 133.759 99.0935C131.563 99.0935 129.78 97.3209 129.78 95.1379V60.8622C129.78 58.6791 131.563 56.9065 133.759 56.9065V56.9112ZM147.021 64.8178C149.217 64.8178 151 66.5903 151 68.7734V87.2266C151 89.4097 149.217 91.1822 147.021 91.1822C144.824 91.1822 143.041 89.4097 143.041 87.2266V68.7734C143.041 66.5903 144.824 64.8178 147.021 64.8178ZM107.241 56.9112C109.437 56.9112 111.22 58.6838 111.22 60.8668V95.1379C111.22 97.3209 109.437 99.0935 107.241 99.0935C105.045 99.0935 103.261 97.3209 103.261 95.1379V60.8622C103.261 58.6791 105.045 56.9065 107.241 56.9065V56.9112ZM93.9794 64.8178C96.1756 64.8178 97.9588 66.5903 97.9588 68.7734V87.2266C97.9588 89.4097 96.1756 91.1822 93.9794 91.1822C91.7832 91.1822 90 89.4097 90 87.2266V68.7734C90 66.5903 91.7832 64.8178 93.9794 64.8178Z" fill="#0095F7"/>
</g>
<defs>
<clipPath id="clip0_10_3">
<rect width="61" height="58" fill="white" transform="translate(90 49)"/>
</clipPath>
</defs>
</svg>
