<svg width="241" height="150" viewBox="0 0 241 150" fill="none" xmlns="http://www.w3.org/2000/svg">
<rect x="0.5" y="0.5" width="240" height="149" rx="19.5" fill="white" stroke="#E7E7E7"/>
<g clip-path="url(#clip0_0_138)">
<mask id="mask0_0_138" style="mask-type:luminance" maskUnits="userSpaceOnUse" x="17" y="22" width="211" height="106">
<path d="M228 22H17V128H228V22Z" fill="white"/>
</mask>
<g mask="url(#mask0_0_138)">
<path fill-rule="evenodd" clip-rule="evenodd" d="M59.9631 64.2233V85.7767C59.9631 91.7303 55.1558 96.5533 49.2232 96.5533H27.7399C21.8073 96.5533 17 91.7303 17 85.7767V64.2233C17 58.2697 21.8073 53.4467 27.7399 53.4467H49.2197C55.1523 53.4467 59.9596 58.2697 59.9596 64.2233H59.9631Z" fill="url(#paint0_linear_0_138)"/>
<path fill-rule="evenodd" clip-rule="evenodd" d="M45.8507 77.4274C43.4453 73.5054 33.8659 71.7281 34.2141 67.2302C34.4849 63.711 39.3906 64.0502 39.3906 64.0502C39.3906 64.0502 31.6821 63.2269 30.6095 68.7743C29.5088 74.4629 40.9661 76.6147 42.5662 79.9714C45.1263 85.3421 36.9395 85.8579 36.9395 85.8579C45.7628 86.2678 47.8904 80.7417 45.8542 77.4239L45.8507 77.4274Z" fill="white"/>
<path opacity="0.5" fill-rule="evenodd" clip-rule="evenodd" d="M32.1744 77.7454C32.1322 78.5934 32.1217 79.3672 32.2131 80.0845C32.3045 80.7982 32.5085 81.4307 32.8566 81.9713C33.0325 82.2398 33.2329 82.4977 33.4756 82.7345C33.7217 82.9677 33.989 83.2009 34.2914 83.4093C34.4356 83.5259 34.6009 83.6143 34.7556 83.7273C34.9174 83.8298 35.0827 83.9287 35.2515 84.0383C35.4238 84.1372 35.5961 84.2397 35.772 84.3492C35.9513 84.4481 36.1307 84.5577 36.31 84.6813C36.0392 84.7273 35.7649 84.752 35.4906 84.752C34.9069 84.752 34.3231 84.646 33.7534 84.4411L33.4404 84.3209C33.3384 84.275 33.24 84.2185 33.138 84.169L32.9868 84.0877C32.9375 84.0595 32.8918 84.0241 32.8426 83.9923C32.7476 83.9287 32.6492 83.8651 32.5542 83.7945C32.185 83.5118 31.8509 83.1585 31.5942 82.7521C31.3339 82.3458 31.1616 81.89 31.0702 81.4271C30.9823 80.9643 30.9787 80.4979 31.0456 80.0562C31.1124 79.611 31.246 79.1905 31.4324 78.7983C31.6223 78.4097 31.8544 78.0422 32.1709 77.7454H32.1744ZM41.1103 65.0289C41.694 65.0289 42.2778 65.1349 42.8475 65.3399L43.1605 65.4635C43.2625 65.5095 43.3609 65.566 43.4629 65.6155L43.6141 65.6932C43.6634 65.7215 43.7091 65.7568 43.7583 65.7886C43.8533 65.8522 43.9517 65.9123 44.0432 65.9865C44.4124 66.2691 44.7465 66.6225 45.0032 67.0288C45.2634 67.4351 45.4358 67.8909 45.5272 68.3538C45.6151 68.8167 45.6186 69.2831 45.5518 69.7247C45.485 70.1664 45.3514 70.5904 45.1685 70.9826C44.9786 71.3713 44.7465 71.7352 44.43 72.0355C44.4722 71.1875 44.4827 70.4137 44.3913 69.6965C44.2999 68.9827 44.0959 68.3503 43.7478 67.8097C43.5719 67.5411 43.3715 67.2832 43.1288 67.0465C42.8791 66.8133 42.6154 66.5801 42.313 66.3716C42.1688 66.255 42.0035 66.1667 41.8488 66.0536C41.687 65.9511 41.5217 65.8522 41.3529 65.7427C41.1806 65.6437 41.0083 65.5413 40.8324 65.4317C40.6531 65.3328 40.4737 65.2233 40.2944 65.0996C40.5652 65.0537 40.8395 65.0289 41.1138 65.0289H41.1103Z" fill="white"/>
<path fill-rule="evenodd" clip-rule="evenodd" d="M98.2696 72.0178C101.108 72.0178 103.284 74.5653 103.284 77.6075C103.284 80.6497 101.108 83.1973 98.2696 83.1973C96.884 83.1973 95.8009 82.533 95.2663 81.8829L95.1749 81.7627V87.4373H92.249V72.2545H95.1749V73.4523C95.6672 72.7669 96.7961 72.0178 98.2696 72.0178ZM71.9544 67.4987C75.2213 67.4987 77.1625 69.8554 77.268 72.1238H74.1945C73.8534 70.8377 72.8511 70.3677 71.9544 70.3677C70.8642 70.3677 70.0132 70.8836 69.9921 71.7811C69.971 72.7245 70.6532 73.2368 71.8911 73.6007L73.6635 74.0919C76.1181 74.7773 77.5916 76.3391 77.5916 78.6958C77.5916 81.2857 75.4992 83.2149 72.3201 83.2149C68.6909 83.2149 66.6231 80.7522 66.493 78.2471H69.5876C69.8022 79.618 70.9767 80.3459 72.3201 80.3459C73.558 80.3459 74.4758 79.7664 74.4758 78.8053C74.4758 77.9927 73.8991 77.3708 72.4502 76.9645L70.8501 76.4945C68.4588 75.8091 66.9009 74.3109 66.8798 71.9966C66.8587 69.1911 68.93 67.4987 71.9579 67.4987H71.9544ZM216.423 72.0178C219.486 72.0178 222.021 74.1625 222 78.0139L221.993 78.293H213.669C213.796 79.5579 214.738 80.6497 216.549 80.6497C217.506 80.6497 218.35 80.2575 218.737 79.6145L218.814 79.4731H221.866C221.226 81.6355 219.113 83.1973 216.401 83.1973C213.134 83.1973 210.81 80.8405 210.81 77.5863C210.81 74.3321 213.18 72.0178 216.423 72.0178ZM172.907 72.0178C176.002 72.0178 178.52 74.4805 178.52 77.6075C178.52 80.7345 176.002 83.1973 172.907 83.1973C169.813 83.1973 167.295 80.7345 167.295 77.6075C167.295 74.4805 169.813 72.0178 172.907 72.0178ZM193.694 72.0178C195.08 72.0178 196.163 72.6821 196.676 73.3322L196.768 73.4523V72.2545H199.69V82.9605H196.768V81.7627C196.297 82.4482 195.168 83.1973 193.694 83.1973C190.856 83.1973 188.68 80.6497 188.68 77.6075C188.68 74.5653 190.856 72.0178 193.694 72.0178ZM110.349 72.0178C113.412 72.0178 115.948 74.1625 115.927 78.0139L115.92 78.293H107.596C107.722 79.5579 108.661 80.6497 110.476 80.6497C111.432 80.6497 112.276 80.2575 112.663 79.6145L112.737 79.4731H115.79C115.15 81.6355 113.036 83.1973 110.325 83.1973C107.058 83.1973 104.733 80.8405 104.733 77.5863C104.733 74.3321 107.103 72.0178 110.346 72.0178H110.349ZM82.4973 72.2545V77.9715C82.4973 79.5791 83.053 80.519 84.3119 80.519C85.5709 80.519 86.5098 79.5544 86.5098 77.4768V72.251H89.4357V82.957H86.5098V81.7345C85.9542 82.5895 84.952 83.1902 83.5875 83.1902C81.0063 83.1902 79.575 81.3069 79.575 78.4591V72.251H82.5008L82.4973 72.2545ZM184.41 69.2759V72.2545H187.421V74.8233H184.41V78.6357C184.41 79.9431 184.966 80.4554 186.225 80.4554C186.696 80.4554 187.079 80.3918 187.421 80.2611V82.851C186.953 82.9994 186.376 83.0877 185.564 83.0877C183.303 83.0877 181.488 81.8228 181.488 79.2117V74.8233H179.332V72.2545H181.488V69.2759H184.41ZM206.541 69.2759V72.2545H209.551V74.8233H206.541V78.6357C206.541 79.9431 207.096 80.4554 208.355 80.4554C208.827 80.4554 209.21 80.3918 209.551 80.2611V82.851C209.083 82.9994 208.507 83.0877 207.694 83.0877C205.433 83.0877 203.618 81.8228 203.618 79.2117V74.8233H201.463V72.2545H203.618V69.2759H206.544H206.541ZM161.19 72.0178C163.771 72.0178 165.308 73.9011 165.308 76.6853V82.9605H162.385V77.18C162.385 75.6395 161.724 74.6961 160.508 74.6961C159.164 74.6961 158.137 75.6819 158.137 77.7383V82.9641H155.211V72.2581H158.137V73.4771C158.693 72.622 159.801 72.0213 161.19 72.0213V72.0178ZM148.403 72.0178C150.984 72.0178 152.521 73.9011 152.521 76.6853V82.9605H149.595V77.18C149.595 75.6395 148.934 74.6961 147.717 74.6961C146.374 74.6961 145.347 75.6819 145.347 77.7383V82.9641H142.425V72.2581H145.347V73.4771C145.903 72.622 147.011 72.0213 148.4 72.0213L148.403 72.0178ZM123.625 72.1238C123.924 72.1238 124.244 72.145 124.606 72.251V75.2261C124.159 75.0777 123.751 74.9893 123.284 74.9893C121.898 74.9893 120.98 76.0811 120.98 77.8372V82.957H118.054V72.251H120.98V73.9647C121.342 72.9153 122.433 72.1238 123.628 72.1238H123.625ZM134.467 67.7566L141.018 82.9605H137.772L136.299 79.4908H129.853L128.379 82.9605H125.179L131.71 67.7566H134.463H134.467ZM194.313 74.6961C192.713 74.6961 191.623 75.9363 191.623 77.6075C191.623 79.2788 192.713 80.519 194.313 80.519C195.913 80.519 197.004 79.2788 197.004 77.6075C197.004 75.9363 195.913 74.6961 194.313 74.6961ZM97.6295 74.6961C96.0295 74.6961 94.9393 75.9363 94.9393 77.6075C94.9393 79.2788 96.0295 80.519 97.6295 80.519C99.2296 80.519 100.32 79.2788 100.32 77.6075C100.32 75.9363 99.2296 74.6961 97.6295 74.6961ZM172.907 74.7597C171.371 74.7597 170.238 75.9575 170.238 77.6075C170.238 79.2576 171.371 80.4554 172.907 80.4554C174.444 80.4554 175.555 79.2576 175.555 77.6075C175.555 75.9575 174.444 74.7597 172.907 74.7597ZM133.081 71.8235L130.989 76.7701H135.17L133.078 71.8235H133.081ZM110.265 74.3957C108.992 74.3957 108.081 75.1059 107.754 76.1836L107.705 76.3673H112.72C112.357 74.9328 111.267 74.3957 110.265 74.3957ZM216.338 74.3957C215.065 74.3957 214.154 75.1059 213.827 76.1836L213.778 76.3673H218.793C218.431 74.9328 217.34 74.3957 216.338 74.3957Z" fill="black"/>
</g>
</g>
<defs>
<linearGradient id="paint0_linear_0_138" x1="59.9315" y1="53.4149" x2="16.825" y2="96.3778" gradientUnits="userSpaceOnUse">
<stop stop-color="#FF8945"/>
<stop offset="1" stop-color="#FF22A7"/>
</linearGradient>
<clipPath id="clip0_0_138">
<rect width="211" height="106" fill="white" transform="translate(17 22)"/>
</clipPath>
</defs>
</svg>
