<svg width="241" height="150" viewBox="0 0 241 150" fill="none" xmlns="http://www.w3.org/2000/svg">
<rect width="241" height="150" rx="20" fill="white"/>
<g clip-path="url(#clip0_1954_616)">
<mask id="mask0_1954_616" style="mask-type:luminance" maskUnits="userSpaceOnUse" x="17" y="22" width="211" height="106">
<path d="M228 22H17V128H228V22Z" fill="white"/>
</mask>
<g mask="url(#mask0_1954_616)">
<path fill-rule="evenodd" clip-rule="evenodd" d="M59.9631 64.2234V85.7768C59.9631 91.7304 55.1558 96.5534 49.2232 96.5534H27.7399C21.8073 96.5534 17 91.7304 17 85.7768V64.2234C17 58.2698 21.8073 53.4468 27.7399 53.4468H49.2197C55.1523 53.4468 59.9596 58.2698 59.9596 64.2234H59.9631Z" fill="url(#paint0_linear_1954_616)"/>
<path fill-rule="evenodd" clip-rule="evenodd" d="M45.8508 77.4276C43.4454 73.5056 33.866 71.7284 34.2141 67.2304C34.4849 63.7112 39.3906 64.0505 39.3906 64.0505C39.3906 64.0505 31.6821 63.2272 30.6095 68.7745C29.5088 74.4632 40.9661 76.615 42.5662 79.9717C45.1263 85.3423 36.9395 85.8582 36.9395 85.8582C45.7628 86.268 47.8904 80.7419 45.8543 77.4241L45.8508 77.4276Z" fill="white"/>
<path opacity="0.5" fill-rule="evenodd" clip-rule="evenodd" d="M32.1746 77.7453C32.1324 78.5933 32.1218 79.3671 32.2132 80.0843C32.3047 80.7981 32.5086 81.4305 32.8568 81.9711C33.0326 82.2397 33.2331 82.4976 33.4757 82.7343C33.7219 82.9675 33.9892 83.2007 34.2916 83.4092C34.4358 83.5258 34.6011 83.6141 34.7558 83.7272C34.9176 83.8297 35.0828 83.9286 35.2516 84.0381C35.424 84.1371 35.5963 84.2395 35.7721 84.3491C35.9515 84.448 36.1308 84.5575 36.3102 84.6812C36.0394 84.7271 35.7651 84.7519 35.4908 84.7519C34.907 84.7519 34.3232 84.6459 33.7535 84.4409L33.4406 84.3208C33.3386 84.2749 33.2401 84.2183 33.1381 84.1689L32.9869 84.0876C32.9377 84.0593 32.892 84.024 32.8427 83.9922C32.7478 83.9286 32.6493 83.865 32.5544 83.7943C32.1851 83.5117 31.851 83.1583 31.5943 82.752C31.3341 82.3457 31.1618 81.8899 31.0703 81.427C30.9824 80.9641 30.9789 80.4977 31.0457 80.0561C31.1125 79.6109 31.2462 79.1904 31.4325 78.7982C31.6224 78.4095 31.8545 78.0421 32.171 77.7453H32.1746ZM41.1104 65.0288C41.6942 65.0288 42.2779 65.1348 42.8476 65.3397L43.1606 65.4634C43.2626 65.5093 43.3611 65.5659 43.4631 65.6153L43.6143 65.6931C43.6635 65.7213 43.7092 65.7567 43.7585 65.7885C43.8534 65.8521 43.9519 65.9121 44.0433 65.9863C44.4126 66.269 44.7466 66.6223 45.0034 67.0287C45.2636 67.435 45.4359 67.8908 45.5273 68.3537C45.6153 68.8165 45.6188 69.2829 45.552 69.7246C45.4851 70.1663 45.3515 70.5903 45.1686 70.9825C44.9787 71.3711 44.7466 71.7351 44.4301 72.0354C44.4723 71.1874 44.4829 70.4136 44.3915 69.6963C44.3 68.9826 44.0961 68.3501 43.7479 67.8095C43.5721 67.541 43.3716 67.2831 43.129 67.0463C42.8793 66.8131 42.6155 66.5799 42.3131 66.3715C42.1689 66.2549 42.0036 66.1665 41.8489 66.0535C41.6871 65.951 41.5219 65.8521 41.3531 65.7425C41.1807 65.6436 41.0084 65.5411 40.8326 65.4316C40.6532 65.3327 40.4739 65.2231 40.2945 65.0995C40.5653 65.0535 40.8396 65.0288 41.1139 65.0288H41.1104Z" fill="white"/>
<path fill-rule="evenodd" clip-rule="evenodd" d="M98.2698 72.0182C101.108 72.0182 103.285 74.5657 103.285 77.6079C103.285 80.6501 101.108 83.1976 98.2698 83.1976C96.8842 83.1976 95.8011 82.5334 95.2665 81.8832L95.1751 81.7631V87.4376H92.2492V72.2549H95.1751V73.4527C95.6674 72.7672 96.7963 72.0182 98.2698 72.0182ZM71.9545 67.499C75.2215 67.499 77.1627 69.8558 77.2682 72.1242H74.1947C73.8535 70.838 72.8513 70.3681 71.9545 70.3681C70.8644 70.3681 70.0133 70.884 69.9922 71.7814C69.9711 72.7248 70.6534 73.2372 71.8912 73.6011L73.6636 74.0922C76.1183 74.7777 77.5918 76.3394 77.5918 78.6962C77.5918 81.2861 75.4993 83.2153 72.3203 83.2153C68.6911 83.2153 66.6233 80.7526 66.4932 78.2474H69.5878C69.8023 79.6184 70.9769 80.3462 72.3203 80.3462C73.5581 80.3462 74.476 79.7668 74.476 78.8057C74.476 77.993 73.8993 77.3712 72.4504 76.9648L70.8503 76.4949C68.459 75.8094 66.9011 74.3113 66.88 71.997C66.8589 69.1915 68.9302 67.499 71.9581 67.499H71.9545ZM216.423 72.0182C219.486 72.0182 222.021 74.1629 222 78.0142L221.993 78.2934H213.669C213.796 79.5583 214.738 80.6501 216.549 80.6501C217.506 80.6501 218.35 80.2579 218.737 79.6148L218.814 79.4735H221.867C221.227 81.6359 219.113 83.1976 216.402 83.1976C213.135 83.1976 210.81 80.8409 210.81 77.5867C210.81 74.3325 213.18 72.0182 216.423 72.0182ZM172.907 72.0182C176.002 72.0182 178.52 74.4809 178.52 77.6079C178.52 80.7349 176.002 83.1976 172.907 83.1976C169.813 83.1976 167.295 80.7349 167.295 77.6079C167.295 74.4809 169.813 72.0182 172.907 72.0182ZM193.695 72.0182C195.08 72.0182 196.163 72.6824 196.677 73.3326L196.768 73.4527V72.2549H199.69V82.9609H196.768V81.7631C196.297 82.4486 195.168 83.1976 193.695 83.1976C190.857 83.1976 188.68 80.6501 188.68 77.6079C188.68 74.5657 190.857 72.0182 193.695 72.0182ZM110.35 72.0182C113.413 72.0182 115.948 74.1629 115.927 78.0142L115.92 78.2934H107.596C107.723 79.5583 108.662 80.6501 110.476 80.6501C111.433 80.6501 112.277 80.2579 112.663 79.6148L112.737 79.4735H115.79C115.15 81.6359 113.036 83.1976 110.325 83.1976C107.058 83.1976 104.733 80.8409 104.733 77.5867C104.733 74.3325 107.104 72.0182 110.346 72.0182H110.35ZM82.4975 72.2549V77.9718C82.4975 79.5795 83.0531 80.5194 84.3121 80.5194C85.5711 80.5194 86.51 79.5548 86.51 77.4772V72.2514H89.4359V82.9574H86.51V81.7348C85.9544 82.5899 84.9521 83.1906 83.5877 83.1906C81.0064 83.1906 79.5752 81.3073 79.5752 78.4594V72.2514H82.501L82.4975 72.2549ZM184.411 69.2763V72.2549H187.421V74.8236H184.411V78.6361C184.411 79.9434 184.966 80.4558 186.225 80.4558C186.696 80.4558 187.08 80.3922 187.421 80.2614V82.8514C186.953 82.9998 186.376 83.0881 185.564 83.0881C183.303 83.0881 181.488 81.8232 181.488 79.212V74.8236H179.332V72.2549H181.488V69.2763H184.411ZM206.541 69.2763V72.2549H209.551V74.8236H206.541V78.6361C206.541 79.9434 207.097 80.4558 208.355 80.4558C208.827 80.4558 209.21 80.3922 209.551 80.2614V82.8514C209.083 82.9998 208.507 83.0881 207.694 83.0881C205.433 83.0881 203.619 81.8232 203.619 79.212V74.8236H201.463V72.2549H203.619V69.2763H206.544H206.541ZM161.19 72.0182C163.771 72.0182 165.308 73.9014 165.308 76.6857V82.9609H162.386V77.1804C162.386 75.6398 161.725 74.6964 160.508 74.6964C159.164 74.6964 158.137 75.6822 158.137 77.7386V82.9644H155.212V72.2584H158.137V73.4774C158.693 72.6224 159.801 72.0217 161.19 72.0217V72.0182ZM148.403 72.0182C150.985 72.0182 152.521 73.9014 152.521 76.6857V82.9609H149.596V77.1804C149.596 75.6398 148.934 74.6964 147.718 74.6964C146.374 74.6964 145.347 75.6822 145.347 77.7386V82.9644H142.425V72.2584H145.347V73.4774C145.903 72.6224 147.011 72.0217 148.4 72.0217L148.403 72.0182ZM123.625 72.1242C123.924 72.1242 124.244 72.1454 124.606 72.2514V75.2264C124.159 75.078 123.752 74.9897 123.284 74.9897C121.898 74.9897 120.98 76.0815 120.98 77.8376V82.9574H118.055V72.2514H120.98V73.965C121.343 72.9156 122.433 72.1242 123.628 72.1242H123.625ZM134.467 67.757L141.018 82.9609H137.772L136.299 79.4912H129.853L128.379 82.9609H125.179L131.71 67.757H134.463H134.467ZM194.313 74.6964C192.713 74.6964 191.623 75.9366 191.623 77.6079C191.623 79.2792 192.713 80.5194 194.313 80.5194C195.914 80.5194 197.004 79.2792 197.004 77.6079C197.004 75.9366 195.914 74.6964 194.313 74.6964ZM97.6297 74.6964C96.0296 74.6964 94.9395 75.9366 94.9395 77.6079C94.9395 79.2792 96.0296 80.5194 97.6297 80.5194C99.2298 80.5194 100.32 79.2792 100.32 77.6079C100.32 75.9366 99.2298 74.6964 97.6297 74.6964ZM172.907 74.76C171.371 74.76 170.238 75.9578 170.238 77.6079C170.238 79.258 171.371 80.4558 172.907 80.4558C174.444 80.4558 175.556 79.258 175.556 77.6079C175.556 75.9578 174.444 74.76 172.907 74.76ZM133.081 71.8238L130.989 76.7705H135.17L133.078 71.8238H133.081ZM110.265 74.3961C108.992 74.3961 108.081 75.1063 107.754 76.184L107.705 76.3677H112.72C112.358 74.9332 111.267 74.3961 110.265 74.3961ZM216.338 74.3961C215.065 74.3961 214.154 75.1063 213.827 76.184L213.778 76.3677H218.793C218.431 74.9332 217.341 74.3961 216.338 74.3961Z" fill="black"/>
</g>
</g>
<defs>
<linearGradient id="paint0_linear_1954_616" x1="59.9315" y1="53.415" x2="16.825" y2="96.3779" gradientUnits="userSpaceOnUse">
<stop stop-color="#FF8945"/>
<stop offset="1" stop-color="#FF22A7"/>
</linearGradient>
<clipPath id="clip0_1954_616">
<rect width="211" height="106" fill="white" transform="translate(17 22)"/>
</clipPath>
</defs>
</svg>
