<svg width="241" height="150" viewBox="0 0 241 150" fill="none" xmlns="http://www.w3.org/2000/svg">
<rect x="0.5" y="0.5" width="240" height="149" rx="19.5" fill="white" stroke="#E7E7E7"/>
<path d="M70.3838 75.4148L86.5305 59.1453C87.0244 58.6478 87.3537 57.8048 87.3537 57.1553C87.3537 55.5109 86.0321 54.1704 84.3996 54.1658C84.3996 54.1658 84.3905 54.1658 84.3859 54.1658C83.5628 54.1658 82.9043 54.4975 82.2412 54.995L66.0899 71.2645L49.9432 54.995C49.4494 54.4975 48.6125 54.1658 47.9678 54.1658C46.3307 54.1612 45 55.4924 45 57.1415C45 57.1415 45 57.1507 45 57.1553C45 57.9799 45.3292 58.6478 45.8231 59.3111L61.9744 75.5806L45.8231 91.8547C45.1646 92.3522 45 93.1952 45 94.0105C45 95.655 46.3216 96.9954 47.9541 97C47.9541 97 47.9632 97 47.9678 97C48.7909 97 49.4494 96.6683 49.9432 96.1709L66.0945 79.8967L82.2458 96.1663C82.9043 96.8296 83.5765 96.9954 84.3905 96.9954C86.023 96.9954 87.3537 95.6642 87.3582 94.0197C87.3582 94.0197 87.3582 94.0105 87.3582 94.0059C87.3582 93.1768 87.029 92.5134 86.5351 92.016L70.3838 75.4148ZM150.482 75.4148C150.482 87.2024 160.044 96.8296 171.741 96.8296C183.438 96.8296 193 87.2024 193 75.4148C193 63.6272 183.443 54 171.741 54C160.039 54 150.482 63.6272 150.482 75.4148ZM156.577 75.4148C156.577 66.9484 163.336 59.9744 171.905 59.9744C180.475 59.9744 187.234 66.7825 187.234 75.4148C187.234 84.047 180.48 90.8552 171.905 90.8552C163.331 90.8552 156.591 83.8858 156.591 75.4148H156.577ZM148.996 54.4975H148.154C145.516 54.4975 142.882 55.3266 140.755 56.9895C140.426 55.6491 139.274 54.6633 137.952 54.6633C136.301 54.6633 135.149 56.0037 135.149 57.487V93.5084C135.149 95.1529 136.471 96.4933 138.103 96.4979C138.103 96.4979 138.112 96.4979 138.117 96.4979C139.754 96.4933 141.08 95.1575 141.085 93.5084V71.4441C141.085 64.1385 141.743 61.149 148.008 60.3245H149.16C150.811 60.3245 152.128 59.1637 152.128 57.5008C151.982 55.6767 150.646 54.5113 148.996 54.5113V54.4975ZM129.053 71.4349C127.723 65.4697 124.604 60.6423 119.661 57.4916C112.408 52.8438 102.846 53.1755 95.9277 58.1549C90.326 62.1394 87.029 68.9475 87.029 75.751C87.029 77.4139 87.1753 79.238 87.6875 80.8963C89.8459 89.3581 97.0984 95.8346 105.654 96.8157C108.188 97.1428 110.762 96.977 113.236 96.3183C115.381 95.8208 117.685 94.8258 119.665 93.6604C121.81 92.32 123.456 90.5051 125.102 88.5152L125.249 88.3678C126.401 86.8753 126.237 84.8808 124.92 83.8858C123.932 83.0567 122.116 82.725 120.635 84.5491C120.306 85.0466 119.976 85.3783 119.647 85.8896C118.467 87.2668 117.077 88.4415 115.527 89.3765C113.382 90.5373 110.913 91.2006 108.439 91.2006C100.034 91.0532 95.5848 85.2355 93.934 80.9055C93.6047 80.0764 93.4401 79.2426 93.2755 78.4135V77.916H123.616C127.572 77.7686 129.712 74.7607 129.053 71.4395V71.4257V71.4349ZM93.4538 71.9324V71.6007C95.1046 64.9584 101.2 59.979 108.288 59.979C115.376 59.979 121.636 65.1243 123.287 71.9324H93.4538Z" fill="#00B2D5"/>
</svg>
