<svg width="241" height="150" viewBox="0 0 241 150" fill="none" xmlns="http://www.w3.org/2000/svg">
<rect x="0.5" y="0.5" width="240" height="149" rx="19.5" fill="white" stroke="#E7E7E7"/>
<g clip-path="url(#clip0_10_2)">
<path d="M59.9377 68.6543V90H42L59.9377 68.6543Z" fill="#03363D"/>
<path d="M59.9377 61C59.9377 65.8793 55.9277 69.8305 50.9758 69.8305C46.024 69.8305 42 65.8793 42 61H59.9377Z" fill="#03363D"/>
<path d="M62.8939 89.9999C62.8939 85.1206 66.9038 81.1694 71.8557 81.1694C76.8076 81.1694 80.8175 85.1206 80.8175 89.9999H62.8985H62.8939Z" fill="#03363D"/>
<path d="M62.8939 82.3411V61H80.8315L62.8939 82.3411Z" fill="#03363D"/>
<path d="M161.591 75.2978H161.348C157.338 75.3897 154.116 78.6517 154.205 82.6351C154.205 86.8574 157.273 89.9724 162.048 89.9724C164.845 89.9724 166.636 89.0121 167.913 87.6981L165.969 85.6306C164.906 86.6184 163.479 87.156 162.02 87.1284C159.465 87.1606 158.01 85.842 157.613 83.7745H168.767C169.009 78.8355 166.337 75.2978 161.595 75.2978H161.591ZM157.609 81.4681C158.005 79.3409 159.492 78.1417 161.651 78.1417C163.959 78.1417 165.116 79.5476 165.419 81.4681H157.609Z" fill="#03363D"/>
<path d="M88.6184 86.9768L97.2165 78.3531H88.8282V75.6608H101.199V78.4128L92.6004 87.0366H101.32V89.7335H88.6184V86.9768Z" fill="#03363D"/>
<path d="M110.529 75.2978H110.286C106.276 75.3897 103.054 78.6517 103.143 82.6351C103.143 86.8574 106.211 89.9724 110.986 89.9724C113.783 89.9724 115.574 89.0121 116.851 87.6981L114.907 85.6306C113.872 86.6184 112.445 87.156 110.986 87.1284C108.43 87.1606 106.976 85.842 106.579 83.7745H117.705C117.947 78.8355 115.275 75.2978 110.533 75.2978H110.529ZM106.579 81.4681C106.976 79.3409 108.463 78.1417 110.622 78.1417C112.93 78.1417 114.086 79.5476 114.389 81.4681H106.579Z" fill="#03363D"/>
<path d="M148.278 69.1597V77.4572C147.062 76.111 145.332 75.33 143.508 75.3621C139.741 75.3621 136.337 78.1785 136.337 82.6673C136.337 87.156 139.834 89.9724 143.481 89.9724C145.336 90.0046 147.099 89.1638 148.283 87.7579V89.7059H151.323V69.1597H148.283H148.278ZM143.9 87.2158C141.438 87.2158 139.433 85.2999 139.373 82.874C139.312 80.4206 141.289 78.3531 143.779 78.2934C146.269 78.2337 148.367 80.1817 148.428 82.6351C148.428 85.1804 146.511 87.2158 143.9 87.2158Z" fill="#03363D"/>
<path d="M170.767 86.7104L173.532 85.3045C174.259 86.6231 175.691 87.3995 177.211 87.372C178.945 87.372 179.827 86.5036 179.827 85.5158C179.827 84.3764 178.157 84.1375 176.362 83.7791C173.933 83.2691 171.41 82.4927 171.41 79.5844C171.41 77.3699 173.569 75.3024 176.94 75.33C179.617 75.33 181.589 76.3775 182.713 78.0545L180.158 79.4328C179.43 78.3853 178.213 77.788 176.936 77.8156C175.295 77.8156 174.474 78.592 174.474 79.4925C174.474 80.5125 175.779 80.779 177.85 81.2292C180.19 81.7392 182.862 82.4881 182.862 85.4239C182.862 87.372 181.128 89.977 177.057 89.9448C174.078 89.977 171.979 88.8054 170.767 86.7104Z" fill="#03363D"/>
<path d="M191.101 83.4437L188.7 86.0488V89.7013H185.66V69.1597H188.7V82.6075L195.139 75.6286H198.851L193.256 81.6473L199 89.7013H195.568L191.101 83.4437Z" fill="#03363D"/>
<path d="M127.156 75.33C123.538 75.33 120.502 77.6364 120.502 81.4681V89.7013H123.603V81.854C123.603 79.5476 124.941 78.1693 127.249 78.1693C129.558 78.1693 130.686 79.5476 130.686 81.854V89.7013H133.754V81.4681C133.787 77.6364 130.747 75.33 127.161 75.33" fill="#03363D"/>
</g>
<defs>
<clipPath id="clip0_10_2">
<rect width="157" height="29" fill="white" transform="translate(42 61)"/>
</clipPath>
</defs>
</svg>
