<svg width="241" height="150" viewBox="0 0 241 150" fill="none" xmlns="http://www.w3.org/2000/svg">
<rect x="0.5" y="0.5" width="240" height="149" rx="19.5" fill="white" stroke="#E7E7E7"/>
<g clip-path="url(#clip0_0_96)">
<path d="M198 59.5276V96.6634L192.924 101.665V65.3517L198 59.5276Z" fill="#E79224"/>
<path d="M193.002 65.3517H159.389V101.712H193.002V65.3517Z" fill="url(#paint0_linear_0_96)"/>
<path d="M164.656 59.5538L159.389 65.3517H193.002L197.995 59.5276L164.651 59.5538" fill="#FEF26F"/>
<path d="M123.02 61.1475L156.088 56.5029L153.322 64.513L121.997 69.5298L122.132 63.8053L123.025 61.1475" fill="#91C9ED"/>
<path d="M153.322 64.513L157.905 97.088L125.298 101.717L120.897 70.227L122.802 68.7224L153.327 64.5182" fill="url(#paint1_linear_0_96)"/>
<path d="M156.088 56.5029L156.114 56.7021L160.401 90.0583L157.899 97.0881L153.317 64.513" fill="#0B9AD6"/>
<mask id="mask0_0_96" style="mask-type:luminance" maskUnits="userSpaceOnUse" x="81" y="58" width="44" height="44">
<path d="M95.0939 58.3691L124.369 71.7105L111.156 102L81.8862 88.6586L95.0939 58.3691Z" fill="white"/>
</mask>
<g mask="url(#mask0_0_96)">
<path d="M43 48H198V101.99H43V48Z" fill="url(#paint2_linear_0_96)"/>
</g>
<path d="M92.0528 48L95.0939 58.3691L124.369 71.7105L121.909 61.8027L92.0528 48Z" fill="#98D0A0"/>
<path d="M92.0528 48L80.2722 76.245L81.8862 88.6586L95.0939 58.3691L92.0528 48Z" fill="#68BF6B"/>
<path d="M75.7209 64.4658L80.5473 96.5219L48.1949 101.644L43 69.5297L75.7209 64.471" fill="url(#paint3_linear_0_96)"/>
<path d="M43 69.5245L45.2731 58.0808L77.9369 52.7914L75.7209 64.4658L43 69.5245Z" fill="#EF463D"/>
<path d="M77.9369 52.7914L82.727 85.1568L80.5473 96.5166L75.7209 64.4605L77.9369 52.7861" fill="#761116"/>
<path d="M147.774 70.7564C147.629 69.7447 147.287 68.9741 146.731 68.4656C146.29 68.0619 145.735 67.8575 145.107 67.8575C144.946 67.8575 144.78 67.8732 144.609 67.8942C143.763 68.0147 143.114 68.4132 142.714 69.0684C142.424 69.5402 142.284 70.1116 142.284 70.7669C142.284 71.0185 142.304 71.2806 142.346 71.5585L143.534 80.0351L134.162 81.4296L132.973 72.9529C132.828 71.9674 132.491 71.202 131.946 70.683C131.505 70.2637 130.955 70.0487 130.332 70.0487C130.187 70.0487 130.036 70.0592 129.88 70.0854C128.998 70.2112 128.323 70.6044 127.919 71.2492C127.623 71.7157 127.478 72.2871 127.478 72.9529C127.478 73.2098 127.498 73.4771 127.54 73.7655L130.747 95.8089C130.892 96.8207 131.245 97.5913 131.821 98.0893C132.273 98.4772 132.833 98.6712 133.482 98.6712C133.658 98.6712 133.84 98.6555 134.032 98.6292C134.842 98.5087 135.464 98.1155 135.838 97.4655C136.108 96.9989 136.238 96.4433 136.238 95.8037C136.238 95.5468 136.217 95.2795 136.175 95.0016L134.862 86.2943L144.235 84.9051L145.548 93.6125C145.693 94.6137 146.041 95.3791 146.607 95.8823C147.058 96.286 147.619 96.4852 148.252 96.4852C148.413 96.4852 148.579 96.4747 148.755 96.4485C149.596 96.3227 150.245 95.9348 150.629 95.2847C150.909 94.8234 151.039 94.2625 151.039 93.6125C151.039 93.3556 151.018 93.0882 150.976 92.8052L147.769 70.7617L147.774 70.7564ZM109.646 82.9446C108.54 85.5709 107.087 87.369 105.286 88.365C104.321 88.8997 103.33 89.1618 102.308 89.1618C101.42 89.1618 100.502 88.9626 99.5571 88.559C97.5071 87.6783 96.2305 86.2576 95.6804 84.2604C95.4936 83.5893 95.4053 82.8817 95.4053 82.1425C95.4053 80.6747 95.7686 79.0653 96.5055 77.3144C97.6317 74.6304 99.1056 72.7956 100.912 71.7891C101.877 71.2544 102.863 70.9871 103.89 70.9871C104.788 70.9871 105.717 71.1915 106.682 71.6004C108.717 72.4759 109.983 73.8965 110.523 75.9043C110.699 76.5595 110.788 77.2515 110.788 77.9802C110.788 79.4795 110.414 81.1308 109.651 82.9393L109.646 82.9446ZM112.853 69.7499C111.701 68.5232 110.305 67.5587 108.665 66.8615C107.041 66.1642 105.395 65.813 103.74 65.813H103.662C101.981 65.8235 100.315 66.2009 98.68 66.9453C96.9622 67.7002 95.4676 68.7539 94.2013 70.1116C92.935 71.4641 91.8971 73.0944 91.1031 74.9921C90.3143 76.8688 89.8783 78.7455 89.8005 80.6223C89.7901 80.8372 89.7849 81.0469 89.7849 81.2566C89.7849 82.9131 90.0652 84.5382 90.6256 86.1213C91.2224 87.7936 92.0995 89.2457 93.262 90.4671C94.4193 91.6886 95.8465 92.6584 97.5331 93.3818C99.1471 94.0738 100.787 94.4198 102.443 94.4198H102.484C104.155 94.4145 105.816 94.0476 107.456 93.3399C109.184 92.564 110.689 91.4946 111.971 90.1369C113.253 88.7844 114.291 87.1593 115.085 85.2669C115.879 83.3797 116.309 81.503 116.382 79.6315C116.387 79.4532 116.392 79.2698 116.392 79.0915C116.392 77.4088 116.097 75.7627 115.51 74.1534C114.887 72.4392 114 70.9714 112.848 69.7447L112.853 69.7499ZM72.249 91.416C71.9947 91.1067 71.6522 90.8813 71.2318 90.7345C70.8011 90.5825 70.2821 90.5091 69.6697 90.5091C69.0937 90.5091 68.4346 90.572 67.6873 90.703L59.1503 92.1761C59.2385 91.5103 59.5654 90.6401 60.1415 89.5707C60.785 88.3755 61.7347 86.9444 62.9854 85.2773C63.4162 84.6955 63.7431 84.2551 63.9715 83.9458C64.1324 83.7414 64.3607 83.4426 64.6565 83.0442C66.6078 80.4545 67.817 78.3471 68.2841 76.6958C68.5488 75.7575 68.7096 74.8139 68.7667 73.8598C68.7823 73.5977 68.7875 73.3408 68.7875 73.084C68.7875 72.4025 68.7304 71.7315 68.6214 71.071C68.5176 70.4681 68.3723 69.9701 68.1751 69.5664C67.9779 69.1628 67.7288 68.8587 67.4226 68.67C67.0749 68.4551 66.5871 68.366 65.9435 68.366C65.4142 68.366 64.7811 68.4289 64.0389 68.5599L54.1734 70.2637C52.9797 70.4681 52.0975 70.8246 51.5318 71.3593C51.0855 71.7839 50.852 72.3343 50.8572 72.9634C50.8572 73.1259 50.8727 73.2989 50.9039 73.4719C51.044 74.3211 51.4799 74.9397 52.1857 75.2542C52.6009 75.443 53.1043 75.5321 53.6907 75.5321C54.0903 75.5321 54.5315 75.4901 55.0089 75.4063L63.2657 74.0013C63.2812 74.1481 63.2916 74.2949 63.2916 74.4417C63.2916 74.9607 63.2034 75.4744 63.0218 75.9724C62.7778 76.6644 62.1655 77.6499 61.1898 78.9028C60.9148 79.2436 60.4892 79.7783 59.9183 80.5017C57.692 83.2276 56.0935 85.5499 55.1283 87.4843C54.4432 88.8158 53.9658 90.1264 53.7063 91.416C53.5558 92.1708 53.478 92.889 53.478 93.5862C53.478 94.0843 53.5195 94.5613 53.5973 95.0279C53.7115 95.6936 53.8724 96.244 54.0955 96.6791C54.3135 97.1143 54.5937 97.4393 54.9414 97.628C55.2632 97.8062 55.7355 97.8744 56.3894 97.8744C57.2145 97.8744 58.3303 97.7538 59.7367 97.5074L68.6889 95.961C70.2769 95.6831 71.3771 95.3057 72.0155 94.771C72.5292 94.3464 72.7939 93.7645 72.7887 93.0777C72.7887 92.9048 72.7732 92.7265 72.742 92.5378C72.6694 92.0922 72.5033 91.7095 72.249 91.4002V91.416ZM180.962 90.4147C179.675 91.9874 177.942 92.7685 175.7 92.7685C173.448 92.7685 171.704 91.9874 170.412 90.4252C169.119 88.8578 168.466 86.7085 168.466 83.9458C168.466 81.1308 169.119 78.9448 170.401 77.3668C171.688 75.7889 173.437 75.0079 175.7 75.0026C177.937 75.0026 179.67 75.7889 180.962 77.3668C182.249 78.9448 182.898 81.1308 182.898 83.9458C182.898 86.7609 182.249 88.8473 180.962 90.4147ZM187.875 78.4363C187.211 76.7483 186.225 75.2333 184.922 73.8965C183.676 72.6122 182.275 71.6424 180.729 70.9923C179.182 70.3423 177.506 70.0173 175.71 70.0173C173.899 70.0173 172.207 70.3423 170.65 70.9923C169.088 71.6424 167.692 72.6122 166.457 73.8965C165.155 75.2175 164.174 76.7273 163.525 78.4153C162.876 80.1033 162.549 81.9485 162.549 83.9406C162.549 85.9326 162.876 87.7464 163.535 89.4449C164.194 91.1434 165.17 92.6741 166.457 94.0213C167.666 95.2847 169.052 96.2336 170.604 96.8784C172.155 97.5231 173.863 97.8429 175.71 97.8429C177.558 97.8429 179.167 97.5231 180.718 96.8784C182.27 96.2336 183.676 95.2795 184.922 94.0213C186.225 92.6741 187.211 91.1486 187.875 89.4554C188.539 87.7622 188.871 85.9221 188.871 83.9406C188.871 81.959 188.539 80.1243 187.875 78.4363Z" fill="white"/>
</g>
<defs>
<linearGradient id="paint0_linear_0_96" x1="166.951" y1="62.4301" x2="166.951" y2="97.1812" gradientUnits="userSpaceOnUse">
<stop stop-color="#FFE500"/>
<stop offset="1" stop-color="#FCB822"/>
</linearGradient>
<linearGradient id="paint1_linear_0_96" x1="121.648" y1="59.2544" x2="155.638" y2="86.2802" gradientUnits="userSpaceOnUse">
<stop stop-color="#168CCC"/>
<stop offset="1" stop-color="#00649E"/>
</linearGradient>
<linearGradient id="paint2_linear_0_96" x1="122.318" y1="71.2807" x2="122.318" y2="101.723" gradientUnits="userSpaceOnUse">
<stop stop-color="#25A149"/>
<stop offset="1" stop-color="#008A52"/>
</linearGradient>
<linearGradient id="paint3_linear_0_96" x1="63.4355" y1="79.7605" x2="68.7233" y2="111.347" gradientUnits="userSpaceOnUse">
<stop stop-color="#D92231"/>
<stop offset="1" stop-color="#BA2234"/>
</linearGradient>
<clipPath id="clip0_0_96">
<rect width="155" height="54" fill="white" transform="translate(43 48)"/>
</clipPath>
</defs>
</svg>
